G04 #@! TF.GenerationSoftware,KiCad,Pcbnew,(6.0.7)*
G04 #@! TF.CreationDate,2022-10-10T17:08:23+03:00*
G04 #@! TF.ProjectId,DiLight_2.0,44694c69-6768-4745-9f32-2e302e6b6963,rev?*
G04 #@! TF.SameCoordinates,Original*
G04 #@! TF.FileFunction,Legend,Bot*
G04 #@! TF.FilePolarity,Positive*
%FSLAX46Y46*%
G04 Gerber Fmt 4.6, Leading zero omitted, Abs format (unit mm)*
G04 Created by KiCad (PCBNEW (6.0.7)) date 2022-10-10 17:08:23*
%MOMM*%
%LPD*%
G01*
G04 APERTURE LIST*
G04 Aperture macros list*
%AMRoundRect*
0 Rectangle with rounded corners*
0 $1 Rounding radius*
0 $2 $3 $4 $5 $6 $7 $8 $9 X,Y pos of 4 corners*
0 Add a 4 corners polygon primitive as box body*
4,1,4,$2,$3,$4,$5,$6,$7,$8,$9,$2,$3,0*
0 Add four circle primitives for the rounded corners*
1,1,$1+$1,$2,$3*
1,1,$1+$1,$4,$5*
1,1,$1+$1,$6,$7*
1,1,$1+$1,$8,$9*
0 Add four rect primitives between the rounded corners*
20,1,$1+$1,$2,$3,$4,$5,0*
20,1,$1+$1,$4,$5,$6,$7,0*
20,1,$1+$1,$6,$7,$8,$9,0*
20,1,$1+$1,$8,$9,$2,$3,0*%
G04 Aperture macros list end*
%ADD10C,0.800000*%
%ADD11C,0.150000*%
%ADD12C,0.120000*%
%ADD13R,1.700000X1.700000*%
%ADD14O,1.700000X1.700000*%
%ADD15C,2.200000*%
%ADD16C,2.600000*%
%ADD17RoundRect,0.250000X0.350000X0.450000X-0.350000X0.450000X-0.350000X-0.450000X0.350000X-0.450000X0*%
%ADD18R,0.800000X1.900000*%
G04 APERTURE END LIST*
D10*
X40005000Y-38100000D02*
X40005000Y-39370000D01*
X40640000Y-43815000D02*
X39370000Y-43815000D01*
X31115000Y-38100000D02*
X31115000Y-39370000D01*
X31115000Y-43180000D02*
X31115000Y-44450000D01*
X40005000Y-43180000D02*
X40005000Y-44450000D01*
X30480000Y-43815000D02*
X31750000Y-43815000D01*
D11*
X25120000Y-20020000D02*
X46020000Y-20020000D01*
X20520000Y-35220000D02*
X50620000Y-35220000D01*
X26479285Y-34742380D02*
X27050714Y-34742380D01*
X26765000Y-34742380D02*
X26765000Y-33742380D01*
X26860238Y-33885238D01*
X26955476Y-33980476D01*
X27050714Y-34028095D01*
X26098333Y-33837619D02*
X26050714Y-33790000D01*
X25955476Y-33742380D01*
X25717380Y-33742380D01*
X25622142Y-33790000D01*
X25574523Y-33837619D01*
X25526904Y-33932857D01*
X25526904Y-34028095D01*
X25574523Y-34170952D01*
X26145952Y-34742380D01*
X25526904Y-34742380D01*
X25193571Y-34075714D02*
X24955476Y-34742380D01*
X24717380Y-34075714D01*
X23574523Y-34742380D02*
X23574523Y-33742380D01*
X23098333Y-34742380D02*
X23098333Y-33742380D01*
X22526904Y-34742380D01*
X22526904Y-33742380D01*
X50077619Y-45894047D02*
X49363333Y-45894047D01*
X49220476Y-45941666D01*
X49125238Y-46036904D01*
X49077619Y-46179761D01*
X49077619Y-46275000D01*
X49077619Y-44941666D02*
X49077619Y-45417857D01*
X50077619Y-45417857D01*
X49172857Y-44036904D02*
X49125238Y-44084523D01*
X49077619Y-44227380D01*
X49077619Y-44322619D01*
X49125238Y-44465476D01*
X49220476Y-44560714D01*
X49315714Y-44608333D01*
X49506190Y-44655952D01*
X49649047Y-44655952D01*
X49839523Y-44608333D01*
X49934761Y-44560714D01*
X50030000Y-44465476D01*
X50077619Y-44322619D01*
X50077619Y-44227380D01*
X50030000Y-44084523D01*
X49982380Y-44036904D01*
X50077619Y-43322619D02*
X49363333Y-43322619D01*
X49220476Y-43370238D01*
X49125238Y-43465476D01*
X49077619Y-43608333D01*
X49077619Y-43703571D01*
X49077619Y-42370238D02*
X49077619Y-42846428D01*
X50077619Y-42846428D01*
X49172857Y-41465476D02*
X49125238Y-41513095D01*
X49077619Y-41655952D01*
X49077619Y-41751190D01*
X49125238Y-41894047D01*
X49220476Y-41989285D01*
X49315714Y-42036904D01*
X49506190Y-42084523D01*
X49649047Y-42084523D01*
X49839523Y-42036904D01*
X49934761Y-41989285D01*
X50030000Y-41894047D01*
X50077619Y-41751190D01*
X50077619Y-41655952D01*
X50030000Y-41513095D01*
X49982380Y-41465476D01*
X50077619Y-40751190D02*
X49363333Y-40751190D01*
X49220476Y-40798809D01*
X49125238Y-40894047D01*
X49077619Y-41036904D01*
X49077619Y-41132142D01*
X49077619Y-39798809D02*
X49077619Y-40275000D01*
X50077619Y-40275000D01*
X49172857Y-38894047D02*
X49125238Y-38941666D01*
X49077619Y-39084523D01*
X49077619Y-39179761D01*
X49125238Y-39322619D01*
X49220476Y-39417857D01*
X49315714Y-39465476D01*
X49506190Y-39513095D01*
X49649047Y-39513095D01*
X49839523Y-39465476D01*
X49934761Y-39417857D01*
X50030000Y-39322619D01*
X50077619Y-39179761D01*
X50077619Y-39084523D01*
X50030000Y-38941666D01*
X49982380Y-38894047D01*
X50077619Y-38179761D02*
X49363333Y-38179761D01*
X49220476Y-38227380D01*
X49125238Y-38322619D01*
X49077619Y-38465476D01*
X49077619Y-38560714D01*
X49077619Y-37227380D02*
X49077619Y-37703571D01*
X50077619Y-37703571D01*
X49172857Y-36322619D02*
X49125238Y-36370238D01*
X49077619Y-36513095D01*
X49077619Y-36608333D01*
X49125238Y-36751190D01*
X49220476Y-36846428D01*
X49315714Y-36894047D01*
X49506190Y-36941666D01*
X49649047Y-36941666D01*
X49839523Y-36894047D01*
X49934761Y-36846428D01*
X50030000Y-36751190D01*
X50077619Y-36608333D01*
X50077619Y-36513095D01*
X50030000Y-36370238D01*
X49982380Y-36322619D01*
X40393333Y-23650476D02*
X40488571Y-23602857D01*
X40679047Y-23602857D01*
X40774285Y-23650476D01*
X40869523Y-23745714D01*
X40917142Y-23840952D01*
X40917142Y-24031428D01*
X40869523Y-24126666D01*
X40774285Y-24221904D01*
X40679047Y-24269523D01*
X40488571Y-24269523D01*
X40393333Y-24221904D01*
X40583809Y-23269523D02*
X40821904Y-23317142D01*
X41060000Y-23460000D01*
X41202857Y-23698095D01*
X41250476Y-23936190D01*
X41202857Y-24174285D01*
X41060000Y-24412380D01*
X40821904Y-24555238D01*
X40583809Y-24602857D01*
X40345714Y-24555238D01*
X40107619Y-24412380D01*
X39964761Y-24174285D01*
X39917142Y-23936190D01*
X39964761Y-23698095D01*
X40107619Y-23460000D01*
X40345714Y-23317142D01*
X40583809Y-23269523D01*
X39536190Y-24126666D02*
X39060000Y-24126666D01*
X39631428Y-24412380D02*
X39298095Y-23412380D01*
X38964761Y-24412380D01*
X38631428Y-23745714D02*
X38631428Y-24412380D01*
X38631428Y-23840952D02*
X38583809Y-23793333D01*
X38488571Y-23745714D01*
X38345714Y-23745714D01*
X38250476Y-23793333D01*
X38202857Y-23888571D01*
X38202857Y-24412380D01*
X37869523Y-23745714D02*
X37488571Y-23745714D01*
X37726666Y-23412380D02*
X37726666Y-24269523D01*
X37679047Y-24364761D01*
X37583809Y-24412380D01*
X37488571Y-24412380D01*
X37012380Y-24412380D02*
X37107619Y-24364761D01*
X37155238Y-24317142D01*
X37202857Y-24221904D01*
X37202857Y-23936190D01*
X37155238Y-23840952D01*
X37107619Y-23793333D01*
X37012380Y-23745714D01*
X36869523Y-23745714D01*
X36774285Y-23793333D01*
X36726666Y-23840952D01*
X36679047Y-23936190D01*
X36679047Y-24221904D01*
X36726666Y-24317142D01*
X36774285Y-24364761D01*
X36869523Y-24412380D01*
X37012380Y-24412380D01*
X36250476Y-23745714D02*
X36250476Y-24412380D01*
X36250476Y-23840952D02*
X36202857Y-23793333D01*
X36107619Y-23745714D01*
X35964761Y-23745714D01*
X35869523Y-23793333D01*
X35821904Y-23888571D01*
X35821904Y-24412380D01*
X34583809Y-24412380D02*
X34583809Y-23412380D01*
X34250476Y-24126666D01*
X33917142Y-23412380D01*
X33917142Y-24412380D01*
X33012380Y-23745714D02*
X33012380Y-24412380D01*
X33440952Y-23745714D02*
X33440952Y-24269523D01*
X33393333Y-24364761D01*
X33298095Y-24412380D01*
X33155238Y-24412380D01*
X33060000Y-24364761D01*
X33012380Y-24317142D01*
X32536190Y-24412380D02*
X32536190Y-23412380D01*
X32440952Y-24031428D02*
X32155238Y-24412380D01*
X32155238Y-23745714D02*
X32536190Y-24126666D01*
X31726666Y-24412380D02*
X31726666Y-23412380D01*
X31298095Y-24412380D02*
X31298095Y-23888571D01*
X31345714Y-23793333D01*
X31440952Y-23745714D01*
X31583809Y-23745714D01*
X31679047Y-23793333D01*
X31726666Y-23840952D01*
X30821904Y-24412380D02*
X30821904Y-23745714D01*
X30821904Y-23412380D02*
X30869523Y-23460000D01*
X30821904Y-23507619D01*
X30774285Y-23460000D01*
X30821904Y-23412380D01*
X30821904Y-23507619D01*
X30345714Y-23745714D02*
X30345714Y-24412380D01*
X30345714Y-23840952D02*
X30298095Y-23793333D01*
X30202857Y-23745714D01*
X30060000Y-23745714D01*
X29964761Y-23793333D01*
X29917142Y-23888571D01*
X29917142Y-24412380D01*
X40298095Y-25022380D02*
X40107619Y-25022380D01*
X40012380Y-25070000D01*
X39917142Y-25165238D01*
X39869523Y-25355714D01*
X39869523Y-25689047D01*
X39917142Y-25879523D01*
X40012380Y-25974761D01*
X40107619Y-26022380D01*
X40298095Y-26022380D01*
X40393333Y-25974761D01*
X40488571Y-25879523D01*
X40536190Y-25689047D01*
X40536190Y-25355714D01*
X40488571Y-25165238D01*
X40393333Y-25070000D01*
X40298095Y-25022380D01*
X39012380Y-25974761D02*
X39107619Y-26022380D01*
X39298095Y-26022380D01*
X39393333Y-25974761D01*
X39440952Y-25927142D01*
X39488571Y-25831904D01*
X39488571Y-25546190D01*
X39440952Y-25450952D01*
X39393333Y-25403333D01*
X39298095Y-25355714D01*
X39107619Y-25355714D01*
X39012380Y-25403333D01*
X38726666Y-25355714D02*
X38345714Y-25355714D01*
X38583809Y-25022380D02*
X38583809Y-25879523D01*
X38536190Y-25974761D01*
X38440952Y-26022380D01*
X38345714Y-26022380D01*
X37869523Y-26022380D02*
X37964761Y-25974761D01*
X38012380Y-25927142D01*
X38060000Y-25831904D01*
X38060000Y-25546190D01*
X38012380Y-25450952D01*
X37964761Y-25403333D01*
X37869523Y-25355714D01*
X37726666Y-25355714D01*
X37631428Y-25403333D01*
X37583809Y-25450952D01*
X37536190Y-25546190D01*
X37536190Y-25831904D01*
X37583809Y-25927142D01*
X37631428Y-25974761D01*
X37726666Y-26022380D01*
X37869523Y-26022380D01*
X37107619Y-26022380D02*
X37107619Y-25022380D01*
X37107619Y-25403333D02*
X37012380Y-25355714D01*
X36821904Y-25355714D01*
X36726666Y-25403333D01*
X36679047Y-25450952D01*
X36631428Y-25546190D01*
X36631428Y-25831904D01*
X36679047Y-25927142D01*
X36726666Y-25974761D01*
X36821904Y-26022380D01*
X37012380Y-26022380D01*
X37107619Y-25974761D01*
X35821904Y-25974761D02*
X35917142Y-26022380D01*
X36107619Y-26022380D01*
X36202857Y-25974761D01*
X36250476Y-25879523D01*
X36250476Y-25498571D01*
X36202857Y-25403333D01*
X36107619Y-25355714D01*
X35917142Y-25355714D01*
X35821904Y-25403333D01*
X35774285Y-25498571D01*
X35774285Y-25593809D01*
X36250476Y-25689047D01*
X35345714Y-26022380D02*
X35345714Y-25355714D01*
X35345714Y-25546190D02*
X35298095Y-25450952D01*
X35250476Y-25403333D01*
X35155238Y-25355714D01*
X35060000Y-25355714D01*
X34012380Y-25117619D02*
X33964761Y-25070000D01*
X33869523Y-25022380D01*
X33631428Y-25022380D01*
X33536190Y-25070000D01*
X33488571Y-25117619D01*
X33440952Y-25212857D01*
X33440952Y-25308095D01*
X33488571Y-25450952D01*
X34060000Y-26022380D01*
X33440952Y-26022380D01*
X32821904Y-25022380D02*
X32726666Y-25022380D01*
X32631428Y-25070000D01*
X32583809Y-25117619D01*
X32536190Y-25212857D01*
X32488571Y-25403333D01*
X32488571Y-25641428D01*
X32536190Y-25831904D01*
X32583809Y-25927142D01*
X32631428Y-25974761D01*
X32726666Y-26022380D01*
X32821904Y-26022380D01*
X32917142Y-25974761D01*
X32964761Y-25927142D01*
X33012380Y-25831904D01*
X33060000Y-25641428D01*
X33060000Y-25403333D01*
X33012380Y-25212857D01*
X32964761Y-25117619D01*
X32917142Y-25070000D01*
X32821904Y-25022380D01*
X32107619Y-25117619D02*
X32060000Y-25070000D01*
X31964761Y-25022380D01*
X31726666Y-25022380D01*
X31631428Y-25070000D01*
X31583809Y-25117619D01*
X31536190Y-25212857D01*
X31536190Y-25308095D01*
X31583809Y-25450952D01*
X32155238Y-26022380D01*
X31536190Y-26022380D01*
X31155238Y-25117619D02*
X31107619Y-25070000D01*
X31012380Y-25022380D01*
X30774285Y-25022380D01*
X30679047Y-25070000D01*
X30631428Y-25117619D01*
X30583809Y-25212857D01*
X30583809Y-25308095D01*
X30631428Y-25450952D01*
X31202857Y-26022380D01*
X30583809Y-26022380D01*
X47402619Y-34742380D02*
X47878809Y-34742380D01*
X47878809Y-33742380D01*
X47069285Y-34218571D02*
X46735952Y-34218571D01*
X46593095Y-34742380D02*
X47069285Y-34742380D01*
X47069285Y-33742380D01*
X46593095Y-33742380D01*
X46164523Y-34742380D02*
X46164523Y-33742380D01*
X45926428Y-33742380D01*
X45783571Y-33790000D01*
X45688333Y-33885238D01*
X45640714Y-33980476D01*
X45593095Y-34170952D01*
X45593095Y-34313809D01*
X45640714Y-34504285D01*
X45688333Y-34599523D01*
X45783571Y-34694761D01*
X45926428Y-34742380D01*
X46164523Y-34742380D01*
X45212142Y-34694761D02*
X45116904Y-34742380D01*
X44926428Y-34742380D01*
X44831190Y-34694761D01*
X44783571Y-34599523D01*
X44783571Y-34551904D01*
X44831190Y-34456666D01*
X44926428Y-34409047D01*
X45069285Y-34409047D01*
X45164523Y-34361428D01*
X45212142Y-34266190D01*
X45212142Y-34218571D01*
X45164523Y-34123333D01*
X45069285Y-34075714D01*
X44926428Y-34075714D01*
X44831190Y-34123333D01*
X37893333Y-33302380D02*
X37893333Y-32302380D01*
X37655238Y-32302380D01*
X37512380Y-32350000D01*
X37417142Y-32445238D01*
X37369523Y-32540476D01*
X37321904Y-32730952D01*
X37321904Y-32873809D01*
X37369523Y-33064285D01*
X37417142Y-33159523D01*
X37512380Y-33254761D01*
X37655238Y-33302380D01*
X37893333Y-33302380D01*
X36893333Y-33302380D02*
X36893333Y-32635714D01*
X36893333Y-32302380D02*
X36940952Y-32350000D01*
X36893333Y-32397619D01*
X36845714Y-32350000D01*
X36893333Y-32302380D01*
X36893333Y-32397619D01*
X35940952Y-33302380D02*
X36417142Y-33302380D01*
X36417142Y-32302380D01*
X35607619Y-33302380D02*
X35607619Y-32635714D01*
X35607619Y-32302380D02*
X35655238Y-32350000D01*
X35607619Y-32397619D01*
X35560000Y-32350000D01*
X35607619Y-32302380D01*
X35607619Y-32397619D01*
X34702857Y-32635714D02*
X34702857Y-33445238D01*
X34750476Y-33540476D01*
X34798095Y-33588095D01*
X34893333Y-33635714D01*
X35036190Y-33635714D01*
X35131428Y-33588095D01*
X34702857Y-33254761D02*
X34798095Y-33302380D01*
X34988571Y-33302380D01*
X35083809Y-33254761D01*
X35131428Y-33207142D01*
X35179047Y-33111904D01*
X35179047Y-32826190D01*
X35131428Y-32730952D01*
X35083809Y-32683333D01*
X34988571Y-32635714D01*
X34798095Y-32635714D01*
X34702857Y-32683333D01*
X34226666Y-33302380D02*
X34226666Y-32302380D01*
X33798095Y-33302380D02*
X33798095Y-32778571D01*
X33845714Y-32683333D01*
X33940952Y-32635714D01*
X34083809Y-32635714D01*
X34179047Y-32683333D01*
X34226666Y-32730952D01*
X33464761Y-32635714D02*
X33083809Y-32635714D01*
X33321904Y-32302380D02*
X33321904Y-33159523D01*
X33274285Y-33254761D01*
X33179047Y-33302380D01*
X33083809Y-33302380D01*
X38250476Y-34912380D02*
X38250476Y-34245714D01*
X38250476Y-34436190D02*
X38202857Y-34340952D01*
X38155238Y-34293333D01*
X38060000Y-34245714D01*
X37964761Y-34245714D01*
X37250476Y-34864761D02*
X37345714Y-34912380D01*
X37536190Y-34912380D01*
X37631428Y-34864761D01*
X37679047Y-34769523D01*
X37679047Y-34388571D01*
X37631428Y-34293333D01*
X37536190Y-34245714D01*
X37345714Y-34245714D01*
X37250476Y-34293333D01*
X37202857Y-34388571D01*
X37202857Y-34483809D01*
X37679047Y-34579047D01*
X36869523Y-34245714D02*
X36631428Y-34912380D01*
X36393333Y-34245714D01*
X36012380Y-34817142D02*
X35964761Y-34864761D01*
X36012380Y-34912380D01*
X36060000Y-34864761D01*
X36012380Y-34817142D01*
X36012380Y-34912380D01*
X34821904Y-34007619D02*
X34774285Y-33960000D01*
X34679047Y-33912380D01*
X34440952Y-33912380D01*
X34345714Y-33960000D01*
X34298095Y-34007619D01*
X34250476Y-34102857D01*
X34250476Y-34198095D01*
X34298095Y-34340952D01*
X34869523Y-34912380D01*
X34250476Y-34912380D01*
X33821904Y-34817142D02*
X33774285Y-34864761D01*
X33821904Y-34912380D01*
X33869523Y-34864761D01*
X33821904Y-34817142D01*
X33821904Y-34912380D01*
X33155238Y-33912380D02*
X33060000Y-33912380D01*
X32964761Y-33960000D01*
X32917142Y-34007619D01*
X32869523Y-34102857D01*
X32821904Y-34293333D01*
X32821904Y-34531428D01*
X32869523Y-34721904D01*
X32917142Y-34817142D01*
X32964761Y-34864761D01*
X33060000Y-34912380D01*
X33155238Y-34912380D01*
X33250476Y-34864761D01*
X33298095Y-34817142D01*
X33345714Y-34721904D01*
X33393333Y-34531428D01*
X33393333Y-34293333D01*
X33345714Y-34102857D01*
X33298095Y-34007619D01*
X33250476Y-33960000D01*
X33155238Y-33912380D01*
X35140000Y-21238333D02*
X35040000Y-21271666D01*
X34873333Y-21271666D01*
X34806666Y-21238333D01*
X34773333Y-21205000D01*
X34740000Y-21138333D01*
X34740000Y-21071666D01*
X34773333Y-21005000D01*
X34806666Y-20971666D01*
X34873333Y-20938333D01*
X35006666Y-20905000D01*
X35073333Y-20871666D01*
X35106666Y-20838333D01*
X35140000Y-20771666D01*
X35140000Y-20705000D01*
X35106666Y-20638333D01*
X35073333Y-20605000D01*
X35006666Y-20571666D01*
X34840000Y-20571666D01*
X34740000Y-20605000D01*
X34440000Y-21271666D02*
X34440000Y-20571666D01*
X34273333Y-20571666D01*
X34173333Y-20605000D01*
X34106666Y-20671666D01*
X34073333Y-20738333D01*
X34040000Y-20871666D01*
X34040000Y-20971666D01*
X34073333Y-21105000D01*
X34106666Y-21171666D01*
X34173333Y-21238333D01*
X34273333Y-21271666D01*
X34440000Y-21271666D01*
X33773333Y-21071666D02*
X33440000Y-21071666D01*
X33840000Y-21271666D02*
X33606666Y-20571666D01*
X33373333Y-21271666D01*
X30043333Y-20571666D02*
X29610000Y-20571666D01*
X29843333Y-20838333D01*
X29743333Y-20838333D01*
X29676666Y-20871666D01*
X29643333Y-20905000D01*
X29610000Y-20971666D01*
X29610000Y-21138333D01*
X29643333Y-21205000D01*
X29676666Y-21238333D01*
X29743333Y-21271666D01*
X29943333Y-21271666D01*
X30010000Y-21238333D01*
X30043333Y-21205000D01*
X29376666Y-20805000D02*
X29210000Y-21271666D01*
X29043333Y-20805000D01*
X28843333Y-20571666D02*
X28410000Y-20571666D01*
X28643333Y-20838333D01*
X28543333Y-20838333D01*
X28476666Y-20871666D01*
X28443333Y-20905000D01*
X28410000Y-20971666D01*
X28410000Y-21138333D01*
X28443333Y-21205000D01*
X28476666Y-21238333D01*
X28543333Y-21271666D01*
X28743333Y-21271666D01*
X28810000Y-21238333D01*
X28843333Y-21205000D01*
X40003333Y-21271666D02*
X40003333Y-20571666D01*
X39670000Y-21271666D02*
X39670000Y-20571666D01*
X39270000Y-21271666D01*
X39270000Y-20571666D01*
X39036666Y-20571666D02*
X38636666Y-20571666D01*
X38836666Y-21271666D02*
X38836666Y-20571666D01*
X37663333Y-21238333D02*
X37563333Y-21271666D01*
X37396666Y-21271666D01*
X37330000Y-21238333D01*
X37296666Y-21205000D01*
X37263333Y-21138333D01*
X37263333Y-21071666D01*
X37296666Y-21005000D01*
X37330000Y-20971666D01*
X37396666Y-20938333D01*
X37530000Y-20905000D01*
X37596666Y-20871666D01*
X37630000Y-20838333D01*
X37663333Y-20771666D01*
X37663333Y-20705000D01*
X37630000Y-20638333D01*
X37596666Y-20605000D01*
X37530000Y-20571666D01*
X37363333Y-20571666D01*
X37263333Y-20605000D01*
X36563333Y-21205000D02*
X36596666Y-21238333D01*
X36696666Y-21271666D01*
X36763333Y-21271666D01*
X36863333Y-21238333D01*
X36930000Y-21171666D01*
X36963333Y-21105000D01*
X36996666Y-20971666D01*
X36996666Y-20871666D01*
X36963333Y-20738333D01*
X36930000Y-20671666D01*
X36863333Y-20605000D01*
X36763333Y-20571666D01*
X36696666Y-20571666D01*
X36596666Y-20605000D01*
X36563333Y-20638333D01*
X35930000Y-21271666D02*
X36263333Y-21271666D01*
X36263333Y-20571666D01*
X43110000Y-21238333D02*
X43010000Y-21271666D01*
X42843333Y-21271666D01*
X42776666Y-21238333D01*
X42743333Y-21205000D01*
X42710000Y-21138333D01*
X42710000Y-21071666D01*
X42743333Y-21005000D01*
X42776666Y-20971666D01*
X42843333Y-20938333D01*
X42976666Y-20905000D01*
X43043333Y-20871666D01*
X43076666Y-20838333D01*
X43110000Y-20771666D01*
X43110000Y-20705000D01*
X43076666Y-20638333D01*
X43043333Y-20605000D01*
X42976666Y-20571666D01*
X42810000Y-20571666D01*
X42710000Y-20605000D01*
X42410000Y-21271666D02*
X42410000Y-20571666D01*
X42410000Y-20905000D02*
X42010000Y-20905000D01*
X42010000Y-21271666D02*
X42010000Y-20571666D01*
X41676666Y-20571666D02*
X41676666Y-21138333D01*
X41643333Y-21205000D01*
X41610000Y-21238333D01*
X41543333Y-21271666D01*
X41410000Y-21271666D01*
X41343333Y-21238333D01*
X41310000Y-21205000D01*
X41276666Y-21138333D01*
X41276666Y-20571666D01*
X41043333Y-20571666D02*
X40643333Y-20571666D01*
X40843333Y-21271666D02*
X40843333Y-20571666D01*
X32283333Y-20605000D02*
X32350000Y-20571666D01*
X32450000Y-20571666D01*
X32550000Y-20605000D01*
X32616666Y-20671666D01*
X32650000Y-20738333D01*
X32683333Y-20871666D01*
X32683333Y-20971666D01*
X32650000Y-21105000D01*
X32616666Y-21171666D01*
X32550000Y-21238333D01*
X32450000Y-21271666D01*
X32383333Y-21271666D01*
X32283333Y-21238333D01*
X32250000Y-21205000D01*
X32250000Y-20971666D01*
X32383333Y-20971666D01*
X31950000Y-21271666D02*
X31950000Y-20571666D01*
X31550000Y-21271666D01*
X31550000Y-20571666D01*
X31216666Y-21271666D02*
X31216666Y-20571666D01*
X31050000Y-20571666D01*
X30950000Y-20605000D01*
X30883333Y-20671666D01*
X30850000Y-20738333D01*
X30816666Y-20871666D01*
X30816666Y-20971666D01*
X30850000Y-21105000D01*
X30883333Y-21171666D01*
X30950000Y-21238333D01*
X31050000Y-21271666D01*
X31216666Y-21271666D01*
X39922320Y-40941666D02*
X40636606Y-40941666D01*
X40779463Y-40894047D01*
X40874701Y-40798809D01*
X40922320Y-40655952D01*
X40922320Y-40560714D01*
X40017559Y-41370238D02*
X39969940Y-41417857D01*
X39922320Y-41513095D01*
X39922320Y-41751190D01*
X39969940Y-41846428D01*
X40017559Y-41894047D01*
X40112797Y-41941666D01*
X40208035Y-41941666D01*
X40350892Y-41894047D01*
X40922320Y-41322619D01*
X40922320Y-41941666D01*
X22193333Y-36562380D02*
X22193333Y-37276666D01*
X22240952Y-37419523D01*
X22336190Y-37514761D01*
X22479047Y-37562380D01*
X22574285Y-37562380D01*
X21193333Y-37562380D02*
X21764761Y-37562380D01*
X21479047Y-37562380D02*
X21479047Y-36562380D01*
X21574285Y-36705238D01*
X21669523Y-36800476D01*
X21764761Y-36848095D01*
X33026666Y-39862380D02*
X33360000Y-39386190D01*
X33598095Y-39862380D02*
X33598095Y-38862380D01*
X33217142Y-38862380D01*
X33121904Y-38910000D01*
X33074285Y-38957619D01*
X33026666Y-39052857D01*
X33026666Y-39195714D01*
X33074285Y-39290952D01*
X33121904Y-39338571D01*
X33217142Y-39386190D01*
X33598095Y-39386190D01*
X32645714Y-38957619D02*
X32598095Y-38910000D01*
X32502857Y-38862380D01*
X32264761Y-38862380D01*
X32169523Y-38910000D01*
X32121904Y-38957619D01*
X32074285Y-39052857D01*
X32074285Y-39148095D01*
X32121904Y-39290952D01*
X32693333Y-39862380D01*
X32074285Y-39862380D01*
X33607619Y-43084761D02*
X33560000Y-42989523D01*
X33464761Y-42894285D01*
X33321904Y-42751428D01*
X33274285Y-42656190D01*
X33274285Y-42560952D01*
X33512380Y-42608571D02*
X33464761Y-42513333D01*
X33369523Y-42418095D01*
X33179047Y-42370476D01*
X32845714Y-42370476D01*
X32655238Y-42418095D01*
X32560000Y-42513333D01*
X32512380Y-42608571D01*
X32512380Y-42799047D01*
X32560000Y-42894285D01*
X32655238Y-42989523D01*
X32845714Y-43037142D01*
X33179047Y-43037142D01*
X33369523Y-42989523D01*
X33464761Y-42894285D01*
X33512380Y-42799047D01*
X33512380Y-42608571D01*
X32607619Y-43418095D02*
X32560000Y-43465714D01*
X32512380Y-43560952D01*
X32512380Y-43799047D01*
X32560000Y-43894285D01*
X32607619Y-43941904D01*
X32702857Y-43989523D01*
X32798095Y-43989523D01*
X32940952Y-43941904D01*
X33512380Y-43370476D01*
X33512380Y-43989523D01*
D12*
X41620000Y-46335000D02*
X41620000Y-36215000D01*
X40920000Y-46575000D02*
X40920000Y-46175000D01*
X41160000Y-46335000D02*
X41160000Y-36215000D01*
X47874000Y-37387000D02*
X47494000Y-37767000D01*
X47608000Y-42121000D02*
X47501000Y-42228000D01*
X50280000Y-46335000D02*
X41160000Y-46335000D01*
X44673000Y-45057000D02*
X44566000Y-45163000D01*
X47608000Y-37121000D02*
X47212000Y-37516000D01*
X47874000Y-42387000D02*
X47767000Y-42494000D01*
X41560000Y-46575000D02*
X40920000Y-46575000D01*
X50280000Y-46335000D02*
X50280000Y-36215000D01*
X42720000Y-46335000D02*
X42720000Y-36215000D01*
X44946000Y-39782000D02*
X44566000Y-40162000D01*
X44939000Y-45323000D02*
X44832000Y-45429000D01*
X45228000Y-40033000D02*
X44832000Y-40428000D01*
X50280000Y-36215000D02*
X41160000Y-36215000D01*
X48400000Y-43775000D02*
G75*
G03*
X48400000Y-43775000I-2180000J0D01*
G01*
X48400000Y-38775000D02*
G75*
G03*
X48400000Y-38775000I-2180000J0D01*
G01*
X25892000Y-42517000D02*
X26288000Y-42122000D01*
X26447000Y-37493000D02*
X26554000Y-37387000D01*
X20840000Y-46335000D02*
X29960000Y-46335000D01*
X29960000Y-36215000D02*
X29960000Y-46335000D01*
X29500000Y-36215000D02*
X29500000Y-46335000D01*
X23246000Y-40163000D02*
X23353000Y-40056000D01*
X26181000Y-37227000D02*
X26288000Y-37121000D01*
X20840000Y-36215000D02*
X29960000Y-36215000D01*
X23512000Y-45429000D02*
X23908000Y-45034000D01*
X28400000Y-36215000D02*
X28400000Y-46335000D01*
X26174000Y-42768000D02*
X26554000Y-42388000D01*
X29560000Y-35975000D02*
X30200000Y-35975000D01*
X23246000Y-45163000D02*
X23626000Y-44783000D01*
X23512000Y-40429000D02*
X23619000Y-40322000D01*
X30200000Y-35975000D02*
X30200000Y-36375000D01*
X20840000Y-36215000D02*
X20840000Y-46335000D01*
X27080000Y-43775000D02*
G75*
G03*
X27080000Y-43775000I-2180000J0D01*
G01*
X27080000Y-38775000D02*
G75*
G03*
X27080000Y-38775000I-2180000J0D01*
G01*
X35787064Y-40105000D02*
X35332936Y-40105000D01*
X35787064Y-38635000D02*
X35332936Y-38635000D01*
X33980000Y-43940000D02*
X33980000Y-40780000D01*
X37140000Y-43940000D02*
X36210000Y-43940000D01*
X33980000Y-43940000D02*
X34910000Y-43940000D01*
X37140000Y-43940000D02*
X37140000Y-42480000D01*
%LPC*%
D13*
X33035000Y-36830000D03*
D14*
X35575000Y-36830000D03*
X38115000Y-36830000D03*
D15*
X22320000Y-27940000D03*
X48820000Y-27940000D03*
D13*
X29210000Y-18415000D03*
D14*
X31750000Y-18415000D03*
X34290000Y-18415000D03*
X36830000Y-18415000D03*
X39370000Y-18415000D03*
X41910000Y-18415000D03*
D16*
X46220000Y-43775000D03*
X46220000Y-38775000D03*
X24900000Y-38775000D03*
X24900000Y-43775000D03*
D17*
X36560000Y-39370000D03*
X34560000Y-39370000D03*
D18*
X34610000Y-41680000D03*
X36510000Y-41680000D03*
X35560000Y-44680000D03*
M02*
