%TF.GenerationSoftware,KiCad,Pcbnew,(6.0.7)*%
%TF.CreationDate,2022-10-10T17:10:13+03:00*%
%TF.ProjectId,DiLight_2.0,44694c69-6768-4745-9f32-2e302e6b6963,rev?*%
%TF.SameCoordinates,Original*%
%TF.FileFunction,Drillmap*%
%TF.FilePolarity,Positive*%
%FSLAX45Y45*%
G04 Gerber Fmt 4.5, Leading zero omitted, Abs format (unit mm)*
G04 Created by KiCad (PCBNEW (6.0.7)) date 2022-10-10 17:10:13*
%MOMM*%
%LPD*%
G01*
G04 APERTURE LIST*
%ADD10C,0.100000*%
%ADD11C,0.200000*%
%ADD12C,0.220000*%
G04 APERTURE END LIST*
D10*
X2022000Y-4572000D02*
G75*
G03*
X2149000Y-4699000I127000J0D01*
G01*
X2149000Y-4699000D02*
X4965000Y-4699000D01*
X4381500Y-1651000D02*
X5092000Y-2667000D01*
X2022000Y-2667000D02*
X2730500Y-1651000D01*
X4965000Y-4699000D02*
G75*
G03*
X5092000Y-4572000I0J127000D01*
G01*
X2730500Y-1651000D02*
X4381500Y-1651000D01*
X5092000Y-4572000D02*
X5092000Y-2667000D01*
X2022000Y-4572000D02*
X2022000Y-2667000D01*
D11*
D12*
X2122000Y-2684000D02*
X2342000Y-2904000D01*
X2342000Y-2684000D02*
X2122000Y-2904000D01*
X4772000Y-2684000D02*
X4992000Y-2904000D01*
X4992000Y-2684000D02*
X4772000Y-2904000D01*
D11*
X2274619Y-5014476D02*
X2274619Y-4814476D01*
X2322238Y-4814476D01*
X2350810Y-4824000D01*
X2369857Y-4843048D01*
X2379381Y-4862095D01*
X2388905Y-4900190D01*
X2388905Y-4928762D01*
X2379381Y-4966857D01*
X2369857Y-4985905D01*
X2350810Y-5004952D01*
X2322238Y-5014476D01*
X2274619Y-5014476D01*
X2474619Y-5014476D02*
X2474619Y-4881143D01*
X2474619Y-4919238D02*
X2484143Y-4900190D01*
X2493667Y-4890667D01*
X2512714Y-4881143D01*
X2531762Y-4881143D01*
X2598429Y-5014476D02*
X2598429Y-4881143D01*
X2598429Y-4814476D02*
X2588905Y-4824000D01*
X2598429Y-4833524D01*
X2607952Y-4824000D01*
X2598429Y-4814476D01*
X2598429Y-4833524D01*
X2722238Y-5014476D02*
X2703190Y-5004952D01*
X2693667Y-4985905D01*
X2693667Y-4814476D01*
X2827000Y-5014476D02*
X2807952Y-5004952D01*
X2798428Y-4985905D01*
X2798428Y-4814476D01*
X3055571Y-5014476D02*
X3055571Y-4814476D01*
X3122238Y-4957333D01*
X3188905Y-4814476D01*
X3188905Y-5014476D01*
X3369857Y-5014476D02*
X3369857Y-4909714D01*
X3360333Y-4890667D01*
X3341286Y-4881143D01*
X3303190Y-4881143D01*
X3284143Y-4890667D01*
X3369857Y-5004952D02*
X3350809Y-5014476D01*
X3303190Y-5014476D01*
X3284143Y-5004952D01*
X3274619Y-4985905D01*
X3274619Y-4966857D01*
X3284143Y-4947810D01*
X3303190Y-4938286D01*
X3350809Y-4938286D01*
X3369857Y-4928762D01*
X3465095Y-4881143D02*
X3465095Y-5081143D01*
X3465095Y-4890667D02*
X3484143Y-4881143D01*
X3522238Y-4881143D01*
X3541286Y-4890667D01*
X3550809Y-4900190D01*
X3560333Y-4919238D01*
X3560333Y-4976381D01*
X3550809Y-4995429D01*
X3541286Y-5004952D01*
X3522238Y-5014476D01*
X3484143Y-5014476D01*
X3465095Y-5004952D01*
X3646048Y-4995429D02*
X3655571Y-5004952D01*
X3646048Y-5014476D01*
X3636524Y-5004952D01*
X3646048Y-4995429D01*
X3646048Y-5014476D01*
X3646048Y-4890667D02*
X3655571Y-4900190D01*
X3646048Y-4909714D01*
X3636524Y-4900190D01*
X3646048Y-4890667D01*
X3646048Y-4909714D01*
X1817000Y-5244000D02*
X2017000Y-5444000D01*
X2017000Y-5244000D02*
X1817000Y-5444000D01*
X2265095Y-5253524D02*
X2274619Y-5244000D01*
X2293667Y-5234476D01*
X2341286Y-5234476D01*
X2360333Y-5244000D01*
X2369857Y-5253524D01*
X2379381Y-5272571D01*
X2379381Y-5291619D01*
X2369857Y-5320190D01*
X2255571Y-5434476D01*
X2379381Y-5434476D01*
X2465095Y-5415429D02*
X2474619Y-5424952D01*
X2465095Y-5434476D01*
X2455571Y-5424952D01*
X2465095Y-5415429D01*
X2465095Y-5434476D01*
X2550810Y-5253524D02*
X2560333Y-5244000D01*
X2579381Y-5234476D01*
X2627000Y-5234476D01*
X2646048Y-5244000D01*
X2655571Y-5253524D01*
X2665095Y-5272571D01*
X2665095Y-5291619D01*
X2655571Y-5320190D01*
X2541286Y-5434476D01*
X2665095Y-5434476D01*
X2788905Y-5234476D02*
X2807952Y-5234476D01*
X2827000Y-5244000D01*
X2836524Y-5253524D01*
X2846048Y-5272571D01*
X2855571Y-5310667D01*
X2855571Y-5358286D01*
X2846048Y-5396381D01*
X2836524Y-5415429D01*
X2827000Y-5424952D01*
X2807952Y-5434476D01*
X2788905Y-5434476D01*
X2769857Y-5424952D01*
X2760333Y-5415429D01*
X2750810Y-5396381D01*
X2741286Y-5358286D01*
X2741286Y-5310667D01*
X2750810Y-5272571D01*
X2760333Y-5253524D01*
X2769857Y-5244000D01*
X2788905Y-5234476D01*
X2979381Y-5234476D02*
X2998428Y-5234476D01*
X3017476Y-5244000D01*
X3027000Y-5253524D01*
X3036524Y-5272571D01*
X3046048Y-5310667D01*
X3046048Y-5358286D01*
X3036524Y-5396381D01*
X3027000Y-5415429D01*
X3017476Y-5424952D01*
X2998428Y-5434476D01*
X2979381Y-5434476D01*
X2960333Y-5424952D01*
X2950809Y-5415429D01*
X2941286Y-5396381D01*
X2931762Y-5358286D01*
X2931762Y-5310667D01*
X2941286Y-5272571D01*
X2950809Y-5253524D01*
X2960333Y-5244000D01*
X2979381Y-5234476D01*
X3131762Y-5434476D02*
X3131762Y-5301143D01*
X3131762Y-5320190D02*
X3141286Y-5310667D01*
X3160333Y-5301143D01*
X3188905Y-5301143D01*
X3207952Y-5310667D01*
X3217476Y-5329714D01*
X3217476Y-5434476D01*
X3217476Y-5329714D02*
X3227000Y-5310667D01*
X3246048Y-5301143D01*
X3274619Y-5301143D01*
X3293667Y-5310667D01*
X3303190Y-5329714D01*
X3303190Y-5434476D01*
X3398428Y-5434476D02*
X3398428Y-5301143D01*
X3398428Y-5320190D02*
X3407952Y-5310667D01*
X3427000Y-5301143D01*
X3455571Y-5301143D01*
X3474619Y-5310667D01*
X3484143Y-5329714D01*
X3484143Y-5434476D01*
X3484143Y-5329714D02*
X3493667Y-5310667D01*
X3512714Y-5301143D01*
X3541286Y-5301143D01*
X3560333Y-5310667D01*
X3569857Y-5329714D01*
X3569857Y-5434476D01*
X3960333Y-5224952D02*
X3788905Y-5482095D01*
X4217476Y-5234476D02*
X4236524Y-5234476D01*
X4255571Y-5244000D01*
X4265095Y-5253524D01*
X4274619Y-5272571D01*
X4284143Y-5310667D01*
X4284143Y-5358286D01*
X4274619Y-5396381D01*
X4265095Y-5415429D01*
X4255571Y-5424952D01*
X4236524Y-5434476D01*
X4217476Y-5434476D01*
X4198429Y-5424952D01*
X4188905Y-5415429D01*
X4179381Y-5396381D01*
X4169857Y-5358286D01*
X4169857Y-5310667D01*
X4179381Y-5272571D01*
X4188905Y-5253524D01*
X4198429Y-5244000D01*
X4217476Y-5234476D01*
X4369857Y-5415429D02*
X4379381Y-5424952D01*
X4369857Y-5434476D01*
X4360333Y-5424952D01*
X4369857Y-5415429D01*
X4369857Y-5434476D01*
X4503190Y-5234476D02*
X4522238Y-5234476D01*
X4541286Y-5244000D01*
X4550810Y-5253524D01*
X4560333Y-5272571D01*
X4569857Y-5310667D01*
X4569857Y-5358286D01*
X4560333Y-5396381D01*
X4550810Y-5415429D01*
X4541286Y-5424952D01*
X4522238Y-5434476D01*
X4503190Y-5434476D01*
X4484143Y-5424952D01*
X4474619Y-5415429D01*
X4465095Y-5396381D01*
X4455571Y-5358286D01*
X4455571Y-5310667D01*
X4465095Y-5272571D01*
X4474619Y-5253524D01*
X4484143Y-5244000D01*
X4503190Y-5234476D01*
X4684143Y-5320190D02*
X4665095Y-5310667D01*
X4655571Y-5301143D01*
X4646048Y-5282095D01*
X4646048Y-5272571D01*
X4655571Y-5253524D01*
X4665095Y-5244000D01*
X4684143Y-5234476D01*
X4722238Y-5234476D01*
X4741286Y-5244000D01*
X4750810Y-5253524D01*
X4760333Y-5272571D01*
X4760333Y-5282095D01*
X4750810Y-5301143D01*
X4741286Y-5310667D01*
X4722238Y-5320190D01*
X4684143Y-5320190D01*
X4665095Y-5329714D01*
X4655571Y-5339238D01*
X4646048Y-5358286D01*
X4646048Y-5396381D01*
X4655571Y-5415429D01*
X4665095Y-5424952D01*
X4684143Y-5434476D01*
X4722238Y-5434476D01*
X4741286Y-5424952D01*
X4750810Y-5415429D01*
X4760333Y-5396381D01*
X4760333Y-5358286D01*
X4750810Y-5339238D01*
X4741286Y-5329714D01*
X4722238Y-5320190D01*
X4931762Y-5234476D02*
X4893667Y-5234476D01*
X4874619Y-5244000D01*
X4865095Y-5253524D01*
X4846048Y-5282095D01*
X4836524Y-5320190D01*
X4836524Y-5396381D01*
X4846048Y-5415429D01*
X4855571Y-5424952D01*
X4874619Y-5434476D01*
X4912714Y-5434476D01*
X4931762Y-5424952D01*
X4941286Y-5415429D01*
X4950810Y-5396381D01*
X4950810Y-5348762D01*
X4941286Y-5329714D01*
X4931762Y-5320190D01*
X4912714Y-5310667D01*
X4874619Y-5310667D01*
X4855571Y-5320190D01*
X4846048Y-5329714D01*
X4836524Y-5348762D01*
X5122238Y-5234476D02*
X5084143Y-5234476D01*
X5065095Y-5244000D01*
X5055571Y-5253524D01*
X5036524Y-5282095D01*
X5027000Y-5320190D01*
X5027000Y-5396381D01*
X5036524Y-5415429D01*
X5046048Y-5424952D01*
X5065095Y-5434476D01*
X5103190Y-5434476D01*
X5122238Y-5424952D01*
X5131762Y-5415429D01*
X5141286Y-5396381D01*
X5141286Y-5348762D01*
X5131762Y-5329714D01*
X5122238Y-5320190D01*
X5103190Y-5310667D01*
X5065095Y-5310667D01*
X5046048Y-5320190D01*
X5036524Y-5329714D01*
X5027000Y-5348762D01*
X5217476Y-5234476D02*
X5217476Y-5272571D01*
X5293667Y-5234476D02*
X5293667Y-5272571D01*
X5588905Y-5510667D02*
X5579381Y-5501143D01*
X5560333Y-5472571D01*
X5550810Y-5453524D01*
X5541286Y-5424952D01*
X5531762Y-5377333D01*
X5531762Y-5339238D01*
X5541286Y-5291619D01*
X5550810Y-5263048D01*
X5560333Y-5244000D01*
X5579381Y-5215429D01*
X5588905Y-5205905D01*
X5655571Y-5253524D02*
X5665095Y-5244000D01*
X5684143Y-5234476D01*
X5731762Y-5234476D01*
X5750809Y-5244000D01*
X5760333Y-5253524D01*
X5769857Y-5272571D01*
X5769857Y-5291619D01*
X5760333Y-5320190D01*
X5646048Y-5434476D01*
X5769857Y-5434476D01*
X6007952Y-5434476D02*
X6007952Y-5234476D01*
X6093667Y-5434476D02*
X6093667Y-5329714D01*
X6084143Y-5310667D01*
X6065095Y-5301143D01*
X6036524Y-5301143D01*
X6017476Y-5310667D01*
X6007952Y-5320190D01*
X6217476Y-5434476D02*
X6198428Y-5424952D01*
X6188905Y-5415429D01*
X6179381Y-5396381D01*
X6179381Y-5339238D01*
X6188905Y-5320190D01*
X6198428Y-5310667D01*
X6217476Y-5301143D01*
X6246048Y-5301143D01*
X6265095Y-5310667D01*
X6274619Y-5320190D01*
X6284143Y-5339238D01*
X6284143Y-5396381D01*
X6274619Y-5415429D01*
X6265095Y-5424952D01*
X6246048Y-5434476D01*
X6217476Y-5434476D01*
X6398428Y-5434476D02*
X6379381Y-5424952D01*
X6369857Y-5405905D01*
X6369857Y-5234476D01*
X6550809Y-5424952D02*
X6531762Y-5434476D01*
X6493667Y-5434476D01*
X6474619Y-5424952D01*
X6465095Y-5405905D01*
X6465095Y-5329714D01*
X6474619Y-5310667D01*
X6493667Y-5301143D01*
X6531762Y-5301143D01*
X6550809Y-5310667D01*
X6560333Y-5329714D01*
X6560333Y-5348762D01*
X6465095Y-5367810D01*
X6636524Y-5424952D02*
X6655571Y-5434476D01*
X6693667Y-5434476D01*
X6712714Y-5424952D01*
X6722238Y-5405905D01*
X6722238Y-5396381D01*
X6712714Y-5377333D01*
X6693667Y-5367810D01*
X6665095Y-5367810D01*
X6646048Y-5358286D01*
X6636524Y-5339238D01*
X6636524Y-5329714D01*
X6646048Y-5310667D01*
X6665095Y-5301143D01*
X6693667Y-5301143D01*
X6712714Y-5310667D01*
X6788905Y-5510667D02*
X6798428Y-5501143D01*
X6817476Y-5472571D01*
X6827000Y-5453524D01*
X6836524Y-5424952D01*
X6846048Y-5377333D01*
X6846048Y-5339238D01*
X6836524Y-5291619D01*
X6827000Y-5263048D01*
X6817476Y-5244000D01*
X6798428Y-5215429D01*
X6788905Y-5205905D01*
X7150809Y-5510667D02*
X7141286Y-5501143D01*
X7122238Y-5472571D01*
X7112714Y-5453524D01*
X7103190Y-5424952D01*
X7093667Y-5377333D01*
X7093667Y-5339238D01*
X7103190Y-5291619D01*
X7112714Y-5263048D01*
X7122238Y-5244000D01*
X7141286Y-5215429D01*
X7150809Y-5205905D01*
X7227000Y-5301143D02*
X7227000Y-5434476D01*
X7227000Y-5320190D02*
X7236524Y-5310667D01*
X7255571Y-5301143D01*
X7284143Y-5301143D01*
X7303190Y-5310667D01*
X7312714Y-5329714D01*
X7312714Y-5434476D01*
X7436524Y-5434476D02*
X7417476Y-5424952D01*
X7407952Y-5415429D01*
X7398428Y-5396381D01*
X7398428Y-5339238D01*
X7407952Y-5320190D01*
X7417476Y-5310667D01*
X7436524Y-5301143D01*
X7465095Y-5301143D01*
X7484143Y-5310667D01*
X7493667Y-5320190D01*
X7503190Y-5339238D01*
X7503190Y-5396381D01*
X7493667Y-5415429D01*
X7484143Y-5424952D01*
X7465095Y-5434476D01*
X7436524Y-5434476D01*
X7560333Y-5301143D02*
X7636524Y-5301143D01*
X7588905Y-5234476D02*
X7588905Y-5405905D01*
X7598428Y-5424952D01*
X7617476Y-5434476D01*
X7636524Y-5434476D01*
X7855571Y-5301143D02*
X7855571Y-5501143D01*
X7855571Y-5310667D02*
X7874619Y-5301143D01*
X7912714Y-5301143D01*
X7931762Y-5310667D01*
X7941286Y-5320190D01*
X7950809Y-5339238D01*
X7950809Y-5396381D01*
X7941286Y-5415429D01*
X7931762Y-5424952D01*
X7912714Y-5434476D01*
X7874619Y-5434476D01*
X7855571Y-5424952D01*
X8065095Y-5434476D02*
X8046048Y-5424952D01*
X8036524Y-5405905D01*
X8036524Y-5234476D01*
X8227000Y-5434476D02*
X8227000Y-5329714D01*
X8217476Y-5310667D01*
X8198428Y-5301143D01*
X8160333Y-5301143D01*
X8141286Y-5310667D01*
X8227000Y-5424952D02*
X8207952Y-5434476D01*
X8160333Y-5434476D01*
X8141286Y-5424952D01*
X8131762Y-5405905D01*
X8131762Y-5386857D01*
X8141286Y-5367810D01*
X8160333Y-5358286D01*
X8207952Y-5358286D01*
X8227000Y-5348762D01*
X8293667Y-5301143D02*
X8369857Y-5301143D01*
X8322238Y-5234476D02*
X8322238Y-5405905D01*
X8331762Y-5424952D01*
X8350809Y-5434476D01*
X8369857Y-5434476D01*
X8512714Y-5424952D02*
X8493667Y-5434476D01*
X8455571Y-5434476D01*
X8436524Y-5424952D01*
X8427000Y-5405905D01*
X8427000Y-5329714D01*
X8436524Y-5310667D01*
X8455571Y-5301143D01*
X8493667Y-5301143D01*
X8512714Y-5310667D01*
X8522238Y-5329714D01*
X8522238Y-5348762D01*
X8427000Y-5367810D01*
X8693667Y-5434476D02*
X8693667Y-5234476D01*
X8693667Y-5424952D02*
X8674619Y-5434476D01*
X8636524Y-5434476D01*
X8617476Y-5424952D01*
X8607952Y-5415429D01*
X8598429Y-5396381D01*
X8598429Y-5339238D01*
X8607952Y-5320190D01*
X8617476Y-5310667D01*
X8636524Y-5301143D01*
X8674619Y-5301143D01*
X8693667Y-5310667D01*
X8769857Y-5510667D02*
X8779381Y-5501143D01*
X8798429Y-5472571D01*
X8807952Y-5453524D01*
X8817476Y-5424952D01*
X8827000Y-5377333D01*
X8827000Y-5339238D01*
X8817476Y-5291619D01*
X8807952Y-5263048D01*
X8798429Y-5244000D01*
X8779381Y-5215429D01*
X8769857Y-5205905D01*
M02*
