G04 #@! TF.GenerationSoftware,KiCad,Pcbnew,(6.0.7)*
G04 #@! TF.CreationDate,2022-10-10T17:08:23+03:00*
G04 #@! TF.ProjectId,DiLight_2.0,44694c69-6768-4745-9f32-2e302e6b6963,rev?*
G04 #@! TF.SameCoordinates,Original*
G04 #@! TF.FileFunction,Copper,L1,Top*
G04 #@! TF.FilePolarity,Positive*
%FSLAX46Y46*%
G04 Gerber Fmt 4.6, Leading zero omitted, Abs format (unit mm)*
G04 Created by KiCad (PCBNEW (6.0.7)) date 2022-10-10 17:08:23*
%MOMM*%
%LPD*%
G01*
G04 APERTURE LIST*
G04 Aperture macros list*
%AMRoundRect*
0 Rectangle with rounded corners*
0 $1 Rounding radius*
0 $2 $3 $4 $5 $6 $7 $8 $9 X,Y pos of 4 corners*
0 Add a 4 corners polygon primitive as box body*
4,1,4,$2,$3,$4,$5,$6,$7,$8,$9,$2,$3,0*
0 Add four circle primitives for the rounded corners*
1,1,$1+$1,$2,$3*
1,1,$1+$1,$4,$5*
1,1,$1+$1,$6,$7*
1,1,$1+$1,$8,$9*
0 Add four rect primitives between the rounded corners*
20,1,$1+$1,$2,$3,$4,$5,0*
20,1,$1+$1,$4,$5,$6,$7,0*
20,1,$1+$1,$6,$7,$8,$9,0*
20,1,$1+$1,$8,$9,$2,$3,0*%
%AMFreePoly0*
4,1,14,0.230680,0.111820,0.364320,-0.021821,0.377500,-0.053642,0.377500,-0.080000,0.364320,-0.111820,0.332500,-0.125000,-0.332500,-0.125000,-0.364320,-0.111820,-0.377500,-0.080000,-0.377500,0.080000,-0.364320,0.111820,-0.332500,0.125000,0.198860,0.125000,0.230680,0.111820,0.230680,0.111820,$1*%
%AMFreePoly1*
4,1,14,0.364320,0.111820,0.377500,0.080000,0.377501,0.053640,0.364318,0.021819,0.230680,-0.111820,0.198860,-0.125000,-0.332500,-0.125000,-0.364320,-0.111820,-0.377500,-0.080000,-0.377500,0.080000,-0.364320,0.111820,-0.332500,0.125000,0.332500,0.125000,0.364320,0.111820,0.364320,0.111820,$1*%
%AMFreePoly2*
4,1,15,0.053642,0.377500,0.080000,0.377500,0.111820,0.364320,0.125000,0.332500,0.125000,-0.332500,0.111820,-0.364320,0.080000,-0.377500,-0.080000,-0.377500,-0.111820,-0.364320,-0.125000,-0.332500,-0.125000,0.198860,-0.111820,0.230680,0.021820,0.364320,0.053640,0.377501,0.053642,0.377500,0.053642,0.377500,$1*%
%AMFreePoly3*
4,1,14,-0.021820,0.364320,0.111820,0.230679,0.125000,0.198858,0.125000,-0.332500,0.111820,-0.364320,0.080000,-0.377500,-0.080000,-0.377500,-0.111820,-0.364320,-0.125000,-0.332500,-0.125000,0.332500,-0.111820,0.364320,-0.080000,0.377500,-0.053640,0.377500,-0.021820,0.364320,-0.021820,0.364320,$1*%
%AMFreePoly4*
4,1,14,0.364320,0.111820,0.377500,0.080000,0.377500,-0.080000,0.364320,-0.111820,0.332500,-0.125000,-0.198860,-0.125001,-0.230681,-0.111818,-0.364320,0.021820,-0.377500,0.053640,-0.377500,0.080000,-0.364320,0.111820,-0.332500,0.125000,0.332500,0.125000,0.364320,0.111820,0.364320,0.111820,$1*%
%AMFreePoly5*
4,1,15,-0.198858,0.125000,0.332500,0.125000,0.364320,0.111820,0.377500,0.080000,0.377500,-0.080000,0.364320,-0.111820,0.332500,-0.125000,-0.332500,-0.125000,-0.364320,-0.111820,-0.377500,-0.080000,-0.377500,-0.053640,-0.364320,-0.021820,-0.230680,0.111820,-0.198860,0.125001,-0.198858,0.125000,-0.198858,0.125000,$1*%
%AMFreePoly6*
4,1,14,0.111820,0.364320,0.125000,0.332500,0.125001,-0.198860,0.111818,-0.230681,-0.021820,-0.364320,-0.053640,-0.377500,-0.080000,-0.377500,-0.111820,-0.364320,-0.125000,-0.332500,-0.125000,0.332500,-0.111820,0.364320,-0.080000,0.377500,0.080000,0.377500,0.111820,0.364320,0.111820,0.364320,$1*%
%AMFreePoly7*
4,1,14,0.111820,0.364320,0.125000,0.332500,0.125000,-0.332500,0.111820,-0.364320,0.080000,-0.377500,0.053640,-0.377501,0.021819,-0.364318,-0.111820,-0.230680,-0.125000,-0.198860,-0.125000,0.332500,-0.111820,0.364320,-0.080000,0.377500,0.080000,0.377500,0.111820,0.364320,0.111820,0.364320,$1*%
G04 Aperture macros list end*
G04 #@! TA.AperFunction,ComponentPad*
%ADD10R,1.700000X1.700000*%
G04 #@! TD*
G04 #@! TA.AperFunction,ComponentPad*
%ADD11O,1.700000X1.700000*%
G04 #@! TD*
G04 #@! TA.AperFunction,SMDPad,CuDef*
%ADD12RoundRect,0.250000X0.337500X0.475000X-0.337500X0.475000X-0.337500X-0.475000X0.337500X-0.475000X0*%
G04 #@! TD*
G04 #@! TA.AperFunction,SMDPad,CuDef*
%ADD13R,2.400000X0.740000*%
G04 #@! TD*
G04 #@! TA.AperFunction,SMDPad,CuDef*
%ADD14FreePoly0,0.000000*%
G04 #@! TD*
G04 #@! TA.AperFunction,SMDPad,CuDef*
%ADD15RoundRect,0.062500X-0.375000X-0.062500X0.375000X-0.062500X0.375000X0.062500X-0.375000X0.062500X0*%
G04 #@! TD*
G04 #@! TA.AperFunction,SMDPad,CuDef*
%ADD16FreePoly1,0.000000*%
G04 #@! TD*
G04 #@! TA.AperFunction,SMDPad,CuDef*
%ADD17FreePoly2,0.000000*%
G04 #@! TD*
G04 #@! TA.AperFunction,SMDPad,CuDef*
%ADD18RoundRect,0.062500X-0.062500X-0.375000X0.062500X-0.375000X0.062500X0.375000X-0.062500X0.375000X0*%
G04 #@! TD*
G04 #@! TA.AperFunction,SMDPad,CuDef*
%ADD19FreePoly3,0.000000*%
G04 #@! TD*
G04 #@! TA.AperFunction,SMDPad,CuDef*
%ADD20FreePoly4,0.000000*%
G04 #@! TD*
G04 #@! TA.AperFunction,SMDPad,CuDef*
%ADD21FreePoly5,0.000000*%
G04 #@! TD*
G04 #@! TA.AperFunction,SMDPad,CuDef*
%ADD22FreePoly6,0.000000*%
G04 #@! TD*
G04 #@! TA.AperFunction,SMDPad,CuDef*
%ADD23FreePoly7,0.000000*%
G04 #@! TD*
G04 #@! TA.AperFunction,SMDPad,CuDef*
%ADD24RoundRect,0.250000X-0.475000X0.337500X-0.475000X-0.337500X0.475000X-0.337500X0.475000X0.337500X0*%
G04 #@! TD*
G04 #@! TA.AperFunction,SMDPad,CuDef*
%ADD25RoundRect,0.250000X-0.450000X0.350000X-0.450000X-0.350000X0.450000X-0.350000X0.450000X0.350000X0*%
G04 #@! TD*
G04 #@! TA.AperFunction,SMDPad,CuDef*
%ADD26RoundRect,0.250000X-0.337500X-0.475000X0.337500X-0.475000X0.337500X0.475000X-0.337500X0.475000X0*%
G04 #@! TD*
G04 #@! TA.AperFunction,SMDPad,CuDef*
%ADD27R,2.000000X1.500000*%
G04 #@! TD*
G04 #@! TA.AperFunction,SMDPad,CuDef*
%ADD28R,2.000000X3.800000*%
G04 #@! TD*
G04 #@! TA.AperFunction,SMDPad,CuDef*
%ADD29RoundRect,0.250000X-0.350000X-0.450000X0.350000X-0.450000X0.350000X0.450000X-0.350000X0.450000X0*%
G04 #@! TD*
G04 #@! TA.AperFunction,SMDPad,CuDef*
%ADD30RoundRect,0.150000X-0.150000X0.675000X-0.150000X-0.675000X0.150000X-0.675000X0.150000X0.675000X0*%
G04 #@! TD*
G04 #@! TA.AperFunction,ComponentPad*
%ADD31C,2.600000*%
G04 #@! TD*
G04 #@! TA.AperFunction,ViaPad*
%ADD32C,0.600000*%
G04 #@! TD*
G04 #@! TA.AperFunction,Conductor*
%ADD33C,0.500000*%
G04 #@! TD*
G04 #@! TA.AperFunction,Conductor*
%ADD34C,1.200000*%
G04 #@! TD*
G04 #@! TA.AperFunction,Conductor*
%ADD35C,0.250000*%
G04 #@! TD*
G04 APERTURE END LIST*
D10*
X33035000Y-36830000D03*
D11*
X35575000Y-36830000D03*
X38115000Y-36830000D03*
D12*
X26437500Y-31750000D03*
X24362500Y-31750000D03*
D13*
X45130000Y-30480000D03*
X41230000Y-30480000D03*
X45130000Y-29210000D03*
X41230000Y-29210000D03*
X45130000Y-27940000D03*
X41230000Y-27940000D03*
X45130000Y-26670000D03*
X41230000Y-26670000D03*
X45130000Y-25400000D03*
X41230000Y-25400000D03*
X45130000Y-24130000D03*
X41230000Y-24130000D03*
X45130000Y-22860000D03*
X41230000Y-22860000D03*
D14*
X34832500Y-30250000D03*
D15*
X34892500Y-30750000D03*
X34892500Y-31250000D03*
X34892500Y-31750000D03*
X34892500Y-32250000D03*
X34892500Y-32750000D03*
D16*
X34832500Y-33250000D03*
D17*
X35330000Y-33747500D03*
D18*
X35830000Y-33687500D03*
X36330000Y-33687500D03*
X36830000Y-33687500D03*
X37330000Y-33687500D03*
X37830000Y-33687500D03*
D19*
X38330000Y-33747500D03*
D20*
X38827500Y-33250000D03*
D15*
X38767500Y-32750000D03*
X38767500Y-32250000D03*
X38767500Y-31750000D03*
X38767500Y-31250000D03*
X38767500Y-30750000D03*
D21*
X38827500Y-30250000D03*
D22*
X38330000Y-29752500D03*
D18*
X37830000Y-29812500D03*
X37330000Y-29812500D03*
X36830000Y-29812500D03*
X36330000Y-29812500D03*
X35830000Y-29812500D03*
D23*
X35330000Y-29752500D03*
D24*
X30480000Y-30712500D03*
X30480000Y-32787500D03*
D25*
X41275000Y-32655000D03*
X41275000Y-34655000D03*
D26*
X42142500Y-20955000D03*
X44217500Y-20955000D03*
D27*
X26060000Y-23735000D03*
D28*
X32360000Y-26035000D03*
D27*
X26060000Y-26035000D03*
X26060000Y-28335000D03*
D29*
X33925000Y-22225000D03*
X35925000Y-22225000D03*
X34920000Y-26035000D03*
X36920000Y-26035000D03*
D24*
X32385000Y-30712500D03*
X32385000Y-32787500D03*
D10*
X29210000Y-18415000D03*
D11*
X31750000Y-18415000D03*
X34290000Y-18415000D03*
X36830000Y-18415000D03*
X39370000Y-18415000D03*
X41910000Y-18415000D03*
D12*
X28977500Y-20955000D03*
X26902500Y-20955000D03*
D25*
X45085000Y-32655000D03*
X45085000Y-34655000D03*
D30*
X33655000Y-39920000D03*
X36195000Y-45170000D03*
X33655000Y-45170000D03*
X34925000Y-45170000D03*
X37465000Y-45170000D03*
X37465000Y-39920000D03*
X36195000Y-39920000D03*
X34925000Y-39920000D03*
D31*
X46220000Y-43775000D03*
X46220000Y-38775000D03*
X24900000Y-38775000D03*
X24900000Y-43775000D03*
D32*
X48895000Y-25400000D03*
X32360000Y-33910000D03*
X45720000Y-20955000D03*
X22225000Y-25400000D03*
X47625000Y-25400000D03*
X30460000Y-33910000D03*
X23495000Y-25400000D03*
X34925000Y-27940000D03*
X46990000Y-29845000D03*
X38320000Y-28820000D03*
X37620000Y-30920000D03*
X41275000Y-35820000D03*
D33*
X26437500Y-31750000D02*
X26437500Y-34692500D01*
D34*
X45075000Y-39920000D02*
X46220000Y-38775000D01*
D33*
X31115000Y-40640000D02*
X32385000Y-41910000D01*
X26437500Y-28712500D02*
X26060000Y-28335000D01*
D34*
X35220000Y-39920000D02*
X45075000Y-39920000D01*
D33*
X31115000Y-39370000D02*
X31115000Y-40640000D01*
X32385000Y-41910000D02*
X34290000Y-41910000D01*
X34925000Y-41275000D02*
X34925000Y-39920000D01*
X26437500Y-31750000D02*
X26437500Y-28712500D01*
X26437500Y-34692500D02*
X31115000Y-39370000D01*
X34290000Y-41910000D02*
X34925000Y-41275000D01*
X45720000Y-20955000D02*
X44217500Y-20955000D01*
X32360000Y-33910000D02*
X32360000Y-32812500D01*
X30460000Y-32807500D02*
X30480000Y-32787500D01*
D35*
X33990000Y-31750000D02*
X32952500Y-32787500D01*
X32952500Y-32787500D02*
X32385000Y-32787500D01*
D33*
X32360000Y-32812500D02*
X32385000Y-32787500D01*
D35*
X34892500Y-31750000D02*
X33990000Y-31750000D01*
D33*
X30460000Y-33910000D02*
X30460000Y-32807500D01*
X32360000Y-23790000D02*
X33925000Y-22225000D01*
D35*
X34892500Y-31250000D02*
X33950000Y-31250000D01*
D33*
X34920000Y-26035000D02*
X32360000Y-26035000D01*
X32360000Y-26035000D02*
X32360000Y-23790000D01*
X28977500Y-20955000D02*
X28977500Y-18647500D01*
X28575000Y-31750000D02*
X28575000Y-33655000D01*
X29845000Y-34925000D02*
X31750000Y-34925000D01*
X34920000Y-26035000D02*
X34920000Y-27935000D01*
X30480000Y-30712500D02*
X32385000Y-30712500D01*
X34920000Y-27935000D02*
X34925000Y-27940000D01*
X28575000Y-33655000D02*
X29845000Y-34925000D01*
X33035000Y-36210000D02*
X33035000Y-36830000D01*
D35*
X33412500Y-30712500D02*
X32385000Y-30712500D01*
D33*
X26060000Y-26035000D02*
X32360000Y-26035000D01*
X32360000Y-30687500D02*
X32385000Y-30712500D01*
X32655000Y-20955000D02*
X33925000Y-22225000D01*
X30480000Y-30712500D02*
X29612500Y-30712500D01*
X32360000Y-26035000D02*
X32360000Y-30687500D01*
X28977500Y-18647500D02*
X29210000Y-18415000D01*
X29612500Y-30712500D02*
X28575000Y-31750000D01*
X46990000Y-29845000D02*
X46355000Y-29210000D01*
X28977500Y-20955000D02*
X32655000Y-20955000D01*
D35*
X33950000Y-31250000D02*
X33412500Y-30712500D01*
D33*
X46355000Y-29210000D02*
X45130000Y-29210000D01*
X31750000Y-34925000D02*
X33035000Y-36210000D01*
D35*
X36790000Y-32250000D02*
X37620000Y-31420000D01*
X39420000Y-24120000D02*
X39430000Y-24130000D01*
X40685000Y-20955000D02*
X42142500Y-20955000D01*
X39420000Y-22220000D02*
X40685000Y-20955000D01*
X39430000Y-24130000D02*
X41230000Y-24130000D01*
X34892500Y-32250000D02*
X36790000Y-32250000D01*
X39420000Y-27720000D02*
X39420000Y-22220000D01*
X38320000Y-28820000D02*
X39420000Y-27720000D01*
X37620000Y-31420000D02*
X37620000Y-30920000D01*
D34*
X26295000Y-45170000D02*
X24900000Y-43775000D01*
X37120000Y-45170000D02*
X26295000Y-45170000D01*
D35*
X34290000Y-19685000D02*
X34290000Y-18415000D01*
X35830000Y-27310000D02*
X35925000Y-27215000D01*
X35925000Y-27215000D02*
X35925000Y-22225000D01*
X35925000Y-22225000D02*
X35925000Y-21320000D01*
X35925000Y-21320000D02*
X34290000Y-19685000D01*
X35830000Y-29812500D02*
X35830000Y-27310000D01*
X36830000Y-19730000D02*
X36830000Y-18415000D01*
X37320000Y-20220000D02*
X36830000Y-19730000D01*
X37320000Y-23320000D02*
X37320000Y-20220000D01*
X36920000Y-27320000D02*
X36920000Y-26035000D01*
X36920000Y-23720000D02*
X37320000Y-23320000D01*
X36920000Y-26035000D02*
X36920000Y-23720000D01*
X36330000Y-29812500D02*
X36330000Y-27910000D01*
X36330000Y-27910000D02*
X36920000Y-27320000D01*
X38220000Y-20835000D02*
X39370000Y-19685000D01*
X36830000Y-29812500D02*
X36830000Y-28310000D01*
X38220000Y-26920000D02*
X38220000Y-20835000D01*
X39370000Y-19685000D02*
X39370000Y-18415000D01*
X36830000Y-28310000D02*
X38220000Y-26920000D01*
X37330000Y-29812500D02*
X37330000Y-28714188D01*
X38820000Y-21505000D02*
X41910000Y-18415000D01*
X37330000Y-28714188D02*
X38820000Y-27224188D01*
X38820000Y-27224188D02*
X38820000Y-21505000D01*
X34190000Y-32750000D02*
X33820000Y-33120000D01*
X35575000Y-35575000D02*
X35575000Y-36830000D01*
X34892500Y-32750000D02*
X34190000Y-32750000D01*
X33820000Y-33120000D02*
X33820000Y-33820000D01*
X33820000Y-33820000D02*
X35575000Y-35575000D01*
X39620000Y-30506629D02*
X39620000Y-29620000D01*
X40030000Y-29210000D02*
X41230000Y-29210000D01*
X39376629Y-30750000D02*
X39620000Y-30506629D01*
X38767500Y-30750000D02*
X39376629Y-30750000D01*
X39620000Y-29620000D02*
X40030000Y-29210000D01*
X40000000Y-27940000D02*
X41230000Y-27940000D01*
X38827500Y-30250000D02*
X39120000Y-29957500D01*
X39120000Y-28820000D02*
X40000000Y-27940000D01*
X39120000Y-29957500D02*
X39120000Y-28820000D01*
X43180000Y-31115000D02*
X44720000Y-32655000D01*
X44720000Y-32655000D02*
X45085000Y-32655000D01*
X45130000Y-24130000D02*
X43815000Y-24130000D01*
X43815000Y-24130000D02*
X43180000Y-24765000D01*
X43180000Y-24765000D02*
X43180000Y-31115000D01*
X41275000Y-35820000D02*
X41275000Y-34655000D01*
X40870000Y-32250000D02*
X41275000Y-32655000D01*
X38767500Y-32250000D02*
X40870000Y-32250000D01*
G04 #@! TA.AperFunction,Conductor*
G36*
X31316871Y-16911502D02*
G01*
X31363364Y-16965158D01*
X31373468Y-17035432D01*
X31343974Y-17100012D01*
X31287895Y-17137265D01*
X31226868Y-17157212D01*
X31217359Y-17161209D01*
X31028463Y-17259542D01*
X31019738Y-17265036D01*
X30849433Y-17392905D01*
X30841726Y-17399748D01*
X30694590Y-17553717D01*
X30688104Y-17561727D01*
X30670669Y-17587286D01*
X30615758Y-17632289D01*
X30545233Y-17640460D01*
X30481486Y-17609206D01*
X30444756Y-17548449D01*
X30441500Y-17528972D01*
X30441500Y-17528842D01*
X30430462Y-17453856D01*
X30403896Y-17399748D01*
X30379077Y-17349197D01*
X30379076Y-17349196D01*
X30374487Y-17339849D01*
X30299543Y-17265036D01*
X30291972Y-17257478D01*
X30284601Y-17250120D01*
X30170497Y-17194345D01*
X30137716Y-17189563D01*
X30100684Y-17184160D01*
X30100680Y-17184160D01*
X30096158Y-17183500D01*
X28323842Y-17183500D01*
X28319294Y-17184170D01*
X28319287Y-17184170D01*
X28258541Y-17193112D01*
X28258539Y-17193113D01*
X28248856Y-17194538D01*
X28240068Y-17198853D01*
X28240067Y-17198853D01*
X28144197Y-17245923D01*
X28144196Y-17245924D01*
X28134849Y-17250513D01*
X28045120Y-17340399D01*
X27989345Y-17454503D01*
X27978500Y-17528842D01*
X27978500Y-19301158D01*
X27979170Y-19305706D01*
X27979170Y-19305713D01*
X27988112Y-19366459D01*
X27989538Y-19376144D01*
X27993853Y-19384932D01*
X27993853Y-19384933D01*
X28021451Y-19441142D01*
X28045513Y-19490151D01*
X28135399Y-19579880D01*
X28144755Y-19584453D01*
X28144756Y-19584454D01*
X28240696Y-19631350D01*
X28249503Y-19635655D01*
X28257829Y-19636870D01*
X28316382Y-19675681D01*
X28344959Y-19740673D01*
X28346000Y-19756838D01*
X28346000Y-19848332D01*
X28325998Y-19916453D01*
X28284140Y-19956785D01*
X28256696Y-19973015D01*
X28256691Y-19973019D01*
X28249873Y-19977051D01*
X28137051Y-20089873D01*
X28133020Y-20096689D01*
X28133017Y-20096693D01*
X28122339Y-20114750D01*
X28070446Y-20163202D01*
X28000596Y-20175908D01*
X27934965Y-20148833D01*
X27906741Y-20116914D01*
X27841937Y-20012193D01*
X27832901Y-20000792D01*
X27718171Y-19886261D01*
X27706760Y-19877249D01*
X27568757Y-19792184D01*
X27555576Y-19786037D01*
X27401290Y-19734862D01*
X27387914Y-19731995D01*
X27293562Y-19722328D01*
X27287145Y-19722000D01*
X27174615Y-19722000D01*
X27159376Y-19726475D01*
X27158171Y-19727865D01*
X27156500Y-19735548D01*
X27156500Y-22169884D01*
X27160975Y-22185123D01*
X27162365Y-22186328D01*
X27170048Y-22187999D01*
X27287095Y-22187999D01*
X27293614Y-22187662D01*
X27389206Y-22177743D01*
X27402600Y-22174851D01*
X27556784Y-22123412D01*
X27569962Y-22117239D01*
X27707807Y-22031937D01*
X27719208Y-22022901D01*
X27833739Y-21908171D01*
X27842751Y-21896760D01*
X27906584Y-21793203D01*
X27959356Y-21745710D01*
X28029428Y-21734286D01*
X28094551Y-21762560D01*
X28122298Y-21795181D01*
X28137051Y-21820127D01*
X28249873Y-21932949D01*
X28387208Y-22014168D01*
X28394819Y-22016379D01*
X28394821Y-22016380D01*
X28534249Y-22056888D01*
X28534254Y-22056889D01*
X28540426Y-22058682D01*
X28546831Y-22059186D01*
X28546836Y-22059187D01*
X28573774Y-22061307D01*
X28573782Y-22061307D01*
X28576230Y-22061500D01*
X29378770Y-22061500D01*
X29381218Y-22061307D01*
X29381226Y-22061307D01*
X29408164Y-22059187D01*
X29408169Y-22059186D01*
X29414574Y-22058682D01*
X29420746Y-22056889D01*
X29420751Y-22056888D01*
X29560179Y-22016380D01*
X29560181Y-22016379D01*
X29567792Y-22014168D01*
X29705127Y-21932949D01*
X29817949Y-21820127D01*
X29899168Y-21682792D01*
X29901380Y-21675179D01*
X29904527Y-21667906D01*
X29906290Y-21668669D01*
X29938969Y-21617506D01*
X30003467Y-21587833D01*
X30021747Y-21586500D01*
X32341234Y-21586500D01*
X32409355Y-21606502D01*
X32430329Y-21623405D01*
X32906595Y-22099671D01*
X32940621Y-22161983D01*
X32943500Y-22188766D01*
X32943500Y-22261234D01*
X32923498Y-22329355D01*
X32906595Y-22350329D01*
X31968970Y-23287954D01*
X31960728Y-23295454D01*
X31954268Y-23299554D01*
X31948843Y-23305331D01*
X31907802Y-23349035D01*
X31905047Y-23351877D01*
X31885369Y-23371555D01*
X31882909Y-23374727D01*
X31875209Y-23383743D01*
X31845045Y-23415864D01*
X31835330Y-23433535D01*
X31824484Y-23450047D01*
X31812121Y-23465985D01*
X31794619Y-23506431D01*
X31789402Y-23517079D01*
X31779331Y-23535399D01*
X31768180Y-23555682D01*
X31763165Y-23575214D01*
X31756767Y-23593900D01*
X31748755Y-23612416D01*
X31747515Y-23620248D01*
X31743245Y-23647208D01*
X31712834Y-23711362D01*
X31652567Y-23748890D01*
X31618796Y-23753500D01*
X31323842Y-23753500D01*
X31319294Y-23754170D01*
X31319287Y-23754170D01*
X31258541Y-23763112D01*
X31258539Y-23763113D01*
X31248856Y-23764538D01*
X31240068Y-23768853D01*
X31240067Y-23768853D01*
X31144197Y-23815923D01*
X31144196Y-23815924D01*
X31134849Y-23820513D01*
X31045120Y-23910399D01*
X30989345Y-24024503D01*
X30987933Y-24034183D01*
X30979165Y-24094287D01*
X30978500Y-24098842D01*
X30978500Y-25277500D01*
X30958498Y-25345621D01*
X30904842Y-25392114D01*
X30852500Y-25403500D01*
X27567500Y-25403500D01*
X27499379Y-25383498D01*
X27452886Y-25329842D01*
X27441500Y-25277500D01*
X27441500Y-25248842D01*
X27431983Y-25184183D01*
X27431888Y-25183541D01*
X27431887Y-25183539D01*
X27430462Y-25173856D01*
X27374487Y-25059849D01*
X27367120Y-25052495D01*
X27363038Y-25046793D01*
X27339647Y-24979761D01*
X27356211Y-24910723D01*
X27389924Y-24872621D01*
X27415724Y-24853285D01*
X27428285Y-24840724D01*
X27504786Y-24738649D01*
X27513324Y-24723054D01*
X27558478Y-24602606D01*
X27562105Y-24587351D01*
X27567631Y-24536486D01*
X27568000Y-24529672D01*
X27568000Y-24007115D01*
X27563525Y-23991876D01*
X27562135Y-23990671D01*
X27554452Y-23989000D01*
X24570116Y-23989000D01*
X24554877Y-23993475D01*
X24553672Y-23994865D01*
X24552001Y-24002548D01*
X24552001Y-24529669D01*
X24552371Y-24536490D01*
X24557895Y-24587352D01*
X24561521Y-24602604D01*
X24606676Y-24723054D01*
X24615214Y-24738649D01*
X24691715Y-24840724D01*
X24704278Y-24853287D01*
X24730052Y-24872604D01*
X24772567Y-24929464D01*
X24777591Y-25000282D01*
X24757065Y-25046597D01*
X24752477Y-25053029D01*
X24745120Y-25060399D01*
X24689345Y-25174503D01*
X24687933Y-25184183D01*
X24679165Y-25244287D01*
X24678500Y-25248842D01*
X24678500Y-26821158D01*
X24679170Y-26825706D01*
X24679170Y-26825713D01*
X24688112Y-26886459D01*
X24689538Y-26896144D01*
X24693853Y-26904932D01*
X24693853Y-26904933D01*
X24719495Y-26957158D01*
X24745513Y-27010151D01*
X24752883Y-27017508D01*
X24752885Y-27017511D01*
X24831266Y-27095755D01*
X24865346Y-27158037D01*
X24860343Y-27228857D01*
X24831422Y-27273946D01*
X24769980Y-27335496D01*
X24745120Y-27360399D01*
X24689345Y-27474503D01*
X24687933Y-27484183D01*
X24679165Y-27544287D01*
X24678500Y-27548842D01*
X24678500Y-29121158D01*
X24679170Y-29125706D01*
X24679170Y-29125713D01*
X24688112Y-29186459D01*
X24689538Y-29196144D01*
X24693853Y-29204932D01*
X24693853Y-29204933D01*
X24725892Y-29270187D01*
X24745513Y-29310151D01*
X24835399Y-29399880D01*
X24844755Y-29404453D01*
X24844756Y-29404454D01*
X24878901Y-29421144D01*
X24949503Y-29455655D01*
X24979945Y-29460096D01*
X25019316Y-29465840D01*
X25019320Y-29465840D01*
X25023842Y-29466500D01*
X25680000Y-29466500D01*
X25748121Y-29486502D01*
X25794614Y-29540158D01*
X25806000Y-29592500D01*
X25806000Y-30643332D01*
X25785998Y-30711453D01*
X25744140Y-30751785D01*
X25716696Y-30768015D01*
X25716691Y-30768019D01*
X25709873Y-30772051D01*
X25597051Y-30884873D01*
X25593020Y-30891689D01*
X25593017Y-30891693D01*
X25582339Y-30909750D01*
X25530446Y-30958202D01*
X25460596Y-30970908D01*
X25394965Y-30943833D01*
X25366741Y-30911914D01*
X25301937Y-30807193D01*
X25292901Y-30795792D01*
X25178171Y-30681261D01*
X25166760Y-30672249D01*
X25028757Y-30587184D01*
X25015576Y-30581037D01*
X24861290Y-30529862D01*
X24847914Y-30526995D01*
X24753562Y-30517328D01*
X24747145Y-30517000D01*
X24634615Y-30517000D01*
X24619376Y-30521475D01*
X24618171Y-30522865D01*
X24616500Y-30530548D01*
X24616500Y-32964884D01*
X24620975Y-32980123D01*
X24622365Y-32981328D01*
X24630048Y-32982999D01*
X24747095Y-32982999D01*
X24753614Y-32982662D01*
X24849206Y-32972743D01*
X24862600Y-32969851D01*
X25016784Y-32918412D01*
X25029962Y-32912239D01*
X25167807Y-32826937D01*
X25179208Y-32817901D01*
X25293739Y-32703171D01*
X25302751Y-32691760D01*
X25366584Y-32588203D01*
X25419356Y-32540710D01*
X25489428Y-32529286D01*
X25554551Y-32557560D01*
X25582298Y-32590181D01*
X25597051Y-32615127D01*
X25709873Y-32727949D01*
X25716691Y-32731981D01*
X25716696Y-32731985D01*
X25744140Y-32748215D01*
X25792592Y-32800108D01*
X25806000Y-32856668D01*
X25806000Y-34614001D01*
X25805475Y-34625129D01*
X25803806Y-34632598D01*
X25804055Y-34640521D01*
X25805938Y-34700436D01*
X25806000Y-34704394D01*
X25806000Y-34732230D01*
X25806495Y-34736146D01*
X25806502Y-34736199D01*
X25807435Y-34748043D01*
X25808818Y-34792074D01*
X25811030Y-34799686D01*
X25814441Y-34811428D01*
X25818451Y-34830790D01*
X25820978Y-34850796D01*
X25823895Y-34858162D01*
X25823896Y-34858168D01*
X25837197Y-34891763D01*
X25841041Y-34902990D01*
X25846724Y-34922548D01*
X25853332Y-34945292D01*
X25857367Y-34952115D01*
X25863595Y-34962646D01*
X25872288Y-34980390D01*
X25879714Y-34999145D01*
X25905615Y-35034794D01*
X25912122Y-35044702D01*
X25920350Y-35058614D01*
X25934551Y-35082627D01*
X25948807Y-35096883D01*
X25961648Y-35111917D01*
X25973498Y-35128227D01*
X26003339Y-35152914D01*
X26007443Y-35156309D01*
X26016222Y-35164298D01*
X30446595Y-39594671D01*
X30480621Y-39656983D01*
X30483500Y-39683766D01*
X30483500Y-40561501D01*
X30482975Y-40572629D01*
X30481306Y-40580098D01*
X30481555Y-40588021D01*
X30483438Y-40647936D01*
X30483500Y-40651894D01*
X30483500Y-40679730D01*
X30483995Y-40683646D01*
X30484002Y-40683699D01*
X30484935Y-40695543D01*
X30486318Y-40739574D01*
X30488530Y-40747186D01*
X30491941Y-40758928D01*
X30495951Y-40778290D01*
X30498478Y-40798296D01*
X30501395Y-40805662D01*
X30501396Y-40805668D01*
X30514697Y-40839263D01*
X30518541Y-40850490D01*
X30525420Y-40874164D01*
X30530832Y-40892792D01*
X30537304Y-40903735D01*
X30541095Y-40910146D01*
X30549788Y-40927890D01*
X30557214Y-40946645D01*
X30583115Y-40982294D01*
X30589622Y-40992202D01*
X30606433Y-41020627D01*
X30612051Y-41030127D01*
X30626307Y-41044383D01*
X30639148Y-41059417D01*
X30650998Y-41075727D01*
X30684943Y-41103809D01*
X30693722Y-41111798D01*
X31882954Y-42301030D01*
X31890454Y-42309272D01*
X31894554Y-42315732D01*
X31900331Y-42321157D01*
X31944035Y-42362198D01*
X31946877Y-42364953D01*
X31966555Y-42384631D01*
X31969727Y-42387091D01*
X31978743Y-42394791D01*
X32010864Y-42424955D01*
X32028535Y-42434670D01*
X32045047Y-42445516D01*
X32060985Y-42457879D01*
X32101431Y-42475381D01*
X32112079Y-42480598D01*
X32143738Y-42498003D01*
X32143741Y-42498004D01*
X32150682Y-42501820D01*
X32170214Y-42506835D01*
X32188900Y-42513233D01*
X32207416Y-42521245D01*
X32215244Y-42522485D01*
X32215248Y-42522486D01*
X32250928Y-42528138D01*
X32262549Y-42530544D01*
X32294247Y-42538682D01*
X32305223Y-42541500D01*
X32325388Y-42541500D01*
X32345098Y-42543051D01*
X32357176Y-42544964D01*
X32357177Y-42544964D01*
X32365006Y-42546204D01*
X32408860Y-42542059D01*
X32420716Y-42541500D01*
X34211501Y-42541500D01*
X34222629Y-42542025D01*
X34230098Y-42543694D01*
X34238021Y-42543445D01*
X34297936Y-42541562D01*
X34301894Y-42541500D01*
X34329730Y-42541500D01*
X34333708Y-42540997D01*
X34345543Y-42540065D01*
X34375230Y-42539133D01*
X34381651Y-42538931D01*
X34389574Y-42538682D01*
X34408928Y-42533059D01*
X34428290Y-42529049D01*
X34448296Y-42526522D01*
X34455662Y-42523605D01*
X34455668Y-42523604D01*
X34489263Y-42510303D01*
X34500490Y-42506459D01*
X34535175Y-42496381D01*
X34542792Y-42494168D01*
X34560148Y-42483904D01*
X34577890Y-42475212D01*
X34596645Y-42467786D01*
X34632294Y-42441885D01*
X34642202Y-42435378D01*
X34673303Y-42416985D01*
X34673305Y-42416984D01*
X34680127Y-42412949D01*
X34694383Y-42398693D01*
X34709417Y-42385852D01*
X34719313Y-42378662D01*
X34725727Y-42374002D01*
X34753809Y-42340057D01*
X34761798Y-42331278D01*
X35316030Y-41777046D01*
X35324272Y-41769546D01*
X35330732Y-41765446D01*
X35377198Y-41715965D01*
X35379953Y-41713123D01*
X35399632Y-41693444D01*
X35402063Y-41690309D01*
X35402068Y-41690304D01*
X35402092Y-41690273D01*
X35409804Y-41681243D01*
X35434528Y-41654915D01*
X35439955Y-41649136D01*
X35449669Y-41631466D01*
X35460523Y-41614943D01*
X35468020Y-41605278D01*
X35472879Y-41599014D01*
X35490375Y-41558583D01*
X35495595Y-41547926D01*
X35513001Y-41516264D01*
X35516820Y-41509318D01*
X35521835Y-41489788D01*
X35528238Y-41471088D01*
X35533098Y-41459857D01*
X35533099Y-41459852D01*
X35536245Y-41452583D01*
X35543137Y-41409066D01*
X35545545Y-41397442D01*
X35554529Y-41362454D01*
X35554529Y-41362453D01*
X35556500Y-41354777D01*
X35556500Y-41334617D01*
X35558051Y-41314906D01*
X35559965Y-41302821D01*
X35561205Y-41294993D01*
X35557059Y-41251132D01*
X35556500Y-41239275D01*
X35556500Y-41145345D01*
X35576502Y-41077224D01*
X35630158Y-41030731D01*
X35700432Y-41020627D01*
X35758679Y-41044982D01*
X35774791Y-41057212D01*
X35774794Y-41057214D01*
X35781632Y-41062404D01*
X35789613Y-41065564D01*
X35789615Y-41065565D01*
X35856098Y-41091887D01*
X35917028Y-41116011D01*
X35925066Y-41116984D01*
X35925067Y-41116984D01*
X35956014Y-41120729D01*
X36003706Y-41126500D01*
X36386294Y-41126500D01*
X36433986Y-41120729D01*
X36464933Y-41116984D01*
X36464934Y-41116984D01*
X36472972Y-41116011D01*
X36533902Y-41091887D01*
X36600385Y-41065565D01*
X36600387Y-41065564D01*
X36608368Y-41062404D01*
X36724361Y-40974361D01*
X36729637Y-40967410D01*
X36729740Y-40967334D01*
X36735629Y-40961445D01*
X36736516Y-40962332D01*
X36786754Y-40925243D01*
X36857602Y-40920649D01*
X36919686Y-40955088D01*
X36930363Y-40967410D01*
X36935639Y-40974361D01*
X37051632Y-41062404D01*
X37059613Y-41065564D01*
X37059615Y-41065565D01*
X37126098Y-41091887D01*
X37187028Y-41116011D01*
X37195066Y-41116984D01*
X37195067Y-41116984D01*
X37226014Y-41120729D01*
X37273706Y-41126500D01*
X37656294Y-41126500D01*
X37703986Y-41120729D01*
X37734933Y-41116984D01*
X37734934Y-41116984D01*
X37742972Y-41116011D01*
X37803902Y-41091887D01*
X37870385Y-41065565D01*
X37870387Y-41065564D01*
X37878368Y-41062404D01*
X37994361Y-40974361D01*
X38011849Y-40951321D01*
X38068966Y-40909154D01*
X38112212Y-40901500D01*
X45059111Y-40901500D01*
X45062629Y-40901549D01*
X45140871Y-40903735D01*
X45140874Y-40903735D01*
X45147254Y-40903913D01*
X45205446Y-40893652D01*
X45214594Y-40892383D01*
X45230953Y-40890721D01*
X45273376Y-40886412D01*
X45300169Y-40878016D01*
X45315969Y-40874164D01*
X45337333Y-40870397D01*
X45337335Y-40870396D01*
X45343621Y-40869288D01*
X45349555Y-40866939D01*
X45349557Y-40866938D01*
X45398561Y-40847536D01*
X45407264Y-40844454D01*
X45457557Y-40828693D01*
X45457558Y-40828692D01*
X45463648Y-40826784D01*
X45475107Y-40820433D01*
X45488204Y-40813173D01*
X45502902Y-40806225D01*
X45523074Y-40798238D01*
X45523077Y-40798236D01*
X45529016Y-40795885D01*
X45578464Y-40763527D01*
X45586363Y-40758762D01*
X45638044Y-40730115D01*
X45642894Y-40725958D01*
X45642897Y-40725956D01*
X45659365Y-40711842D01*
X45672366Y-40702080D01*
X45691808Y-40689357D01*
X45695864Y-40686703D01*
X45699464Y-40683461D01*
X45699468Y-40683458D01*
X45699477Y-40683449D01*
X45700720Y-40682330D01*
X45738827Y-40644223D01*
X45745924Y-40637650D01*
X45784593Y-40604506D01*
X45789440Y-40600352D01*
X45799966Y-40586783D01*
X45807899Y-40576555D01*
X45818363Y-40564687D01*
X45900938Y-40482112D01*
X45963250Y-40448086D01*
X46013534Y-40447418D01*
X46029115Y-40450376D01*
X46159536Y-40455500D01*
X46274180Y-40460005D01*
X46274185Y-40460005D01*
X46278848Y-40460188D01*
X46354879Y-40451861D01*
X46522635Y-40433489D01*
X46522640Y-40433488D01*
X46527288Y-40432979D01*
X46594328Y-40415329D01*
X46764455Y-40370539D01*
X46764458Y-40370538D01*
X46768978Y-40369348D01*
X46806990Y-40353017D01*
X46994313Y-40272536D01*
X46994315Y-40272535D01*
X46998607Y-40270691D01*
X47147627Y-40178475D01*
X47207149Y-40141642D01*
X47207151Y-40141640D01*
X47211132Y-40139177D01*
X47401884Y-39977694D01*
X47566671Y-39789790D01*
X47646296Y-39666000D01*
X47699350Y-39583518D01*
X47699352Y-39583515D01*
X47701875Y-39579592D01*
X47804524Y-39351719D01*
X47872364Y-39111177D01*
X47889781Y-38974267D01*
X47903506Y-38866381D01*
X47903506Y-38866375D01*
X47903904Y-38863250D01*
X47904374Y-38845322D01*
X47906132Y-38778160D01*
X47906215Y-38775000D01*
X47887693Y-38525762D01*
X47832535Y-38281998D01*
X47830842Y-38277644D01*
X47743646Y-38053419D01*
X47743645Y-38053417D01*
X47741953Y-38049066D01*
X47713598Y-37999454D01*
X47659699Y-37905151D01*
X47617936Y-37832081D01*
X47463208Y-37635810D01*
X47281169Y-37464565D01*
X47109492Y-37345468D01*
X47079661Y-37324773D01*
X47079658Y-37324771D01*
X47075819Y-37322108D01*
X47071629Y-37320042D01*
X47071626Y-37320040D01*
X46855855Y-37213634D01*
X46855852Y-37213633D01*
X46851667Y-37211569D01*
X46801684Y-37195569D01*
X46618084Y-37136798D01*
X46618086Y-37136798D01*
X46613639Y-37135375D01*
X46533827Y-37122377D01*
X46371576Y-37095953D01*
X46371573Y-37095953D01*
X46366963Y-37095202D01*
X46242011Y-37093566D01*
X46121736Y-37091991D01*
X46121733Y-37091991D01*
X46117059Y-37091930D01*
X45869416Y-37125633D01*
X45864930Y-37126941D01*
X45864928Y-37126941D01*
X45831110Y-37136798D01*
X45629475Y-37195569D01*
X45402507Y-37300203D01*
X45398598Y-37302766D01*
X45197410Y-37434670D01*
X45197405Y-37434674D01*
X45193497Y-37437236D01*
X45007038Y-37603657D01*
X44909708Y-37720684D01*
X44859696Y-37780817D01*
X44847226Y-37795810D01*
X44844803Y-37799803D01*
X44724045Y-37998806D01*
X44717571Y-38009474D01*
X44715765Y-38013782D01*
X44715764Y-38013783D01*
X44653867Y-38161392D01*
X44620922Y-38239956D01*
X44619771Y-38244488D01*
X44619770Y-38244491D01*
X44609087Y-38286555D01*
X44559402Y-38482192D01*
X44534363Y-38730860D01*
X44534587Y-38735526D01*
X44534587Y-38735532D01*
X44537994Y-38806455D01*
X44521283Y-38875457D01*
X44469920Y-38924470D01*
X44412139Y-38938500D01*
X38112212Y-38938500D01*
X38044091Y-38918498D01*
X38011849Y-38888679D01*
X37999552Y-38872478D01*
X37994361Y-38865639D01*
X37878368Y-38777596D01*
X37870387Y-38774436D01*
X37870385Y-38774435D01*
X37760326Y-38730860D01*
X37742972Y-38723989D01*
X37734934Y-38723016D01*
X37734933Y-38723016D01*
X37703986Y-38719271D01*
X37656294Y-38713500D01*
X37273706Y-38713500D01*
X37226014Y-38719271D01*
X37195067Y-38723016D01*
X37195066Y-38723016D01*
X37187028Y-38723989D01*
X37169674Y-38730860D01*
X37059615Y-38774435D01*
X37059613Y-38774436D01*
X37051632Y-38777596D01*
X36935639Y-38865639D01*
X36930448Y-38872478D01*
X36930363Y-38872590D01*
X36930260Y-38872666D01*
X36924371Y-38878555D01*
X36923484Y-38877668D01*
X36873246Y-38914757D01*
X36802398Y-38919351D01*
X36740314Y-38884912D01*
X36729637Y-38872590D01*
X36729552Y-38872478D01*
X36724361Y-38865639D01*
X36608368Y-38777596D01*
X36600387Y-38774436D01*
X36600385Y-38774435D01*
X36490326Y-38730860D01*
X36472972Y-38723989D01*
X36464934Y-38723016D01*
X36464933Y-38723016D01*
X36433986Y-38719271D01*
X36386294Y-38713500D01*
X36003706Y-38713500D01*
X35956014Y-38719271D01*
X35925067Y-38723016D01*
X35925066Y-38723016D01*
X35917028Y-38723989D01*
X35899674Y-38730860D01*
X35789615Y-38774435D01*
X35789613Y-38774436D01*
X35781632Y-38777596D01*
X35665639Y-38865639D01*
X35660448Y-38872478D01*
X35660363Y-38872590D01*
X35660260Y-38872666D01*
X35654371Y-38878555D01*
X35653484Y-38877668D01*
X35603246Y-38914757D01*
X35532398Y-38919351D01*
X35470314Y-38884912D01*
X35459637Y-38872590D01*
X35459552Y-38872478D01*
X35454361Y-38865639D01*
X35338368Y-38777596D01*
X35330387Y-38774436D01*
X35330385Y-38774435D01*
X35220326Y-38730860D01*
X35202972Y-38723989D01*
X35194934Y-38723016D01*
X35194933Y-38723016D01*
X35163986Y-38719271D01*
X35116294Y-38713500D01*
X34733706Y-38713500D01*
X34686014Y-38719271D01*
X34655067Y-38723016D01*
X34655066Y-38723016D01*
X34647028Y-38723989D01*
X34629674Y-38730860D01*
X34519615Y-38774435D01*
X34519613Y-38774436D01*
X34511632Y-38777596D01*
X34460765Y-38816206D01*
X34394412Y-38841459D01*
X34324939Y-38826830D01*
X34295491Y-38804938D01*
X34217104Y-38726551D01*
X34204678Y-38716911D01*
X34075221Y-38640352D01*
X34060790Y-38634107D01*
X33926395Y-38595061D01*
X33912294Y-38595101D01*
X33909000Y-38602370D01*
X33909000Y-40048000D01*
X33888998Y-40116121D01*
X33835342Y-40162614D01*
X33783000Y-40174000D01*
X32865116Y-40174000D01*
X32849877Y-40178475D01*
X32848672Y-40179865D01*
X32847001Y-40187548D01*
X32847001Y-40658984D01*
X32847195Y-40663920D01*
X32849430Y-40692336D01*
X32851730Y-40704931D01*
X32894107Y-40850790D01*
X32900352Y-40865221D01*
X32976911Y-40994678D01*
X32986551Y-41007104D01*
X33042852Y-41063405D01*
X33076878Y-41125717D01*
X33071813Y-41196532D01*
X33029266Y-41253368D01*
X32962746Y-41278179D01*
X32953757Y-41278500D01*
X32698766Y-41278500D01*
X32630645Y-41258498D01*
X32609671Y-41241595D01*
X31783405Y-40415329D01*
X31749379Y-40353017D01*
X31746500Y-40326234D01*
X31746500Y-39647885D01*
X32847000Y-39647885D01*
X32851475Y-39663124D01*
X32852865Y-39664329D01*
X32860548Y-39666000D01*
X33382885Y-39666000D01*
X33398124Y-39661525D01*
X33399329Y-39660135D01*
X33401000Y-39652452D01*
X33401000Y-38608122D01*
X33397027Y-38594591D01*
X33389129Y-38593456D01*
X33249210Y-38634107D01*
X33234779Y-38640352D01*
X33105322Y-38716911D01*
X33092896Y-38726551D01*
X32986551Y-38832896D01*
X32976911Y-38845322D01*
X32900352Y-38974779D01*
X32894107Y-38989210D01*
X32851731Y-39135065D01*
X32849430Y-39147667D01*
X32847193Y-39176084D01*
X32847000Y-39181014D01*
X32847000Y-39647885D01*
X31746500Y-39647885D01*
X31746500Y-39448499D01*
X31747025Y-39437371D01*
X31748694Y-39429902D01*
X31746562Y-39362064D01*
X31746500Y-39358106D01*
X31746500Y-39330270D01*
X31745997Y-39326292D01*
X31745065Y-39314451D01*
X31743931Y-39278349D01*
X31743682Y-39270426D01*
X31738059Y-39251072D01*
X31734049Y-39231709D01*
X31732515Y-39219565D01*
X31731522Y-39211704D01*
X31728605Y-39204338D01*
X31728604Y-39204332D01*
X31715303Y-39170737D01*
X31711459Y-39159510D01*
X31701381Y-39124825D01*
X31699168Y-39117208D01*
X31688904Y-39099852D01*
X31680212Y-39082110D01*
X31672786Y-39063355D01*
X31646885Y-39027706D01*
X31640378Y-39017798D01*
X31621985Y-38986697D01*
X31621984Y-38986695D01*
X31617949Y-38979873D01*
X31603693Y-38965617D01*
X31590852Y-38950583D01*
X31583662Y-38940687D01*
X31579002Y-38934273D01*
X31545057Y-38906191D01*
X31536278Y-38898202D01*
X27105905Y-34467829D01*
X27071879Y-34405517D01*
X27069000Y-34378734D01*
X27069000Y-32856668D01*
X27089002Y-32788547D01*
X27130860Y-32748215D01*
X27158304Y-32731985D01*
X27158309Y-32731981D01*
X27165127Y-32727949D01*
X27277949Y-32615127D01*
X27291994Y-32591379D01*
X27355133Y-32484615D01*
X27359168Y-32477792D01*
X27361380Y-32470179D01*
X27401888Y-32330751D01*
X27401889Y-32330746D01*
X27403682Y-32324574D01*
X27404554Y-32313506D01*
X27406307Y-32291226D01*
X27406307Y-32291218D01*
X27406500Y-32288770D01*
X27406500Y-31211230D01*
X27405759Y-31201812D01*
X27404187Y-31181836D01*
X27404186Y-31181831D01*
X27403682Y-31175426D01*
X27401889Y-31169254D01*
X27401888Y-31169249D01*
X27361380Y-31029821D01*
X27361379Y-31029819D01*
X27359168Y-31022208D01*
X27277949Y-30884873D01*
X27165127Y-30772051D01*
X27158309Y-30768019D01*
X27158304Y-30768015D01*
X27130860Y-30751785D01*
X27082408Y-30699892D01*
X27069000Y-30643332D01*
X27069000Y-29578408D01*
X27089002Y-29510287D01*
X27142658Y-29463794D01*
X27157609Y-29458084D01*
X27161459Y-29456888D01*
X27171144Y-29455462D01*
X27179933Y-29451147D01*
X27275803Y-29404077D01*
X27275804Y-29404076D01*
X27285151Y-29399487D01*
X27366987Y-29317508D01*
X27367522Y-29316972D01*
X27374880Y-29309601D01*
X27430655Y-29195497D01*
X27440277Y-29129542D01*
X27440840Y-29125684D01*
X27440840Y-29125680D01*
X27441500Y-29121158D01*
X27441500Y-27548842D01*
X27438040Y-27525331D01*
X27431888Y-27483541D01*
X27431887Y-27483539D01*
X27430462Y-27473856D01*
X27374487Y-27359849D01*
X27367117Y-27352492D01*
X27367115Y-27352489D01*
X27288734Y-27274245D01*
X27254654Y-27211963D01*
X27259657Y-27141143D01*
X27288578Y-27096054D01*
X27367522Y-27016972D01*
X27374880Y-27009601D01*
X27430655Y-26895497D01*
X27435437Y-26862716D01*
X27440840Y-26825684D01*
X27440840Y-26825680D01*
X27441500Y-26821158D01*
X27441500Y-26792500D01*
X27461502Y-26724379D01*
X27515158Y-26677886D01*
X27567500Y-26666500D01*
X30852500Y-26666500D01*
X30920621Y-26686502D01*
X30967114Y-26740158D01*
X30978500Y-26792500D01*
X30978500Y-27971158D01*
X30979170Y-27975706D01*
X30979170Y-27975713D01*
X30988112Y-28036459D01*
X30989538Y-28046144D01*
X30993853Y-28054932D01*
X30993853Y-28054933D01*
X31037883Y-28144610D01*
X31045513Y-28160151D01*
X31135399Y-28249880D01*
X31249503Y-28305655D01*
X31282284Y-28310437D01*
X31319316Y-28315840D01*
X31319320Y-28315840D01*
X31323842Y-28316500D01*
X31602500Y-28316500D01*
X31670621Y-28336502D01*
X31717114Y-28390158D01*
X31728500Y-28442500D01*
X31728500Y-29678297D01*
X31708498Y-29746418D01*
X31656869Y-29790258D01*
X31657208Y-29790832D01*
X31650385Y-29794867D01*
X31648255Y-29796127D01*
X31519873Y-29872051D01*
X31514264Y-29877660D01*
X31509729Y-29881178D01*
X31443644Y-29907126D01*
X31374021Y-29893227D01*
X31355271Y-29881178D01*
X31350736Y-29877660D01*
X31345127Y-29872051D01*
X31216746Y-29796127D01*
X31214615Y-29794867D01*
X31207792Y-29790832D01*
X31200181Y-29788621D01*
X31200179Y-29788620D01*
X31060751Y-29748112D01*
X31060746Y-29748111D01*
X31054574Y-29746318D01*
X31048169Y-29745814D01*
X31048164Y-29745813D01*
X31021226Y-29743693D01*
X31021218Y-29743693D01*
X31018770Y-29743500D01*
X29941230Y-29743500D01*
X29938782Y-29743693D01*
X29938774Y-29743693D01*
X29911836Y-29745813D01*
X29911831Y-29745814D01*
X29905426Y-29746318D01*
X29899254Y-29748111D01*
X29899249Y-29748112D01*
X29759821Y-29788620D01*
X29759819Y-29788621D01*
X29752208Y-29790832D01*
X29745385Y-29794867D01*
X29743255Y-29796127D01*
X29614873Y-29872051D01*
X29502051Y-29984873D01*
X29498017Y-29991693D01*
X29498017Y-29991694D01*
X29454534Y-30065220D01*
X29402641Y-30113673D01*
X29381233Y-30122078D01*
X29367317Y-30126121D01*
X29367315Y-30126122D01*
X29359708Y-30128332D01*
X29344892Y-30137094D01*
X29342354Y-30138595D01*
X29324610Y-30147288D01*
X29305855Y-30154714D01*
X29270206Y-30180615D01*
X29260298Y-30187122D01*
X29229197Y-30205515D01*
X29229195Y-30205516D01*
X29222373Y-30209551D01*
X29208117Y-30223807D01*
X29193083Y-30236648D01*
X29176773Y-30248498D01*
X29158527Y-30270554D01*
X29148691Y-30282443D01*
X29140702Y-30291222D01*
X28183970Y-31247954D01*
X28175728Y-31255454D01*
X28169268Y-31259554D01*
X28163843Y-31265331D01*
X28122802Y-31309035D01*
X28120047Y-31311877D01*
X28100369Y-31331555D01*
X28097909Y-31334727D01*
X28090209Y-31343743D01*
X28060045Y-31375864D01*
X28050330Y-31393535D01*
X28039484Y-31410047D01*
X28027121Y-31425985D01*
X28009619Y-31466431D01*
X28004402Y-31477079D01*
X27992471Y-31498782D01*
X27983180Y-31515682D01*
X27978165Y-31535214D01*
X27971767Y-31553900D01*
X27963755Y-31572416D01*
X27960002Y-31596117D01*
X27956865Y-31615923D01*
X27954458Y-31627547D01*
X27943500Y-31670223D01*
X27943500Y-31690389D01*
X27941949Y-31710099D01*
X27938796Y-31730007D01*
X27939542Y-31737899D01*
X27942941Y-31773860D01*
X27943500Y-31785717D01*
X27943500Y-33576501D01*
X27942975Y-33587629D01*
X27941306Y-33595098D01*
X27941555Y-33603021D01*
X27943438Y-33662936D01*
X27943500Y-33666894D01*
X27943500Y-33694730D01*
X27943995Y-33698646D01*
X27944002Y-33698699D01*
X27944935Y-33710543D01*
X27946318Y-33754574D01*
X27948834Y-33763233D01*
X27951941Y-33773928D01*
X27955951Y-33793290D01*
X27958478Y-33813296D01*
X27961395Y-33820662D01*
X27961396Y-33820668D01*
X27974697Y-33854263D01*
X27978541Y-33865490D01*
X27983629Y-33883000D01*
X27990832Y-33907792D01*
X27994867Y-33914615D01*
X28001095Y-33925146D01*
X28009788Y-33942890D01*
X28017214Y-33961645D01*
X28043115Y-33997294D01*
X28049622Y-34007202D01*
X28072051Y-34045127D01*
X28086307Y-34059383D01*
X28099148Y-34074417D01*
X28104973Y-34082434D01*
X28110998Y-34090727D01*
X28144943Y-34118809D01*
X28153722Y-34126798D01*
X29342954Y-35316030D01*
X29350454Y-35324272D01*
X29354554Y-35330732D01*
X29360331Y-35336157D01*
X29404035Y-35377198D01*
X29406877Y-35379953D01*
X29426555Y-35399631D01*
X29429727Y-35402091D01*
X29438743Y-35409791D01*
X29470864Y-35439955D01*
X29488535Y-35449670D01*
X29505047Y-35460516D01*
X29520985Y-35472879D01*
X29561431Y-35490381D01*
X29572079Y-35495598D01*
X29603738Y-35513003D01*
X29603741Y-35513004D01*
X29610682Y-35516820D01*
X29630214Y-35521835D01*
X29648900Y-35528233D01*
X29667416Y-35536245D01*
X29675244Y-35537485D01*
X29675248Y-35537486D01*
X29710928Y-35543138D01*
X29722549Y-35545544D01*
X29757542Y-35554528D01*
X29765223Y-35556500D01*
X29785388Y-35556500D01*
X29805098Y-35558051D01*
X29817176Y-35559964D01*
X29817177Y-35559964D01*
X29825006Y-35561204D01*
X29868860Y-35557059D01*
X29880716Y-35556500D01*
X31436234Y-35556500D01*
X31504355Y-35576502D01*
X31525329Y-35593405D01*
X31767987Y-35836063D01*
X31802013Y-35898375D01*
X31803285Y-35934688D01*
X31804489Y-35934775D01*
X31804159Y-35939327D01*
X31803500Y-35943842D01*
X31803500Y-37716158D01*
X31804170Y-37720706D01*
X31804170Y-37720713D01*
X31813112Y-37781459D01*
X31814538Y-37791144D01*
X31818853Y-37799932D01*
X31818853Y-37799933D01*
X31836630Y-37836139D01*
X31870513Y-37905151D01*
X31960399Y-37994880D01*
X31969755Y-37999453D01*
X31969756Y-37999454D01*
X32006635Y-38017480D01*
X32074503Y-38050655D01*
X32107284Y-38055437D01*
X32144316Y-38060840D01*
X32144320Y-38060840D01*
X32148842Y-38061500D01*
X33921158Y-38061500D01*
X33925706Y-38060830D01*
X33925713Y-38060830D01*
X33986459Y-38051888D01*
X33986461Y-38051887D01*
X33996144Y-38050462D01*
X34005234Y-38045999D01*
X34100803Y-37999077D01*
X34100804Y-37999076D01*
X34110151Y-37994487D01*
X34199880Y-37904601D01*
X34255655Y-37790497D01*
X34260472Y-37757476D01*
X34265840Y-37720684D01*
X34265840Y-37720680D01*
X34266500Y-37716158D01*
X34266500Y-37505299D01*
X34286502Y-37437178D01*
X34340158Y-37390685D01*
X34410432Y-37380581D01*
X34475012Y-37410075D01*
X34501619Y-37442299D01*
X34502092Y-37443118D01*
X34504416Y-37448102D01*
X34544466Y-37505299D01*
X34615857Y-37607256D01*
X34628013Y-37624617D01*
X34780383Y-37776987D01*
X34784891Y-37780144D01*
X34784894Y-37780146D01*
X34950070Y-37895803D01*
X34956898Y-37900584D01*
X34961880Y-37902907D01*
X34961885Y-37902910D01*
X35143336Y-37987522D01*
X35152193Y-37991652D01*
X35157501Y-37993074D01*
X35157503Y-37993075D01*
X35355020Y-38045999D01*
X35355022Y-38045999D01*
X35360335Y-38047423D01*
X35575000Y-38066204D01*
X35789665Y-38047423D01*
X35794978Y-38045999D01*
X35794980Y-38045999D01*
X35992497Y-37993075D01*
X35992499Y-37993074D01*
X35997807Y-37991652D01*
X36006664Y-37987522D01*
X36188115Y-37902910D01*
X36188120Y-37902907D01*
X36193102Y-37900584D01*
X36199930Y-37895803D01*
X36365106Y-37780146D01*
X36365109Y-37780144D01*
X36369617Y-37776987D01*
X36521987Y-37624617D01*
X36534144Y-37607256D01*
X36642427Y-37452611D01*
X36642430Y-37452606D01*
X36645584Y-37448102D01*
X36647907Y-37443120D01*
X36647910Y-37443115D01*
X36659521Y-37418214D01*
X36706438Y-37364929D01*
X36774716Y-37345468D01*
X36842675Y-37366010D01*
X36890459Y-37424061D01*
X36896768Y-37439599D01*
X36901413Y-37448794D01*
X37012694Y-37630388D01*
X37018777Y-37638699D01*
X37158213Y-37799667D01*
X37165580Y-37806883D01*
X37329434Y-37942916D01*
X37337881Y-37948831D01*
X37521756Y-38056279D01*
X37531042Y-38060729D01*
X37730001Y-38136703D01*
X37739899Y-38139579D01*
X37843250Y-38160606D01*
X37857299Y-38159410D01*
X37861000Y-38149065D01*
X37861000Y-38148517D01*
X38369000Y-38148517D01*
X38373064Y-38162359D01*
X38386478Y-38164393D01*
X38393184Y-38163534D01*
X38403262Y-38161392D01*
X38607255Y-38100191D01*
X38616842Y-38096433D01*
X38808095Y-38002739D01*
X38816945Y-37997464D01*
X38990328Y-37873792D01*
X38998200Y-37867139D01*
X39149052Y-37716812D01*
X39155730Y-37708965D01*
X39280003Y-37536020D01*
X39285313Y-37527183D01*
X39379670Y-37336267D01*
X39383469Y-37326672D01*
X39445377Y-37122910D01*
X39447555Y-37112837D01*
X39448986Y-37101962D01*
X39446775Y-37087778D01*
X39433617Y-37084000D01*
X38387115Y-37084000D01*
X38371876Y-37088475D01*
X38370671Y-37089865D01*
X38369000Y-37097548D01*
X38369000Y-38148517D01*
X37861000Y-38148517D01*
X37861000Y-36557885D01*
X38369000Y-36557885D01*
X38373475Y-36573124D01*
X38374865Y-36574329D01*
X38382548Y-36576000D01*
X39433344Y-36576000D01*
X39446875Y-36572027D01*
X39448180Y-36562947D01*
X39406214Y-36395875D01*
X39402894Y-36386124D01*
X39317972Y-36190814D01*
X39313105Y-36181739D01*
X39197426Y-36002926D01*
X39191136Y-35994757D01*
X39047806Y-35837240D01*
X39040273Y-35830215D01*
X38873139Y-35698222D01*
X38864552Y-35692517D01*
X38678117Y-35589599D01*
X38668705Y-35585369D01*
X38467959Y-35514280D01*
X38457988Y-35511646D01*
X38386837Y-35498972D01*
X38373540Y-35500432D01*
X38369000Y-35514989D01*
X38369000Y-36557885D01*
X37861000Y-36557885D01*
X37861000Y-35513102D01*
X37857082Y-35499758D01*
X37842806Y-35497771D01*
X37804324Y-35503660D01*
X37794288Y-35506051D01*
X37591868Y-35572212D01*
X37582359Y-35576209D01*
X37393463Y-35674542D01*
X37384738Y-35680036D01*
X37214433Y-35807905D01*
X37206726Y-35814748D01*
X37059590Y-35968717D01*
X37053104Y-35976727D01*
X36933098Y-36152649D01*
X36927996Y-36161629D01*
X36889445Y-36244680D01*
X36842621Y-36298047D01*
X36774378Y-36317627D01*
X36706382Y-36297203D01*
X36660963Y-36244878D01*
X36647912Y-36216889D01*
X36647909Y-36216883D01*
X36645584Y-36211898D01*
X36630821Y-36190814D01*
X36525146Y-36039894D01*
X36525144Y-36039891D01*
X36521987Y-36035383D01*
X36369617Y-35883013D01*
X36365109Y-35879856D01*
X36365106Y-35879854D01*
X36197611Y-35762573D01*
X36197609Y-35762572D01*
X36193102Y-35759416D01*
X36188120Y-35757093D01*
X36188115Y-35757090D01*
X36155985Y-35742108D01*
X36102700Y-35695191D01*
X36083239Y-35626913D01*
X36083394Y-35623400D01*
X36085060Y-35616038D01*
X36081742Y-35562557D01*
X36081500Y-35554756D01*
X36081500Y-35538634D01*
X36080026Y-35528340D01*
X36078994Y-35518274D01*
X36078791Y-35514989D01*
X36076076Y-35471232D01*
X36073026Y-35462785D01*
X36072384Y-35459683D01*
X36068299Y-35443298D01*
X36067412Y-35440265D01*
X36066140Y-35431381D01*
X36056326Y-35409795D01*
X36046628Y-35388467D01*
X36042815Y-35379098D01*
X36029859Y-35343208D01*
X36029858Y-35343207D01*
X36026812Y-35334768D01*
X36021521Y-35327525D01*
X36020055Y-35324768D01*
X36011494Y-35310118D01*
X36009804Y-35307476D01*
X36006090Y-35299307D01*
X36000231Y-35292507D01*
X36000229Y-35292504D01*
X35975318Y-35263593D01*
X35969040Y-35255688D01*
X35961049Y-35244750D01*
X35950131Y-35233832D01*
X35943773Y-35226985D01*
X35917245Y-35196198D01*
X35911384Y-35189396D01*
X35903849Y-35184512D01*
X35897433Y-35178915D01*
X35885808Y-35169509D01*
X35429811Y-34713512D01*
X35395785Y-34651200D01*
X35400850Y-34580385D01*
X35443397Y-34523549D01*
X35490507Y-34501659D01*
X35490741Y-34501605D01*
X35558011Y-34486042D01*
X35558036Y-34486032D01*
X35627491Y-34484333D01*
X35636709Y-34487179D01*
X35676113Y-34501017D01*
X35676121Y-34501019D01*
X35683363Y-34503562D01*
X35691003Y-34504284D01*
X35691007Y-34504285D01*
X35704287Y-34505540D01*
X35714445Y-34506500D01*
X35829941Y-34506500D01*
X35945554Y-34506499D01*
X35948502Y-34506220D01*
X35948511Y-34506220D01*
X35968988Y-34504285D01*
X35968990Y-34504285D01*
X35976637Y-34503562D01*
X36038253Y-34481924D01*
X36109150Y-34478224D01*
X36121737Y-34481920D01*
X36183363Y-34503562D01*
X36191005Y-34504284D01*
X36191008Y-34504285D01*
X36203172Y-34505434D01*
X36214445Y-34506500D01*
X36329941Y-34506500D01*
X36445554Y-34506499D01*
X36448502Y-34506220D01*
X36448511Y-34506220D01*
X36468988Y-34504285D01*
X36468990Y-34504285D01*
X36476637Y-34503562D01*
X36538253Y-34481924D01*
X36609150Y-34478224D01*
X36621737Y-34481920D01*
X36683363Y-34503562D01*
X36691005Y-34504284D01*
X36691008Y-34504285D01*
X36703172Y-34505434D01*
X36714445Y-34506500D01*
X36829941Y-34506500D01*
X36945554Y-34506499D01*
X36948502Y-34506220D01*
X36948511Y-34506220D01*
X36968988Y-34504285D01*
X36968990Y-34504285D01*
X36976637Y-34503562D01*
X37038253Y-34481924D01*
X37109150Y-34478224D01*
X37121737Y-34481920D01*
X37183363Y-34503562D01*
X37191005Y-34504284D01*
X37191008Y-34504285D01*
X37203172Y-34505434D01*
X37214445Y-34506500D01*
X37329941Y-34506500D01*
X37445554Y-34506499D01*
X37448502Y-34506220D01*
X37448511Y-34506220D01*
X37468988Y-34504285D01*
X37468990Y-34504285D01*
X37476637Y-34503562D01*
X37538253Y-34481924D01*
X37609150Y-34478224D01*
X37621737Y-34481920D01*
X37683363Y-34503562D01*
X37691005Y-34504284D01*
X37691008Y-34504285D01*
X37703172Y-34505434D01*
X37714445Y-34506500D01*
X37829941Y-34506500D01*
X37945554Y-34506499D01*
X37948502Y-34506220D01*
X37948511Y-34506220D01*
X37968987Y-34504285D01*
X37968988Y-34504285D01*
X37976637Y-34503562D01*
X37983882Y-34501018D01*
X37983890Y-34501016D01*
X38022550Y-34487439D01*
X38093450Y-34483740D01*
X38105198Y-34487144D01*
X38147322Y-34501605D01*
X38273965Y-34514740D01*
X38284136Y-34512387D01*
X38290096Y-34512017D01*
X38297903Y-34511775D01*
X38398858Y-34511775D01*
X38411857Y-34512447D01*
X38433965Y-34514740D01*
X38558011Y-34486042D01*
X38566961Y-34482335D01*
X38592451Y-34471777D01*
X38594193Y-34470926D01*
X38594205Y-34470920D01*
X38629074Y-34453873D01*
X38635520Y-34450722D01*
X38734357Y-34370458D01*
X38774053Y-34306865D01*
X38799017Y-34266873D01*
X38799018Y-34266870D01*
X38801777Y-34262451D01*
X38816043Y-34228009D01*
X38816908Y-34225491D01*
X38829278Y-34189457D01*
X38829278Y-34189455D01*
X38831605Y-34182678D01*
X38844740Y-34056035D01*
X38842387Y-34045864D01*
X38842017Y-34039904D01*
X38841775Y-34032097D01*
X38841775Y-33887775D01*
X38861777Y-33819654D01*
X38915433Y-33773161D01*
X38967775Y-33761775D01*
X39148858Y-33761775D01*
X39161857Y-33762447D01*
X39183965Y-33764740D01*
X39195874Y-33761985D01*
X39262154Y-33746651D01*
X39308011Y-33736042D01*
X39316961Y-33732335D01*
X39342451Y-33721777D01*
X39344193Y-33720926D01*
X39344205Y-33720920D01*
X39379074Y-33703873D01*
X39385520Y-33700722D01*
X39484357Y-33620458D01*
X39551777Y-33512451D01*
X39559169Y-33494604D01*
X39565296Y-33479813D01*
X39565298Y-33479807D01*
X39566043Y-33478009D01*
X39581605Y-33432678D01*
X39594740Y-33306035D01*
X39592387Y-33295864D01*
X39592017Y-33289904D01*
X39591775Y-33282097D01*
X39591775Y-33181143D01*
X39592447Y-33168144D01*
X39593663Y-33156421D01*
X39594740Y-33146037D01*
X39573691Y-33055048D01*
X39567219Y-33027074D01*
X39567219Y-33027073D01*
X39566043Y-33021991D01*
X39566032Y-33021964D01*
X39564333Y-32952509D01*
X39567179Y-32943291D01*
X39581017Y-32903887D01*
X39581019Y-32903879D01*
X39583562Y-32896637D01*
X39586019Y-32870643D01*
X39612343Y-32804707D01*
X39670135Y-32763469D01*
X39711460Y-32756500D01*
X40067500Y-32756500D01*
X40135621Y-32776502D01*
X40182114Y-32830158D01*
X40193500Y-32882500D01*
X40193500Y-33068770D01*
X40193693Y-33071218D01*
X40193693Y-33071226D01*
X40194427Y-33080544D01*
X40196318Y-33104574D01*
X40198111Y-33110746D01*
X40198112Y-33110751D01*
X40218563Y-33181143D01*
X40240832Y-33257792D01*
X40322051Y-33395127D01*
X40434873Y-33507949D01*
X40441695Y-33511984D01*
X40441697Y-33511985D01*
X40500137Y-33546546D01*
X40548590Y-33598439D01*
X40561296Y-33668289D01*
X40534221Y-33733920D01*
X40500137Y-33763454D01*
X40441697Y-33798015D01*
X40441695Y-33798016D01*
X40434873Y-33802051D01*
X40322051Y-33914873D01*
X40318017Y-33921693D01*
X40318017Y-33921694D01*
X40246148Y-34043219D01*
X40240832Y-34052208D01*
X40238621Y-34059819D01*
X40238620Y-34059821D01*
X40198112Y-34199249D01*
X40198111Y-34199254D01*
X40196318Y-34205426D01*
X40195814Y-34211831D01*
X40195813Y-34211836D01*
X40193693Y-34238774D01*
X40193500Y-34241230D01*
X40193500Y-35068770D01*
X40193693Y-35071218D01*
X40193693Y-35071226D01*
X40195713Y-35096883D01*
X40196318Y-35104574D01*
X40198111Y-35110746D01*
X40198112Y-35110751D01*
X40233871Y-35233832D01*
X40240832Y-35257792D01*
X40244867Y-35264615D01*
X40315393Y-35383868D01*
X40322051Y-35395127D01*
X40434873Y-35507949D01*
X40441693Y-35511983D01*
X40441694Y-35511983D01*
X40543022Y-35571908D01*
X40591475Y-35623801D01*
X40603805Y-35696808D01*
X40595091Y-35763000D01*
X40588533Y-35812811D01*
X40606633Y-35976764D01*
X40663320Y-36131667D01*
X40755319Y-36268577D01*
X40877321Y-36379589D01*
X40899820Y-36391805D01*
X41015604Y-36454671D01*
X41015606Y-36454672D01*
X41022281Y-36458296D01*
X41029630Y-36460224D01*
X41174481Y-36498225D01*
X41174483Y-36498225D01*
X41181831Y-36500153D01*
X41270497Y-36501546D01*
X41339162Y-36502625D01*
X41339165Y-36502625D01*
X41346759Y-36502744D01*
X41507545Y-36465919D01*
X41580864Y-36429044D01*
X41648123Y-36395217D01*
X41648126Y-36395215D01*
X41654906Y-36391805D01*
X41660677Y-36386876D01*
X41660680Y-36386874D01*
X41774562Y-36289609D01*
X41774563Y-36289608D01*
X41780334Y-36284679D01*
X41876589Y-36150726D01*
X41938113Y-35997681D01*
X41945775Y-35943842D01*
X41960773Y-35838461D01*
X41960773Y-35838458D01*
X41961354Y-35834377D01*
X41961505Y-35820000D01*
X41961008Y-35815892D01*
X41946412Y-35695273D01*
X41958085Y-35625242D01*
X42007360Y-35571682D01*
X42108306Y-35511983D01*
X42108307Y-35511983D01*
X42115127Y-35507949D01*
X42227949Y-35395127D01*
X42234608Y-35383868D01*
X42305133Y-35264615D01*
X42309168Y-35257792D01*
X42316129Y-35233832D01*
X42351888Y-35110751D01*
X42351889Y-35110746D01*
X42353682Y-35104574D01*
X42354288Y-35096883D01*
X42356307Y-35071226D01*
X42356307Y-35071218D01*
X42356500Y-35068770D01*
X42356500Y-35052095D01*
X43877001Y-35052095D01*
X43877338Y-35058614D01*
X43887257Y-35154206D01*
X43890149Y-35167600D01*
X43941588Y-35321784D01*
X43947761Y-35334962D01*
X44033063Y-35472807D01*
X44042099Y-35484208D01*
X44156829Y-35598739D01*
X44168240Y-35607751D01*
X44306243Y-35692816D01*
X44319424Y-35698963D01*
X44473710Y-35750138D01*
X44487086Y-35753005D01*
X44581438Y-35762672D01*
X44587854Y-35763000D01*
X44812885Y-35763000D01*
X44828124Y-35758525D01*
X44829329Y-35757135D01*
X44831000Y-35749452D01*
X44831000Y-35744884D01*
X45339000Y-35744884D01*
X45343475Y-35760123D01*
X45344865Y-35761328D01*
X45352548Y-35762999D01*
X45582095Y-35762999D01*
X45588614Y-35762662D01*
X45684206Y-35752743D01*
X45697600Y-35749851D01*
X45851784Y-35698412D01*
X45864962Y-35692239D01*
X46002807Y-35606937D01*
X46014208Y-35597901D01*
X46128739Y-35483171D01*
X46137751Y-35471760D01*
X46222816Y-35333757D01*
X46228963Y-35320576D01*
X46280138Y-35166290D01*
X46283005Y-35152914D01*
X46292672Y-35058562D01*
X46293000Y-35052146D01*
X46293000Y-34927115D01*
X46288525Y-34911876D01*
X46287135Y-34910671D01*
X46279452Y-34909000D01*
X45357115Y-34909000D01*
X45341876Y-34913475D01*
X45340671Y-34914865D01*
X45339000Y-34922548D01*
X45339000Y-35744884D01*
X44831000Y-35744884D01*
X44831000Y-34927115D01*
X44826525Y-34911876D01*
X44825135Y-34910671D01*
X44817452Y-34909000D01*
X43895116Y-34909000D01*
X43879877Y-34913475D01*
X43878672Y-34914865D01*
X43877001Y-34922548D01*
X43877001Y-35052095D01*
X42356500Y-35052095D01*
X42356500Y-34241230D01*
X42356307Y-34238774D01*
X42354187Y-34211836D01*
X42354186Y-34211831D01*
X42353682Y-34205426D01*
X42351889Y-34199254D01*
X42351888Y-34199249D01*
X42311380Y-34059821D01*
X42311379Y-34059819D01*
X42309168Y-34052208D01*
X42303852Y-34043219D01*
X42231983Y-33921694D01*
X42231983Y-33921693D01*
X42227949Y-33914873D01*
X42115127Y-33802051D01*
X42108305Y-33798016D01*
X42108303Y-33798015D01*
X42049863Y-33763454D01*
X42001410Y-33711561D01*
X41988704Y-33641711D01*
X42015779Y-33576080D01*
X42049863Y-33546546D01*
X42108303Y-33511985D01*
X42108305Y-33511984D01*
X42115127Y-33507949D01*
X42227949Y-33395127D01*
X42309168Y-33257792D01*
X42331437Y-33181143D01*
X42351888Y-33110751D01*
X42351889Y-33110746D01*
X42353682Y-33104574D01*
X42355574Y-33080544D01*
X42356307Y-33071226D01*
X42356307Y-33071218D01*
X42356500Y-33068770D01*
X42356500Y-32241230D01*
X42353682Y-32205426D01*
X42351889Y-32199254D01*
X42351888Y-32199249D01*
X42311380Y-32059821D01*
X42311379Y-32059819D01*
X42309168Y-32052208D01*
X42227949Y-31914873D01*
X42115127Y-31802051D01*
X42087508Y-31785717D01*
X41984615Y-31724867D01*
X41977792Y-31720832D01*
X41970181Y-31718621D01*
X41970179Y-31718620D01*
X41830751Y-31678112D01*
X41830746Y-31678111D01*
X41824574Y-31676318D01*
X41818169Y-31675814D01*
X41818164Y-31675813D01*
X41791226Y-31673693D01*
X41791218Y-31673693D01*
X41788770Y-31673500D01*
X40761230Y-31673500D01*
X40758782Y-31673693D01*
X40758774Y-31673693D01*
X40731836Y-31675813D01*
X40731831Y-31675814D01*
X40725426Y-31676318D01*
X40719254Y-31678111D01*
X40719249Y-31678112D01*
X40579821Y-31718620D01*
X40579819Y-31718621D01*
X40572208Y-31720832D01*
X40565384Y-31724868D01*
X40565381Y-31724869D01*
X40563546Y-31725954D01*
X40561717Y-31726454D01*
X40558108Y-31728016D01*
X40557886Y-31727502D01*
X40499408Y-31743500D01*
X39711459Y-31743500D01*
X39643338Y-31723498D01*
X39596845Y-31669842D01*
X39586018Y-31629354D01*
X39584285Y-31611012D01*
X39584285Y-31611010D01*
X39583562Y-31603363D01*
X39561924Y-31541747D01*
X39558224Y-31470850D01*
X39561920Y-31458263D01*
X39583562Y-31396637D01*
X39586500Y-31365555D01*
X39586500Y-31290658D01*
X39606502Y-31222537D01*
X39644458Y-31184666D01*
X39652322Y-31181090D01*
X39659119Y-31175234D01*
X39666683Y-31170396D01*
X39667534Y-31171727D01*
X39723026Y-31146570D01*
X39793272Y-31156869D01*
X39803056Y-31162541D01*
X39805399Y-31164880D01*
X39814753Y-31169452D01*
X39814754Y-31169453D01*
X39826974Y-31175426D01*
X39919503Y-31220655D01*
X39952284Y-31225437D01*
X39989316Y-31230840D01*
X39989320Y-31230840D01*
X39993842Y-31231500D01*
X42466158Y-31231500D01*
X42470706Y-31230830D01*
X42470713Y-31230830D01*
X42506630Y-31225542D01*
X42541144Y-31220462D01*
X42549127Y-31216542D01*
X42619625Y-31215436D01*
X42679945Y-31252878D01*
X42700726Y-31284720D01*
X42708370Y-31301531D01*
X42712185Y-31310901D01*
X42728188Y-31355232D01*
X42733479Y-31362475D01*
X42734945Y-31365232D01*
X42743506Y-31379882D01*
X42745196Y-31382524D01*
X42748910Y-31390693D01*
X42754769Y-31397493D01*
X42754771Y-31397496D01*
X42779682Y-31426407D01*
X42785960Y-31434312D01*
X42793951Y-31445250D01*
X42804869Y-31456168D01*
X42811227Y-31463015D01*
X42843616Y-31500604D01*
X42851151Y-31505488D01*
X42857567Y-31511085D01*
X42869192Y-31520491D01*
X43966595Y-32617894D01*
X44000621Y-32680206D01*
X44003500Y-32706989D01*
X44003500Y-33068770D01*
X44003693Y-33071218D01*
X44003693Y-33071226D01*
X44004427Y-33080544D01*
X44006318Y-33104574D01*
X44008111Y-33110746D01*
X44008112Y-33110751D01*
X44028563Y-33181143D01*
X44050832Y-33257792D01*
X44132051Y-33395127D01*
X44223196Y-33486272D01*
X44257222Y-33548584D01*
X44252157Y-33619399D01*
X44209610Y-33676235D01*
X44200405Y-33682511D01*
X44167190Y-33703066D01*
X44155792Y-33712099D01*
X44041261Y-33826829D01*
X44032249Y-33838240D01*
X43947184Y-33976243D01*
X43941037Y-33989424D01*
X43889862Y-34143710D01*
X43886995Y-34157086D01*
X43877328Y-34251438D01*
X43877000Y-34257855D01*
X43877000Y-34382885D01*
X43881475Y-34398124D01*
X43882865Y-34399329D01*
X43890548Y-34401000D01*
X46274884Y-34401000D01*
X46290123Y-34396525D01*
X46291328Y-34395135D01*
X46292999Y-34387452D01*
X46292999Y-34257905D01*
X46292662Y-34251386D01*
X46282743Y-34155794D01*
X46279851Y-34142400D01*
X46228412Y-33988216D01*
X46222239Y-33975038D01*
X46136937Y-33837193D01*
X46127901Y-33825792D01*
X46013171Y-33711261D01*
X46001760Y-33702249D01*
X45969838Y-33682572D01*
X45922345Y-33629799D01*
X45910921Y-33559728D01*
X45939195Y-33494604D01*
X45946859Y-33486217D01*
X46037949Y-33395127D01*
X46119168Y-33257792D01*
X46141437Y-33181143D01*
X46161888Y-33110751D01*
X46161889Y-33110746D01*
X46163682Y-33104574D01*
X46165574Y-33080544D01*
X46166307Y-33071226D01*
X46166307Y-33071218D01*
X46166500Y-33068770D01*
X46166500Y-32241230D01*
X46163682Y-32205426D01*
X46161889Y-32199254D01*
X46161888Y-32199249D01*
X46121380Y-32059821D01*
X46121379Y-32059819D01*
X46119168Y-32052208D01*
X46037949Y-31914873D01*
X45925127Y-31802051D01*
X45897508Y-31785717D01*
X45794615Y-31724867D01*
X45787792Y-31720832D01*
X45780181Y-31718621D01*
X45780179Y-31718620D01*
X45640751Y-31678112D01*
X45640746Y-31678111D01*
X45634574Y-31676318D01*
X45628169Y-31675814D01*
X45628164Y-31675813D01*
X45601226Y-31673693D01*
X45601218Y-31673693D01*
X45598770Y-31673500D01*
X44571230Y-31673500D01*
X44568782Y-31673693D01*
X44568774Y-31673693D01*
X44541839Y-31675813D01*
X44541837Y-31675813D01*
X44535426Y-31676318D01*
X44533581Y-31676854D01*
X44464599Y-31669589D01*
X44423470Y-31642171D01*
X44227894Y-31446595D01*
X44193868Y-31384283D01*
X44198933Y-31313468D01*
X44241480Y-31256632D01*
X44308000Y-31231821D01*
X44316989Y-31231500D01*
X46366158Y-31231500D01*
X46370706Y-31230830D01*
X46370713Y-31230830D01*
X46431459Y-31221888D01*
X46431461Y-31221887D01*
X46441144Y-31220462D01*
X46451381Y-31215436D01*
X46545803Y-31169077D01*
X46545804Y-31169076D01*
X46555151Y-31164487D01*
X46644880Y-31074601D01*
X46700655Y-30960497D01*
X46708058Y-30909750D01*
X46710840Y-30890684D01*
X46710840Y-30890680D01*
X46711500Y-30886158D01*
X46711500Y-30639852D01*
X46731502Y-30571731D01*
X46785158Y-30525238D01*
X46855432Y-30515134D01*
X46869473Y-30517976D01*
X46889481Y-30523225D01*
X46889483Y-30523225D01*
X46896831Y-30525153D01*
X46985497Y-30526546D01*
X47054162Y-30527625D01*
X47054165Y-30527625D01*
X47061759Y-30527744D01*
X47222545Y-30490919D01*
X47312084Y-30445886D01*
X47363123Y-30420217D01*
X47363126Y-30420215D01*
X47369906Y-30416805D01*
X47375677Y-30411876D01*
X47375680Y-30411874D01*
X47489562Y-30314609D01*
X47489563Y-30314608D01*
X47495334Y-30309679D01*
X47591589Y-30175726D01*
X47601209Y-30151797D01*
X47650277Y-30029735D01*
X47653113Y-30022681D01*
X47662116Y-29959424D01*
X47675773Y-29863461D01*
X47675773Y-29863458D01*
X47676354Y-29859377D01*
X47676505Y-29845000D01*
X47656689Y-29681246D01*
X47598383Y-29526945D01*
X47557805Y-29467903D01*
X47509257Y-29397265D01*
X47509256Y-29397263D01*
X47504955Y-29391006D01*
X47457277Y-29348526D01*
X47387470Y-29286330D01*
X47387467Y-29286328D01*
X47381798Y-29281277D01*
X47265826Y-29219873D01*
X47235690Y-29197614D01*
X46857046Y-28818970D01*
X46849546Y-28810728D01*
X46845446Y-28804268D01*
X46795965Y-28757802D01*
X46793123Y-28755047D01*
X46777893Y-28739817D01*
X46743867Y-28677505D01*
X46748932Y-28606690D01*
X46766161Y-28575157D01*
X46774791Y-28563642D01*
X46783322Y-28548059D01*
X46828478Y-28427606D01*
X46832105Y-28412351D01*
X46837631Y-28361486D01*
X46838000Y-28354672D01*
X46838000Y-28212115D01*
X46833525Y-28196876D01*
X46832135Y-28195671D01*
X46824452Y-28194000D01*
X45002000Y-28194000D01*
X44933879Y-28173998D01*
X44887386Y-28120342D01*
X44876000Y-28068000D01*
X44876000Y-27667885D01*
X45384000Y-27667885D01*
X45388475Y-27683124D01*
X45389865Y-27684329D01*
X45397548Y-27686000D01*
X46819884Y-27686000D01*
X46835123Y-27681525D01*
X46836328Y-27680135D01*
X46837999Y-27672452D01*
X46837999Y-27525331D01*
X46837629Y-27518510D01*
X46832105Y-27467648D01*
X46828478Y-27452394D01*
X46789804Y-27349229D01*
X46784621Y-27278422D01*
X46789804Y-27260771D01*
X46828478Y-27157609D01*
X46832105Y-27142351D01*
X46837631Y-27091486D01*
X46838000Y-27084672D01*
X46838000Y-26942115D01*
X46833525Y-26926876D01*
X46832135Y-26925671D01*
X46824452Y-26924000D01*
X45402115Y-26924000D01*
X45386876Y-26928475D01*
X45385671Y-26929865D01*
X45384000Y-26937548D01*
X45384000Y-27667885D01*
X44876000Y-27667885D01*
X44876000Y-26542000D01*
X44896002Y-26473879D01*
X44949658Y-26427386D01*
X45002000Y-26416000D01*
X46819884Y-26416000D01*
X46835123Y-26411525D01*
X46836328Y-26410135D01*
X46837999Y-26402452D01*
X46837999Y-26255331D01*
X46837629Y-26248510D01*
X46832105Y-26197648D01*
X46828479Y-26182396D01*
X46783324Y-26061946D01*
X46774786Y-26046352D01*
X46723411Y-25977802D01*
X46698563Y-25911296D01*
X46702065Y-25880703D01*
X46700655Y-25880497D01*
X46710840Y-25810684D01*
X46710840Y-25810680D01*
X46711500Y-25806158D01*
X46711500Y-24993842D01*
X46709428Y-24979761D01*
X46701888Y-24928541D01*
X46701887Y-24928539D01*
X46700462Y-24918856D01*
X46689054Y-24895621D01*
X46652232Y-24820623D01*
X46640164Y-24750659D01*
X46652135Y-24709759D01*
X46696359Y-24619285D01*
X46700655Y-24610497D01*
X46711500Y-24536158D01*
X46711500Y-23723842D01*
X46710684Y-23718292D01*
X46701888Y-23658541D01*
X46701887Y-23658539D01*
X46700462Y-23648856D01*
X46696147Y-23640067D01*
X46652232Y-23550623D01*
X46640164Y-23480659D01*
X46652135Y-23439759D01*
X46679514Y-23383747D01*
X46700655Y-23340497D01*
X46708439Y-23287143D01*
X46710840Y-23270684D01*
X46710840Y-23270680D01*
X46711500Y-23266158D01*
X46711500Y-22453842D01*
X46701983Y-22389183D01*
X46701888Y-22388541D01*
X46701887Y-22388539D01*
X46700462Y-22378856D01*
X46676158Y-22329355D01*
X46649077Y-22274197D01*
X46649076Y-22274196D01*
X46644487Y-22264849D01*
X46554601Y-22175120D01*
X46543890Y-22169884D01*
X46475748Y-22136576D01*
X46440497Y-22119345D01*
X46407716Y-22114563D01*
X46370684Y-22109160D01*
X46370680Y-22109160D01*
X46366158Y-22108500D01*
X45250593Y-22108500D01*
X45182472Y-22088498D01*
X45135979Y-22034842D01*
X45125875Y-21964568D01*
X45151711Y-21904409D01*
X45157748Y-21896765D01*
X45242816Y-21758757D01*
X45248963Y-21745576D01*
X45300138Y-21591290D01*
X45303005Y-21577914D01*
X45312672Y-21483562D01*
X45313000Y-21477146D01*
X45313000Y-21227115D01*
X45308525Y-21211876D01*
X45307135Y-21210671D01*
X45299452Y-21209000D01*
X44089500Y-21209000D01*
X44021379Y-21188998D01*
X43974886Y-21135342D01*
X43963500Y-21083000D01*
X43963500Y-20682885D01*
X44471500Y-20682885D01*
X44475975Y-20698124D01*
X44477365Y-20699329D01*
X44485048Y-20701000D01*
X45294884Y-20701000D01*
X45310123Y-20696525D01*
X45311328Y-20695135D01*
X45312999Y-20687452D01*
X45312999Y-20432905D01*
X45312662Y-20426386D01*
X45302743Y-20330794D01*
X45299851Y-20317400D01*
X45248412Y-20163216D01*
X45242239Y-20150038D01*
X45156937Y-20012193D01*
X45147901Y-20000792D01*
X45033171Y-19886261D01*
X45021760Y-19877249D01*
X44883757Y-19792184D01*
X44870576Y-19786037D01*
X44716290Y-19734862D01*
X44702914Y-19731995D01*
X44608562Y-19722328D01*
X44602145Y-19722000D01*
X44489615Y-19722000D01*
X44474376Y-19726475D01*
X44473171Y-19727865D01*
X44471500Y-19735548D01*
X44471500Y-20682885D01*
X43963500Y-20682885D01*
X43963500Y-19740116D01*
X43959025Y-19724877D01*
X43957635Y-19723672D01*
X43949952Y-19722001D01*
X43832905Y-19722001D01*
X43826386Y-19722338D01*
X43730794Y-19732257D01*
X43717400Y-19735149D01*
X43563216Y-19786588D01*
X43550038Y-19792761D01*
X43412193Y-19878063D01*
X43400792Y-19887099D01*
X43286261Y-20001829D01*
X43277249Y-20013240D01*
X43213416Y-20116797D01*
X43160644Y-20164290D01*
X43090572Y-20175714D01*
X43025449Y-20147440D01*
X42997701Y-20114818D01*
X42991708Y-20104683D01*
X42989745Y-20101364D01*
X42986983Y-20096694D01*
X42986983Y-20096693D01*
X42982949Y-20089873D01*
X42870127Y-19977051D01*
X42863303Y-19973015D01*
X42739615Y-19899867D01*
X42732792Y-19895832D01*
X42725181Y-19893621D01*
X42725179Y-19893620D01*
X42585751Y-19853112D01*
X42585746Y-19853111D01*
X42579574Y-19851318D01*
X42573169Y-19850814D01*
X42573164Y-19850813D01*
X42546226Y-19848693D01*
X42546218Y-19848693D01*
X42543770Y-19848500D01*
X42275322Y-19848500D01*
X42207201Y-19828498D01*
X42160708Y-19774842D01*
X42150604Y-19704568D01*
X42180098Y-19639988D01*
X42242711Y-19600793D01*
X42327497Y-19578075D01*
X42327499Y-19578074D01*
X42332807Y-19576652D01*
X42341664Y-19572522D01*
X42523115Y-19487910D01*
X42523120Y-19487907D01*
X42528102Y-19485584D01*
X42534930Y-19480803D01*
X42700106Y-19365146D01*
X42700109Y-19365144D01*
X42704617Y-19361987D01*
X42856987Y-19209617D01*
X42865648Y-19197249D01*
X42977427Y-19037611D01*
X42977428Y-19037609D01*
X42980584Y-19033102D01*
X42982907Y-19028120D01*
X42982910Y-19028115D01*
X43069329Y-18842789D01*
X43069330Y-18842787D01*
X43071652Y-18837807D01*
X43127423Y-18629665D01*
X43146204Y-18415000D01*
X43127423Y-18200335D01*
X43071652Y-17992193D01*
X43019851Y-17881106D01*
X42982910Y-17801885D01*
X42982907Y-17801880D01*
X42980584Y-17796898D01*
X42965821Y-17775814D01*
X42860146Y-17624894D01*
X42860144Y-17624891D01*
X42856987Y-17620383D01*
X42704617Y-17468013D01*
X42700109Y-17464856D01*
X42700106Y-17464854D01*
X42532611Y-17347573D01*
X42532609Y-17347572D01*
X42528102Y-17344416D01*
X42523120Y-17342093D01*
X42523115Y-17342090D01*
X42337789Y-17255671D01*
X42337787Y-17255670D01*
X42332807Y-17253348D01*
X42327499Y-17251926D01*
X42327497Y-17251925D01*
X42129980Y-17199001D01*
X42129978Y-17199001D01*
X42124665Y-17197577D01*
X41910000Y-17178796D01*
X41695335Y-17197577D01*
X41690022Y-17199001D01*
X41690020Y-17199001D01*
X41492503Y-17251925D01*
X41492501Y-17251926D01*
X41487193Y-17253348D01*
X41482213Y-17255670D01*
X41482211Y-17255671D01*
X41296885Y-17342090D01*
X41296880Y-17342093D01*
X41291898Y-17344416D01*
X41287391Y-17347572D01*
X41287389Y-17347573D01*
X41119894Y-17464854D01*
X41119891Y-17464856D01*
X41115383Y-17468013D01*
X40963013Y-17620383D01*
X40959856Y-17624891D01*
X40959854Y-17624894D01*
X40854179Y-17775814D01*
X40839416Y-17796898D01*
X40837093Y-17801880D01*
X40837090Y-17801885D01*
X40754195Y-17979654D01*
X40707277Y-18032939D01*
X40639000Y-18052400D01*
X40571040Y-18031858D01*
X40525805Y-17979654D01*
X40442910Y-17801885D01*
X40442907Y-17801880D01*
X40440584Y-17796898D01*
X40425821Y-17775814D01*
X40320146Y-17624894D01*
X40320144Y-17624891D01*
X40316987Y-17620383D01*
X40164617Y-17468013D01*
X40160109Y-17464856D01*
X40160106Y-17464854D01*
X39992611Y-17347573D01*
X39992609Y-17347572D01*
X39988102Y-17344416D01*
X39983120Y-17342093D01*
X39983115Y-17342090D01*
X39797789Y-17255671D01*
X39797787Y-17255670D01*
X39792807Y-17253348D01*
X39787499Y-17251926D01*
X39787497Y-17251925D01*
X39589980Y-17199001D01*
X39589978Y-17199001D01*
X39584665Y-17197577D01*
X39370000Y-17178796D01*
X39155335Y-17197577D01*
X39150022Y-17199001D01*
X39150020Y-17199001D01*
X38952503Y-17251925D01*
X38952501Y-17251926D01*
X38947193Y-17253348D01*
X38942213Y-17255670D01*
X38942211Y-17255671D01*
X38756885Y-17342090D01*
X38756880Y-17342093D01*
X38751898Y-17344416D01*
X38747391Y-17347572D01*
X38747389Y-17347573D01*
X38579894Y-17464854D01*
X38579891Y-17464856D01*
X38575383Y-17468013D01*
X38423013Y-17620383D01*
X38419856Y-17624891D01*
X38419854Y-17624894D01*
X38314179Y-17775814D01*
X38299416Y-17796898D01*
X38297093Y-17801880D01*
X38297090Y-17801885D01*
X38214195Y-17979654D01*
X38167277Y-18032939D01*
X38099000Y-18052400D01*
X38031040Y-18031858D01*
X37985805Y-17979654D01*
X37902910Y-17801885D01*
X37902907Y-17801880D01*
X37900584Y-17796898D01*
X37885821Y-17775814D01*
X37780146Y-17624894D01*
X37780144Y-17624891D01*
X37776987Y-17620383D01*
X37624617Y-17468013D01*
X37620109Y-17464856D01*
X37620106Y-17464854D01*
X37452611Y-17347573D01*
X37452609Y-17347572D01*
X37448102Y-17344416D01*
X37443120Y-17342093D01*
X37443115Y-17342090D01*
X37257789Y-17255671D01*
X37257787Y-17255670D01*
X37252807Y-17253348D01*
X37247499Y-17251926D01*
X37247497Y-17251925D01*
X37049980Y-17199001D01*
X37049978Y-17199001D01*
X37044665Y-17197577D01*
X36830000Y-17178796D01*
X36615335Y-17197577D01*
X36610022Y-17199001D01*
X36610020Y-17199001D01*
X36412503Y-17251925D01*
X36412501Y-17251926D01*
X36407193Y-17253348D01*
X36402213Y-17255670D01*
X36402211Y-17255671D01*
X36216885Y-17342090D01*
X36216880Y-17342093D01*
X36211898Y-17344416D01*
X36207391Y-17347572D01*
X36207389Y-17347573D01*
X36039894Y-17464854D01*
X36039891Y-17464856D01*
X36035383Y-17468013D01*
X35883013Y-17620383D01*
X35879856Y-17624891D01*
X35879854Y-17624894D01*
X35774179Y-17775814D01*
X35759416Y-17796898D01*
X35757093Y-17801880D01*
X35757090Y-17801885D01*
X35674195Y-17979654D01*
X35627277Y-18032939D01*
X35559000Y-18052400D01*
X35491040Y-18031858D01*
X35445805Y-17979654D01*
X35362910Y-17801885D01*
X35362907Y-17801880D01*
X35360584Y-17796898D01*
X35345821Y-17775814D01*
X35240146Y-17624894D01*
X35240144Y-17624891D01*
X35236987Y-17620383D01*
X35084617Y-17468013D01*
X35080109Y-17464856D01*
X35080106Y-17464854D01*
X34912611Y-17347573D01*
X34912609Y-17347572D01*
X34908102Y-17344416D01*
X34903120Y-17342093D01*
X34903115Y-17342090D01*
X34717789Y-17255671D01*
X34717787Y-17255670D01*
X34712807Y-17253348D01*
X34707499Y-17251926D01*
X34707497Y-17251925D01*
X34509980Y-17199001D01*
X34509978Y-17199001D01*
X34504665Y-17197577D01*
X34290000Y-17178796D01*
X34075335Y-17197577D01*
X34070022Y-17199001D01*
X34070020Y-17199001D01*
X33872503Y-17251925D01*
X33872501Y-17251926D01*
X33867193Y-17253348D01*
X33862213Y-17255670D01*
X33862211Y-17255671D01*
X33676885Y-17342090D01*
X33676880Y-17342093D01*
X33671898Y-17344416D01*
X33667391Y-17347572D01*
X33667389Y-17347573D01*
X33499894Y-17464854D01*
X33499891Y-17464856D01*
X33495383Y-17468013D01*
X33343013Y-17620383D01*
X33339856Y-17624891D01*
X33339854Y-17624894D01*
X33234179Y-17775814D01*
X33219416Y-17796898D01*
X33217093Y-17801879D01*
X33217087Y-17801890D01*
X33204491Y-17828903D01*
X33157574Y-17882188D01*
X33089296Y-17901648D01*
X33021337Y-17881106D01*
X32974747Y-17825894D01*
X32952972Y-17775814D01*
X32948105Y-17766739D01*
X32832426Y-17587926D01*
X32826136Y-17579757D01*
X32682806Y-17422240D01*
X32675273Y-17415215D01*
X32508139Y-17283222D01*
X32499552Y-17277517D01*
X32313117Y-17174599D01*
X32303705Y-17170368D01*
X32207423Y-17136273D01*
X32149886Y-17094679D01*
X32123971Y-17028581D01*
X32137905Y-16958965D01*
X32187264Y-16907934D01*
X32249483Y-16891500D01*
X43550617Y-16891500D01*
X43618738Y-16911502D01*
X43653873Y-16945290D01*
X49457453Y-25244287D01*
X50515757Y-26757639D01*
X50538500Y-26829848D01*
X50538500Y-27719180D01*
X50518498Y-27787301D01*
X50464842Y-27833794D01*
X50394568Y-27843898D01*
X50329988Y-27814404D01*
X50291604Y-27754678D01*
X50287950Y-27738239D01*
X50286236Y-27727040D01*
X50266106Y-27595489D01*
X50192326Y-27369756D01*
X50192029Y-27368846D01*
X50192026Y-27368840D01*
X50190421Y-27363928D01*
X50184467Y-27352489D01*
X50080322Y-27152431D01*
X50077931Y-27147838D01*
X50030504Y-27084672D01*
X49934764Y-26957158D01*
X49934762Y-26957156D01*
X49931659Y-26953023D01*
X49798407Y-26825684D01*
X49759270Y-26788284D01*
X49759269Y-26788283D01*
X49755533Y-26784713D01*
X49718413Y-26759391D01*
X49558562Y-26650348D01*
X49554283Y-26647429D01*
X49417624Y-26583994D01*
X49338007Y-26547037D01*
X49338003Y-26547036D01*
X49333312Y-26544858D01*
X49098557Y-26479754D01*
X49093423Y-26479205D01*
X49093421Y-26479205D01*
X48903008Y-26458856D01*
X48903001Y-26458856D01*
X48899673Y-26458500D01*
X48758249Y-26458500D01*
X48755676Y-26458712D01*
X48755665Y-26458712D01*
X48582354Y-26472961D01*
X48582348Y-26472962D01*
X48577203Y-26473385D01*
X48340927Y-26532733D01*
X48117517Y-26629875D01*
X47912972Y-26762200D01*
X47909149Y-26765679D01*
X47909146Y-26765681D01*
X47756823Y-26904285D01*
X47732786Y-26926157D01*
X47729587Y-26930208D01*
X47729583Y-26930212D01*
X47585000Y-27113286D01*
X47581798Y-27117341D01*
X47579302Y-27121862D01*
X47579301Y-27121864D01*
X47559569Y-27157609D01*
X47464063Y-27330618D01*
X47382743Y-27560260D01*
X47381836Y-27565352D01*
X47346773Y-27762193D01*
X47340020Y-27800101D01*
X47339957Y-27805264D01*
X47337875Y-27975713D01*
X47337044Y-28043698D01*
X47373894Y-28284511D01*
X47387002Y-28324614D01*
X47447971Y-28511154D01*
X47447974Y-28511160D01*
X47449579Y-28516072D01*
X47451966Y-28520658D01*
X47451968Y-28520662D01*
X47483730Y-28581676D01*
X47562069Y-28732162D01*
X47565179Y-28736304D01*
X47622583Y-28812758D01*
X47708341Y-28926977D01*
X47884467Y-29095287D01*
X47888739Y-29098201D01*
X47888740Y-29098202D01*
X47922392Y-29121158D01*
X48085717Y-29232571D01*
X48174611Y-29273834D01*
X48301993Y-29332963D01*
X48301997Y-29332964D01*
X48306688Y-29335142D01*
X48541443Y-29400246D01*
X48546577Y-29400795D01*
X48546579Y-29400795D01*
X48736992Y-29421144D01*
X48736999Y-29421144D01*
X48740327Y-29421500D01*
X48881751Y-29421500D01*
X48884324Y-29421288D01*
X48884335Y-29421288D01*
X49057646Y-29407039D01*
X49057652Y-29407038D01*
X49062797Y-29406615D01*
X49299073Y-29347267D01*
X49522483Y-29250125D01*
X49727028Y-29117800D01*
X49751770Y-29095287D01*
X49903392Y-28957321D01*
X49903393Y-28957319D01*
X49907214Y-28953843D01*
X49910413Y-28949792D01*
X49910417Y-28949788D01*
X50055000Y-28766714D01*
X50055002Y-28766710D01*
X50058202Y-28762659D01*
X50061624Y-28756461D01*
X50136375Y-28621048D01*
X50175937Y-28549382D01*
X50257257Y-28319740D01*
X50288453Y-28144610D01*
X50320091Y-28081053D01*
X50381069Y-28044690D01*
X50452025Y-28047067D01*
X50510433Y-28087428D01*
X50537748Y-28152960D01*
X50538500Y-28166707D01*
X50538500Y-45680060D01*
X50536949Y-45699771D01*
X50533745Y-45720000D01*
X50535296Y-45729792D01*
X50535296Y-45739712D01*
X50534653Y-45739712D01*
X50535092Y-45754606D01*
X50522644Y-45880989D01*
X50517827Y-45905209D01*
X50474467Y-46048147D01*
X50465018Y-46070956D01*
X50456032Y-46087769D01*
X50394611Y-46202679D01*
X50380888Y-46223217D01*
X50286136Y-46338671D01*
X50268671Y-46356136D01*
X50153217Y-46450888D01*
X50132679Y-46464611D01*
X50000957Y-46535018D01*
X49978147Y-46544467D01*
X49835209Y-46587827D01*
X49810989Y-46592644D01*
X49740430Y-46599594D01*
X49684604Y-46605092D01*
X49669712Y-46604653D01*
X49669712Y-46605296D01*
X49659792Y-46605296D01*
X49650000Y-46603745D01*
X49640208Y-46605296D01*
X49640207Y-46605296D01*
X49629771Y-46606949D01*
X49610060Y-46608500D01*
X37791031Y-46608500D01*
X37722910Y-46588498D01*
X37676417Y-46534842D01*
X37666313Y-46464568D01*
X37695807Y-46399988D01*
X37744647Y-46365348D01*
X37870385Y-46315565D01*
X37870387Y-46315564D01*
X37878368Y-46312404D01*
X37994361Y-46224361D01*
X38082404Y-46108368D01*
X38103669Y-46054660D01*
X38122682Y-46006638D01*
X38136011Y-45972972D01*
X38146500Y-45886294D01*
X38146500Y-44453706D01*
X38136011Y-44367028D01*
X38082404Y-44231632D01*
X37994361Y-44115639D01*
X37878368Y-44027596D01*
X37870387Y-44024436D01*
X37870385Y-44024435D01*
X37773619Y-43986123D01*
X37742972Y-43973989D01*
X37734934Y-43973016D01*
X37734933Y-43973016D01*
X37703986Y-43969271D01*
X37656294Y-43963500D01*
X37273706Y-43963500D01*
X37226014Y-43969271D01*
X37195067Y-43973016D01*
X37195066Y-43973016D01*
X37187028Y-43973989D01*
X37156381Y-43986123D01*
X37059615Y-44024435D01*
X37059613Y-44024436D01*
X37051632Y-44027596D01*
X36935639Y-44115639D01*
X36930448Y-44122478D01*
X36930363Y-44122590D01*
X36930260Y-44122666D01*
X36924371Y-44128555D01*
X36923484Y-44127668D01*
X36873246Y-44164757D01*
X36802398Y-44169351D01*
X36740314Y-44134912D01*
X36729637Y-44122590D01*
X36729552Y-44122478D01*
X36724361Y-44115639D01*
X36608368Y-44027596D01*
X36600387Y-44024436D01*
X36600385Y-44024435D01*
X36503619Y-43986123D01*
X36472972Y-43973989D01*
X36464934Y-43973016D01*
X36464933Y-43973016D01*
X36433986Y-43969271D01*
X36386294Y-43963500D01*
X36003706Y-43963500D01*
X35956014Y-43969271D01*
X35925067Y-43973016D01*
X35925066Y-43973016D01*
X35917028Y-43973989D01*
X35886381Y-43986123D01*
X35789615Y-44024435D01*
X35789613Y-44024436D01*
X35781632Y-44027596D01*
X35665639Y-44115639D01*
X35660448Y-44122478D01*
X35660363Y-44122590D01*
X35660260Y-44122666D01*
X35654371Y-44128555D01*
X35653484Y-44127668D01*
X35603246Y-44164757D01*
X35532398Y-44169351D01*
X35470314Y-44134912D01*
X35459637Y-44122590D01*
X35459552Y-44122478D01*
X35454361Y-44115639D01*
X35338368Y-44027596D01*
X35330387Y-44024436D01*
X35330385Y-44024435D01*
X35233619Y-43986123D01*
X35202972Y-43973989D01*
X35194934Y-43973016D01*
X35194933Y-43973016D01*
X35163986Y-43969271D01*
X35116294Y-43963500D01*
X34733706Y-43963500D01*
X34686014Y-43969271D01*
X34655067Y-43973016D01*
X34655066Y-43973016D01*
X34647028Y-43973989D01*
X34616381Y-43986123D01*
X34519615Y-44024435D01*
X34519613Y-44024436D01*
X34511632Y-44027596D01*
X34395639Y-44115639D01*
X34390448Y-44122478D01*
X34390363Y-44122590D01*
X34390260Y-44122666D01*
X34384371Y-44128555D01*
X34383484Y-44127668D01*
X34333246Y-44164757D01*
X34262398Y-44169351D01*
X34200314Y-44134912D01*
X34189637Y-44122590D01*
X34189552Y-44122478D01*
X34184361Y-44115639D01*
X34068368Y-44027596D01*
X34060387Y-44024436D01*
X34060385Y-44024435D01*
X33963619Y-43986123D01*
X33932972Y-43973989D01*
X33924934Y-43973016D01*
X33924933Y-43973016D01*
X33893986Y-43969271D01*
X33846294Y-43963500D01*
X33463706Y-43963500D01*
X33416014Y-43969271D01*
X33385067Y-43973016D01*
X33385066Y-43973016D01*
X33377028Y-43973989D01*
X33346381Y-43986123D01*
X33249615Y-44024435D01*
X33249613Y-44024436D01*
X33241632Y-44027596D01*
X33125639Y-44115639D01*
X33120448Y-44122478D01*
X33108151Y-44138679D01*
X33051034Y-44180846D01*
X33007788Y-44188500D01*
X26753740Y-44188500D01*
X26685619Y-44168498D01*
X26664645Y-44151595D01*
X26604170Y-44091120D01*
X26570144Y-44028808D01*
X26568272Y-43986126D01*
X26583904Y-43863250D01*
X26586215Y-43775000D01*
X26582935Y-43730860D01*
X44534363Y-43730860D01*
X44546354Y-43980498D01*
X44568358Y-44091120D01*
X44586206Y-44180846D01*
X44595112Y-44225621D01*
X44596691Y-44230019D01*
X44596693Y-44230026D01*
X44675651Y-44449940D01*
X44679566Y-44460845D01*
X44797861Y-44681003D01*
X44947397Y-44881257D01*
X44950704Y-44884535D01*
X44950709Y-44884541D01*
X45047731Y-44980719D01*
X45124891Y-45057208D01*
X45128657Y-45059970D01*
X45128659Y-45059971D01*
X45240045Y-45141642D01*
X45326442Y-45204991D01*
X45330585Y-45207171D01*
X45330587Y-45207172D01*
X45543473Y-45319177D01*
X45543478Y-45319179D01*
X45547623Y-45321360D01*
X45783575Y-45403759D01*
X45788168Y-45404631D01*
X46024526Y-45449505D01*
X46024529Y-45449505D01*
X46029115Y-45450376D01*
X46147862Y-45455042D01*
X46274180Y-45460005D01*
X46274185Y-45460005D01*
X46278848Y-45460188D01*
X46354879Y-45451861D01*
X46522635Y-45433489D01*
X46522640Y-45433488D01*
X46527288Y-45432979D01*
X46531812Y-45431788D01*
X46764455Y-45370539D01*
X46764458Y-45370538D01*
X46768978Y-45369348D01*
X46877077Y-45322905D01*
X46994313Y-45272536D01*
X46994315Y-45272535D01*
X46998607Y-45270691D01*
X47211132Y-45139177D01*
X47401884Y-44977694D01*
X47566671Y-44789790D01*
X47636646Y-44681003D01*
X47699350Y-44583518D01*
X47699352Y-44583515D01*
X47701875Y-44579592D01*
X47804524Y-44351719D01*
X47872364Y-44111177D01*
X47889583Y-43975826D01*
X47903506Y-43866381D01*
X47903506Y-43866375D01*
X47903904Y-43863250D01*
X47906215Y-43775000D01*
X47887693Y-43525762D01*
X47832535Y-43281998D01*
X47830842Y-43277644D01*
X47743646Y-43053419D01*
X47743645Y-43053417D01*
X47741953Y-43049066D01*
X47617936Y-42832081D01*
X47463208Y-42635810D01*
X47281169Y-42464565D01*
X47133608Y-42362198D01*
X47079661Y-42324773D01*
X47079658Y-42324771D01*
X47075819Y-42322108D01*
X47071629Y-42320042D01*
X47071626Y-42320040D01*
X46855855Y-42213634D01*
X46855852Y-42213633D01*
X46851667Y-42211569D01*
X46801684Y-42195569D01*
X46618084Y-42136798D01*
X46618086Y-42136798D01*
X46613639Y-42135375D01*
X46533827Y-42122377D01*
X46371576Y-42095953D01*
X46371573Y-42095953D01*
X46366963Y-42095202D01*
X46242011Y-42093566D01*
X46121736Y-42091991D01*
X46121733Y-42091991D01*
X46117059Y-42091930D01*
X45869416Y-42125633D01*
X45864930Y-42126941D01*
X45864928Y-42126941D01*
X45831110Y-42136798D01*
X45629475Y-42195569D01*
X45402507Y-42300203D01*
X45378821Y-42315732D01*
X45197410Y-42434670D01*
X45197405Y-42434674D01*
X45193497Y-42437236D01*
X45144914Y-42480598D01*
X45076610Y-42541562D01*
X45007038Y-42603657D01*
X44847226Y-42795810D01*
X44717571Y-43009474D01*
X44715765Y-43013782D01*
X44715764Y-43013783D01*
X44702670Y-43045010D01*
X44620922Y-43239956D01*
X44619771Y-43244488D01*
X44619770Y-43244491D01*
X44609087Y-43286555D01*
X44559402Y-43482192D01*
X44534363Y-43730860D01*
X26582935Y-43730860D01*
X26567693Y-43525762D01*
X26512535Y-43281998D01*
X26510842Y-43277644D01*
X26423646Y-43053419D01*
X26423645Y-43053417D01*
X26421953Y-43049066D01*
X26297936Y-42832081D01*
X26143208Y-42635810D01*
X25961169Y-42464565D01*
X25813608Y-42362198D01*
X25759661Y-42324773D01*
X25759658Y-42324771D01*
X25755819Y-42322108D01*
X25751629Y-42320042D01*
X25751626Y-42320040D01*
X25535855Y-42213634D01*
X25535852Y-42213633D01*
X25531667Y-42211569D01*
X25481684Y-42195569D01*
X25298084Y-42136798D01*
X25298086Y-42136798D01*
X25293639Y-42135375D01*
X25213827Y-42122377D01*
X25051576Y-42095953D01*
X25051573Y-42095953D01*
X25046963Y-42095202D01*
X24922011Y-42093566D01*
X24801736Y-42091991D01*
X24801733Y-42091991D01*
X24797059Y-42091930D01*
X24549416Y-42125633D01*
X24544930Y-42126941D01*
X24544928Y-42126941D01*
X24511110Y-42136798D01*
X24309475Y-42195569D01*
X24082507Y-42300203D01*
X24058821Y-42315732D01*
X23877410Y-42434670D01*
X23877405Y-42434674D01*
X23873497Y-42437236D01*
X23824914Y-42480598D01*
X23756610Y-42541562D01*
X23687038Y-42603657D01*
X23527226Y-42795810D01*
X23397571Y-43009474D01*
X23395765Y-43013782D01*
X23395764Y-43013783D01*
X23382670Y-43045010D01*
X23300922Y-43239956D01*
X23299771Y-43244488D01*
X23299770Y-43244491D01*
X23289087Y-43286555D01*
X23239402Y-43482192D01*
X23214363Y-43730860D01*
X23226354Y-43980498D01*
X23248358Y-44091120D01*
X23266206Y-44180846D01*
X23275112Y-44225621D01*
X23276691Y-44230019D01*
X23276693Y-44230026D01*
X23355651Y-44449940D01*
X23359566Y-44460845D01*
X23477861Y-44681003D01*
X23627397Y-44881257D01*
X23630704Y-44884535D01*
X23630709Y-44884541D01*
X23727731Y-44980719D01*
X23804891Y-45057208D01*
X23808657Y-45059970D01*
X23808659Y-45059971D01*
X23920045Y-45141642D01*
X24006442Y-45204991D01*
X24010585Y-45207171D01*
X24010587Y-45207172D01*
X24223473Y-45319177D01*
X24223478Y-45319179D01*
X24227623Y-45321360D01*
X24463575Y-45403759D01*
X24468168Y-45404631D01*
X24704526Y-45449505D01*
X24704529Y-45449505D01*
X24709115Y-45450376D01*
X24827862Y-45455042D01*
X24954180Y-45460005D01*
X24954185Y-45460005D01*
X24958848Y-45460188D01*
X25113540Y-45443246D01*
X25183432Y-45455713D01*
X25216351Y-45479402D01*
X25589722Y-45852773D01*
X25592176Y-45855295D01*
X25650360Y-45916823D01*
X25655586Y-45920482D01*
X25698760Y-45950713D01*
X25706125Y-45956283D01*
X25746970Y-45989596D01*
X25746974Y-45989599D01*
X25751917Y-45993630D01*
X25776810Y-46006644D01*
X25790684Y-46015079D01*
X25813696Y-46031192D01*
X25819552Y-46033726D01*
X25867927Y-46054660D01*
X25876259Y-46058635D01*
X25922963Y-46083051D01*
X25922971Y-46083054D01*
X25928623Y-46086009D01*
X25934755Y-46087767D01*
X25934759Y-46087769D01*
X25955615Y-46093749D01*
X25970916Y-46099228D01*
X25996693Y-46110382D01*
X26002943Y-46111688D01*
X26002944Y-46111688D01*
X26054534Y-46122466D01*
X26063497Y-46124684D01*
X26114162Y-46139212D01*
X26114165Y-46139213D01*
X26120294Y-46140970D01*
X26148294Y-46143124D01*
X26164383Y-46145414D01*
X26191876Y-46151158D01*
X26198402Y-46151500D01*
X26252305Y-46151500D01*
X26261971Y-46151871D01*
X26312744Y-46155778D01*
X26312748Y-46155778D01*
X26319104Y-46156267D01*
X26348970Y-46152494D01*
X26364763Y-46151500D01*
X33007788Y-46151500D01*
X33075909Y-46171502D01*
X33108150Y-46201321D01*
X33125639Y-46224361D01*
X33241632Y-46312404D01*
X33249613Y-46315564D01*
X33249615Y-46315565D01*
X33375353Y-46365348D01*
X33431327Y-46409023D01*
X33454803Y-46476026D01*
X33438327Y-46545084D01*
X33387132Y-46594273D01*
X33328969Y-46608500D01*
X21529940Y-46608500D01*
X21510229Y-46606949D01*
X21499793Y-46605296D01*
X21499792Y-46605296D01*
X21490000Y-46603745D01*
X21480208Y-46605296D01*
X21470288Y-46605296D01*
X21470288Y-46604653D01*
X21455396Y-46605092D01*
X21399570Y-46599594D01*
X21329011Y-46592644D01*
X21304791Y-46587827D01*
X21161853Y-46544467D01*
X21139043Y-46535018D01*
X21007321Y-46464611D01*
X20986783Y-46450888D01*
X20871329Y-46356136D01*
X20853864Y-46338671D01*
X20759112Y-46223217D01*
X20745389Y-46202679D01*
X20683968Y-46087769D01*
X20674982Y-46070956D01*
X20665533Y-46048147D01*
X20622173Y-45905209D01*
X20617356Y-45880989D01*
X20604908Y-45754606D01*
X20605347Y-45739712D01*
X20604704Y-45739712D01*
X20604704Y-45729792D01*
X20606255Y-45720000D01*
X20603051Y-45699771D01*
X20601500Y-45680060D01*
X20601500Y-40219906D01*
X23819839Y-40219906D01*
X23828553Y-40231427D01*
X23935452Y-40309809D01*
X23943351Y-40314745D01*
X24172905Y-40435519D01*
X24181454Y-40439236D01*
X24426327Y-40524749D01*
X24435336Y-40527163D01*
X24690166Y-40575544D01*
X24699423Y-40576598D01*
X24958607Y-40586783D01*
X24967921Y-40586457D01*
X25225753Y-40558220D01*
X25234930Y-40556519D01*
X25485758Y-40490481D01*
X25494574Y-40487445D01*
X25732880Y-40385062D01*
X25741167Y-40380748D01*
X25961718Y-40244266D01*
X25969268Y-40238780D01*
X25974559Y-40234301D01*
X25982997Y-40221497D01*
X25976935Y-40211145D01*
X24912812Y-39147022D01*
X24898868Y-39139408D01*
X24897035Y-39139539D01*
X24890420Y-39143790D01*
X23826497Y-40207713D01*
X23819839Y-40219906D01*
X20601500Y-40219906D01*
X20601500Y-38732211D01*
X23087775Y-38732211D01*
X23100220Y-38991288D01*
X23101356Y-39000543D01*
X23151961Y-39254945D01*
X23154449Y-39263917D01*
X23242095Y-39508033D01*
X23245895Y-39516568D01*
X23368658Y-39745042D01*
X23373666Y-39752904D01*
X23443720Y-39846716D01*
X23454979Y-39855165D01*
X23467397Y-39848393D01*
X24527978Y-38787812D01*
X24534356Y-38776132D01*
X25264408Y-38776132D01*
X25264539Y-38777965D01*
X25268790Y-38784580D01*
X26336094Y-39851884D01*
X26348474Y-39858644D01*
X26356815Y-39852400D01*
X26490832Y-39644048D01*
X26495275Y-39635864D01*
X26601807Y-39399370D01*
X26604997Y-39390605D01*
X26675402Y-39140972D01*
X26677262Y-39131830D01*
X26710187Y-38873019D01*
X26710668Y-38866733D01*
X26712987Y-38778160D01*
X26712836Y-38771851D01*
X26693501Y-38511663D01*
X26692125Y-38502457D01*
X26634878Y-38249467D01*
X26632154Y-38240556D01*
X26538143Y-37998806D01*
X26534132Y-37990397D01*
X26405422Y-37765202D01*
X26400211Y-37757476D01*
X26356996Y-37702658D01*
X26345071Y-37694187D01*
X26333537Y-37700673D01*
X25272022Y-38762188D01*
X25264408Y-38776132D01*
X24534356Y-38776132D01*
X24535592Y-38773868D01*
X24535461Y-38772035D01*
X24531210Y-38765420D01*
X23465816Y-37700026D01*
X23452507Y-37692758D01*
X23442472Y-37699878D01*
X23426937Y-37718556D01*
X23421531Y-37726135D01*
X23286965Y-37947891D01*
X23282736Y-37956192D01*
X23182432Y-38195389D01*
X23179471Y-38204239D01*
X23115628Y-38455625D01*
X23114006Y-38464822D01*
X23088020Y-38722885D01*
X23087775Y-38732211D01*
X20601500Y-38732211D01*
X20601500Y-37327689D01*
X23817102Y-37327689D01*
X23821675Y-37337465D01*
X24887188Y-38402978D01*
X24901132Y-38410592D01*
X24902965Y-38410461D01*
X24909580Y-38406210D01*
X25974349Y-37341441D01*
X25980733Y-37329751D01*
X25971321Y-37317641D01*
X25824045Y-37215471D01*
X25816010Y-37210738D01*
X25583376Y-37096016D01*
X25574743Y-37092528D01*
X25327703Y-37013450D01*
X25318643Y-37011274D01*
X25062630Y-36969580D01*
X25053343Y-36968768D01*
X24793992Y-36965373D01*
X24784681Y-36965943D01*
X24527682Y-37000919D01*
X24518546Y-37002860D01*
X24269543Y-37075439D01*
X24260800Y-37078707D01*
X24025252Y-37187296D01*
X24017097Y-37191816D01*
X23826240Y-37316947D01*
X23817102Y-37327689D01*
X20601500Y-37327689D01*
X20601500Y-32272095D01*
X23267001Y-32272095D01*
X23267338Y-32278614D01*
X23277257Y-32374206D01*
X23280149Y-32387600D01*
X23331588Y-32541784D01*
X23337761Y-32554962D01*
X23423063Y-32692807D01*
X23432099Y-32704208D01*
X23546829Y-32818739D01*
X23558240Y-32827751D01*
X23696243Y-32912816D01*
X23709424Y-32918963D01*
X23863710Y-32970138D01*
X23877086Y-32973005D01*
X23971438Y-32982672D01*
X23977854Y-32983000D01*
X24090385Y-32983000D01*
X24105624Y-32978525D01*
X24106829Y-32977135D01*
X24108500Y-32969452D01*
X24108500Y-32022115D01*
X24104025Y-32006876D01*
X24102635Y-32005671D01*
X24094952Y-32004000D01*
X23285116Y-32004000D01*
X23269877Y-32008475D01*
X23268672Y-32009865D01*
X23267001Y-32017548D01*
X23267001Y-32272095D01*
X20601500Y-32272095D01*
X20601500Y-31477885D01*
X23267000Y-31477885D01*
X23271475Y-31493124D01*
X23272865Y-31494329D01*
X23280548Y-31496000D01*
X24090385Y-31496000D01*
X24105624Y-31491525D01*
X24106829Y-31490135D01*
X24108500Y-31482452D01*
X24108500Y-30535116D01*
X24104025Y-30519877D01*
X24102635Y-30518672D01*
X24094952Y-30517001D01*
X23977905Y-30517001D01*
X23971386Y-30517338D01*
X23875794Y-30527257D01*
X23862400Y-30530149D01*
X23708216Y-30581588D01*
X23695038Y-30587761D01*
X23557193Y-30673063D01*
X23545792Y-30682099D01*
X23431261Y-30796829D01*
X23422249Y-30808240D01*
X23337184Y-30946243D01*
X23331037Y-30959424D01*
X23279862Y-31113710D01*
X23276995Y-31127086D01*
X23267328Y-31221438D01*
X23267000Y-31227855D01*
X23267000Y-31477885D01*
X20601500Y-31477885D01*
X20601500Y-28160820D01*
X20621502Y-28092699D01*
X20675158Y-28046206D01*
X20745432Y-28036102D01*
X20810012Y-28065596D01*
X20848396Y-28125322D01*
X20852050Y-28141760D01*
X20873894Y-28284511D01*
X20887002Y-28324614D01*
X20947971Y-28511154D01*
X20947974Y-28511160D01*
X20949579Y-28516072D01*
X20951966Y-28520658D01*
X20951968Y-28520662D01*
X20983730Y-28581676D01*
X21062069Y-28732162D01*
X21065179Y-28736304D01*
X21122583Y-28812758D01*
X21208341Y-28926977D01*
X21384467Y-29095287D01*
X21388739Y-29098201D01*
X21388740Y-29098202D01*
X21422392Y-29121158D01*
X21585717Y-29232571D01*
X21674611Y-29273834D01*
X21801993Y-29332963D01*
X21801997Y-29332964D01*
X21806688Y-29335142D01*
X22041443Y-29400246D01*
X22046577Y-29400795D01*
X22046579Y-29400795D01*
X22236992Y-29421144D01*
X22236999Y-29421144D01*
X22240327Y-29421500D01*
X22381751Y-29421500D01*
X22384324Y-29421288D01*
X22384335Y-29421288D01*
X22557646Y-29407039D01*
X22557652Y-29407038D01*
X22562797Y-29406615D01*
X22799073Y-29347267D01*
X23022483Y-29250125D01*
X23227028Y-29117800D01*
X23251770Y-29095287D01*
X23403392Y-28957321D01*
X23403393Y-28957319D01*
X23407214Y-28953843D01*
X23410413Y-28949792D01*
X23410417Y-28949788D01*
X23555000Y-28766714D01*
X23555002Y-28766710D01*
X23558202Y-28762659D01*
X23561624Y-28756461D01*
X23636375Y-28621048D01*
X23675937Y-28549382D01*
X23757257Y-28319740D01*
X23779143Y-28196876D01*
X23799074Y-28084987D01*
X23799074Y-28084983D01*
X23799980Y-28079899D01*
X23801253Y-27975684D01*
X23802893Y-27841472D01*
X23802893Y-27841470D01*
X23802956Y-27836302D01*
X23766106Y-27595489D01*
X23692326Y-27369756D01*
X23692029Y-27368846D01*
X23692026Y-27368840D01*
X23690421Y-27363928D01*
X23684467Y-27352489D01*
X23580322Y-27152431D01*
X23577931Y-27147838D01*
X23530504Y-27084672D01*
X23434764Y-26957158D01*
X23434762Y-26957156D01*
X23431659Y-26953023D01*
X23298407Y-26825684D01*
X23259270Y-26788284D01*
X23259269Y-26788283D01*
X23255533Y-26784713D01*
X23218413Y-26759391D01*
X23058562Y-26650348D01*
X23054283Y-26647429D01*
X22917624Y-26583994D01*
X22838007Y-26547037D01*
X22838003Y-26547036D01*
X22833312Y-26544858D01*
X22598557Y-26479754D01*
X22593423Y-26479205D01*
X22593421Y-26479205D01*
X22403008Y-26458856D01*
X22403001Y-26458856D01*
X22399673Y-26458500D01*
X22258249Y-26458500D01*
X22255676Y-26458712D01*
X22255665Y-26458712D01*
X22082354Y-26472961D01*
X22082348Y-26472962D01*
X22077203Y-26473385D01*
X21840927Y-26532733D01*
X21617517Y-26629875D01*
X21412972Y-26762200D01*
X21409149Y-26765679D01*
X21409146Y-26765681D01*
X21256823Y-26904285D01*
X21232786Y-26926157D01*
X21229587Y-26930208D01*
X21229583Y-26930212D01*
X21085000Y-27113286D01*
X21081798Y-27117341D01*
X21079302Y-27121862D01*
X21079301Y-27121864D01*
X21059569Y-27157609D01*
X20964063Y-27330618D01*
X20882743Y-27560260D01*
X20881836Y-27565352D01*
X20851547Y-27735390D01*
X20819909Y-27798947D01*
X20758931Y-27835310D01*
X20687975Y-27832933D01*
X20629567Y-27792572D01*
X20602252Y-27727040D01*
X20601500Y-27713293D01*
X20601500Y-26829476D01*
X20624148Y-26757404D01*
X20633067Y-26744615D01*
X22921557Y-23462885D01*
X24552000Y-23462885D01*
X24556475Y-23478124D01*
X24557865Y-23479329D01*
X24565548Y-23481000D01*
X25787885Y-23481000D01*
X25803124Y-23476525D01*
X25804329Y-23475135D01*
X25806000Y-23467452D01*
X25806000Y-23462885D01*
X26314000Y-23462885D01*
X26318475Y-23478124D01*
X26319865Y-23479329D01*
X26327548Y-23481000D01*
X27549884Y-23481000D01*
X27565123Y-23476525D01*
X27566328Y-23475135D01*
X27567999Y-23467452D01*
X27567999Y-22940331D01*
X27567629Y-22933510D01*
X27562105Y-22882648D01*
X27558479Y-22867396D01*
X27513324Y-22746946D01*
X27504786Y-22731351D01*
X27428285Y-22629276D01*
X27415724Y-22616715D01*
X27313649Y-22540214D01*
X27298054Y-22531676D01*
X27177606Y-22486522D01*
X27162351Y-22482895D01*
X27111486Y-22477369D01*
X27104672Y-22477000D01*
X26332115Y-22477000D01*
X26316876Y-22481475D01*
X26315671Y-22482865D01*
X26314000Y-22490548D01*
X26314000Y-23462885D01*
X25806000Y-23462885D01*
X25806000Y-22495116D01*
X25801525Y-22479877D01*
X25800135Y-22478672D01*
X25792452Y-22477001D01*
X25015331Y-22477001D01*
X25008510Y-22477371D01*
X24957648Y-22482895D01*
X24942396Y-22486521D01*
X24821946Y-22531676D01*
X24806351Y-22540214D01*
X24704276Y-22616715D01*
X24691715Y-22629276D01*
X24615214Y-22731351D01*
X24606676Y-22746946D01*
X24561522Y-22867394D01*
X24557895Y-22882649D01*
X24552369Y-22933514D01*
X24552000Y-22940328D01*
X24552000Y-23462885D01*
X22921557Y-23462885D01*
X24301363Y-21484221D01*
X24306332Y-21477095D01*
X25807001Y-21477095D01*
X25807338Y-21483614D01*
X25817257Y-21579206D01*
X25820149Y-21592600D01*
X25871588Y-21746784D01*
X25877761Y-21759962D01*
X25963063Y-21897807D01*
X25972099Y-21909208D01*
X26086829Y-22023739D01*
X26098240Y-22032751D01*
X26236243Y-22117816D01*
X26249424Y-22123963D01*
X26403710Y-22175138D01*
X26417086Y-22178005D01*
X26511438Y-22187672D01*
X26517854Y-22188000D01*
X26630385Y-22188000D01*
X26645624Y-22183525D01*
X26646829Y-22182135D01*
X26648500Y-22174452D01*
X26648500Y-21227115D01*
X26644025Y-21211876D01*
X26642635Y-21210671D01*
X26634952Y-21209000D01*
X25825116Y-21209000D01*
X25809877Y-21213475D01*
X25808672Y-21214865D01*
X25807001Y-21222548D01*
X25807001Y-21477095D01*
X24306332Y-21477095D01*
X24860169Y-20682885D01*
X25807000Y-20682885D01*
X25811475Y-20698124D01*
X25812865Y-20699329D01*
X25820548Y-20701000D01*
X26630385Y-20701000D01*
X26645624Y-20696525D01*
X26646829Y-20695135D01*
X26648500Y-20687452D01*
X26648500Y-19740116D01*
X26644025Y-19724877D01*
X26642635Y-19723672D01*
X26634952Y-19722001D01*
X26517905Y-19722001D01*
X26511386Y-19722338D01*
X26415794Y-19732257D01*
X26402400Y-19735149D01*
X26248216Y-19786588D01*
X26235038Y-19792761D01*
X26097193Y-19878063D01*
X26085792Y-19887099D01*
X25971261Y-20001829D01*
X25962249Y-20013240D01*
X25877184Y-20151243D01*
X25871037Y-20164424D01*
X25819862Y-20318710D01*
X25816995Y-20332086D01*
X25807328Y-20426438D01*
X25807000Y-20432855D01*
X25807000Y-20682885D01*
X24860169Y-20682885D01*
X27466457Y-16945428D01*
X27521829Y-16900993D01*
X27569809Y-16891500D01*
X31248750Y-16891500D01*
X31316871Y-16911502D01*
G37*
G04 #@! TD.AperFunction*
G04 #@! TA.AperFunction,Conductor*
G36*
X32581121Y-32553502D02*
G01*
X32627614Y-32607158D01*
X32639000Y-32659500D01*
X32639000Y-33864884D01*
X32643475Y-33880123D01*
X32644865Y-33881328D01*
X32652548Y-33882999D01*
X32907095Y-33882999D01*
X32913614Y-33882662D01*
X33009206Y-33872743D01*
X33022600Y-33869851D01*
X33156041Y-33825332D01*
X33226991Y-33822748D01*
X33288074Y-33858932D01*
X33318558Y-33917872D01*
X33318924Y-33923768D01*
X33321970Y-33932206D01*
X33322611Y-33935300D01*
X33326701Y-33951702D01*
X33327588Y-33954735D01*
X33328860Y-33963619D01*
X33332574Y-33971786D01*
X33332574Y-33971788D01*
X33348372Y-34006533D01*
X33352185Y-34015901D01*
X33368188Y-34060232D01*
X33373479Y-34067475D01*
X33374945Y-34070232D01*
X33383506Y-34084882D01*
X33385196Y-34087524D01*
X33388910Y-34095693D01*
X33394769Y-34102493D01*
X33394771Y-34102496D01*
X33419682Y-34131407D01*
X33425960Y-34139312D01*
X33433951Y-34150250D01*
X33444869Y-34161168D01*
X33451227Y-34168015D01*
X33483616Y-34205604D01*
X33491151Y-34210488D01*
X33497567Y-34216085D01*
X33509192Y-34225491D01*
X34901429Y-35617728D01*
X34935455Y-35680040D01*
X34930390Y-35750855D01*
X34884605Y-35810036D01*
X34784894Y-35879854D01*
X34784891Y-35879856D01*
X34780383Y-35883013D01*
X34628013Y-36035383D01*
X34504416Y-36211898D01*
X34502092Y-36216882D01*
X34501619Y-36217701D01*
X34450236Y-36266694D01*
X34380523Y-36280130D01*
X34314612Y-36253744D01*
X34273430Y-36195911D01*
X34266500Y-36154701D01*
X34266500Y-35943842D01*
X34265166Y-35934775D01*
X34256888Y-35878541D01*
X34256887Y-35878539D01*
X34255462Y-35868856D01*
X34239939Y-35837240D01*
X34204077Y-35764197D01*
X34204076Y-35764196D01*
X34199487Y-35754849D01*
X34139725Y-35695191D01*
X34116972Y-35672478D01*
X34109601Y-35665120D01*
X34077182Y-35649273D01*
X34028019Y-35625242D01*
X33995497Y-35609345D01*
X33962716Y-35604563D01*
X33925684Y-35599160D01*
X33925680Y-35599160D01*
X33921158Y-35598500D01*
X33368765Y-35598500D01*
X33300644Y-35578498D01*
X33279670Y-35561595D01*
X32776690Y-35058614D01*
X32252046Y-34533970D01*
X32244546Y-34525728D01*
X32240446Y-34519268D01*
X32190965Y-34472802D01*
X32188123Y-34470047D01*
X32168445Y-34450369D01*
X32165273Y-34447909D01*
X32156253Y-34440205D01*
X32129914Y-34415471D01*
X32129915Y-34415471D01*
X32124136Y-34410045D01*
X32106465Y-34400330D01*
X32089953Y-34389484D01*
X32074015Y-34377121D01*
X32033569Y-34359619D01*
X32022921Y-34354402D01*
X31991262Y-34336997D01*
X31991259Y-34336996D01*
X31984318Y-34333180D01*
X31964786Y-34328165D01*
X31946100Y-34321767D01*
X31927584Y-34313755D01*
X31884076Y-34306865D01*
X31872453Y-34304458D01*
X31829777Y-34293500D01*
X31809611Y-34293500D01*
X31789901Y-34291949D01*
X31777823Y-34290036D01*
X31777822Y-34290036D01*
X31769993Y-34288796D01*
X31736635Y-34291949D01*
X31726140Y-34292941D01*
X31714283Y-34293500D01*
X30158766Y-34293500D01*
X30090645Y-34273498D01*
X30069671Y-34256595D01*
X29911171Y-34098095D01*
X29877145Y-34035783D01*
X29882210Y-33964968D01*
X29924757Y-33908132D01*
X29991277Y-33883321D01*
X30000266Y-33883000D01*
X30207885Y-33883000D01*
X30223124Y-33878525D01*
X30224329Y-33877135D01*
X30226000Y-33869452D01*
X30226000Y-33864884D01*
X30734000Y-33864884D01*
X30738475Y-33880123D01*
X30739865Y-33881328D01*
X30747548Y-33882999D01*
X31002095Y-33882999D01*
X31008614Y-33882662D01*
X31104206Y-33872743D01*
X31117600Y-33869851D01*
X31271784Y-33818412D01*
X31284963Y-33812238D01*
X31366171Y-33761985D01*
X31434623Y-33743147D01*
X31498590Y-33761869D01*
X31581243Y-33812816D01*
X31594424Y-33818963D01*
X31748710Y-33870138D01*
X31762086Y-33873005D01*
X31856438Y-33882672D01*
X31862854Y-33883000D01*
X32112885Y-33883000D01*
X32128124Y-33878525D01*
X32129329Y-33877135D01*
X32131000Y-33869452D01*
X32131000Y-33059615D01*
X32126525Y-33044376D01*
X32125135Y-33043171D01*
X32117452Y-33041500D01*
X30752115Y-33041500D01*
X30736876Y-33045975D01*
X30735671Y-33047365D01*
X30734000Y-33055048D01*
X30734000Y-33864884D01*
X30226000Y-33864884D01*
X30226000Y-32659500D01*
X30246002Y-32591379D01*
X30299658Y-32544886D01*
X30352000Y-32533500D01*
X32513000Y-32533500D01*
X32581121Y-32553502D01*
G37*
G04 #@! TD.AperFunction*
G04 #@! TA.AperFunction,Conductor*
G36*
X33437423Y-31469823D02*
G01*
X33482484Y-31498783D01*
X33541753Y-31558052D01*
X33549334Y-31567539D01*
X33549708Y-31567221D01*
X33555523Y-31574054D01*
X33560315Y-31581648D01*
X33599124Y-31615923D01*
X33600484Y-31617124D01*
X33606171Y-31622470D01*
X33617565Y-31633864D01*
X33625887Y-31640101D01*
X33633725Y-31646482D01*
X33662332Y-31671747D01*
X33662335Y-31671749D01*
X33669061Y-31677689D01*
X33677189Y-31681505D01*
X33679835Y-31683243D01*
X33694325Y-31691950D01*
X33697084Y-31693460D01*
X33704266Y-31698843D01*
X33748422Y-31715396D01*
X33757708Y-31719309D01*
X33800391Y-31739349D01*
X33809264Y-31740731D01*
X33812291Y-31741656D01*
X33828635Y-31745944D01*
X33831717Y-31746622D01*
X33840118Y-31749771D01*
X33849066Y-31750436D01*
X33850108Y-31750665D01*
X33912344Y-31784829D01*
X33946230Y-31847216D01*
X33947972Y-31857278D01*
X33960606Y-31953242D01*
X33964844Y-31969060D01*
X34016009Y-32092584D01*
X34027535Y-32112547D01*
X34044273Y-32181542D01*
X34021053Y-32248634D01*
X33965905Y-32290491D01*
X33966136Y-32290926D01*
X33963452Y-32292353D01*
X33961203Y-32294060D01*
X33958207Y-32295141D01*
X33958204Y-32295143D01*
X33949768Y-32298188D01*
X33942526Y-32303479D01*
X33939768Y-32304945D01*
X33925118Y-32313506D01*
X33922476Y-32315196D01*
X33914307Y-32318910D01*
X33907507Y-32324769D01*
X33907504Y-32324771D01*
X33878593Y-32349682D01*
X33870688Y-32355960D01*
X33859750Y-32363951D01*
X33848832Y-32374869D01*
X33841985Y-32381227D01*
X33817315Y-32402484D01*
X33752652Y-32431798D01*
X33682407Y-32421499D01*
X33628880Y-32374857D01*
X33609740Y-32320036D01*
X33607743Y-32300793D01*
X33604851Y-32287400D01*
X33553412Y-32133216D01*
X33547239Y-32120038D01*
X33461937Y-31982193D01*
X33452901Y-31970792D01*
X33338171Y-31856261D01*
X33326760Y-31847249D01*
X33223203Y-31783416D01*
X33175710Y-31730644D01*
X33164286Y-31660572D01*
X33192560Y-31595449D01*
X33225181Y-31567702D01*
X33250127Y-31552949D01*
X33304294Y-31498782D01*
X33366607Y-31464757D01*
X33437423Y-31469823D01*
G37*
G04 #@! TD.AperFunction*
G04 #@! TA.AperFunction,Conductor*
G36*
X33941418Y-26686502D02*
G01*
X33985258Y-26738131D01*
X33985832Y-26737792D01*
X33989867Y-26744615D01*
X33998606Y-26759391D01*
X34067051Y-26875127D01*
X34179873Y-26987949D01*
X34186689Y-26991980D01*
X34186693Y-26991983D01*
X34226639Y-27015606D01*
X34275091Y-27067499D01*
X34288500Y-27124060D01*
X34288500Y-27672642D01*
X34279893Y-27718412D01*
X34260063Y-27769273D01*
X34259071Y-27776806D01*
X34259071Y-27776807D01*
X34250239Y-27843898D01*
X34238533Y-27932811D01*
X34256633Y-28096764D01*
X34313320Y-28251667D01*
X34405319Y-28388577D01*
X34527321Y-28499589D01*
X34533994Y-28503212D01*
X34665604Y-28574671D01*
X34665606Y-28574672D01*
X34672281Y-28578296D01*
X34679630Y-28580224D01*
X34824481Y-28618225D01*
X34824483Y-28618225D01*
X34831831Y-28620153D01*
X34920497Y-28621546D01*
X34989162Y-28622625D01*
X34989165Y-28622625D01*
X34996759Y-28622744D01*
X35077152Y-28604331D01*
X35150141Y-28587615D01*
X35150143Y-28587614D01*
X35157545Y-28585919D01*
X35157889Y-28585746D01*
X35225690Y-28581676D01*
X35287609Y-28616412D01*
X35320919Y-28679109D01*
X35323500Y-28704482D01*
X35323500Y-28862533D01*
X35303498Y-28930654D01*
X35249842Y-28977147D01*
X35225900Y-28985291D01*
X35157987Y-29001003D01*
X35101989Y-29013958D01*
X35093039Y-29017665D01*
X35067549Y-29028223D01*
X35065807Y-29029074D01*
X35065795Y-29029080D01*
X35042505Y-29040466D01*
X35024480Y-29049278D01*
X34925643Y-29129542D01*
X34920115Y-29138398D01*
X34869257Y-29219873D01*
X34858223Y-29237549D01*
X34856229Y-29242363D01*
X34856228Y-29242365D01*
X34852159Y-29252190D01*
X34843957Y-29271991D01*
X34843327Y-29273825D01*
X34843324Y-29273834D01*
X34830857Y-29310151D01*
X34828395Y-29317322D01*
X34815260Y-29443965D01*
X34817613Y-29454136D01*
X34817983Y-29460096D01*
X34818225Y-29467903D01*
X34818225Y-29612225D01*
X34798223Y-29680346D01*
X34744567Y-29726839D01*
X34692225Y-29738225D01*
X34511142Y-29738225D01*
X34498144Y-29737553D01*
X34486419Y-29736337D01*
X34476035Y-29735260D01*
X34351989Y-29763958D01*
X34343039Y-29767665D01*
X34317549Y-29778223D01*
X34315807Y-29779074D01*
X34315795Y-29779080D01*
X34296281Y-29788620D01*
X34274480Y-29799278D01*
X34175643Y-29879542D01*
X34170115Y-29888398D01*
X34113393Y-29979267D01*
X34108223Y-29987549D01*
X34093957Y-30021991D01*
X34093327Y-30023825D01*
X34093324Y-30023834D01*
X34080722Y-30060543D01*
X34078395Y-30067322D01*
X34065260Y-30193965D01*
X34067613Y-30204136D01*
X34067983Y-30210096D01*
X34068225Y-30217903D01*
X34068225Y-30318857D01*
X34067553Y-30331856D01*
X34065260Y-30353963D01*
X34062410Y-30353667D01*
X34050238Y-30407171D01*
X33999561Y-30456895D01*
X33930047Y-30471327D01*
X33863765Y-30445886D01*
X33851133Y-30434834D01*
X33820747Y-30404448D01*
X33813166Y-30394961D01*
X33812792Y-30395279D01*
X33806977Y-30388446D01*
X33802185Y-30380852D01*
X33762015Y-30345376D01*
X33756329Y-30340030D01*
X33744935Y-30328636D01*
X33736600Y-30322389D01*
X33728772Y-30316016D01*
X33700166Y-30290752D01*
X33693439Y-30284811D01*
X33685312Y-30280995D01*
X33682678Y-30279265D01*
X33668181Y-30270554D01*
X33665415Y-30269040D01*
X33658234Y-30263658D01*
X33617795Y-30248498D01*
X33614101Y-30247113D01*
X33604782Y-30243186D01*
X33578447Y-30230822D01*
X33562109Y-30223151D01*
X33553239Y-30221770D01*
X33550214Y-30220845D01*
X33529621Y-30215443D01*
X33528858Y-30215157D01*
X33523266Y-30213061D01*
X33466502Y-30170420D01*
X33449846Y-30136956D01*
X33449527Y-30137094D01*
X33446945Y-30131127D01*
X33446498Y-30130229D01*
X33446379Y-30129819D01*
X33444168Y-30122208D01*
X33439541Y-30114384D01*
X33366983Y-29991694D01*
X33366983Y-29991693D01*
X33362949Y-29984873D01*
X33250127Y-29872051D01*
X33121746Y-29796127D01*
X33119615Y-29794867D01*
X33112792Y-29790832D01*
X33105180Y-29788621D01*
X33105179Y-29788620D01*
X33093816Y-29785319D01*
X33082346Y-29781987D01*
X33022512Y-29743774D01*
X32992834Y-29679278D01*
X32991500Y-29660990D01*
X32991500Y-28442500D01*
X33011502Y-28374379D01*
X33065158Y-28327886D01*
X33117500Y-28316500D01*
X33396158Y-28316500D01*
X33400706Y-28315830D01*
X33400713Y-28315830D01*
X33461459Y-28306888D01*
X33461461Y-28306887D01*
X33471144Y-28305462D01*
X33479933Y-28301147D01*
X33575803Y-28254077D01*
X33575804Y-28254076D01*
X33585151Y-28249487D01*
X33674880Y-28159601D01*
X33683601Y-28141761D01*
X33713839Y-28079899D01*
X33730655Y-28045497D01*
X33735437Y-28012716D01*
X33740840Y-27975684D01*
X33740840Y-27975680D01*
X33741500Y-27971158D01*
X33741500Y-26792500D01*
X33761502Y-26724379D01*
X33815158Y-26677886D01*
X33867500Y-26666500D01*
X33873297Y-26666500D01*
X33941418Y-26686502D01*
G37*
G04 #@! TD.AperFunction*
G04 #@! TA.AperFunction,Conductor*
G36*
X35003920Y-22965779D02*
G01*
X35033454Y-22999863D01*
X35072051Y-23065127D01*
X35184873Y-23177949D01*
X35322208Y-23259168D01*
X35329820Y-23261380D01*
X35337094Y-23264527D01*
X35336331Y-23266290D01*
X35387494Y-23298969D01*
X35417167Y-23363467D01*
X35418500Y-23381747D01*
X35418500Y-24827500D01*
X35398498Y-24895621D01*
X35344842Y-24942114D01*
X35292500Y-24953500D01*
X34506230Y-24953500D01*
X34503782Y-24953693D01*
X34503774Y-24953693D01*
X34476836Y-24955813D01*
X34476831Y-24955814D01*
X34470426Y-24956318D01*
X34464254Y-24958111D01*
X34464249Y-24958112D01*
X34324821Y-24998620D01*
X34324819Y-24998621D01*
X34317208Y-25000832D01*
X34310385Y-25004867D01*
X34239492Y-25046793D01*
X34179873Y-25082051D01*
X34067051Y-25194873D01*
X33985832Y-25332208D01*
X33985308Y-25331898D01*
X33943525Y-25382114D01*
X33873297Y-25403500D01*
X33867500Y-25403500D01*
X33799379Y-25383498D01*
X33752886Y-25329842D01*
X33741500Y-25277500D01*
X33741500Y-24098842D01*
X33731983Y-24034183D01*
X33731888Y-24033541D01*
X33731887Y-24033539D01*
X33730462Y-24023856D01*
X33714169Y-23990671D01*
X33679077Y-23919197D01*
X33679076Y-23919196D01*
X33674487Y-23909849D01*
X33622441Y-23857894D01*
X33591972Y-23827478D01*
X33584601Y-23820120D01*
X33500245Y-23778886D01*
X33447830Y-23731002D01*
X33429622Y-23662380D01*
X33451406Y-23594807D01*
X33466484Y-23576592D01*
X33699671Y-23343405D01*
X33761983Y-23309379D01*
X33788766Y-23306500D01*
X34338770Y-23306500D01*
X34341218Y-23306307D01*
X34341226Y-23306307D01*
X34368164Y-23304187D01*
X34368169Y-23304186D01*
X34374574Y-23303682D01*
X34380746Y-23301889D01*
X34380751Y-23301888D01*
X34520179Y-23261380D01*
X34520181Y-23261379D01*
X34527792Y-23259168D01*
X34665127Y-23177949D01*
X34777949Y-23065127D01*
X34816546Y-22999863D01*
X34868439Y-22951410D01*
X34938289Y-22938704D01*
X35003920Y-22965779D01*
G37*
G04 #@! TD.AperFunction*
G04 #@! TA.AperFunction,Conductor*
G36*
X31946121Y-18181002D02*
G01*
X31992614Y-18234658D01*
X32004000Y-18287000D01*
X32004000Y-19733517D01*
X32008064Y-19747359D01*
X32021478Y-19749393D01*
X32028184Y-19748534D01*
X32038262Y-19746392D01*
X32242255Y-19685191D01*
X32251842Y-19681433D01*
X32443095Y-19587739D01*
X32451945Y-19582464D01*
X32625328Y-19458792D01*
X32633200Y-19452139D01*
X32784052Y-19301812D01*
X32790730Y-19293965D01*
X32915003Y-19121020D01*
X32920313Y-19112183D01*
X32976927Y-18997635D01*
X33025041Y-18945428D01*
X33093742Y-18927521D01*
X33161219Y-18949600D01*
X33204079Y-19000212D01*
X33217090Y-19028115D01*
X33217093Y-19028120D01*
X33219416Y-19033102D01*
X33222572Y-19037609D01*
X33222573Y-19037611D01*
X33334353Y-19197249D01*
X33343013Y-19209617D01*
X33495383Y-19361987D01*
X33499891Y-19365144D01*
X33499894Y-19365146D01*
X33665070Y-19480803D01*
X33671898Y-19485584D01*
X33676879Y-19487907D01*
X33676890Y-19487913D01*
X33710180Y-19503436D01*
X33763464Y-19550353D01*
X33782925Y-19618630D01*
X33782523Y-19627734D01*
X33781922Y-19635208D01*
X33779941Y-19643962D01*
X33781757Y-19673233D01*
X33783258Y-19697432D01*
X33783500Y-19705233D01*
X33783500Y-19721366D01*
X33784136Y-19725807D01*
X33784136Y-19725809D01*
X33784976Y-19731677D01*
X33786005Y-19741726D01*
X33786481Y-19749393D01*
X33788924Y-19788768D01*
X33791974Y-19797215D01*
X33792616Y-19800317D01*
X33796701Y-19816702D01*
X33797588Y-19819735D01*
X33798860Y-19828619D01*
X33802574Y-19836786D01*
X33802574Y-19836788D01*
X33818372Y-19871533D01*
X33822185Y-19880901D01*
X33838188Y-19925232D01*
X33843479Y-19932475D01*
X33844945Y-19935232D01*
X33853506Y-19949882D01*
X33855196Y-19952524D01*
X33858910Y-19960693D01*
X33864769Y-19967493D01*
X33864771Y-19967496D01*
X33889682Y-19996407D01*
X33895960Y-20004312D01*
X33903951Y-20015250D01*
X33914869Y-20026168D01*
X33921227Y-20033015D01*
X33953616Y-20070604D01*
X33961151Y-20075488D01*
X33967567Y-20081085D01*
X33979192Y-20090491D01*
X35083717Y-21195016D01*
X35117743Y-21257328D01*
X35112678Y-21328143D01*
X35083717Y-21373206D01*
X35077660Y-21379263D01*
X35077657Y-21379267D01*
X35072051Y-21384873D01*
X35068017Y-21391694D01*
X35068014Y-21391698D01*
X35033454Y-21450137D01*
X34981561Y-21498590D01*
X34911711Y-21511296D01*
X34846080Y-21484221D01*
X34816546Y-21450137D01*
X34781985Y-21391697D01*
X34781984Y-21391695D01*
X34777949Y-21384873D01*
X34665127Y-21272051D01*
X34650863Y-21263615D01*
X34534615Y-21194867D01*
X34527792Y-21190832D01*
X34520181Y-21188621D01*
X34520179Y-21188620D01*
X34380751Y-21148112D01*
X34380746Y-21148111D01*
X34374574Y-21146318D01*
X34368169Y-21145814D01*
X34368164Y-21145813D01*
X34341226Y-21143693D01*
X34341218Y-21143693D01*
X34338770Y-21143500D01*
X33788766Y-21143500D01*
X33720645Y-21123498D01*
X33699671Y-21106595D01*
X33157046Y-20563970D01*
X33149546Y-20555728D01*
X33145446Y-20549268D01*
X33095965Y-20502802D01*
X33093123Y-20500047D01*
X33073445Y-20480369D01*
X33070273Y-20477909D01*
X33061253Y-20470205D01*
X33034914Y-20445471D01*
X33034915Y-20445471D01*
X33029136Y-20440045D01*
X33011465Y-20430330D01*
X32994953Y-20419484D01*
X32979015Y-20407121D01*
X32938569Y-20389619D01*
X32927921Y-20384402D01*
X32896262Y-20366997D01*
X32896259Y-20366996D01*
X32889318Y-20363180D01*
X32869786Y-20358165D01*
X32851100Y-20351767D01*
X32832584Y-20343755D01*
X32789076Y-20336865D01*
X32777453Y-20334458D01*
X32734777Y-20323500D01*
X32714611Y-20323500D01*
X32694901Y-20321949D01*
X32682823Y-20320036D01*
X32682822Y-20320036D01*
X32674993Y-20318796D01*
X32641635Y-20321949D01*
X32631140Y-20322941D01*
X32619283Y-20323500D01*
X30021747Y-20323500D01*
X29953626Y-20303498D01*
X29907133Y-20249842D01*
X29902612Y-20237669D01*
X29901380Y-20234821D01*
X29899168Y-20227208D01*
X29832661Y-20114750D01*
X29821983Y-20096694D01*
X29821983Y-20096693D01*
X29817949Y-20089873D01*
X29705127Y-19977051D01*
X29698309Y-19973019D01*
X29698304Y-19973015D01*
X29670860Y-19956785D01*
X29622408Y-19904892D01*
X29609000Y-19848332D01*
X29609000Y-19772500D01*
X29629002Y-19704379D01*
X29682658Y-19657886D01*
X29735000Y-19646500D01*
X30096158Y-19646500D01*
X30100706Y-19645830D01*
X30100713Y-19645830D01*
X30161459Y-19636888D01*
X30161461Y-19636887D01*
X30171144Y-19635462D01*
X30206922Y-19617896D01*
X30275803Y-19584077D01*
X30275804Y-19584076D01*
X30285151Y-19579487D01*
X30374880Y-19489601D01*
X30430655Y-19375497D01*
X30441500Y-19301158D01*
X30442636Y-19301324D01*
X30465679Y-19239737D01*
X30522559Y-19197249D01*
X30593380Y-19192257D01*
X30655657Y-19226346D01*
X30661708Y-19232853D01*
X30793219Y-19384674D01*
X30800580Y-19391883D01*
X30964434Y-19527916D01*
X30972881Y-19533831D01*
X31156756Y-19641279D01*
X31166042Y-19645729D01*
X31365001Y-19721703D01*
X31374899Y-19724579D01*
X31478250Y-19745606D01*
X31492299Y-19744410D01*
X31496000Y-19734065D01*
X31496000Y-18287000D01*
X31516002Y-18218879D01*
X31569658Y-18172386D01*
X31622000Y-18161000D01*
X31878000Y-18161000D01*
X31946121Y-18181002D01*
G37*
G04 #@! TD.AperFunction*
G04 #@! TA.AperFunction,Conductor*
G36*
X35628960Y-18798142D02*
G01*
X35674195Y-18850346D01*
X35757090Y-19028115D01*
X35757093Y-19028120D01*
X35759416Y-19033102D01*
X35762572Y-19037609D01*
X35762573Y-19037611D01*
X35874353Y-19197249D01*
X35883013Y-19209617D01*
X36035383Y-19361987D01*
X36039891Y-19365144D01*
X36039894Y-19365146D01*
X36205070Y-19480803D01*
X36211898Y-19485584D01*
X36216880Y-19487907D01*
X36216885Y-19487910D01*
X36250750Y-19503701D01*
X36304035Y-19550618D01*
X36323500Y-19617896D01*
X36323500Y-19659157D01*
X36322152Y-19671221D01*
X36322642Y-19671260D01*
X36321922Y-19680206D01*
X36319941Y-19688962D01*
X36322169Y-19724877D01*
X36323258Y-19742432D01*
X36323500Y-19750233D01*
X36323500Y-19766366D01*
X36324136Y-19770807D01*
X36324136Y-19770809D01*
X36324976Y-19776677D01*
X36326005Y-19786726D01*
X36327337Y-19808185D01*
X36328924Y-19833768D01*
X36331974Y-19842215D01*
X36332616Y-19845317D01*
X36336701Y-19861702D01*
X36337588Y-19864735D01*
X36338860Y-19873619D01*
X36342574Y-19881786D01*
X36342574Y-19881788D01*
X36358372Y-19916533D01*
X36362185Y-19925901D01*
X36378188Y-19970232D01*
X36383479Y-19977475D01*
X36384945Y-19980232D01*
X36393506Y-19994882D01*
X36395196Y-19997524D01*
X36398910Y-20005693D01*
X36404769Y-20012493D01*
X36404771Y-20012496D01*
X36429682Y-20041407D01*
X36435960Y-20049312D01*
X36443951Y-20060250D01*
X36454869Y-20071168D01*
X36461227Y-20078015D01*
X36493616Y-20115604D01*
X36501151Y-20120488D01*
X36507567Y-20126085D01*
X36519192Y-20135491D01*
X36776595Y-20392894D01*
X36810621Y-20455206D01*
X36813500Y-20481989D01*
X36813500Y-21138897D01*
X36793498Y-21207018D01*
X36739842Y-21253511D01*
X36669568Y-21263615D01*
X36623361Y-21247351D01*
X36534615Y-21194867D01*
X36527792Y-21190832D01*
X36520180Y-21188621D01*
X36520179Y-21188620D01*
X36499687Y-21182667D01*
X36465497Y-21172733D01*
X36405663Y-21134521D01*
X36382137Y-21094519D01*
X36379861Y-21088214D01*
X36379859Y-21088211D01*
X36376811Y-21079767D01*
X36371515Y-21072518D01*
X36370037Y-21069738D01*
X36361505Y-21055138D01*
X36359808Y-21052484D01*
X36356090Y-21044307D01*
X36325326Y-21008604D01*
X36319037Y-21000683D01*
X36313923Y-20993682D01*
X36313913Y-20993670D01*
X36311049Y-20989750D01*
X36300131Y-20978832D01*
X36293773Y-20971985D01*
X36267245Y-20941198D01*
X36261384Y-20934396D01*
X36253849Y-20929512D01*
X36247433Y-20923915D01*
X36235808Y-20914509D01*
X34954749Y-19633450D01*
X34920723Y-19571138D01*
X34925788Y-19500323D01*
X34971573Y-19441142D01*
X35080106Y-19365146D01*
X35080109Y-19365144D01*
X35084617Y-19361987D01*
X35236987Y-19209617D01*
X35245648Y-19197249D01*
X35357427Y-19037611D01*
X35357428Y-19037609D01*
X35360584Y-19033102D01*
X35362907Y-19028120D01*
X35362910Y-19028115D01*
X35445805Y-18850346D01*
X35492723Y-18797061D01*
X35561000Y-18777600D01*
X35628960Y-18798142D01*
G37*
G04 #@! TD.AperFunction*
M02*
