G04 #@! TF.GenerationSoftware,KiCad,Pcbnew,(6.0.7)*
G04 #@! TF.CreationDate,2022-10-10T17:08:23+03:00*
G04 #@! TF.ProjectId,DiLight_2.0,44694c69-6768-4745-9f32-2e302e6b6963,rev?*
G04 #@! TF.SameCoordinates,Original*
G04 #@! TF.FileFunction,Copper,L2,Bot*
G04 #@! TF.FilePolarity,Positive*
%FSLAX46Y46*%
G04 Gerber Fmt 4.6, Leading zero omitted, Abs format (unit mm)*
G04 Created by KiCad (PCBNEW (6.0.7)) date 2022-10-10 17:08:23*
%MOMM*%
%LPD*%
G01*
G04 APERTURE LIST*
G04 Aperture macros list*
%AMRoundRect*
0 Rectangle with rounded corners*
0 $1 Rounding radius*
0 $2 $3 $4 $5 $6 $7 $8 $9 X,Y pos of 4 corners*
0 Add a 4 corners polygon primitive as box body*
4,1,4,$2,$3,$4,$5,$6,$7,$8,$9,$2,$3,0*
0 Add four circle primitives for the rounded corners*
1,1,$1+$1,$2,$3*
1,1,$1+$1,$4,$5*
1,1,$1+$1,$6,$7*
1,1,$1+$1,$8,$9*
0 Add four rect primitives between the rounded corners*
20,1,$1+$1,$2,$3,$4,$5,0*
20,1,$1+$1,$4,$5,$6,$7,0*
20,1,$1+$1,$6,$7,$8,$9,0*
20,1,$1+$1,$8,$9,$2,$3,0*%
G04 Aperture macros list end*
G04 #@! TA.AperFunction,ComponentPad*
%ADD10R,1.700000X1.700000*%
G04 #@! TD*
G04 #@! TA.AperFunction,ComponentPad*
%ADD11O,1.700000X1.700000*%
G04 #@! TD*
G04 #@! TA.AperFunction,ComponentPad*
%ADD12C,2.600000*%
G04 #@! TD*
G04 #@! TA.AperFunction,SMDPad,CuDef*
%ADD13RoundRect,0.250000X0.350000X0.450000X-0.350000X0.450000X-0.350000X-0.450000X0.350000X-0.450000X0*%
G04 #@! TD*
G04 #@! TA.AperFunction,SMDPad,CuDef*
%ADD14R,0.800000X1.900000*%
G04 #@! TD*
G04 #@! TA.AperFunction,ViaPad*
%ADD15C,0.600000*%
G04 #@! TD*
G04 #@! TA.AperFunction,Conductor*
%ADD16C,0.250000*%
G04 #@! TD*
G04 #@! TA.AperFunction,Conductor*
%ADD17C,0.500000*%
G04 #@! TD*
G04 #@! TA.AperFunction,Conductor*
%ADD18C,1.200000*%
G04 #@! TD*
G04 APERTURE END LIST*
D10*
X33035000Y-36830000D03*
D11*
X35575000Y-36830000D03*
X38115000Y-36830000D03*
D10*
X29210000Y-18415000D03*
D11*
X31750000Y-18415000D03*
X34290000Y-18415000D03*
X36830000Y-18415000D03*
X39370000Y-18415000D03*
X41910000Y-18415000D03*
D12*
X46220000Y-43775000D03*
X46220000Y-38775000D03*
X24900000Y-38775000D03*
X24900000Y-43775000D03*
D13*
X36560000Y-39370000D03*
X34560000Y-39370000D03*
D14*
X34610000Y-41680000D03*
X36510000Y-41680000D03*
X35560000Y-44680000D03*
D15*
X48895000Y-25400000D03*
X32360000Y-33910000D03*
X45720000Y-20955000D03*
X22225000Y-25400000D03*
X47625000Y-25400000D03*
X30460000Y-33910000D03*
X23495000Y-25400000D03*
X34925000Y-27940000D03*
X46990000Y-29845000D03*
X38320000Y-28820000D03*
X37620000Y-30920000D03*
X41275000Y-35820000D03*
D16*
X34610000Y-39420000D02*
X34560000Y-39370000D01*
D17*
X45085000Y-27940000D02*
X46990000Y-29845000D01*
X34925000Y-27940000D02*
X45085000Y-27940000D01*
D16*
X37620000Y-30920000D02*
X37620000Y-29520000D01*
X37620000Y-29520000D02*
X38320000Y-28820000D01*
D18*
X35920000Y-44680000D02*
X45315000Y-44680000D01*
X45315000Y-44680000D02*
X46220000Y-43775000D01*
D16*
X41275000Y-37965000D02*
X39870000Y-39370000D01*
X34610000Y-41320000D02*
X36560000Y-39370000D01*
X34610000Y-41680000D02*
X34610000Y-41320000D01*
X39870000Y-39370000D02*
X36560000Y-39370000D01*
X41275000Y-35820000D02*
X41275000Y-37965000D01*
G04 #@! TA.AperFunction,Conductor*
G36*
X31316871Y-16911502D02*
G01*
X31363364Y-16965158D01*
X31373468Y-17035432D01*
X31343974Y-17100012D01*
X31287895Y-17137265D01*
X31226868Y-17157212D01*
X31217359Y-17161209D01*
X31028463Y-17259542D01*
X31019738Y-17265036D01*
X30849433Y-17392905D01*
X30841726Y-17399748D01*
X30694590Y-17553717D01*
X30688104Y-17561727D01*
X30670669Y-17587286D01*
X30615758Y-17632289D01*
X30545233Y-17640460D01*
X30481486Y-17609206D01*
X30444756Y-17548449D01*
X30441500Y-17528972D01*
X30441500Y-17528842D01*
X30430462Y-17453856D01*
X30403896Y-17399748D01*
X30379077Y-17349197D01*
X30379076Y-17349196D01*
X30374487Y-17339849D01*
X30299543Y-17265036D01*
X30291972Y-17257478D01*
X30284601Y-17250120D01*
X30170497Y-17194345D01*
X30137716Y-17189563D01*
X30100684Y-17184160D01*
X30100680Y-17184160D01*
X30096158Y-17183500D01*
X28323842Y-17183500D01*
X28319294Y-17184170D01*
X28319287Y-17184170D01*
X28258541Y-17193112D01*
X28258539Y-17193113D01*
X28248856Y-17194538D01*
X28240068Y-17198853D01*
X28240067Y-17198853D01*
X28144197Y-17245923D01*
X28144196Y-17245924D01*
X28134849Y-17250513D01*
X28045120Y-17340399D01*
X27989345Y-17454503D01*
X27978500Y-17528842D01*
X27978500Y-19301158D01*
X27979170Y-19305706D01*
X27979170Y-19305713D01*
X27988112Y-19366459D01*
X27989538Y-19376144D01*
X27993853Y-19384932D01*
X27993853Y-19384933D01*
X27997266Y-19391883D01*
X28045513Y-19490151D01*
X28135399Y-19579880D01*
X28249503Y-19635655D01*
X28282284Y-19640437D01*
X28319316Y-19645840D01*
X28319320Y-19645840D01*
X28323842Y-19646500D01*
X30096158Y-19646500D01*
X30100706Y-19645830D01*
X30100713Y-19645830D01*
X30161459Y-19636888D01*
X30161461Y-19636887D01*
X30171144Y-19635462D01*
X30268344Y-19587739D01*
X30275803Y-19584077D01*
X30275804Y-19584076D01*
X30285151Y-19579487D01*
X30374880Y-19489601D01*
X30430655Y-19375497D01*
X30441500Y-19301158D01*
X30442636Y-19301324D01*
X30465679Y-19239737D01*
X30522559Y-19197249D01*
X30593380Y-19192257D01*
X30655657Y-19226346D01*
X30661708Y-19232853D01*
X30793219Y-19384674D01*
X30800580Y-19391883D01*
X30964434Y-19527916D01*
X30972881Y-19533831D01*
X31156756Y-19641279D01*
X31166042Y-19645729D01*
X31365001Y-19721703D01*
X31374899Y-19724579D01*
X31478250Y-19745606D01*
X31492299Y-19744410D01*
X31496000Y-19734065D01*
X31496000Y-18287000D01*
X31516002Y-18218879D01*
X31569658Y-18172386D01*
X31622000Y-18161000D01*
X31878000Y-18161000D01*
X31946121Y-18181002D01*
X31992614Y-18234658D01*
X32004000Y-18287000D01*
X32004000Y-19733517D01*
X32008064Y-19747359D01*
X32021478Y-19749393D01*
X32028184Y-19748534D01*
X32038262Y-19746392D01*
X32242255Y-19685191D01*
X32251842Y-19681433D01*
X32443095Y-19587739D01*
X32451945Y-19582464D01*
X32625328Y-19458792D01*
X32633200Y-19452139D01*
X32784052Y-19301812D01*
X32790730Y-19293965D01*
X32915003Y-19121020D01*
X32920313Y-19112183D01*
X32976927Y-18997635D01*
X33025041Y-18945428D01*
X33093742Y-18927521D01*
X33161219Y-18949600D01*
X33204079Y-19000212D01*
X33217090Y-19028115D01*
X33217093Y-19028120D01*
X33219416Y-19033102D01*
X33222572Y-19037609D01*
X33222573Y-19037611D01*
X33334353Y-19197249D01*
X33343013Y-19209617D01*
X33495383Y-19361987D01*
X33499891Y-19365144D01*
X33499894Y-19365146D01*
X33665070Y-19480803D01*
X33671898Y-19485584D01*
X33676880Y-19487907D01*
X33676885Y-19487910D01*
X33858336Y-19572522D01*
X33867193Y-19576652D01*
X33872501Y-19578074D01*
X33872503Y-19578075D01*
X34070020Y-19630999D01*
X34070022Y-19630999D01*
X34075335Y-19632423D01*
X34290000Y-19651204D01*
X34504665Y-19632423D01*
X34509978Y-19630999D01*
X34509980Y-19630999D01*
X34707497Y-19578075D01*
X34707499Y-19578074D01*
X34712807Y-19576652D01*
X34721664Y-19572522D01*
X34903115Y-19487910D01*
X34903120Y-19487907D01*
X34908102Y-19485584D01*
X34914930Y-19480803D01*
X35080106Y-19365146D01*
X35080109Y-19365144D01*
X35084617Y-19361987D01*
X35236987Y-19209617D01*
X35245648Y-19197249D01*
X35357427Y-19037611D01*
X35357428Y-19037609D01*
X35360584Y-19033102D01*
X35362907Y-19028120D01*
X35362910Y-19028115D01*
X35445805Y-18850346D01*
X35492723Y-18797061D01*
X35561000Y-18777600D01*
X35628960Y-18798142D01*
X35674195Y-18850346D01*
X35757090Y-19028115D01*
X35757093Y-19028120D01*
X35759416Y-19033102D01*
X35762572Y-19037609D01*
X35762573Y-19037611D01*
X35874353Y-19197249D01*
X35883013Y-19209617D01*
X36035383Y-19361987D01*
X36039891Y-19365144D01*
X36039894Y-19365146D01*
X36205070Y-19480803D01*
X36211898Y-19485584D01*
X36216880Y-19487907D01*
X36216885Y-19487910D01*
X36398336Y-19572522D01*
X36407193Y-19576652D01*
X36412501Y-19578074D01*
X36412503Y-19578075D01*
X36610020Y-19630999D01*
X36610022Y-19630999D01*
X36615335Y-19632423D01*
X36830000Y-19651204D01*
X37044665Y-19632423D01*
X37049978Y-19630999D01*
X37049980Y-19630999D01*
X37247497Y-19578075D01*
X37247499Y-19578074D01*
X37252807Y-19576652D01*
X37261664Y-19572522D01*
X37443115Y-19487910D01*
X37443120Y-19487907D01*
X37448102Y-19485584D01*
X37454930Y-19480803D01*
X37620106Y-19365146D01*
X37620109Y-19365144D01*
X37624617Y-19361987D01*
X37776987Y-19209617D01*
X37785648Y-19197249D01*
X37897427Y-19037611D01*
X37897428Y-19037609D01*
X37900584Y-19033102D01*
X37902907Y-19028120D01*
X37902910Y-19028115D01*
X37985805Y-18850346D01*
X38032723Y-18797061D01*
X38101000Y-18777600D01*
X38168960Y-18798142D01*
X38214195Y-18850346D01*
X38297090Y-19028115D01*
X38297093Y-19028120D01*
X38299416Y-19033102D01*
X38302572Y-19037609D01*
X38302573Y-19037611D01*
X38414353Y-19197249D01*
X38423013Y-19209617D01*
X38575383Y-19361987D01*
X38579891Y-19365144D01*
X38579894Y-19365146D01*
X38745070Y-19480803D01*
X38751898Y-19485584D01*
X38756880Y-19487907D01*
X38756885Y-19487910D01*
X38938336Y-19572522D01*
X38947193Y-19576652D01*
X38952501Y-19578074D01*
X38952503Y-19578075D01*
X39150020Y-19630999D01*
X39150022Y-19630999D01*
X39155335Y-19632423D01*
X39370000Y-19651204D01*
X39584665Y-19632423D01*
X39589978Y-19630999D01*
X39589980Y-19630999D01*
X39787497Y-19578075D01*
X39787499Y-19578074D01*
X39792807Y-19576652D01*
X39801664Y-19572522D01*
X39983115Y-19487910D01*
X39983120Y-19487907D01*
X39988102Y-19485584D01*
X39994930Y-19480803D01*
X40160106Y-19365146D01*
X40160109Y-19365144D01*
X40164617Y-19361987D01*
X40316987Y-19209617D01*
X40325648Y-19197249D01*
X40437427Y-19037611D01*
X40437428Y-19037609D01*
X40440584Y-19033102D01*
X40442907Y-19028120D01*
X40442910Y-19028115D01*
X40525805Y-18850346D01*
X40572723Y-18797061D01*
X40641000Y-18777600D01*
X40708960Y-18798142D01*
X40754195Y-18850346D01*
X40837090Y-19028115D01*
X40837093Y-19028120D01*
X40839416Y-19033102D01*
X40842572Y-19037609D01*
X40842573Y-19037611D01*
X40954353Y-19197249D01*
X40963013Y-19209617D01*
X41115383Y-19361987D01*
X41119891Y-19365144D01*
X41119894Y-19365146D01*
X41285070Y-19480803D01*
X41291898Y-19485584D01*
X41296880Y-19487907D01*
X41296885Y-19487910D01*
X41478336Y-19572522D01*
X41487193Y-19576652D01*
X41492501Y-19578074D01*
X41492503Y-19578075D01*
X41690020Y-19630999D01*
X41690022Y-19630999D01*
X41695335Y-19632423D01*
X41910000Y-19651204D01*
X42124665Y-19632423D01*
X42129978Y-19630999D01*
X42129980Y-19630999D01*
X42327497Y-19578075D01*
X42327499Y-19578074D01*
X42332807Y-19576652D01*
X42341664Y-19572522D01*
X42523115Y-19487910D01*
X42523120Y-19487907D01*
X42528102Y-19485584D01*
X42534930Y-19480803D01*
X42700106Y-19365146D01*
X42700109Y-19365144D01*
X42704617Y-19361987D01*
X42856987Y-19209617D01*
X42865648Y-19197249D01*
X42977427Y-19037611D01*
X42977428Y-19037609D01*
X42980584Y-19033102D01*
X42982907Y-19028120D01*
X42982910Y-19028115D01*
X43069329Y-18842789D01*
X43069330Y-18842787D01*
X43071652Y-18837807D01*
X43127423Y-18629665D01*
X43146204Y-18415000D01*
X43127423Y-18200335D01*
X43071652Y-17992193D01*
X43019851Y-17881106D01*
X42982910Y-17801885D01*
X42982907Y-17801880D01*
X42980584Y-17796898D01*
X42965821Y-17775814D01*
X42860146Y-17624894D01*
X42860144Y-17624891D01*
X42856987Y-17620383D01*
X42704617Y-17468013D01*
X42700109Y-17464856D01*
X42700106Y-17464854D01*
X42532611Y-17347573D01*
X42532609Y-17347572D01*
X42528102Y-17344416D01*
X42523120Y-17342093D01*
X42523115Y-17342090D01*
X42337789Y-17255671D01*
X42337787Y-17255670D01*
X42332807Y-17253348D01*
X42327499Y-17251926D01*
X42327497Y-17251925D01*
X42129980Y-17199001D01*
X42129978Y-17199001D01*
X42124665Y-17197577D01*
X41910000Y-17178796D01*
X41695335Y-17197577D01*
X41690022Y-17199001D01*
X41690020Y-17199001D01*
X41492503Y-17251925D01*
X41492501Y-17251926D01*
X41487193Y-17253348D01*
X41482213Y-17255670D01*
X41482211Y-17255671D01*
X41296885Y-17342090D01*
X41296880Y-17342093D01*
X41291898Y-17344416D01*
X41287391Y-17347572D01*
X41287389Y-17347573D01*
X41119894Y-17464854D01*
X41119891Y-17464856D01*
X41115383Y-17468013D01*
X40963013Y-17620383D01*
X40959856Y-17624891D01*
X40959854Y-17624894D01*
X40854179Y-17775814D01*
X40839416Y-17796898D01*
X40837093Y-17801880D01*
X40837090Y-17801885D01*
X40754195Y-17979654D01*
X40707277Y-18032939D01*
X40639000Y-18052400D01*
X40571040Y-18031858D01*
X40525805Y-17979654D01*
X40442910Y-17801885D01*
X40442907Y-17801880D01*
X40440584Y-17796898D01*
X40425821Y-17775814D01*
X40320146Y-17624894D01*
X40320144Y-17624891D01*
X40316987Y-17620383D01*
X40164617Y-17468013D01*
X40160109Y-17464856D01*
X40160106Y-17464854D01*
X39992611Y-17347573D01*
X39992609Y-17347572D01*
X39988102Y-17344416D01*
X39983120Y-17342093D01*
X39983115Y-17342090D01*
X39797789Y-17255671D01*
X39797787Y-17255670D01*
X39792807Y-17253348D01*
X39787499Y-17251926D01*
X39787497Y-17251925D01*
X39589980Y-17199001D01*
X39589978Y-17199001D01*
X39584665Y-17197577D01*
X39370000Y-17178796D01*
X39155335Y-17197577D01*
X39150022Y-17199001D01*
X39150020Y-17199001D01*
X38952503Y-17251925D01*
X38952501Y-17251926D01*
X38947193Y-17253348D01*
X38942213Y-17255670D01*
X38942211Y-17255671D01*
X38756885Y-17342090D01*
X38756880Y-17342093D01*
X38751898Y-17344416D01*
X38747391Y-17347572D01*
X38747389Y-17347573D01*
X38579894Y-17464854D01*
X38579891Y-17464856D01*
X38575383Y-17468013D01*
X38423013Y-17620383D01*
X38419856Y-17624891D01*
X38419854Y-17624894D01*
X38314179Y-17775814D01*
X38299416Y-17796898D01*
X38297093Y-17801880D01*
X38297090Y-17801885D01*
X38214195Y-17979654D01*
X38167277Y-18032939D01*
X38099000Y-18052400D01*
X38031040Y-18031858D01*
X37985805Y-17979654D01*
X37902910Y-17801885D01*
X37902907Y-17801880D01*
X37900584Y-17796898D01*
X37885821Y-17775814D01*
X37780146Y-17624894D01*
X37780144Y-17624891D01*
X37776987Y-17620383D01*
X37624617Y-17468013D01*
X37620109Y-17464856D01*
X37620106Y-17464854D01*
X37452611Y-17347573D01*
X37452609Y-17347572D01*
X37448102Y-17344416D01*
X37443120Y-17342093D01*
X37443115Y-17342090D01*
X37257789Y-17255671D01*
X37257787Y-17255670D01*
X37252807Y-17253348D01*
X37247499Y-17251926D01*
X37247497Y-17251925D01*
X37049980Y-17199001D01*
X37049978Y-17199001D01*
X37044665Y-17197577D01*
X36830000Y-17178796D01*
X36615335Y-17197577D01*
X36610022Y-17199001D01*
X36610020Y-17199001D01*
X36412503Y-17251925D01*
X36412501Y-17251926D01*
X36407193Y-17253348D01*
X36402213Y-17255670D01*
X36402211Y-17255671D01*
X36216885Y-17342090D01*
X36216880Y-17342093D01*
X36211898Y-17344416D01*
X36207391Y-17347572D01*
X36207389Y-17347573D01*
X36039894Y-17464854D01*
X36039891Y-17464856D01*
X36035383Y-17468013D01*
X35883013Y-17620383D01*
X35879856Y-17624891D01*
X35879854Y-17624894D01*
X35774179Y-17775814D01*
X35759416Y-17796898D01*
X35757093Y-17801880D01*
X35757090Y-17801885D01*
X35674195Y-17979654D01*
X35627277Y-18032939D01*
X35559000Y-18052400D01*
X35491040Y-18031858D01*
X35445805Y-17979654D01*
X35362910Y-17801885D01*
X35362907Y-17801880D01*
X35360584Y-17796898D01*
X35345821Y-17775814D01*
X35240146Y-17624894D01*
X35240144Y-17624891D01*
X35236987Y-17620383D01*
X35084617Y-17468013D01*
X35080109Y-17464856D01*
X35080106Y-17464854D01*
X34912611Y-17347573D01*
X34912609Y-17347572D01*
X34908102Y-17344416D01*
X34903120Y-17342093D01*
X34903115Y-17342090D01*
X34717789Y-17255671D01*
X34717787Y-17255670D01*
X34712807Y-17253348D01*
X34707499Y-17251926D01*
X34707497Y-17251925D01*
X34509980Y-17199001D01*
X34509978Y-17199001D01*
X34504665Y-17197577D01*
X34290000Y-17178796D01*
X34075335Y-17197577D01*
X34070022Y-17199001D01*
X34070020Y-17199001D01*
X33872503Y-17251925D01*
X33872501Y-17251926D01*
X33867193Y-17253348D01*
X33862213Y-17255670D01*
X33862211Y-17255671D01*
X33676885Y-17342090D01*
X33676880Y-17342093D01*
X33671898Y-17344416D01*
X33667391Y-17347572D01*
X33667389Y-17347573D01*
X33499894Y-17464854D01*
X33499891Y-17464856D01*
X33495383Y-17468013D01*
X33343013Y-17620383D01*
X33339856Y-17624891D01*
X33339854Y-17624894D01*
X33234179Y-17775814D01*
X33219416Y-17796898D01*
X33217093Y-17801879D01*
X33217087Y-17801890D01*
X33204491Y-17828903D01*
X33157574Y-17882188D01*
X33089296Y-17901648D01*
X33021337Y-17881106D01*
X32974747Y-17825894D01*
X32952972Y-17775814D01*
X32948105Y-17766739D01*
X32832426Y-17587926D01*
X32826136Y-17579757D01*
X32682806Y-17422240D01*
X32675273Y-17415215D01*
X32508139Y-17283222D01*
X32499552Y-17277517D01*
X32313117Y-17174599D01*
X32303705Y-17170368D01*
X32207423Y-17136273D01*
X32149886Y-17094679D01*
X32123971Y-17028581D01*
X32137905Y-16958965D01*
X32187264Y-16907934D01*
X32249483Y-16891500D01*
X43550617Y-16891500D01*
X43618738Y-16911502D01*
X43653873Y-16945290D01*
X45614813Y-19749393D01*
X50515757Y-26757639D01*
X50538500Y-26829848D01*
X50538500Y-27719180D01*
X50518498Y-27787301D01*
X50464842Y-27833794D01*
X50394568Y-27843898D01*
X50329988Y-27814404D01*
X50291604Y-27754678D01*
X50287950Y-27738239D01*
X50286236Y-27727040D01*
X50266106Y-27595489D01*
X50220255Y-27455205D01*
X50192029Y-27368846D01*
X50192026Y-27368840D01*
X50190421Y-27363928D01*
X50175621Y-27335496D01*
X50080322Y-27152431D01*
X50077931Y-27147838D01*
X49931659Y-26953023D01*
X49755533Y-26784713D01*
X49718413Y-26759391D01*
X49558562Y-26650348D01*
X49554283Y-26647429D01*
X49417624Y-26583994D01*
X49338007Y-26547037D01*
X49338003Y-26547036D01*
X49333312Y-26544858D01*
X49098557Y-26479754D01*
X49093423Y-26479205D01*
X49093421Y-26479205D01*
X48903008Y-26458856D01*
X48903001Y-26458856D01*
X48899673Y-26458500D01*
X48758249Y-26458500D01*
X48755676Y-26458712D01*
X48755665Y-26458712D01*
X48582354Y-26472961D01*
X48582348Y-26472962D01*
X48577203Y-26473385D01*
X48340927Y-26532733D01*
X48117517Y-26629875D01*
X47912972Y-26762200D01*
X47909149Y-26765679D01*
X47909146Y-26765681D01*
X47838628Y-26829848D01*
X47732786Y-26926157D01*
X47729587Y-26930208D01*
X47729583Y-26930212D01*
X47585000Y-27113286D01*
X47581798Y-27117341D01*
X47464063Y-27330618D01*
X47382743Y-27560260D01*
X47381836Y-27565352D01*
X47346773Y-27762193D01*
X47340020Y-27800101D01*
X47337044Y-28043698D01*
X47373894Y-28284511D01*
X47387002Y-28324614D01*
X47447971Y-28511154D01*
X47447974Y-28511160D01*
X47449579Y-28516072D01*
X47451966Y-28520658D01*
X47451968Y-28520662D01*
X47497645Y-28608405D01*
X47562069Y-28732162D01*
X47565179Y-28736304D01*
X47638815Y-28834377D01*
X47708341Y-28926977D01*
X47884467Y-29095287D01*
X47888739Y-29098201D01*
X47888740Y-29098202D01*
X47935816Y-29130315D01*
X48085717Y-29232571D01*
X48182987Y-29277722D01*
X48301993Y-29332963D01*
X48301997Y-29332964D01*
X48306688Y-29335142D01*
X48541443Y-29400246D01*
X48546577Y-29400795D01*
X48546579Y-29400795D01*
X48736992Y-29421144D01*
X48736999Y-29421144D01*
X48740327Y-29421500D01*
X48881751Y-29421500D01*
X48884324Y-29421288D01*
X48884335Y-29421288D01*
X49057646Y-29407039D01*
X49057652Y-29407038D01*
X49062797Y-29406615D01*
X49299073Y-29347267D01*
X49522483Y-29250125D01*
X49727028Y-29117800D01*
X49751770Y-29095287D01*
X49903392Y-28957321D01*
X49903393Y-28957319D01*
X49907214Y-28953843D01*
X49910413Y-28949792D01*
X49910417Y-28949788D01*
X50055000Y-28766714D01*
X50055002Y-28766710D01*
X50058202Y-28762659D01*
X50175937Y-28549382D01*
X50257257Y-28319740D01*
X50288453Y-28144610D01*
X50320091Y-28081053D01*
X50381069Y-28044690D01*
X50452025Y-28047067D01*
X50510433Y-28087428D01*
X50537748Y-28152960D01*
X50538500Y-28166707D01*
X50538500Y-45680060D01*
X50536949Y-45699771D01*
X50533745Y-45720000D01*
X50535296Y-45729792D01*
X50535296Y-45739712D01*
X50534653Y-45739712D01*
X50535092Y-45754606D01*
X50522644Y-45880989D01*
X50517827Y-45905209D01*
X50474467Y-46048147D01*
X50465018Y-46070957D01*
X50394611Y-46202679D01*
X50380888Y-46223217D01*
X50286136Y-46338671D01*
X50268671Y-46356136D01*
X50153217Y-46450888D01*
X50132679Y-46464611D01*
X50000957Y-46535018D01*
X49978147Y-46544467D01*
X49835209Y-46587827D01*
X49810989Y-46592644D01*
X49740430Y-46599594D01*
X49684604Y-46605092D01*
X49669712Y-46604653D01*
X49669712Y-46605296D01*
X49659792Y-46605296D01*
X49650000Y-46603745D01*
X49640208Y-46605296D01*
X49640207Y-46605296D01*
X49629771Y-46606949D01*
X49610060Y-46608500D01*
X21529940Y-46608500D01*
X21510229Y-46606949D01*
X21499793Y-46605296D01*
X21499792Y-46605296D01*
X21490000Y-46603745D01*
X21480208Y-46605296D01*
X21470288Y-46605296D01*
X21470288Y-46604653D01*
X21455396Y-46605092D01*
X21399570Y-46599594D01*
X21329011Y-46592644D01*
X21304791Y-46587827D01*
X21161853Y-46544467D01*
X21139043Y-46535018D01*
X21007321Y-46464611D01*
X20986783Y-46450888D01*
X20871329Y-46356136D01*
X20853864Y-46338671D01*
X20759112Y-46223217D01*
X20745389Y-46202679D01*
X20674982Y-46070957D01*
X20665533Y-46048147D01*
X20622173Y-45905209D01*
X20617356Y-45880989D01*
X20604908Y-45754606D01*
X20605347Y-45739712D01*
X20604704Y-45739712D01*
X20604704Y-45729792D01*
X20606255Y-45720000D01*
X20603051Y-45699771D01*
X20601500Y-45680060D01*
X20601500Y-43730860D01*
X23214363Y-43730860D01*
X23226354Y-43980498D01*
X23275112Y-44225621D01*
X23276691Y-44230019D01*
X23276693Y-44230026D01*
X23357983Y-44456436D01*
X23359566Y-44460845D01*
X23477861Y-44681003D01*
X23627397Y-44881257D01*
X23630704Y-44884535D01*
X23630709Y-44884541D01*
X23727731Y-44980719D01*
X23804891Y-45057208D01*
X23808657Y-45059970D01*
X23808659Y-45059971D01*
X23920045Y-45141642D01*
X24006442Y-45204991D01*
X24010585Y-45207171D01*
X24010587Y-45207172D01*
X24223473Y-45319177D01*
X24223478Y-45319179D01*
X24227623Y-45321360D01*
X24463575Y-45403759D01*
X24468168Y-45404631D01*
X24704526Y-45449505D01*
X24704529Y-45449505D01*
X24709115Y-45450376D01*
X24827862Y-45455042D01*
X24954180Y-45460005D01*
X24954185Y-45460005D01*
X24958848Y-45460188D01*
X25034879Y-45451861D01*
X25202635Y-45433489D01*
X25202640Y-45433488D01*
X25207288Y-45432979D01*
X25211812Y-45431788D01*
X25444455Y-45370539D01*
X25444458Y-45370538D01*
X25448978Y-45369348D01*
X25557077Y-45322905D01*
X25674313Y-45272536D01*
X25674315Y-45272535D01*
X25678607Y-45270691D01*
X25891132Y-45139177D01*
X26081884Y-44977694D01*
X26246671Y-44789790D01*
X26316646Y-44681003D01*
X26379350Y-44583518D01*
X26379352Y-44583515D01*
X26381875Y-44579592D01*
X26484524Y-44351719D01*
X26552364Y-44111177D01*
X26583904Y-43863250D01*
X26586215Y-43775000D01*
X26580031Y-43691781D01*
X26568039Y-43530414D01*
X26568038Y-43530410D01*
X26567693Y-43525762D01*
X26512535Y-43281998D01*
X26504250Y-43260692D01*
X26423646Y-43053419D01*
X26423645Y-43053417D01*
X26421953Y-43049066D01*
X26297936Y-42832081D01*
X26143208Y-42635810D01*
X25961169Y-42464565D01*
X25755819Y-42322108D01*
X25751629Y-42320042D01*
X25751626Y-42320040D01*
X25535855Y-42213634D01*
X25535852Y-42213633D01*
X25531667Y-42211569D01*
X25481684Y-42195569D01*
X25298084Y-42136798D01*
X25298086Y-42136798D01*
X25293639Y-42135375D01*
X25213827Y-42122377D01*
X25051576Y-42095953D01*
X25051573Y-42095953D01*
X25046963Y-42095202D01*
X24922011Y-42093566D01*
X24801736Y-42091991D01*
X24801733Y-42091991D01*
X24797059Y-42091930D01*
X24549416Y-42125633D01*
X24544930Y-42126941D01*
X24544928Y-42126941D01*
X24511110Y-42136798D01*
X24309475Y-42195569D01*
X24082507Y-42300203D01*
X24078598Y-42302766D01*
X23877410Y-42434670D01*
X23877405Y-42434674D01*
X23873497Y-42437236D01*
X23687038Y-42603657D01*
X23622308Y-42681486D01*
X23565382Y-42749933D01*
X23527226Y-42795810D01*
X23524803Y-42799803D01*
X23402066Y-43002067D01*
X23397571Y-43009474D01*
X23395765Y-43013782D01*
X23395764Y-43013783D01*
X23343676Y-43138000D01*
X23300922Y-43239956D01*
X23299771Y-43244488D01*
X23299770Y-43244491D01*
X23240555Y-43477653D01*
X23239402Y-43482192D01*
X23214363Y-43730860D01*
X20601500Y-43730860D01*
X20601500Y-40219906D01*
X23819839Y-40219906D01*
X23828553Y-40231427D01*
X23935452Y-40309809D01*
X23943351Y-40314745D01*
X24172905Y-40435519D01*
X24181454Y-40439236D01*
X24426327Y-40524749D01*
X24435336Y-40527163D01*
X24690166Y-40575544D01*
X24699423Y-40576598D01*
X24958607Y-40586783D01*
X24967921Y-40586457D01*
X25225753Y-40558220D01*
X25234930Y-40556519D01*
X25485758Y-40490481D01*
X25494574Y-40487445D01*
X25732880Y-40385062D01*
X25741167Y-40380748D01*
X25961718Y-40244266D01*
X25969268Y-40238780D01*
X25974559Y-40234301D01*
X25982997Y-40221497D01*
X25976935Y-40211145D01*
X24912812Y-39147022D01*
X24898868Y-39139408D01*
X24897035Y-39139539D01*
X24890420Y-39143790D01*
X23826497Y-40207713D01*
X23819839Y-40219906D01*
X20601500Y-40219906D01*
X20601500Y-38732211D01*
X23087775Y-38732211D01*
X23100220Y-38991288D01*
X23101356Y-39000543D01*
X23151961Y-39254945D01*
X23154449Y-39263917D01*
X23242095Y-39508033D01*
X23245895Y-39516568D01*
X23368658Y-39745042D01*
X23373666Y-39752904D01*
X23443720Y-39846716D01*
X23454979Y-39855165D01*
X23467397Y-39848393D01*
X24527978Y-38787812D01*
X24534356Y-38776132D01*
X25264408Y-38776132D01*
X25264539Y-38777965D01*
X25268790Y-38784580D01*
X26336094Y-39851884D01*
X26348474Y-39858644D01*
X26356815Y-39852400D01*
X26490832Y-39644048D01*
X26495275Y-39635864D01*
X26601807Y-39399370D01*
X26604997Y-39390605D01*
X26675402Y-39140972D01*
X26677262Y-39131830D01*
X26710187Y-38873019D01*
X26710668Y-38866733D01*
X26712987Y-38778160D01*
X26712836Y-38771851D01*
X26693501Y-38511663D01*
X26692125Y-38502457D01*
X26634878Y-38249467D01*
X26632154Y-38240556D01*
X26538143Y-37998806D01*
X26534132Y-37990397D01*
X26405422Y-37765202D01*
X26400211Y-37757476D01*
X26367639Y-37716158D01*
X31803500Y-37716158D01*
X31804170Y-37720706D01*
X31804170Y-37720713D01*
X31813112Y-37781459D01*
X31814538Y-37791144D01*
X31818853Y-37799932D01*
X31818853Y-37799933D01*
X31836630Y-37836139D01*
X31870513Y-37905151D01*
X31908344Y-37942916D01*
X31949833Y-37984332D01*
X31960399Y-37994880D01*
X31969755Y-37999453D01*
X31969756Y-37999454D01*
X32006635Y-38017480D01*
X32074503Y-38050655D01*
X32107284Y-38055437D01*
X32144316Y-38060840D01*
X32144320Y-38060840D01*
X32148842Y-38061500D01*
X33713734Y-38061500D01*
X33781855Y-38081502D01*
X33828348Y-38135158D01*
X33838452Y-38205432D01*
X33808958Y-38270012D01*
X33780038Y-38294644D01*
X33742190Y-38318066D01*
X33730792Y-38327099D01*
X33616261Y-38441829D01*
X33607249Y-38453240D01*
X33522184Y-38591243D01*
X33516037Y-38604424D01*
X33464862Y-38758710D01*
X33461995Y-38772086D01*
X33452328Y-38866438D01*
X33452000Y-38872855D01*
X33452000Y-39097885D01*
X33456475Y-39113124D01*
X33457865Y-39114329D01*
X33465548Y-39116000D01*
X34287885Y-39116000D01*
X34303124Y-39111525D01*
X34304329Y-39110135D01*
X34306000Y-39102452D01*
X34306000Y-38180116D01*
X34301525Y-38164877D01*
X34300135Y-38163672D01*
X34292452Y-38162001D01*
X34246745Y-38162001D01*
X34178624Y-38141999D01*
X34132131Y-38088343D01*
X34122027Y-38018069D01*
X34151521Y-37953489D01*
X34157572Y-37946983D01*
X34192522Y-37911972D01*
X34199880Y-37904601D01*
X34255655Y-37790497D01*
X34260804Y-37755201D01*
X34265840Y-37720684D01*
X34265840Y-37720680D01*
X34266500Y-37716158D01*
X34266500Y-37505299D01*
X34286502Y-37437178D01*
X34340158Y-37390685D01*
X34410432Y-37380581D01*
X34475012Y-37410075D01*
X34501619Y-37442299D01*
X34502092Y-37443118D01*
X34504416Y-37448102D01*
X34544466Y-37505299D01*
X34615857Y-37607256D01*
X34628013Y-37624617D01*
X34780383Y-37776987D01*
X34784891Y-37780144D01*
X34784894Y-37780146D01*
X34950070Y-37895803D01*
X34956898Y-37900584D01*
X34961886Y-37902910D01*
X35002406Y-37921805D01*
X35055691Y-37968723D01*
X35075152Y-38037000D01*
X35054610Y-38104960D01*
X35000587Y-38151026D01*
X34949156Y-38162000D01*
X34832115Y-38162000D01*
X34816876Y-38166475D01*
X34815671Y-38167865D01*
X34814000Y-38175548D01*
X34814000Y-39498000D01*
X34793998Y-39566121D01*
X34740342Y-39612614D01*
X34688000Y-39624000D01*
X33470116Y-39624000D01*
X33454877Y-39628475D01*
X33453672Y-39629865D01*
X33452001Y-39637548D01*
X33452001Y-39867095D01*
X33452338Y-39873614D01*
X33462257Y-39969206D01*
X33465149Y-39982600D01*
X33516588Y-40136784D01*
X33522761Y-40149962D01*
X33608063Y-40287807D01*
X33617099Y-40299208D01*
X33731829Y-40413739D01*
X33743243Y-40422753D01*
X33793741Y-40453880D01*
X33841235Y-40506651D01*
X33852659Y-40576723D01*
X33845422Y-40601034D01*
X33846527Y-40601376D01*
X33843641Y-40610715D01*
X33839345Y-40619503D01*
X33837933Y-40629183D01*
X33829742Y-40685331D01*
X33828500Y-40693842D01*
X33828500Y-42666158D01*
X33829170Y-42670706D01*
X33829170Y-42670713D01*
X33830756Y-42681486D01*
X33839538Y-42741144D01*
X33843853Y-42749932D01*
X33843853Y-42749933D01*
X33886179Y-42836139D01*
X33895513Y-42855151D01*
X33985399Y-42944880D01*
X34099503Y-43000655D01*
X34132284Y-43005437D01*
X34169316Y-43010840D01*
X34169320Y-43010840D01*
X34173842Y-43011500D01*
X35046158Y-43011500D01*
X35050706Y-43010830D01*
X35050713Y-43010830D01*
X35111459Y-43001888D01*
X35111461Y-43001887D01*
X35121144Y-43000462D01*
X35151162Y-42985724D01*
X35225803Y-42949077D01*
X35225804Y-42949076D01*
X35235151Y-42944487D01*
X35295883Y-42883649D01*
X35317522Y-42861972D01*
X35324880Y-42854601D01*
X35333905Y-42836139D01*
X35380655Y-42740497D01*
X35383845Y-42742056D01*
X35413229Y-42697722D01*
X35478220Y-42669144D01*
X35548344Y-42680239D01*
X35601338Y-42727485D01*
X35612371Y-42749872D01*
X35656676Y-42868054D01*
X35665214Y-42883649D01*
X35741715Y-42985724D01*
X35754276Y-42998285D01*
X35856351Y-43074786D01*
X35871948Y-43083325D01*
X35928480Y-43104518D01*
X35985245Y-43147159D01*
X36009945Y-43213721D01*
X35994738Y-43283070D01*
X35944452Y-43333188D01*
X35884251Y-43348500D01*
X35123842Y-43348500D01*
X35119294Y-43349170D01*
X35119287Y-43349170D01*
X35058541Y-43358112D01*
X35058539Y-43358113D01*
X35048856Y-43359538D01*
X35040068Y-43363853D01*
X35040067Y-43363853D01*
X34944197Y-43410923D01*
X34944196Y-43410924D01*
X34934849Y-43415513D01*
X34927492Y-43422883D01*
X34872816Y-43477655D01*
X34845120Y-43505399D01*
X34789345Y-43619503D01*
X34778500Y-43693842D01*
X34778500Y-45666158D01*
X34779170Y-45670706D01*
X34779170Y-45670713D01*
X34788112Y-45731459D01*
X34789538Y-45741144D01*
X34793853Y-45749932D01*
X34793853Y-45749933D01*
X34811899Y-45786687D01*
X34845513Y-45855151D01*
X34935399Y-45944880D01*
X35049503Y-46000655D01*
X35082284Y-46005437D01*
X35119316Y-46010840D01*
X35119320Y-46010840D01*
X35123842Y-46011500D01*
X35996158Y-46011500D01*
X36000706Y-46010830D01*
X36000713Y-46010830D01*
X36061459Y-46001888D01*
X36061461Y-46001887D01*
X36071144Y-46000462D01*
X36079933Y-45996147D01*
X36175803Y-45949077D01*
X36175804Y-45949076D01*
X36185151Y-45944487D01*
X36274880Y-45854601D01*
X36330655Y-45740497D01*
X36332079Y-45741193D01*
X36365279Y-45691113D01*
X36430272Y-45662540D01*
X36446430Y-45661500D01*
X45299111Y-45661500D01*
X45302629Y-45661549D01*
X45380871Y-45663735D01*
X45380874Y-45663735D01*
X45387254Y-45663913D01*
X45445446Y-45653652D01*
X45454594Y-45652383D01*
X45470953Y-45650721D01*
X45513376Y-45646412D01*
X45540169Y-45638016D01*
X45555969Y-45634164D01*
X45577333Y-45630397D01*
X45577335Y-45630396D01*
X45583621Y-45629288D01*
X45589555Y-45626939D01*
X45589557Y-45626938D01*
X45638561Y-45607536D01*
X45647264Y-45604454D01*
X45697557Y-45588693D01*
X45697558Y-45588692D01*
X45703648Y-45586784D01*
X45715107Y-45580433D01*
X45728204Y-45573173D01*
X45742902Y-45566225D01*
X45763074Y-45558238D01*
X45763077Y-45558236D01*
X45769016Y-45555885D01*
X45818464Y-45523527D01*
X45826363Y-45518762D01*
X45878044Y-45490115D01*
X45882894Y-45485958D01*
X45882897Y-45485956D01*
X45897407Y-45473520D01*
X45962146Y-45444376D01*
X46002904Y-45445400D01*
X46009768Y-45446703D01*
X46029115Y-45450376D01*
X46159536Y-45455500D01*
X46274180Y-45460005D01*
X46274185Y-45460005D01*
X46278848Y-45460188D01*
X46354879Y-45451861D01*
X46522635Y-45433489D01*
X46522640Y-45433488D01*
X46527288Y-45432979D01*
X46531812Y-45431788D01*
X46764455Y-45370539D01*
X46764458Y-45370538D01*
X46768978Y-45369348D01*
X46877077Y-45322905D01*
X46994313Y-45272536D01*
X46994315Y-45272535D01*
X46998607Y-45270691D01*
X47211132Y-45139177D01*
X47401884Y-44977694D01*
X47566671Y-44789790D01*
X47636646Y-44681003D01*
X47699350Y-44583518D01*
X47699352Y-44583515D01*
X47701875Y-44579592D01*
X47804524Y-44351719D01*
X47872364Y-44111177D01*
X47903904Y-43863250D01*
X47906215Y-43775000D01*
X47900031Y-43691781D01*
X47888039Y-43530414D01*
X47888038Y-43530410D01*
X47887693Y-43525762D01*
X47832535Y-43281998D01*
X47824250Y-43260692D01*
X47743646Y-43053419D01*
X47743645Y-43053417D01*
X47741953Y-43049066D01*
X47617936Y-42832081D01*
X47463208Y-42635810D01*
X47281169Y-42464565D01*
X47075819Y-42322108D01*
X47071629Y-42320042D01*
X47071626Y-42320040D01*
X46855855Y-42213634D01*
X46855852Y-42213633D01*
X46851667Y-42211569D01*
X46801684Y-42195569D01*
X46618084Y-42136798D01*
X46618086Y-42136798D01*
X46613639Y-42135375D01*
X46533827Y-42122377D01*
X46371576Y-42095953D01*
X46371573Y-42095953D01*
X46366963Y-42095202D01*
X46242011Y-42093566D01*
X46121736Y-42091991D01*
X46121733Y-42091991D01*
X46117059Y-42091930D01*
X45869416Y-42125633D01*
X45864930Y-42126941D01*
X45864928Y-42126941D01*
X45831110Y-42136798D01*
X45629475Y-42195569D01*
X45402507Y-42300203D01*
X45398598Y-42302766D01*
X45197410Y-42434670D01*
X45197405Y-42434674D01*
X45193497Y-42437236D01*
X45007038Y-42603657D01*
X44942308Y-42681486D01*
X44885382Y-42749933D01*
X44847226Y-42795810D01*
X44844803Y-42799803D01*
X44722066Y-43002067D01*
X44717571Y-43009474D01*
X44715765Y-43013782D01*
X44715764Y-43013783D01*
X44663676Y-43138000D01*
X44620922Y-43239956D01*
X44559402Y-43482192D01*
X44558933Y-43486849D01*
X44558933Y-43486850D01*
X44549037Y-43585124D01*
X44522311Y-43650898D01*
X44464267Y-43691781D01*
X44423671Y-43698500D01*
X36446416Y-43698500D01*
X36378295Y-43678498D01*
X36331802Y-43624842D01*
X36331055Y-43622887D01*
X36330462Y-43618856D01*
X36326202Y-43610179D01*
X36279077Y-43514197D01*
X36279076Y-43514196D01*
X36274487Y-43504849D01*
X36184601Y-43415120D01*
X36107025Y-43377200D01*
X36054608Y-43329314D01*
X36036401Y-43260692D01*
X36058185Y-43193120D01*
X36113043Y-43148052D01*
X36162358Y-43138000D01*
X36237885Y-43138000D01*
X36253124Y-43133525D01*
X36254329Y-43132135D01*
X36256000Y-43124452D01*
X36256000Y-43119884D01*
X36764000Y-43119884D01*
X36768475Y-43135123D01*
X36769865Y-43136328D01*
X36777548Y-43137999D01*
X36954669Y-43137999D01*
X36961490Y-43137629D01*
X37012352Y-43132105D01*
X37027604Y-43128479D01*
X37148054Y-43083324D01*
X37163649Y-43074786D01*
X37265724Y-42998285D01*
X37278285Y-42985724D01*
X37354786Y-42883649D01*
X37363324Y-42868054D01*
X37408478Y-42747606D01*
X37412105Y-42732351D01*
X37417631Y-42681486D01*
X37418000Y-42674672D01*
X37418000Y-41952115D01*
X37413525Y-41936876D01*
X37412135Y-41935671D01*
X37404452Y-41934000D01*
X36782115Y-41934000D01*
X36766876Y-41938475D01*
X36765671Y-41939865D01*
X36764000Y-41947548D01*
X36764000Y-43119884D01*
X36256000Y-43119884D01*
X36256000Y-41552000D01*
X36276002Y-41483879D01*
X36329658Y-41437386D01*
X36382000Y-41426000D01*
X37399884Y-41426000D01*
X37415123Y-41421525D01*
X37416328Y-41420135D01*
X37417999Y-41412452D01*
X37417999Y-40685331D01*
X37417629Y-40678510D01*
X37412105Y-40627648D01*
X37408479Y-40612396D01*
X37363324Y-40491946D01*
X37354786Y-40476352D01*
X37331167Y-40444836D01*
X37306320Y-40378329D01*
X37321374Y-40308947D01*
X37342899Y-40280177D01*
X37412949Y-40210127D01*
X37494168Y-40072792D01*
X37499651Y-40053921D01*
X37524803Y-39967347D01*
X37563016Y-39907511D01*
X37627513Y-39877834D01*
X37645800Y-39876500D01*
X39799157Y-39876500D01*
X39811221Y-39877848D01*
X39811260Y-39877358D01*
X39820206Y-39878078D01*
X39828962Y-39880059D01*
X39882432Y-39876742D01*
X39890233Y-39876500D01*
X39906366Y-39876500D01*
X39910807Y-39875864D01*
X39910809Y-39875864D01*
X39916677Y-39875024D01*
X39926726Y-39873995D01*
X39964806Y-39871632D01*
X39973768Y-39871076D01*
X39982215Y-39868026D01*
X39985317Y-39867384D01*
X40001702Y-39863299D01*
X40004735Y-39862412D01*
X40013619Y-39861140D01*
X40021786Y-39857426D01*
X40021788Y-39857426D01*
X40056533Y-39841628D01*
X40065902Y-39837815D01*
X40101792Y-39824859D01*
X40101793Y-39824858D01*
X40110232Y-39821812D01*
X40117475Y-39816521D01*
X40120232Y-39815055D01*
X40134882Y-39806494D01*
X40137524Y-39804804D01*
X40145693Y-39801090D01*
X40152493Y-39795231D01*
X40152496Y-39795229D01*
X40181407Y-39770318D01*
X40189312Y-39764040D01*
X40200250Y-39756049D01*
X40211168Y-39745131D01*
X40218015Y-39738773D01*
X40248802Y-39712245D01*
X40255604Y-39706384D01*
X40260488Y-39698849D01*
X40266085Y-39692433D01*
X40275491Y-39680808D01*
X41225439Y-38730860D01*
X44534363Y-38730860D01*
X44534587Y-38735526D01*
X44534587Y-38735532D01*
X44537196Y-38789842D01*
X44546354Y-38980498D01*
X44595112Y-39225621D01*
X44596691Y-39230019D01*
X44596693Y-39230026D01*
X44654347Y-39390605D01*
X44679566Y-39460845D01*
X44681783Y-39464971D01*
X44770384Y-39629865D01*
X44797861Y-39681003D01*
X44947397Y-39881257D01*
X44950704Y-39884535D01*
X44950709Y-39884541D01*
X45121575Y-40053921D01*
X45124891Y-40057208D01*
X45128657Y-40059970D01*
X45128659Y-40059971D01*
X45251392Y-40149962D01*
X45326442Y-40204991D01*
X45330585Y-40207171D01*
X45330587Y-40207172D01*
X45543473Y-40319177D01*
X45543478Y-40319179D01*
X45547623Y-40321360D01*
X45656947Y-40359538D01*
X45730036Y-40385062D01*
X45783575Y-40403759D01*
X45788168Y-40404631D01*
X46024526Y-40449505D01*
X46024529Y-40449505D01*
X46029115Y-40450376D01*
X46147862Y-40455042D01*
X46274180Y-40460005D01*
X46274185Y-40460005D01*
X46278848Y-40460188D01*
X46358176Y-40451500D01*
X46522635Y-40433489D01*
X46522640Y-40433488D01*
X46527288Y-40432979D01*
X46531812Y-40431788D01*
X46764455Y-40370539D01*
X46764458Y-40370538D01*
X46768978Y-40369348D01*
X46791812Y-40359538D01*
X46994313Y-40272536D01*
X46994315Y-40272535D01*
X46998607Y-40270691D01*
X47211132Y-40139177D01*
X47281490Y-40079615D01*
X47398311Y-39980719D01*
X47398313Y-39980717D01*
X47401884Y-39977694D01*
X47566671Y-39789790D01*
X47583241Y-39764030D01*
X47699350Y-39583518D01*
X47699352Y-39583515D01*
X47701875Y-39579592D01*
X47804524Y-39351719D01*
X47872364Y-39111177D01*
X47889583Y-38975826D01*
X47903506Y-38866381D01*
X47903506Y-38866375D01*
X47903904Y-38863250D01*
X47906215Y-38775000D01*
X47898770Y-38674821D01*
X47888039Y-38530414D01*
X47888038Y-38530410D01*
X47887693Y-38525762D01*
X47832535Y-38281998D01*
X47827874Y-38270012D01*
X47743646Y-38053419D01*
X47743645Y-38053417D01*
X47741953Y-38049066D01*
X47724099Y-38017827D01*
X47659699Y-37905151D01*
X47617936Y-37832081D01*
X47463208Y-37635810D01*
X47281169Y-37464565D01*
X47109492Y-37345468D01*
X47079661Y-37324773D01*
X47079658Y-37324771D01*
X47075819Y-37322108D01*
X47071629Y-37320042D01*
X47071626Y-37320040D01*
X46855855Y-37213634D01*
X46855852Y-37213633D01*
X46851667Y-37211569D01*
X46801684Y-37195569D01*
X46618084Y-37136798D01*
X46618086Y-37136798D01*
X46613639Y-37135375D01*
X46533827Y-37122377D01*
X46371576Y-37095953D01*
X46371573Y-37095953D01*
X46366963Y-37095202D01*
X46242011Y-37093566D01*
X46121736Y-37091991D01*
X46121733Y-37091991D01*
X46117059Y-37091930D01*
X45869416Y-37125633D01*
X45864930Y-37126941D01*
X45864928Y-37126941D01*
X45831110Y-37136798D01*
X45629475Y-37195569D01*
X45402507Y-37300203D01*
X45398598Y-37302766D01*
X45197410Y-37434670D01*
X45197405Y-37434674D01*
X45193497Y-37437236D01*
X45007038Y-37603657D01*
X44909708Y-37720684D01*
X44850307Y-37792106D01*
X44847226Y-37795810D01*
X44844803Y-37799803D01*
X44724045Y-37998806D01*
X44717571Y-38009474D01*
X44715765Y-38013782D01*
X44715764Y-38013783D01*
X44622926Y-38235178D01*
X44620922Y-38239956D01*
X44619771Y-38244488D01*
X44619770Y-38244491D01*
X44566755Y-38453240D01*
X44559402Y-38482192D01*
X44534363Y-38730860D01*
X41225439Y-38730860D01*
X41583052Y-38373247D01*
X41592539Y-38365666D01*
X41592221Y-38365292D01*
X41599054Y-38359477D01*
X41606648Y-38354685D01*
X41642124Y-38314515D01*
X41647470Y-38308829D01*
X41658864Y-38297435D01*
X41665111Y-38289100D01*
X41671484Y-38281272D01*
X41696748Y-38252666D01*
X41702689Y-38245939D01*
X41706505Y-38237812D01*
X41708235Y-38235178D01*
X41716946Y-38220681D01*
X41718460Y-38217915D01*
X41723842Y-38210734D01*
X41740387Y-38166601D01*
X41744314Y-38157282D01*
X41760533Y-38122736D01*
X41764349Y-38114609D01*
X41765730Y-38105739D01*
X41766655Y-38102714D01*
X41770938Y-38086385D01*
X41771618Y-38083292D01*
X41774771Y-38074882D01*
X41778264Y-38027875D01*
X41779418Y-38017827D01*
X41781500Y-38004456D01*
X41781500Y-37989014D01*
X41781846Y-37979676D01*
X41784208Y-37947891D01*
X41785523Y-37930196D01*
X41783650Y-37921422D01*
X41783072Y-37912941D01*
X41781500Y-37898050D01*
X41781500Y-36323631D01*
X41805176Y-36250107D01*
X41876589Y-36150726D01*
X41938113Y-35997681D01*
X41946419Y-35939316D01*
X41960773Y-35838461D01*
X41960773Y-35838458D01*
X41961354Y-35834377D01*
X41961505Y-35820000D01*
X41960870Y-35814748D01*
X41953892Y-35757090D01*
X41941689Y-35656246D01*
X41883383Y-35501945D01*
X41789955Y-35366006D01*
X41778323Y-35355642D01*
X41672470Y-35261330D01*
X41672467Y-35261328D01*
X41666798Y-35256277D01*
X41660084Y-35252722D01*
X41527736Y-35182647D01*
X41527733Y-35182646D01*
X41521021Y-35179092D01*
X41361042Y-35138908D01*
X41353444Y-35138868D01*
X41353442Y-35138868D01*
X41282483Y-35138497D01*
X41196095Y-35138045D01*
X41188716Y-35139817D01*
X41188712Y-35139817D01*
X41043083Y-35174779D01*
X41043079Y-35174780D01*
X41035704Y-35176551D01*
X40889127Y-35252205D01*
X40883405Y-35257197D01*
X40883403Y-35257198D01*
X40770554Y-35355642D01*
X40764827Y-35360638D01*
X40669981Y-35495592D01*
X40667222Y-35502667D01*
X40667221Y-35502670D01*
X40623815Y-35614001D01*
X40610063Y-35649273D01*
X40609071Y-35656806D01*
X40609071Y-35656807D01*
X40594860Y-35764756D01*
X40588533Y-35812811D01*
X40606633Y-35976764D01*
X40663320Y-36131667D01*
X40667556Y-36137970D01*
X40667558Y-36137975D01*
X40747082Y-36256320D01*
X40768500Y-36326595D01*
X40768500Y-37703011D01*
X40748498Y-37771132D01*
X40731595Y-37792106D01*
X39697106Y-38826595D01*
X39634794Y-38860621D01*
X39608011Y-38863500D01*
X37645800Y-38863500D01*
X37577679Y-38843498D01*
X37531186Y-38789842D01*
X37524803Y-38772653D01*
X37496380Y-38674821D01*
X37496379Y-38674819D01*
X37494168Y-38667208D01*
X37412949Y-38529873D01*
X37300127Y-38417051D01*
X37289206Y-38410592D01*
X37169615Y-38339867D01*
X37162792Y-38335832D01*
X37155181Y-38333621D01*
X37155179Y-38333620D01*
X37015751Y-38293112D01*
X37015746Y-38293111D01*
X37009574Y-38291318D01*
X37003169Y-38290814D01*
X37003164Y-38290813D01*
X36976226Y-38288693D01*
X36976218Y-38288693D01*
X36973770Y-38288500D01*
X36146230Y-38288500D01*
X36143782Y-38288693D01*
X36143774Y-38288693D01*
X36116836Y-38290813D01*
X36116831Y-38290814D01*
X36110426Y-38291318D01*
X36104254Y-38293111D01*
X36104249Y-38293112D01*
X35964821Y-38333620D01*
X35964819Y-38333621D01*
X35957208Y-38335832D01*
X35950385Y-38339867D01*
X35830795Y-38410592D01*
X35819873Y-38417051D01*
X35728728Y-38508196D01*
X35666416Y-38542222D01*
X35595601Y-38537157D01*
X35538765Y-38494610D01*
X35532489Y-38485405D01*
X35511934Y-38452190D01*
X35502901Y-38440792D01*
X35388171Y-38326261D01*
X35376760Y-38317249D01*
X35322190Y-38283612D01*
X35274697Y-38230840D01*
X35263273Y-38160769D01*
X35291547Y-38095645D01*
X35350541Y-38056145D01*
X35399288Y-38050831D01*
X35575000Y-38066204D01*
X35789665Y-38047423D01*
X35794978Y-38045999D01*
X35794980Y-38045999D01*
X35992497Y-37993075D01*
X35992499Y-37993074D01*
X35997807Y-37991652D01*
X36002789Y-37989329D01*
X36188115Y-37902910D01*
X36188120Y-37902907D01*
X36193102Y-37900584D01*
X36199930Y-37895803D01*
X36365106Y-37780146D01*
X36365109Y-37780144D01*
X36369617Y-37776987D01*
X36521987Y-37624617D01*
X36534144Y-37607256D01*
X36642427Y-37452611D01*
X36642430Y-37452606D01*
X36645584Y-37448102D01*
X36647907Y-37443120D01*
X36647910Y-37443115D01*
X36659521Y-37418214D01*
X36706438Y-37364929D01*
X36774716Y-37345468D01*
X36842675Y-37366010D01*
X36890459Y-37424061D01*
X36896768Y-37439599D01*
X36901413Y-37448794D01*
X37012694Y-37630388D01*
X37018777Y-37638699D01*
X37158213Y-37799667D01*
X37165580Y-37806883D01*
X37329434Y-37942916D01*
X37337881Y-37948831D01*
X37521756Y-38056279D01*
X37531042Y-38060729D01*
X37730001Y-38136703D01*
X37739899Y-38139579D01*
X37843250Y-38160606D01*
X37857299Y-38159410D01*
X37861000Y-38149065D01*
X37861000Y-38148517D01*
X38369000Y-38148517D01*
X38373064Y-38162359D01*
X38386478Y-38164393D01*
X38393184Y-38163534D01*
X38403262Y-38161392D01*
X38607255Y-38100191D01*
X38616842Y-38096433D01*
X38808095Y-38002739D01*
X38816945Y-37997464D01*
X38990328Y-37873792D01*
X38998200Y-37867139D01*
X39149052Y-37716812D01*
X39155730Y-37708965D01*
X39280003Y-37536020D01*
X39285313Y-37527183D01*
X39379670Y-37336267D01*
X39383469Y-37326672D01*
X39445377Y-37122910D01*
X39447555Y-37112837D01*
X39448986Y-37101962D01*
X39446775Y-37087778D01*
X39433617Y-37084000D01*
X38387115Y-37084000D01*
X38371876Y-37088475D01*
X38370671Y-37089865D01*
X38369000Y-37097548D01*
X38369000Y-38148517D01*
X37861000Y-38148517D01*
X37861000Y-36557885D01*
X38369000Y-36557885D01*
X38373475Y-36573124D01*
X38374865Y-36574329D01*
X38382548Y-36576000D01*
X39433344Y-36576000D01*
X39446875Y-36572027D01*
X39448180Y-36562947D01*
X39406214Y-36395875D01*
X39402894Y-36386124D01*
X39317972Y-36190814D01*
X39313105Y-36181739D01*
X39197426Y-36002926D01*
X39191136Y-35994757D01*
X39047806Y-35837240D01*
X39040273Y-35830215D01*
X38873139Y-35698222D01*
X38864552Y-35692517D01*
X38678117Y-35589599D01*
X38668705Y-35585369D01*
X38467959Y-35514280D01*
X38457988Y-35511646D01*
X38386837Y-35498972D01*
X38373540Y-35500432D01*
X38369000Y-35514989D01*
X38369000Y-36557885D01*
X37861000Y-36557885D01*
X37861000Y-35513102D01*
X37857082Y-35499758D01*
X37842806Y-35497771D01*
X37804324Y-35503660D01*
X37794288Y-35506051D01*
X37591868Y-35572212D01*
X37582359Y-35576209D01*
X37393463Y-35674542D01*
X37384738Y-35680036D01*
X37214433Y-35807905D01*
X37206726Y-35814748D01*
X37059590Y-35968717D01*
X37053104Y-35976727D01*
X36933098Y-36152649D01*
X36927996Y-36161629D01*
X36889445Y-36244680D01*
X36842621Y-36298047D01*
X36774378Y-36317627D01*
X36706382Y-36297203D01*
X36660963Y-36244878D01*
X36647912Y-36216889D01*
X36647909Y-36216883D01*
X36645584Y-36211898D01*
X36630821Y-36190814D01*
X36525146Y-36039894D01*
X36525144Y-36039891D01*
X36521987Y-36035383D01*
X36369617Y-35883013D01*
X36365109Y-35879856D01*
X36365106Y-35879854D01*
X36197611Y-35762573D01*
X36197609Y-35762572D01*
X36193102Y-35759416D01*
X36188120Y-35757093D01*
X36188115Y-35757090D01*
X36002789Y-35670671D01*
X36002787Y-35670670D01*
X35997807Y-35668348D01*
X35992499Y-35666926D01*
X35992497Y-35666925D01*
X35794980Y-35614001D01*
X35794978Y-35614001D01*
X35789665Y-35612577D01*
X35575000Y-35593796D01*
X35360335Y-35612577D01*
X35355022Y-35614001D01*
X35355020Y-35614001D01*
X35157503Y-35666925D01*
X35157501Y-35666926D01*
X35152193Y-35668348D01*
X35147213Y-35670670D01*
X35147211Y-35670671D01*
X34961885Y-35757090D01*
X34961880Y-35757093D01*
X34956898Y-35759416D01*
X34952391Y-35762572D01*
X34952389Y-35762573D01*
X34784894Y-35879854D01*
X34784891Y-35879856D01*
X34780383Y-35883013D01*
X34628013Y-36035383D01*
X34504416Y-36211898D01*
X34502092Y-36216882D01*
X34501619Y-36217701D01*
X34450236Y-36266694D01*
X34380523Y-36280130D01*
X34314612Y-36253744D01*
X34273430Y-36195911D01*
X34266500Y-36154701D01*
X34266500Y-35943842D01*
X34256983Y-35879183D01*
X34256888Y-35878541D01*
X34256887Y-35878539D01*
X34255462Y-35868856D01*
X34238534Y-35834377D01*
X34204077Y-35764197D01*
X34204076Y-35764196D01*
X34199487Y-35754849D01*
X34124543Y-35680036D01*
X34116972Y-35672478D01*
X34109601Y-35665120D01*
X34092595Y-35656807D01*
X34062697Y-35642193D01*
X33995497Y-35609345D01*
X33962716Y-35604563D01*
X33925684Y-35599160D01*
X33925680Y-35599160D01*
X33921158Y-35598500D01*
X32148842Y-35598500D01*
X32144294Y-35599170D01*
X32144287Y-35599170D01*
X32083541Y-35608112D01*
X32083539Y-35608113D01*
X32073856Y-35609538D01*
X32065068Y-35613853D01*
X32065067Y-35613853D01*
X31969197Y-35660923D01*
X31969196Y-35660924D01*
X31959849Y-35665513D01*
X31870120Y-35755399D01*
X31814345Y-35869503D01*
X31812933Y-35879183D01*
X31804165Y-35939287D01*
X31803500Y-35943842D01*
X31803500Y-37716158D01*
X26367639Y-37716158D01*
X26356996Y-37702658D01*
X26345071Y-37694187D01*
X26333537Y-37700673D01*
X25272022Y-38762188D01*
X25264408Y-38776132D01*
X24534356Y-38776132D01*
X24535592Y-38773868D01*
X24535461Y-38772035D01*
X24531210Y-38765420D01*
X23465816Y-37700026D01*
X23452507Y-37692758D01*
X23442472Y-37699878D01*
X23426937Y-37718556D01*
X23421531Y-37726135D01*
X23286965Y-37947891D01*
X23282736Y-37956192D01*
X23182432Y-38195389D01*
X23179471Y-38204239D01*
X23115628Y-38455625D01*
X23114006Y-38464822D01*
X23088020Y-38722885D01*
X23087775Y-38732211D01*
X20601500Y-38732211D01*
X20601500Y-37327689D01*
X23817102Y-37327689D01*
X23821675Y-37337465D01*
X24887188Y-38402978D01*
X24901132Y-38410592D01*
X24902965Y-38410461D01*
X24909580Y-38406210D01*
X25974349Y-37341441D01*
X25980733Y-37329751D01*
X25971321Y-37317641D01*
X25824045Y-37215471D01*
X25816010Y-37210738D01*
X25583376Y-37096016D01*
X25574743Y-37092528D01*
X25327703Y-37013450D01*
X25318643Y-37011274D01*
X25062630Y-36969580D01*
X25053343Y-36968768D01*
X24793992Y-36965373D01*
X24784681Y-36965943D01*
X24527682Y-37000919D01*
X24518546Y-37002860D01*
X24269543Y-37075439D01*
X24260800Y-37078707D01*
X24025252Y-37187296D01*
X24017097Y-37191816D01*
X23826240Y-37316947D01*
X23817102Y-37327689D01*
X20601500Y-37327689D01*
X20601500Y-28160820D01*
X20621502Y-28092699D01*
X20675158Y-28046206D01*
X20745432Y-28036102D01*
X20810012Y-28065596D01*
X20848396Y-28125322D01*
X20852050Y-28141760D01*
X20873894Y-28284511D01*
X20887002Y-28324614D01*
X20947971Y-28511154D01*
X20947974Y-28511160D01*
X20949579Y-28516072D01*
X20951966Y-28520658D01*
X20951968Y-28520662D01*
X20997645Y-28608405D01*
X21062069Y-28732162D01*
X21065179Y-28736304D01*
X21138815Y-28834377D01*
X21208341Y-28926977D01*
X21384467Y-29095287D01*
X21388739Y-29098201D01*
X21388740Y-29098202D01*
X21435816Y-29130315D01*
X21585717Y-29232571D01*
X21682987Y-29277722D01*
X21801993Y-29332963D01*
X21801997Y-29332964D01*
X21806688Y-29335142D01*
X22041443Y-29400246D01*
X22046577Y-29400795D01*
X22046579Y-29400795D01*
X22236992Y-29421144D01*
X22236999Y-29421144D01*
X22240327Y-29421500D01*
X22381751Y-29421500D01*
X22384324Y-29421288D01*
X22384335Y-29421288D01*
X22557646Y-29407039D01*
X22557652Y-29407038D01*
X22562797Y-29406615D01*
X22799073Y-29347267D01*
X23022483Y-29250125D01*
X23227028Y-29117800D01*
X23251770Y-29095287D01*
X23403392Y-28957321D01*
X23403393Y-28957319D01*
X23407214Y-28953843D01*
X23410413Y-28949792D01*
X23410417Y-28949788D01*
X23555000Y-28766714D01*
X23555002Y-28766710D01*
X23558202Y-28762659D01*
X23675937Y-28549382D01*
X23757257Y-28319740D01*
X23788453Y-28144610D01*
X23799074Y-28084987D01*
X23799074Y-28084983D01*
X23799980Y-28079899D01*
X23801777Y-27932811D01*
X34238533Y-27932811D01*
X34256633Y-28096764D01*
X34313320Y-28251667D01*
X34405319Y-28388577D01*
X34527321Y-28499589D01*
X34533994Y-28503212D01*
X34665604Y-28574671D01*
X34665606Y-28574672D01*
X34672281Y-28578296D01*
X34679630Y-28580224D01*
X34824481Y-28618225D01*
X34824483Y-28618225D01*
X34831831Y-28620153D01*
X34920497Y-28621546D01*
X34989162Y-28622625D01*
X34989165Y-28622625D01*
X34996759Y-28622744D01*
X35157545Y-28585919D01*
X35164331Y-28582506D01*
X35171478Y-28579933D01*
X35172195Y-28581925D01*
X35216115Y-28571500D01*
X37521627Y-28571500D01*
X37589748Y-28591502D01*
X37636241Y-28645158D01*
X37646549Y-28713945D01*
X37643606Y-28736304D01*
X37642549Y-28744330D01*
X37613827Y-28809257D01*
X37606722Y-28816979D01*
X37311948Y-29111753D01*
X37302461Y-29119334D01*
X37302779Y-29119708D01*
X37295946Y-29125523D01*
X37288352Y-29130315D01*
X37270326Y-29150726D01*
X37252876Y-29170484D01*
X37247530Y-29176171D01*
X37236136Y-29187565D01*
X37229889Y-29195900D01*
X37223519Y-29203724D01*
X37192311Y-29239061D01*
X37188495Y-29247188D01*
X37186765Y-29249822D01*
X37178054Y-29264319D01*
X37176540Y-29267085D01*
X37171158Y-29274266D01*
X37165406Y-29289609D01*
X37154613Y-29318399D01*
X37150686Y-29327718D01*
X37130651Y-29370391D01*
X37129270Y-29379261D01*
X37128345Y-29382286D01*
X37124062Y-29398615D01*
X37123382Y-29401708D01*
X37120229Y-29410118D01*
X37119564Y-29419069D01*
X37116736Y-29457124D01*
X37115582Y-29467173D01*
X37113500Y-29480544D01*
X37113500Y-29495986D01*
X37113154Y-29505324D01*
X37109477Y-29554804D01*
X37111350Y-29563578D01*
X37111928Y-29572059D01*
X37113500Y-29586950D01*
X37113500Y-30415564D01*
X37090587Y-30488014D01*
X37014981Y-30595592D01*
X37012222Y-30602667D01*
X37012221Y-30602670D01*
X36957823Y-30742193D01*
X36955063Y-30749273D01*
X36933533Y-30912811D01*
X36951633Y-31076764D01*
X37008320Y-31231667D01*
X37100319Y-31368577D01*
X37222321Y-31479589D01*
X37244820Y-31491805D01*
X37360604Y-31554671D01*
X37360606Y-31554672D01*
X37367281Y-31558296D01*
X37374630Y-31560224D01*
X37519481Y-31598225D01*
X37519483Y-31598225D01*
X37526831Y-31600153D01*
X37615497Y-31601546D01*
X37684162Y-31602625D01*
X37684165Y-31602625D01*
X37691759Y-31602744D01*
X37852545Y-31565919D01*
X37925864Y-31529044D01*
X37993123Y-31495217D01*
X37993126Y-31495215D01*
X37999906Y-31491805D01*
X38005677Y-31486876D01*
X38005680Y-31486874D01*
X38119562Y-31389609D01*
X38119563Y-31389608D01*
X38125334Y-31384679D01*
X38221589Y-31250726D01*
X38283113Y-31097681D01*
X38306354Y-30934377D01*
X38306505Y-30920000D01*
X38286689Y-30756246D01*
X38228383Y-30601945D01*
X38148660Y-30485947D01*
X38126500Y-30414580D01*
X38126500Y-29781989D01*
X38146502Y-29713868D01*
X38163405Y-29692894D01*
X38318543Y-29537756D01*
X38380855Y-29503730D01*
X38387414Y-29502676D01*
X38391759Y-29502744D01*
X38399158Y-29501049D01*
X38399162Y-29501049D01*
X38488689Y-29480544D01*
X38552545Y-29465919D01*
X38625864Y-29429044D01*
X38693123Y-29395217D01*
X38693126Y-29395215D01*
X38699906Y-29391805D01*
X38705677Y-29386876D01*
X38705680Y-29386874D01*
X38819562Y-29289609D01*
X38819563Y-29289608D01*
X38825334Y-29284679D01*
X38921589Y-29150726D01*
X38983113Y-28997681D01*
X39006354Y-28834377D01*
X39006505Y-28820000D01*
X38993513Y-28712637D01*
X39005186Y-28642607D01*
X39052868Y-28590005D01*
X39118600Y-28571500D01*
X44771234Y-28571500D01*
X44839355Y-28591502D01*
X44860329Y-28608405D01*
X46341176Y-30089251D01*
X46370407Y-30135044D01*
X46378320Y-30156667D01*
X46470319Y-30293577D01*
X46592321Y-30404589D01*
X46614820Y-30416805D01*
X46730604Y-30479671D01*
X46730606Y-30479672D01*
X46737281Y-30483296D01*
X46744630Y-30485224D01*
X46889481Y-30523225D01*
X46889483Y-30523225D01*
X46896831Y-30525153D01*
X46985497Y-30526546D01*
X47054162Y-30527625D01*
X47054165Y-30527625D01*
X47061759Y-30527744D01*
X47222545Y-30490919D01*
X47295864Y-30454044D01*
X47363123Y-30420217D01*
X47363126Y-30420215D01*
X47369906Y-30416805D01*
X47375677Y-30411876D01*
X47375680Y-30411874D01*
X47489562Y-30314609D01*
X47489563Y-30314608D01*
X47495334Y-30309679D01*
X47591589Y-30175726D01*
X47653113Y-30022681D01*
X47676354Y-29859377D01*
X47676505Y-29845000D01*
X47656689Y-29681246D01*
X47598383Y-29526945D01*
X47556441Y-29465919D01*
X47509257Y-29397265D01*
X47509256Y-29397263D01*
X47504955Y-29391006D01*
X47495168Y-29382286D01*
X47387470Y-29286330D01*
X47387467Y-29286328D01*
X47381798Y-29281277D01*
X47265826Y-29219873D01*
X47235690Y-29197614D01*
X45587046Y-27548970D01*
X45579546Y-27540728D01*
X45575446Y-27534268D01*
X45525965Y-27487802D01*
X45523123Y-27485047D01*
X45503445Y-27465369D01*
X45500273Y-27462909D01*
X45491253Y-27455205D01*
X45464914Y-27430471D01*
X45464915Y-27430471D01*
X45459136Y-27425045D01*
X45441465Y-27415330D01*
X45424953Y-27404484D01*
X45409015Y-27392121D01*
X45368569Y-27374619D01*
X45357921Y-27369402D01*
X45326262Y-27351997D01*
X45326259Y-27351996D01*
X45319318Y-27348180D01*
X45299786Y-27343165D01*
X45281100Y-27336767D01*
X45262584Y-27328755D01*
X45219076Y-27321865D01*
X45207453Y-27319458D01*
X45164777Y-27308500D01*
X45144611Y-27308500D01*
X45124901Y-27306949D01*
X45112823Y-27305036D01*
X45112822Y-27305036D01*
X45104993Y-27303796D01*
X45071635Y-27306949D01*
X45061140Y-27307941D01*
X45049283Y-27308500D01*
X35216336Y-27308500D01*
X35173952Y-27300644D01*
X35171021Y-27299092D01*
X35011042Y-27258908D01*
X35003444Y-27258868D01*
X35003442Y-27258868D01*
X34932483Y-27258497D01*
X34846095Y-27258045D01*
X34838716Y-27259817D01*
X34838712Y-27259817D01*
X34693083Y-27294779D01*
X34693079Y-27294780D01*
X34685704Y-27296551D01*
X34539127Y-27372205D01*
X34533405Y-27377197D01*
X34533403Y-27377198D01*
X34439325Y-27459267D01*
X34414827Y-27480638D01*
X34410457Y-27486856D01*
X34337564Y-27590574D01*
X34319981Y-27615592D01*
X34317222Y-27622667D01*
X34317221Y-27622670D01*
X34265753Y-27754678D01*
X34260063Y-27769273D01*
X34259071Y-27776806D01*
X34259071Y-27776807D01*
X34250239Y-27843898D01*
X34238533Y-27932811D01*
X23801777Y-27932811D01*
X23802956Y-27836302D01*
X23766106Y-27595489D01*
X23720255Y-27455205D01*
X23692029Y-27368846D01*
X23692026Y-27368840D01*
X23690421Y-27363928D01*
X23675621Y-27335496D01*
X23580322Y-27152431D01*
X23577931Y-27147838D01*
X23431659Y-26953023D01*
X23255533Y-26784713D01*
X23218413Y-26759391D01*
X23058562Y-26650348D01*
X23054283Y-26647429D01*
X22917624Y-26583994D01*
X22838007Y-26547037D01*
X22838003Y-26547036D01*
X22833312Y-26544858D01*
X22598557Y-26479754D01*
X22593423Y-26479205D01*
X22593421Y-26479205D01*
X22403008Y-26458856D01*
X22403001Y-26458856D01*
X22399673Y-26458500D01*
X22258249Y-26458500D01*
X22255676Y-26458712D01*
X22255665Y-26458712D01*
X22082354Y-26472961D01*
X22082348Y-26472962D01*
X22077203Y-26473385D01*
X21840927Y-26532733D01*
X21617517Y-26629875D01*
X21412972Y-26762200D01*
X21409149Y-26765679D01*
X21409146Y-26765681D01*
X21338628Y-26829848D01*
X21232786Y-26926157D01*
X21229587Y-26930208D01*
X21229583Y-26930212D01*
X21085000Y-27113286D01*
X21081798Y-27117341D01*
X20964063Y-27330618D01*
X20882743Y-27560260D01*
X20881836Y-27565352D01*
X20851547Y-27735390D01*
X20819909Y-27798947D01*
X20758931Y-27835310D01*
X20687975Y-27832933D01*
X20629567Y-27792572D01*
X20602252Y-27727040D01*
X20601500Y-27713293D01*
X20601500Y-26829476D01*
X20624148Y-26757404D01*
X20656207Y-26711432D01*
X25513225Y-19746392D01*
X27466457Y-16945428D01*
X27521829Y-16900993D01*
X27569809Y-16891500D01*
X31248750Y-16891500D01*
X31316871Y-16911502D01*
G37*
G04 #@! TD.AperFunction*
M02*
