M48
; DRILL file {KiCad (6.0.7)} date Mon Oct 10 17:09:57 2022
; FORMAT={-:-/ absolute / metric / decimal}
; #@! TF.CreationDate,2022-10-10T17:09:57+03:00
; #@! TF.GenerationSoftware,Kicad,Pcbnew,(6.0.7)
; #@! TF.FileFunction,Plated,1,2,PTH
FMAT,2
METRIC
; #@! TA.AperFunction,Plated,PTH,ViaDrill
T1C0.300
; #@! TA.AperFunction,Plated,PTH,ComponentDrill
T2C1.000
; #@! TA.AperFunction,Plated,PTH,ComponentDrill
T3C1.300
%
G90
G05
T1
X22.225Y-25.4
X23.495Y-25.4
X30.46Y-33.91
X32.36Y-33.91
X34.925Y-27.94
X37.62Y-30.92
X38.32Y-28.82
X41.275Y-35.82
X45.72Y-20.955
X46.99Y-29.845
X47.625Y-25.4
X48.895Y-25.4
T2
X29.21Y-18.415
X31.75Y-18.415
X33.035Y-36.83
X34.29Y-18.415
X35.575Y-36.83
X36.83Y-18.415
X38.115Y-36.83
X39.37Y-18.415
X41.91Y-18.415
T3
X24.9Y-38.775
X24.9Y-43.775
X46.22Y-38.775
X46.22Y-43.775
T0
M30
