%TF.GenerationSoftware,KiCad,Pcbnew,(6.0.7)*%
%TF.CreationDate,2022-10-10T17:10:13+03:00*%
%TF.ProjectId,DiLight_2.0,44694c69-6768-4745-9f32-2e302e6b6963,rev?*%
%TF.SameCoordinates,Original*%
%TF.FileFunction,Drillmap*%
%TF.FilePolarity,Positive*%
%FSLAX45Y45*%
G04 Gerber Fmt 4.5, Leading zero omitted, Abs format (unit mm)*
G04 Created by KiCad (PCBNEW (6.0.7)) date 2022-10-10 17:10:13*
%MOMM*%
%LPD*%
G01*
G04 APERTURE LIST*
%ADD10C,0.100000*%
%ADD11C,0.200000*%
%ADD12C,0.030000*%
%ADD13C,0.130000*%
G04 APERTURE END LIST*
D10*
X2022000Y-4572000D02*
G75*
G03*
X2149000Y-4699000I127000J0D01*
G01*
X2149000Y-4699000D02*
X4965000Y-4699000D01*
X4381500Y-1651000D02*
X5092000Y-2667000D01*
X2022000Y-2667000D02*
X2730500Y-1651000D01*
X4965000Y-4699000D02*
G75*
G03*
X5092000Y-4572000I0J127000D01*
G01*
X2730500Y-1651000D02*
X4381500Y-1651000D01*
X5092000Y-4572000D02*
X5092000Y-2667000D01*
X2022000Y-4572000D02*
X2022000Y-2667000D01*
D11*
D12*
X2207500Y-2525000D02*
X2237500Y-2555000D01*
X2237500Y-2525000D02*
X2207500Y-2555000D01*
X2334500Y-2525000D02*
X2364500Y-2555000D01*
X2364500Y-2525000D02*
X2334500Y-2555000D01*
X3031000Y-3376000D02*
X3061000Y-3406000D01*
X3061000Y-3376000D02*
X3031000Y-3406000D01*
X3221000Y-3376000D02*
X3251000Y-3406000D01*
X3251000Y-3376000D02*
X3221000Y-3406000D01*
X3477500Y-2779000D02*
X3507500Y-2809000D01*
X3507500Y-2779000D02*
X3477500Y-2809000D01*
X3747000Y-3077000D02*
X3777000Y-3107000D01*
X3777000Y-3077000D02*
X3747000Y-3107000D01*
X3817000Y-2867000D02*
X3847000Y-2897000D01*
X3847000Y-2867000D02*
X3817000Y-2897000D01*
X4112500Y-3567000D02*
X4142500Y-3597000D01*
X4142500Y-3567000D02*
X4112500Y-3597000D01*
X4557000Y-2080500D02*
X4587000Y-2110500D01*
X4587000Y-2080500D02*
X4557000Y-2110500D01*
X4684000Y-2969500D02*
X4714000Y-2999500D01*
X4714000Y-2969500D02*
X4684000Y-2999500D01*
X4747500Y-2525000D02*
X4777500Y-2555000D01*
X4777500Y-2525000D02*
X4747500Y-2555000D01*
X4874500Y-2525000D02*
X4904500Y-2555000D01*
X4904500Y-2525000D02*
X4874500Y-2555000D01*
D10*
X2971000Y-1841500D02*
G75*
G03*
X2971000Y-1841500I-50000J0D01*
G01*
X3225000Y-1841500D02*
G75*
G03*
X3225000Y-1841500I-50000J0D01*
G01*
X3353500Y-3683000D02*
G75*
G03*
X3353500Y-3683000I-50000J0D01*
G01*
X3479000Y-1841500D02*
G75*
G03*
X3479000Y-1841500I-50000J0D01*
G01*
X3607500Y-3683000D02*
G75*
G03*
X3607500Y-3683000I-50000J0D01*
G01*
X3733000Y-1841500D02*
G75*
G03*
X3733000Y-1841500I-50000J0D01*
G01*
X3861500Y-3683000D02*
G75*
G03*
X3861500Y-3683000I-50000J0D01*
G01*
X3987000Y-1841500D02*
G75*
G03*
X3987000Y-1841500I-50000J0D01*
G01*
X4241000Y-1841500D02*
G75*
G03*
X4241000Y-1841500I-50000J0D01*
G01*
D13*
X2490000Y-3812500D02*
X2490000Y-3942500D01*
X2425000Y-3877500D02*
X2555000Y-3877500D01*
X2490000Y-4312500D02*
X2490000Y-4442500D01*
X2425000Y-4377500D02*
X2555000Y-4377500D01*
X4622000Y-3812500D02*
X4622000Y-3942500D01*
X4557000Y-3877500D02*
X4687000Y-3877500D01*
X4622000Y-4312500D02*
X4622000Y-4442500D01*
X4557000Y-4377500D02*
X4687000Y-4377500D01*
D11*
X2274619Y-5014476D02*
X2274619Y-4814476D01*
X2322238Y-4814476D01*
X2350810Y-4824000D01*
X2369857Y-4843048D01*
X2379381Y-4862095D01*
X2388905Y-4900190D01*
X2388905Y-4928762D01*
X2379381Y-4966857D01*
X2369857Y-4985905D01*
X2350810Y-5004952D01*
X2322238Y-5014476D01*
X2274619Y-5014476D01*
X2474619Y-5014476D02*
X2474619Y-4881143D01*
X2474619Y-4919238D02*
X2484143Y-4900190D01*
X2493667Y-4890667D01*
X2512714Y-4881143D01*
X2531762Y-4881143D01*
X2598429Y-5014476D02*
X2598429Y-4881143D01*
X2598429Y-4814476D02*
X2588905Y-4824000D01*
X2598429Y-4833524D01*
X2607952Y-4824000D01*
X2598429Y-4814476D01*
X2598429Y-4833524D01*
X2722238Y-5014476D02*
X2703190Y-5004952D01*
X2693667Y-4985905D01*
X2693667Y-4814476D01*
X2827000Y-5014476D02*
X2807952Y-5004952D01*
X2798428Y-4985905D01*
X2798428Y-4814476D01*
X3055571Y-5014476D02*
X3055571Y-4814476D01*
X3122238Y-4957333D01*
X3188905Y-4814476D01*
X3188905Y-5014476D01*
X3369857Y-5014476D02*
X3369857Y-4909714D01*
X3360333Y-4890667D01*
X3341286Y-4881143D01*
X3303190Y-4881143D01*
X3284143Y-4890667D01*
X3369857Y-5004952D02*
X3350809Y-5014476D01*
X3303190Y-5014476D01*
X3284143Y-5004952D01*
X3274619Y-4985905D01*
X3274619Y-4966857D01*
X3284143Y-4947810D01*
X3303190Y-4938286D01*
X3350809Y-4938286D01*
X3369857Y-4928762D01*
X3465095Y-4881143D02*
X3465095Y-5081143D01*
X3465095Y-4890667D02*
X3484143Y-4881143D01*
X3522238Y-4881143D01*
X3541286Y-4890667D01*
X3550809Y-4900190D01*
X3560333Y-4919238D01*
X3560333Y-4976381D01*
X3550809Y-4995429D01*
X3541286Y-5004952D01*
X3522238Y-5014476D01*
X3484143Y-5014476D01*
X3465095Y-5004952D01*
X3646048Y-4995429D02*
X3655571Y-5004952D01*
X3646048Y-5014476D01*
X3636524Y-5004952D01*
X3646048Y-4995429D01*
X3646048Y-5014476D01*
X3646048Y-4890667D02*
X3655571Y-4900190D01*
X3646048Y-4909714D01*
X3636524Y-4900190D01*
X3646048Y-4890667D01*
X3646048Y-4909714D01*
D12*
X1987000Y-5329000D02*
X2017000Y-5359000D01*
X2017000Y-5329000D02*
X1987000Y-5359000D01*
D11*
X2312714Y-5234476D02*
X2331762Y-5234476D01*
X2350810Y-5244000D01*
X2360333Y-5253524D01*
X2369857Y-5272571D01*
X2379381Y-5310667D01*
X2379381Y-5358286D01*
X2369857Y-5396381D01*
X2360333Y-5415429D01*
X2350810Y-5424952D01*
X2331762Y-5434476D01*
X2312714Y-5434476D01*
X2293667Y-5424952D01*
X2284143Y-5415429D01*
X2274619Y-5396381D01*
X2265095Y-5358286D01*
X2265095Y-5310667D01*
X2274619Y-5272571D01*
X2284143Y-5253524D01*
X2293667Y-5244000D01*
X2312714Y-5234476D01*
X2465095Y-5415429D02*
X2474619Y-5424952D01*
X2465095Y-5434476D01*
X2455571Y-5424952D01*
X2465095Y-5415429D01*
X2465095Y-5434476D01*
X2541286Y-5234476D02*
X2665095Y-5234476D01*
X2598429Y-5310667D01*
X2627000Y-5310667D01*
X2646048Y-5320190D01*
X2655571Y-5329714D01*
X2665095Y-5348762D01*
X2665095Y-5396381D01*
X2655571Y-5415429D01*
X2646048Y-5424952D01*
X2627000Y-5434476D01*
X2569857Y-5434476D01*
X2550810Y-5424952D01*
X2541286Y-5415429D01*
X2788905Y-5234476D02*
X2807952Y-5234476D01*
X2827000Y-5244000D01*
X2836524Y-5253524D01*
X2846048Y-5272571D01*
X2855571Y-5310667D01*
X2855571Y-5358286D01*
X2846048Y-5396381D01*
X2836524Y-5415429D01*
X2827000Y-5424952D01*
X2807952Y-5434476D01*
X2788905Y-5434476D01*
X2769857Y-5424952D01*
X2760333Y-5415429D01*
X2750810Y-5396381D01*
X2741286Y-5358286D01*
X2741286Y-5310667D01*
X2750810Y-5272571D01*
X2760333Y-5253524D01*
X2769857Y-5244000D01*
X2788905Y-5234476D01*
X2979381Y-5234476D02*
X2998428Y-5234476D01*
X3017476Y-5244000D01*
X3027000Y-5253524D01*
X3036524Y-5272571D01*
X3046048Y-5310667D01*
X3046048Y-5358286D01*
X3036524Y-5396381D01*
X3027000Y-5415429D01*
X3017476Y-5424952D01*
X2998428Y-5434476D01*
X2979381Y-5434476D01*
X2960333Y-5424952D01*
X2950809Y-5415429D01*
X2941286Y-5396381D01*
X2931762Y-5358286D01*
X2931762Y-5310667D01*
X2941286Y-5272571D01*
X2950809Y-5253524D01*
X2960333Y-5244000D01*
X2979381Y-5234476D01*
X3131762Y-5434476D02*
X3131762Y-5301143D01*
X3131762Y-5320190D02*
X3141286Y-5310667D01*
X3160333Y-5301143D01*
X3188905Y-5301143D01*
X3207952Y-5310667D01*
X3217476Y-5329714D01*
X3217476Y-5434476D01*
X3217476Y-5329714D02*
X3227000Y-5310667D01*
X3246048Y-5301143D01*
X3274619Y-5301143D01*
X3293667Y-5310667D01*
X3303190Y-5329714D01*
X3303190Y-5434476D01*
X3398428Y-5434476D02*
X3398428Y-5301143D01*
X3398428Y-5320190D02*
X3407952Y-5310667D01*
X3427000Y-5301143D01*
X3455571Y-5301143D01*
X3474619Y-5310667D01*
X3484143Y-5329714D01*
X3484143Y-5434476D01*
X3484143Y-5329714D02*
X3493667Y-5310667D01*
X3512714Y-5301143D01*
X3541286Y-5301143D01*
X3560333Y-5310667D01*
X3569857Y-5329714D01*
X3569857Y-5434476D01*
X3960333Y-5224952D02*
X3788905Y-5482095D01*
X4217476Y-5234476D02*
X4236524Y-5234476D01*
X4255571Y-5244000D01*
X4265095Y-5253524D01*
X4274619Y-5272571D01*
X4284143Y-5310667D01*
X4284143Y-5358286D01*
X4274619Y-5396381D01*
X4265095Y-5415429D01*
X4255571Y-5424952D01*
X4236524Y-5434476D01*
X4217476Y-5434476D01*
X4198429Y-5424952D01*
X4188905Y-5415429D01*
X4179381Y-5396381D01*
X4169857Y-5358286D01*
X4169857Y-5310667D01*
X4179381Y-5272571D01*
X4188905Y-5253524D01*
X4198429Y-5244000D01*
X4217476Y-5234476D01*
X4369857Y-5415429D02*
X4379381Y-5424952D01*
X4369857Y-5434476D01*
X4360333Y-5424952D01*
X4369857Y-5415429D01*
X4369857Y-5434476D01*
X4503190Y-5234476D02*
X4522238Y-5234476D01*
X4541286Y-5244000D01*
X4550810Y-5253524D01*
X4560333Y-5272571D01*
X4569857Y-5310667D01*
X4569857Y-5358286D01*
X4560333Y-5396381D01*
X4550810Y-5415429D01*
X4541286Y-5424952D01*
X4522238Y-5434476D01*
X4503190Y-5434476D01*
X4484143Y-5424952D01*
X4474619Y-5415429D01*
X4465095Y-5396381D01*
X4455571Y-5358286D01*
X4455571Y-5310667D01*
X4465095Y-5272571D01*
X4474619Y-5253524D01*
X4484143Y-5244000D01*
X4503190Y-5234476D01*
X4760333Y-5434476D02*
X4646048Y-5434476D01*
X4703190Y-5434476D02*
X4703190Y-5234476D01*
X4684143Y-5263048D01*
X4665095Y-5282095D01*
X4646048Y-5291619D01*
X4950810Y-5434476D02*
X4836524Y-5434476D01*
X4893667Y-5434476D02*
X4893667Y-5234476D01*
X4874619Y-5263048D01*
X4855571Y-5282095D01*
X4836524Y-5291619D01*
X5065095Y-5320190D02*
X5046048Y-5310667D01*
X5036524Y-5301143D01*
X5027000Y-5282095D01*
X5027000Y-5272571D01*
X5036524Y-5253524D01*
X5046048Y-5244000D01*
X5065095Y-5234476D01*
X5103190Y-5234476D01*
X5122238Y-5244000D01*
X5131762Y-5253524D01*
X5141286Y-5272571D01*
X5141286Y-5282095D01*
X5131762Y-5301143D01*
X5122238Y-5310667D01*
X5103190Y-5320190D01*
X5065095Y-5320190D01*
X5046048Y-5329714D01*
X5036524Y-5339238D01*
X5027000Y-5358286D01*
X5027000Y-5396381D01*
X5036524Y-5415429D01*
X5046048Y-5424952D01*
X5065095Y-5434476D01*
X5103190Y-5434476D01*
X5122238Y-5424952D01*
X5131762Y-5415429D01*
X5141286Y-5396381D01*
X5141286Y-5358286D01*
X5131762Y-5339238D01*
X5122238Y-5329714D01*
X5103190Y-5320190D01*
X5217476Y-5234476D02*
X5217476Y-5272571D01*
X5293667Y-5234476D02*
X5293667Y-5272571D01*
X5588905Y-5510667D02*
X5579381Y-5501143D01*
X5560333Y-5472571D01*
X5550810Y-5453524D01*
X5541286Y-5424952D01*
X5531762Y-5377333D01*
X5531762Y-5339238D01*
X5541286Y-5291619D01*
X5550810Y-5263048D01*
X5560333Y-5244000D01*
X5579381Y-5215429D01*
X5588905Y-5205905D01*
X5769857Y-5434476D02*
X5655571Y-5434476D01*
X5712714Y-5434476D02*
X5712714Y-5234476D01*
X5693667Y-5263048D01*
X5674619Y-5282095D01*
X5655571Y-5291619D01*
X5846048Y-5253524D02*
X5855571Y-5244000D01*
X5874619Y-5234476D01*
X5922238Y-5234476D01*
X5941286Y-5244000D01*
X5950809Y-5253524D01*
X5960333Y-5272571D01*
X5960333Y-5291619D01*
X5950809Y-5320190D01*
X5836524Y-5434476D01*
X5960333Y-5434476D01*
X6198428Y-5434476D02*
X6198428Y-5234476D01*
X6284143Y-5434476D02*
X6284143Y-5329714D01*
X6274619Y-5310667D01*
X6255571Y-5301143D01*
X6227000Y-5301143D01*
X6207952Y-5310667D01*
X6198428Y-5320190D01*
X6407952Y-5434476D02*
X6388905Y-5424952D01*
X6379381Y-5415429D01*
X6369857Y-5396381D01*
X6369857Y-5339238D01*
X6379381Y-5320190D01*
X6388905Y-5310667D01*
X6407952Y-5301143D01*
X6436524Y-5301143D01*
X6455571Y-5310667D01*
X6465095Y-5320190D01*
X6474619Y-5339238D01*
X6474619Y-5396381D01*
X6465095Y-5415429D01*
X6455571Y-5424952D01*
X6436524Y-5434476D01*
X6407952Y-5434476D01*
X6588905Y-5434476D02*
X6569857Y-5424952D01*
X6560333Y-5405905D01*
X6560333Y-5234476D01*
X6741286Y-5424952D02*
X6722238Y-5434476D01*
X6684143Y-5434476D01*
X6665095Y-5424952D01*
X6655571Y-5405905D01*
X6655571Y-5329714D01*
X6665095Y-5310667D01*
X6684143Y-5301143D01*
X6722238Y-5301143D01*
X6741286Y-5310667D01*
X6750809Y-5329714D01*
X6750809Y-5348762D01*
X6655571Y-5367810D01*
X6827000Y-5424952D02*
X6846048Y-5434476D01*
X6884143Y-5434476D01*
X6903190Y-5424952D01*
X6912714Y-5405905D01*
X6912714Y-5396381D01*
X6903190Y-5377333D01*
X6884143Y-5367810D01*
X6855571Y-5367810D01*
X6836524Y-5358286D01*
X6827000Y-5339238D01*
X6827000Y-5329714D01*
X6836524Y-5310667D01*
X6855571Y-5301143D01*
X6884143Y-5301143D01*
X6903190Y-5310667D01*
X6979381Y-5510667D02*
X6988905Y-5501143D01*
X7007952Y-5472571D01*
X7017476Y-5453524D01*
X7027000Y-5424952D01*
X7036524Y-5377333D01*
X7036524Y-5339238D01*
X7027000Y-5291619D01*
X7017476Y-5263048D01*
X7007952Y-5244000D01*
X6988905Y-5215429D01*
X6979381Y-5205905D01*
D10*
X2017000Y-5608000D02*
G75*
G03*
X2017000Y-5608000I-50000J0D01*
G01*
D11*
X2379381Y-5698476D02*
X2265095Y-5698476D01*
X2322238Y-5698476D02*
X2322238Y-5498476D01*
X2303190Y-5527048D01*
X2284143Y-5546095D01*
X2265095Y-5555619D01*
X2465095Y-5679428D02*
X2474619Y-5688952D01*
X2465095Y-5698476D01*
X2455571Y-5688952D01*
X2465095Y-5679428D01*
X2465095Y-5698476D01*
X2598429Y-5498476D02*
X2617476Y-5498476D01*
X2636524Y-5508000D01*
X2646048Y-5517524D01*
X2655571Y-5536571D01*
X2665095Y-5574667D01*
X2665095Y-5622286D01*
X2655571Y-5660381D01*
X2646048Y-5679428D01*
X2636524Y-5688952D01*
X2617476Y-5698476D01*
X2598429Y-5698476D01*
X2579381Y-5688952D01*
X2569857Y-5679428D01*
X2560333Y-5660381D01*
X2550810Y-5622286D01*
X2550810Y-5574667D01*
X2560333Y-5536571D01*
X2569857Y-5517524D01*
X2579381Y-5508000D01*
X2598429Y-5498476D01*
X2788905Y-5498476D02*
X2807952Y-5498476D01*
X2827000Y-5508000D01*
X2836524Y-5517524D01*
X2846048Y-5536571D01*
X2855571Y-5574667D01*
X2855571Y-5622286D01*
X2846048Y-5660381D01*
X2836524Y-5679428D01*
X2827000Y-5688952D01*
X2807952Y-5698476D01*
X2788905Y-5698476D01*
X2769857Y-5688952D01*
X2760333Y-5679428D01*
X2750810Y-5660381D01*
X2741286Y-5622286D01*
X2741286Y-5574667D01*
X2750810Y-5536571D01*
X2760333Y-5517524D01*
X2769857Y-5508000D01*
X2788905Y-5498476D01*
X2979381Y-5498476D02*
X2998428Y-5498476D01*
X3017476Y-5508000D01*
X3027000Y-5517524D01*
X3036524Y-5536571D01*
X3046048Y-5574667D01*
X3046048Y-5622286D01*
X3036524Y-5660381D01*
X3027000Y-5679428D01*
X3017476Y-5688952D01*
X2998428Y-5698476D01*
X2979381Y-5698476D01*
X2960333Y-5688952D01*
X2950809Y-5679428D01*
X2941286Y-5660381D01*
X2931762Y-5622286D01*
X2931762Y-5574667D01*
X2941286Y-5536571D01*
X2950809Y-5517524D01*
X2960333Y-5508000D01*
X2979381Y-5498476D01*
X3131762Y-5698476D02*
X3131762Y-5565143D01*
X3131762Y-5584190D02*
X3141286Y-5574667D01*
X3160333Y-5565143D01*
X3188905Y-5565143D01*
X3207952Y-5574667D01*
X3217476Y-5593714D01*
X3217476Y-5698476D01*
X3217476Y-5593714D02*
X3227000Y-5574667D01*
X3246048Y-5565143D01*
X3274619Y-5565143D01*
X3293667Y-5574667D01*
X3303190Y-5593714D01*
X3303190Y-5698476D01*
X3398428Y-5698476D02*
X3398428Y-5565143D01*
X3398428Y-5584190D02*
X3407952Y-5574667D01*
X3427000Y-5565143D01*
X3455571Y-5565143D01*
X3474619Y-5574667D01*
X3484143Y-5593714D01*
X3484143Y-5698476D01*
X3484143Y-5593714D02*
X3493667Y-5574667D01*
X3512714Y-5565143D01*
X3541286Y-5565143D01*
X3560333Y-5574667D01*
X3569857Y-5593714D01*
X3569857Y-5698476D01*
X3960333Y-5488952D02*
X3788905Y-5746095D01*
X4217476Y-5498476D02*
X4236524Y-5498476D01*
X4255571Y-5508000D01*
X4265095Y-5517524D01*
X4274619Y-5536571D01*
X4284143Y-5574667D01*
X4284143Y-5622286D01*
X4274619Y-5660381D01*
X4265095Y-5679428D01*
X4255571Y-5688952D01*
X4236524Y-5698476D01*
X4217476Y-5698476D01*
X4198429Y-5688952D01*
X4188905Y-5679428D01*
X4179381Y-5660381D01*
X4169857Y-5622286D01*
X4169857Y-5574667D01*
X4179381Y-5536571D01*
X4188905Y-5517524D01*
X4198429Y-5508000D01*
X4217476Y-5498476D01*
X4369857Y-5679428D02*
X4379381Y-5688952D01*
X4369857Y-5698476D01*
X4360333Y-5688952D01*
X4369857Y-5679428D01*
X4369857Y-5698476D01*
X4503190Y-5498476D02*
X4522238Y-5498476D01*
X4541286Y-5508000D01*
X4550810Y-5517524D01*
X4560333Y-5536571D01*
X4569857Y-5574667D01*
X4569857Y-5622286D01*
X4560333Y-5660381D01*
X4550810Y-5679428D01*
X4541286Y-5688952D01*
X4522238Y-5698476D01*
X4503190Y-5698476D01*
X4484143Y-5688952D01*
X4474619Y-5679428D01*
X4465095Y-5660381D01*
X4455571Y-5622286D01*
X4455571Y-5574667D01*
X4465095Y-5536571D01*
X4474619Y-5517524D01*
X4484143Y-5508000D01*
X4503190Y-5498476D01*
X4636524Y-5498476D02*
X4760333Y-5498476D01*
X4693667Y-5574667D01*
X4722238Y-5574667D01*
X4741286Y-5584190D01*
X4750810Y-5593714D01*
X4760333Y-5612762D01*
X4760333Y-5660381D01*
X4750810Y-5679428D01*
X4741286Y-5688952D01*
X4722238Y-5698476D01*
X4665095Y-5698476D01*
X4646048Y-5688952D01*
X4636524Y-5679428D01*
X4855571Y-5698476D02*
X4893667Y-5698476D01*
X4912714Y-5688952D01*
X4922238Y-5679428D01*
X4941286Y-5650857D01*
X4950810Y-5612762D01*
X4950810Y-5536571D01*
X4941286Y-5517524D01*
X4931762Y-5508000D01*
X4912714Y-5498476D01*
X4874619Y-5498476D01*
X4855571Y-5508000D01*
X4846048Y-5517524D01*
X4836524Y-5536571D01*
X4836524Y-5584190D01*
X4846048Y-5603238D01*
X4855571Y-5612762D01*
X4874619Y-5622286D01*
X4912714Y-5622286D01*
X4931762Y-5612762D01*
X4941286Y-5603238D01*
X4950810Y-5584190D01*
X5122238Y-5565143D02*
X5122238Y-5698476D01*
X5074619Y-5488952D02*
X5027000Y-5631809D01*
X5150810Y-5631809D01*
X5217476Y-5498476D02*
X5217476Y-5536571D01*
X5293667Y-5498476D02*
X5293667Y-5536571D01*
X5588905Y-5774667D02*
X5579381Y-5765143D01*
X5560333Y-5736571D01*
X5550810Y-5717524D01*
X5541286Y-5688952D01*
X5531762Y-5641333D01*
X5531762Y-5603238D01*
X5541286Y-5555619D01*
X5550810Y-5527048D01*
X5560333Y-5508000D01*
X5579381Y-5479429D01*
X5588905Y-5469905D01*
X5674619Y-5698476D02*
X5712714Y-5698476D01*
X5731762Y-5688952D01*
X5741286Y-5679428D01*
X5760333Y-5650857D01*
X5769857Y-5612762D01*
X5769857Y-5536571D01*
X5760333Y-5517524D01*
X5750809Y-5508000D01*
X5731762Y-5498476D01*
X5693667Y-5498476D01*
X5674619Y-5508000D01*
X5665095Y-5517524D01*
X5655571Y-5536571D01*
X5655571Y-5584190D01*
X5665095Y-5603238D01*
X5674619Y-5612762D01*
X5693667Y-5622286D01*
X5731762Y-5622286D01*
X5750809Y-5612762D01*
X5760333Y-5603238D01*
X5769857Y-5584190D01*
X6007952Y-5698476D02*
X6007952Y-5498476D01*
X6093667Y-5698476D02*
X6093667Y-5593714D01*
X6084143Y-5574667D01*
X6065095Y-5565143D01*
X6036524Y-5565143D01*
X6017476Y-5574667D01*
X6007952Y-5584190D01*
X6217476Y-5698476D02*
X6198428Y-5688952D01*
X6188905Y-5679428D01*
X6179381Y-5660381D01*
X6179381Y-5603238D01*
X6188905Y-5584190D01*
X6198428Y-5574667D01*
X6217476Y-5565143D01*
X6246048Y-5565143D01*
X6265095Y-5574667D01*
X6274619Y-5584190D01*
X6284143Y-5603238D01*
X6284143Y-5660381D01*
X6274619Y-5679428D01*
X6265095Y-5688952D01*
X6246048Y-5698476D01*
X6217476Y-5698476D01*
X6398428Y-5698476D02*
X6379381Y-5688952D01*
X6369857Y-5669905D01*
X6369857Y-5498476D01*
X6550809Y-5688952D02*
X6531762Y-5698476D01*
X6493667Y-5698476D01*
X6474619Y-5688952D01*
X6465095Y-5669905D01*
X6465095Y-5593714D01*
X6474619Y-5574667D01*
X6493667Y-5565143D01*
X6531762Y-5565143D01*
X6550809Y-5574667D01*
X6560333Y-5593714D01*
X6560333Y-5612762D01*
X6465095Y-5631809D01*
X6636524Y-5688952D02*
X6655571Y-5698476D01*
X6693667Y-5698476D01*
X6712714Y-5688952D01*
X6722238Y-5669905D01*
X6722238Y-5660381D01*
X6712714Y-5641333D01*
X6693667Y-5631809D01*
X6665095Y-5631809D01*
X6646048Y-5622286D01*
X6636524Y-5603238D01*
X6636524Y-5593714D01*
X6646048Y-5574667D01*
X6665095Y-5565143D01*
X6693667Y-5565143D01*
X6712714Y-5574667D01*
X6788905Y-5774667D02*
X6798428Y-5765143D01*
X6817476Y-5736571D01*
X6827000Y-5717524D01*
X6836524Y-5688952D01*
X6846048Y-5641333D01*
X6846048Y-5603238D01*
X6836524Y-5555619D01*
X6827000Y-5527048D01*
X6817476Y-5508000D01*
X6798428Y-5479429D01*
X6788905Y-5469905D01*
D13*
X1952000Y-5807000D02*
X1952000Y-5937000D01*
X1887000Y-5872000D02*
X2017000Y-5872000D01*
D11*
X2379381Y-5962476D02*
X2265095Y-5962476D01*
X2322238Y-5962476D02*
X2322238Y-5762476D01*
X2303190Y-5791048D01*
X2284143Y-5810095D01*
X2265095Y-5819619D01*
X2465095Y-5943428D02*
X2474619Y-5952952D01*
X2465095Y-5962476D01*
X2455571Y-5952952D01*
X2465095Y-5943428D01*
X2465095Y-5962476D01*
X2541286Y-5762476D02*
X2665095Y-5762476D01*
X2598429Y-5838667D01*
X2627000Y-5838667D01*
X2646048Y-5848190D01*
X2655571Y-5857714D01*
X2665095Y-5876762D01*
X2665095Y-5924381D01*
X2655571Y-5943428D01*
X2646048Y-5952952D01*
X2627000Y-5962476D01*
X2569857Y-5962476D01*
X2550810Y-5952952D01*
X2541286Y-5943428D01*
X2788905Y-5762476D02*
X2807952Y-5762476D01*
X2827000Y-5772000D01*
X2836524Y-5781524D01*
X2846048Y-5800571D01*
X2855571Y-5838667D01*
X2855571Y-5886286D01*
X2846048Y-5924381D01*
X2836524Y-5943428D01*
X2827000Y-5952952D01*
X2807952Y-5962476D01*
X2788905Y-5962476D01*
X2769857Y-5952952D01*
X2760333Y-5943428D01*
X2750810Y-5924381D01*
X2741286Y-5886286D01*
X2741286Y-5838667D01*
X2750810Y-5800571D01*
X2760333Y-5781524D01*
X2769857Y-5772000D01*
X2788905Y-5762476D01*
X2979381Y-5762476D02*
X2998428Y-5762476D01*
X3017476Y-5772000D01*
X3027000Y-5781524D01*
X3036524Y-5800571D01*
X3046048Y-5838667D01*
X3046048Y-5886286D01*
X3036524Y-5924381D01*
X3027000Y-5943428D01*
X3017476Y-5952952D01*
X2998428Y-5962476D01*
X2979381Y-5962476D01*
X2960333Y-5952952D01*
X2950809Y-5943428D01*
X2941286Y-5924381D01*
X2931762Y-5886286D01*
X2931762Y-5838667D01*
X2941286Y-5800571D01*
X2950809Y-5781524D01*
X2960333Y-5772000D01*
X2979381Y-5762476D01*
X3131762Y-5962476D02*
X3131762Y-5829143D01*
X3131762Y-5848190D02*
X3141286Y-5838667D01*
X3160333Y-5829143D01*
X3188905Y-5829143D01*
X3207952Y-5838667D01*
X3217476Y-5857714D01*
X3217476Y-5962476D01*
X3217476Y-5857714D02*
X3227000Y-5838667D01*
X3246048Y-5829143D01*
X3274619Y-5829143D01*
X3293667Y-5838667D01*
X3303190Y-5857714D01*
X3303190Y-5962476D01*
X3398428Y-5962476D02*
X3398428Y-5829143D01*
X3398428Y-5848190D02*
X3407952Y-5838667D01*
X3427000Y-5829143D01*
X3455571Y-5829143D01*
X3474619Y-5838667D01*
X3484143Y-5857714D01*
X3484143Y-5962476D01*
X3484143Y-5857714D02*
X3493667Y-5838667D01*
X3512714Y-5829143D01*
X3541286Y-5829143D01*
X3560333Y-5838667D01*
X3569857Y-5857714D01*
X3569857Y-5962476D01*
X3960333Y-5752952D02*
X3788905Y-6010095D01*
X4217476Y-5762476D02*
X4236524Y-5762476D01*
X4255571Y-5772000D01*
X4265095Y-5781524D01*
X4274619Y-5800571D01*
X4284143Y-5838667D01*
X4284143Y-5886286D01*
X4274619Y-5924381D01*
X4265095Y-5943428D01*
X4255571Y-5952952D01*
X4236524Y-5962476D01*
X4217476Y-5962476D01*
X4198429Y-5952952D01*
X4188905Y-5943428D01*
X4179381Y-5924381D01*
X4169857Y-5886286D01*
X4169857Y-5838667D01*
X4179381Y-5800571D01*
X4188905Y-5781524D01*
X4198429Y-5772000D01*
X4217476Y-5762476D01*
X4369857Y-5943428D02*
X4379381Y-5952952D01*
X4369857Y-5962476D01*
X4360333Y-5952952D01*
X4369857Y-5943428D01*
X4369857Y-5962476D01*
X4503190Y-5762476D02*
X4522238Y-5762476D01*
X4541286Y-5772000D01*
X4550810Y-5781524D01*
X4560333Y-5800571D01*
X4569857Y-5838667D01*
X4569857Y-5886286D01*
X4560333Y-5924381D01*
X4550810Y-5943428D01*
X4541286Y-5952952D01*
X4522238Y-5962476D01*
X4503190Y-5962476D01*
X4484143Y-5952952D01*
X4474619Y-5943428D01*
X4465095Y-5924381D01*
X4455571Y-5886286D01*
X4455571Y-5838667D01*
X4465095Y-5800571D01*
X4474619Y-5781524D01*
X4484143Y-5772000D01*
X4503190Y-5762476D01*
X4750810Y-5762476D02*
X4655571Y-5762476D01*
X4646048Y-5857714D01*
X4655571Y-5848190D01*
X4674619Y-5838667D01*
X4722238Y-5838667D01*
X4741286Y-5848190D01*
X4750810Y-5857714D01*
X4760333Y-5876762D01*
X4760333Y-5924381D01*
X4750810Y-5943428D01*
X4741286Y-5952952D01*
X4722238Y-5962476D01*
X4674619Y-5962476D01*
X4655571Y-5952952D01*
X4646048Y-5943428D01*
X4950810Y-5962476D02*
X4836524Y-5962476D01*
X4893667Y-5962476D02*
X4893667Y-5762476D01*
X4874619Y-5791048D01*
X4855571Y-5810095D01*
X4836524Y-5819619D01*
X5027000Y-5781524D02*
X5036524Y-5772000D01*
X5055571Y-5762476D01*
X5103190Y-5762476D01*
X5122238Y-5772000D01*
X5131762Y-5781524D01*
X5141286Y-5800571D01*
X5141286Y-5819619D01*
X5131762Y-5848190D01*
X5017476Y-5962476D01*
X5141286Y-5962476D01*
X5217476Y-5762476D02*
X5217476Y-5800571D01*
X5293667Y-5762476D02*
X5293667Y-5800571D01*
X5588905Y-6038667D02*
X5579381Y-6029143D01*
X5560333Y-6000571D01*
X5550810Y-5981524D01*
X5541286Y-5952952D01*
X5531762Y-5905333D01*
X5531762Y-5867238D01*
X5541286Y-5819619D01*
X5550810Y-5791048D01*
X5560333Y-5772000D01*
X5579381Y-5743428D01*
X5588905Y-5733905D01*
X5750809Y-5829143D02*
X5750809Y-5962476D01*
X5703190Y-5752952D02*
X5655571Y-5895809D01*
X5779381Y-5895809D01*
X6007952Y-5962476D02*
X6007952Y-5762476D01*
X6093667Y-5962476D02*
X6093667Y-5857714D01*
X6084143Y-5838667D01*
X6065095Y-5829143D01*
X6036524Y-5829143D01*
X6017476Y-5838667D01*
X6007952Y-5848190D01*
X6217476Y-5962476D02*
X6198428Y-5952952D01*
X6188905Y-5943428D01*
X6179381Y-5924381D01*
X6179381Y-5867238D01*
X6188905Y-5848190D01*
X6198428Y-5838667D01*
X6217476Y-5829143D01*
X6246048Y-5829143D01*
X6265095Y-5838667D01*
X6274619Y-5848190D01*
X6284143Y-5867238D01*
X6284143Y-5924381D01*
X6274619Y-5943428D01*
X6265095Y-5952952D01*
X6246048Y-5962476D01*
X6217476Y-5962476D01*
X6398428Y-5962476D02*
X6379381Y-5952952D01*
X6369857Y-5933905D01*
X6369857Y-5762476D01*
X6550809Y-5952952D02*
X6531762Y-5962476D01*
X6493667Y-5962476D01*
X6474619Y-5952952D01*
X6465095Y-5933905D01*
X6465095Y-5857714D01*
X6474619Y-5838667D01*
X6493667Y-5829143D01*
X6531762Y-5829143D01*
X6550809Y-5838667D01*
X6560333Y-5857714D01*
X6560333Y-5876762D01*
X6465095Y-5895809D01*
X6636524Y-5952952D02*
X6655571Y-5962476D01*
X6693667Y-5962476D01*
X6712714Y-5952952D01*
X6722238Y-5933905D01*
X6722238Y-5924381D01*
X6712714Y-5905333D01*
X6693667Y-5895809D01*
X6665095Y-5895809D01*
X6646048Y-5886286D01*
X6636524Y-5867238D01*
X6636524Y-5857714D01*
X6646048Y-5838667D01*
X6665095Y-5829143D01*
X6693667Y-5829143D01*
X6712714Y-5838667D01*
X6788905Y-6038667D02*
X6798428Y-6029143D01*
X6817476Y-6000571D01*
X6827000Y-5981524D01*
X6836524Y-5952952D01*
X6846048Y-5905333D01*
X6846048Y-5867238D01*
X6836524Y-5819619D01*
X6827000Y-5791048D01*
X6817476Y-5772000D01*
X6798428Y-5743428D01*
X6788905Y-5733905D01*
M02*
