G04 #@! TF.GenerationSoftware,KiCad,Pcbnew,(6.0.7)*
G04 #@! TF.CreationDate,2022-10-10T17:08:23+03:00*
G04 #@! TF.ProjectId,DiLight_2.0,44694c69-6768-4745-9f32-2e302e6b6963,rev?*
G04 #@! TF.SameCoordinates,Original*
G04 #@! TF.FileFunction,Soldermask,Top*
G04 #@! TF.FilePolarity,Negative*
%FSLAX46Y46*%
G04 Gerber Fmt 4.6, Leading zero omitted, Abs format (unit mm)*
G04 Created by KiCad (PCBNEW (6.0.7)) date 2022-10-10 17:08:23*
%MOMM*%
%LPD*%
G01*
G04 APERTURE LIST*
G04 Aperture macros list*
%AMRoundRect*
0 Rectangle with rounded corners*
0 $1 Rounding radius*
0 $2 $3 $4 $5 $6 $7 $8 $9 X,Y pos of 4 corners*
0 Add a 4 corners polygon primitive as box body*
4,1,4,$2,$3,$4,$5,$6,$7,$8,$9,$2,$3,0*
0 Add four circle primitives for the rounded corners*
1,1,$1+$1,$2,$3*
1,1,$1+$1,$4,$5*
1,1,$1+$1,$6,$7*
1,1,$1+$1,$8,$9*
0 Add four rect primitives between the rounded corners*
20,1,$1+$1,$2,$3,$4,$5,0*
20,1,$1+$1,$4,$5,$6,$7,0*
20,1,$1+$1,$6,$7,$8,$9,0*
20,1,$1+$1,$8,$9,$2,$3,0*%
%AMFreePoly0*
4,1,14,0.230680,0.111820,0.364320,-0.021821,0.377500,-0.053642,0.377500,-0.080000,0.364320,-0.111820,0.332500,-0.125000,-0.332500,-0.125000,-0.364320,-0.111820,-0.377500,-0.080000,-0.377500,0.080000,-0.364320,0.111820,-0.332500,0.125000,0.198860,0.125000,0.230680,0.111820,0.230680,0.111820,$1*%
%AMFreePoly1*
4,1,14,0.364320,0.111820,0.377500,0.080000,0.377501,0.053640,0.364318,0.021819,0.230680,-0.111820,0.198860,-0.125000,-0.332500,-0.125000,-0.364320,-0.111820,-0.377500,-0.080000,-0.377500,0.080000,-0.364320,0.111820,-0.332500,0.125000,0.332500,0.125000,0.364320,0.111820,0.364320,0.111820,$1*%
%AMFreePoly2*
4,1,15,0.053642,0.377500,0.080000,0.377500,0.111820,0.364320,0.125000,0.332500,0.125000,-0.332500,0.111820,-0.364320,0.080000,-0.377500,-0.080000,-0.377500,-0.111820,-0.364320,-0.125000,-0.332500,-0.125000,0.198860,-0.111820,0.230680,0.021820,0.364320,0.053640,0.377501,0.053642,0.377500,0.053642,0.377500,$1*%
%AMFreePoly3*
4,1,14,-0.021820,0.364320,0.111820,0.230679,0.125000,0.198858,0.125000,-0.332500,0.111820,-0.364320,0.080000,-0.377500,-0.080000,-0.377500,-0.111820,-0.364320,-0.125000,-0.332500,-0.125000,0.332500,-0.111820,0.364320,-0.080000,0.377500,-0.053640,0.377500,-0.021820,0.364320,-0.021820,0.364320,$1*%
%AMFreePoly4*
4,1,14,0.364320,0.111820,0.377500,0.080000,0.377500,-0.080000,0.364320,-0.111820,0.332500,-0.125000,-0.198860,-0.125001,-0.230681,-0.111818,-0.364320,0.021820,-0.377500,0.053640,-0.377500,0.080000,-0.364320,0.111820,-0.332500,0.125000,0.332500,0.125000,0.364320,0.111820,0.364320,0.111820,$1*%
%AMFreePoly5*
4,1,15,-0.198858,0.125000,0.332500,0.125000,0.364320,0.111820,0.377500,0.080000,0.377500,-0.080000,0.364320,-0.111820,0.332500,-0.125000,-0.332500,-0.125000,-0.364320,-0.111820,-0.377500,-0.080000,-0.377500,-0.053640,-0.364320,-0.021820,-0.230680,0.111820,-0.198860,0.125001,-0.198858,0.125000,-0.198858,0.125000,$1*%
%AMFreePoly6*
4,1,14,0.111820,0.364320,0.125000,0.332500,0.125001,-0.198860,0.111818,-0.230681,-0.021820,-0.364320,-0.053640,-0.377500,-0.080000,-0.377500,-0.111820,-0.364320,-0.125000,-0.332500,-0.125000,0.332500,-0.111820,0.364320,-0.080000,0.377500,0.080000,0.377500,0.111820,0.364320,0.111820,0.364320,$1*%
%AMFreePoly7*
4,1,14,0.111820,0.364320,0.125000,0.332500,0.125000,-0.332500,0.111820,-0.364320,0.080000,-0.377500,0.053640,-0.377501,0.021819,-0.364318,-0.111820,-0.230680,-0.125000,-0.198860,-0.125000,0.332500,-0.111820,0.364320,-0.080000,0.377500,0.080000,0.377500,0.111820,0.364320,0.111820,0.364320,$1*%
G04 Aperture macros list end*
%ADD10R,1.700000X1.700000*%
%ADD11O,1.700000X1.700000*%
%ADD12RoundRect,0.250000X0.337500X0.475000X-0.337500X0.475000X-0.337500X-0.475000X0.337500X-0.475000X0*%
%ADD13C,2.200000*%
%ADD14R,2.400000X0.740000*%
%ADD15FreePoly0,0.000000*%
%ADD16RoundRect,0.062500X-0.375000X-0.062500X0.375000X-0.062500X0.375000X0.062500X-0.375000X0.062500X0*%
%ADD17FreePoly1,0.000000*%
%ADD18FreePoly2,0.000000*%
%ADD19RoundRect,0.062500X-0.062500X-0.375000X0.062500X-0.375000X0.062500X0.375000X-0.062500X0.375000X0*%
%ADD20FreePoly3,0.000000*%
%ADD21FreePoly4,0.000000*%
%ADD22FreePoly5,0.000000*%
%ADD23FreePoly6,0.000000*%
%ADD24FreePoly7,0.000000*%
%ADD25RoundRect,0.250000X-0.475000X0.337500X-0.475000X-0.337500X0.475000X-0.337500X0.475000X0.337500X0*%
%ADD26RoundRect,0.250000X-0.450000X0.350000X-0.450000X-0.350000X0.450000X-0.350000X0.450000X0.350000X0*%
%ADD27RoundRect,0.250000X-0.337500X-0.475000X0.337500X-0.475000X0.337500X0.475000X-0.337500X0.475000X0*%
%ADD28R,2.000000X1.500000*%
%ADD29R,2.000000X3.800000*%
%ADD30RoundRect,0.250000X-0.350000X-0.450000X0.350000X-0.450000X0.350000X0.450000X-0.350000X0.450000X0*%
%ADD31RoundRect,0.150000X-0.150000X0.675000X-0.150000X-0.675000X0.150000X-0.675000X0.150000X0.675000X0*%
%ADD32C,2.600000*%
G04 APERTURE END LIST*
D10*
X33035000Y-36830000D03*
D11*
X35575000Y-36830000D03*
X38115000Y-36830000D03*
D12*
X26437500Y-31750000D03*
X24362500Y-31750000D03*
D13*
X22320000Y-27940000D03*
D14*
X45130000Y-30480000D03*
X41230000Y-30480000D03*
X45130000Y-29210000D03*
X41230000Y-29210000D03*
X45130000Y-27940000D03*
X41230000Y-27940000D03*
X45130000Y-26670000D03*
X41230000Y-26670000D03*
X45130000Y-25400000D03*
X41230000Y-25400000D03*
X45130000Y-24130000D03*
X41230000Y-24130000D03*
X45130000Y-22860000D03*
X41230000Y-22860000D03*
D15*
X34832500Y-30250000D03*
D16*
X34892500Y-30750000D03*
X34892500Y-31250000D03*
X34892500Y-31750000D03*
X34892500Y-32250000D03*
X34892500Y-32750000D03*
D17*
X34832500Y-33250000D03*
D18*
X35330000Y-33747500D03*
D19*
X35830000Y-33687500D03*
X36330000Y-33687500D03*
X36830000Y-33687500D03*
X37330000Y-33687500D03*
X37830000Y-33687500D03*
D20*
X38330000Y-33747500D03*
D21*
X38827500Y-33250000D03*
D16*
X38767500Y-32750000D03*
X38767500Y-32250000D03*
X38767500Y-31750000D03*
X38767500Y-31250000D03*
X38767500Y-30750000D03*
D22*
X38827500Y-30250000D03*
D23*
X38330000Y-29752500D03*
D19*
X37830000Y-29812500D03*
X37330000Y-29812500D03*
X36830000Y-29812500D03*
X36330000Y-29812500D03*
X35830000Y-29812500D03*
D24*
X35330000Y-29752500D03*
D25*
X30480000Y-30712500D03*
X30480000Y-32787500D03*
D26*
X41275000Y-32655000D03*
X41275000Y-34655000D03*
D27*
X42142500Y-20955000D03*
X44217500Y-20955000D03*
D28*
X26060000Y-23735000D03*
D29*
X32360000Y-26035000D03*
D28*
X26060000Y-26035000D03*
X26060000Y-28335000D03*
D30*
X33925000Y-22225000D03*
X35925000Y-22225000D03*
X34920000Y-26035000D03*
X36920000Y-26035000D03*
D13*
X48820000Y-27940000D03*
D25*
X32385000Y-30712500D03*
X32385000Y-32787500D03*
D10*
X29210000Y-18415000D03*
D11*
X31750000Y-18415000D03*
X34290000Y-18415000D03*
X36830000Y-18415000D03*
X39370000Y-18415000D03*
X41910000Y-18415000D03*
D12*
X28977500Y-20955000D03*
X26902500Y-20955000D03*
D26*
X45085000Y-32655000D03*
X45085000Y-34655000D03*
D31*
X33655000Y-39920000D03*
X36195000Y-45170000D03*
X33655000Y-45170000D03*
X34925000Y-45170000D03*
X37465000Y-45170000D03*
X37465000Y-39920000D03*
X36195000Y-39920000D03*
X34925000Y-39920000D03*
D32*
X46220000Y-43775000D03*
X46220000Y-38775000D03*
X24900000Y-38775000D03*
X24900000Y-43775000D03*
M02*
