G04 #@! TF.GenerationSoftware,KiCad,Pcbnew,(6.0.7)*
G04 #@! TF.CreationDate,2022-08-26T11:00:59+03:00*
G04 #@! TF.ProjectId,DiLight_1.1,44694c69-6768-4745-9f31-2e312e6b6963,rev?*
G04 #@! TF.SameCoordinates,Original*
G04 #@! TF.FileFunction,Soldermask,Top*
G04 #@! TF.FilePolarity,Negative*
%FSLAX46Y46*%
G04 Gerber Fmt 4.6, Leading zero omitted, Abs format (unit mm)*
G04 Created by KiCad (PCBNEW (6.0.7)) date 2022-08-26 11:00:59*
%MOMM*%
%LPD*%
G01*
G04 APERTURE LIST*
G04 Aperture macros list*
%AMRoundRect*
0 Rectangle with rounded corners*
0 $1 Rounding radius*
0 $2 $3 $4 $5 $6 $7 $8 $9 X,Y pos of 4 corners*
0 Add a 4 corners polygon primitive as box body*
4,1,4,$2,$3,$4,$5,$6,$7,$8,$9,$2,$3,0*
0 Add four circle primitives for the rounded corners*
1,1,$1+$1,$2,$3*
1,1,$1+$1,$4,$5*
1,1,$1+$1,$6,$7*
1,1,$1+$1,$8,$9*
0 Add four rect primitives between the rounded corners*
20,1,$1+$1,$2,$3,$4,$5,0*
20,1,$1+$1,$4,$5,$6,$7,0*
20,1,$1+$1,$6,$7,$8,$9,0*
20,1,$1+$1,$8,$9,$2,$3,0*%
%AMFreePoly0*
4,1,14,0.230680,0.111820,0.364320,-0.021821,0.377500,-0.053642,0.377500,-0.080000,0.364320,-0.111820,0.332500,-0.125000,-0.332500,-0.125000,-0.364320,-0.111820,-0.377500,-0.080000,-0.377500,0.080000,-0.364320,0.111820,-0.332500,0.125000,0.198860,0.125000,0.230680,0.111820,0.230680,0.111820,$1*%
%AMFreePoly1*
4,1,14,0.364320,0.111820,0.377500,0.080000,0.377501,0.053640,0.364318,0.021819,0.230680,-0.111820,0.198860,-0.125000,-0.332500,-0.125000,-0.364320,-0.111820,-0.377500,-0.080000,-0.377500,0.080000,-0.364320,0.111820,-0.332500,0.125000,0.332500,0.125000,0.364320,0.111820,0.364320,0.111820,$1*%
%AMFreePoly2*
4,1,15,0.053642,0.377500,0.080000,0.377500,0.111820,0.364320,0.125000,0.332500,0.125000,-0.332500,0.111820,-0.364320,0.080000,-0.377500,-0.080000,-0.377500,-0.111820,-0.364320,-0.125000,-0.332500,-0.125000,0.198860,-0.111820,0.230680,0.021820,0.364320,0.053640,0.377501,0.053642,0.377500,0.053642,0.377500,$1*%
%AMFreePoly3*
4,1,14,-0.021820,0.364320,0.111820,0.230679,0.125000,0.198858,0.125000,-0.332500,0.111820,-0.364320,0.080000,-0.377500,-0.080000,-0.377500,-0.111820,-0.364320,-0.125000,-0.332500,-0.125000,0.332500,-0.111820,0.364320,-0.080000,0.377500,-0.053640,0.377500,-0.021820,0.364320,-0.021820,0.364320,$1*%
%AMFreePoly4*
4,1,14,0.364320,0.111820,0.377500,0.080000,0.377500,-0.080000,0.364320,-0.111820,0.332500,-0.125000,-0.198860,-0.125001,-0.230681,-0.111818,-0.364320,0.021820,-0.377500,0.053640,-0.377500,0.080000,-0.364320,0.111820,-0.332500,0.125000,0.332500,0.125000,0.364320,0.111820,0.364320,0.111820,$1*%
%AMFreePoly5*
4,1,15,-0.198858,0.125000,0.332500,0.125000,0.364320,0.111820,0.377500,0.080000,0.377500,-0.080000,0.364320,-0.111820,0.332500,-0.125000,-0.332500,-0.125000,-0.364320,-0.111820,-0.377500,-0.080000,-0.377500,-0.053640,-0.364320,-0.021820,-0.230680,0.111820,-0.198860,0.125001,-0.198858,0.125000,-0.198858,0.125000,$1*%
%AMFreePoly6*
4,1,14,0.111820,0.364320,0.125000,0.332500,0.125001,-0.198860,0.111818,-0.230681,-0.021820,-0.364320,-0.053640,-0.377500,-0.080000,-0.377500,-0.111820,-0.364320,-0.125000,-0.332500,-0.125000,0.332500,-0.111820,0.364320,-0.080000,0.377500,0.080000,0.377500,0.111820,0.364320,0.111820,0.364320,$1*%
%AMFreePoly7*
4,1,14,0.111820,0.364320,0.125000,0.332500,0.125000,-0.332500,0.111820,-0.364320,0.080000,-0.377500,0.053640,-0.377501,0.021819,-0.364318,-0.111820,-0.230680,-0.125000,-0.198860,-0.125000,0.332500,-0.111820,0.364320,-0.080000,0.377500,0.080000,0.377500,0.111820,0.364320,0.111820,0.364320,$1*%
G04 Aperture macros list end*
%ADD10RoundRect,0.250000X-0.475000X0.337500X-0.475000X-0.337500X0.475000X-0.337500X0.475000X0.337500X0*%
%ADD11RoundRect,0.250000X-0.350000X-0.450000X0.350000X-0.450000X0.350000X0.450000X-0.350000X0.450000X0*%
%ADD12C,2.200000*%
%ADD13RoundRect,0.250000X0.337500X0.475000X-0.337500X0.475000X-0.337500X-0.475000X0.337500X-0.475000X0*%
%ADD14R,1.500000X2.000000*%
%ADD15R,3.800000X2.000000*%
%ADD16RoundRect,0.250000X0.450000X-0.350000X0.450000X0.350000X-0.450000X0.350000X-0.450000X-0.350000X0*%
%ADD17R,1.700000X1.700000*%
%ADD18O,1.700000X1.700000*%
%ADD19R,2.200000X1.200000*%
%ADD20R,6.400000X5.800000*%
%ADD21R,2.600000X2.600000*%
%ADD22C,2.600000*%
%ADD23FreePoly0,0.000000*%
%ADD24RoundRect,0.062500X-0.375000X-0.062500X0.375000X-0.062500X0.375000X0.062500X-0.375000X0.062500X0*%
%ADD25FreePoly1,0.000000*%
%ADD26FreePoly2,0.000000*%
%ADD27RoundRect,0.062500X-0.062500X-0.375000X0.062500X-0.375000X0.062500X0.375000X-0.062500X0.375000X0*%
%ADD28FreePoly3,0.000000*%
%ADD29FreePoly4,0.000000*%
%ADD30FreePoly5,0.000000*%
%ADD31FreePoly6,0.000000*%
%ADD32FreePoly7,0.000000*%
%ADD33RoundRect,0.250000X0.350000X0.450000X-0.350000X0.450000X-0.350000X-0.450000X0.350000X-0.450000X0*%
%ADD34RoundRect,0.150000X-0.150000X0.675000X-0.150000X-0.675000X0.150000X-0.675000X0.150000X0.675000X0*%
%ADD35R,2.400000X0.740000*%
G04 APERTURE END LIST*
D10*
X27305000Y-25632500D03*
X27305000Y-27707500D03*
D11*
X39005000Y-24130000D03*
X41005000Y-24130000D03*
D12*
X17145000Y-50800000D03*
D13*
X18817500Y-29845000D03*
X16742500Y-29845000D03*
D14*
X15480000Y-27280000D03*
X17780000Y-27280000D03*
D15*
X17780000Y-20980000D03*
D14*
X20080000Y-27280000D03*
D11*
X27575000Y-20955000D03*
X29575000Y-20955000D03*
D12*
X48260000Y-50800000D03*
D16*
X34290000Y-21320000D03*
X34290000Y-19320000D03*
D17*
X26670000Y-16510000D03*
D18*
X29210000Y-16510000D03*
X31750000Y-16510000D03*
X34290000Y-16510000D03*
X36830000Y-16510000D03*
X39370000Y-16510000D03*
D11*
X27575000Y-29845000D03*
X29575000Y-29845000D03*
D16*
X36830000Y-21320000D03*
X36830000Y-19320000D03*
D12*
X48260000Y-17145000D03*
D17*
X24130000Y-24130000D03*
D18*
X24130000Y-26670000D03*
X24130000Y-29210000D03*
D19*
X28820000Y-34550000D03*
D20*
X35120000Y-36830000D03*
D19*
X28820000Y-39110000D03*
D21*
X18915000Y-34330000D03*
D22*
X18915000Y-39330000D03*
D21*
X46490000Y-39330000D03*
D22*
X46490000Y-34330000D03*
D10*
X29845000Y-25632500D03*
X29845000Y-27707500D03*
D11*
X39005000Y-28575000D03*
X41005000Y-28575000D03*
D21*
X24265000Y-51395000D03*
D22*
X24265000Y-46395000D03*
D16*
X39370000Y-21320000D03*
X39370000Y-19320000D03*
D23*
X32292500Y-26440000D03*
D24*
X32352500Y-26940000D03*
X32352500Y-27440000D03*
X32352500Y-27940000D03*
X32352500Y-28440000D03*
X32352500Y-28940000D03*
D25*
X32292500Y-29440000D03*
D26*
X32790000Y-29937500D03*
D27*
X33290000Y-29877500D03*
X33790000Y-29877500D03*
X34290000Y-29877500D03*
X34790000Y-29877500D03*
X35290000Y-29877500D03*
D28*
X35790000Y-29937500D03*
D29*
X36287500Y-29440000D03*
D24*
X36227500Y-28940000D03*
X36227500Y-28440000D03*
X36227500Y-27940000D03*
X36227500Y-27440000D03*
X36227500Y-26940000D03*
D30*
X36287500Y-26440000D03*
D31*
X35790000Y-25942500D03*
D27*
X35290000Y-26002500D03*
X34790000Y-26002500D03*
X34290000Y-26002500D03*
X33790000Y-26002500D03*
X33290000Y-26002500D03*
D32*
X32790000Y-25942500D03*
D33*
X35307381Y-31913878D03*
X33307381Y-31913878D03*
D34*
X39370000Y-44365000D03*
X43180000Y-49615000D03*
X40640000Y-49615000D03*
X41910000Y-49615000D03*
X39370000Y-49615000D03*
X43180000Y-44365000D03*
X40640000Y-44365000D03*
X41910000Y-44365000D03*
D12*
X17145000Y-17145000D03*
D35*
X48940000Y-28575000D03*
X45040000Y-28575000D03*
X48940000Y-27305000D03*
X45040000Y-27305000D03*
X48940000Y-26035000D03*
X45040000Y-26035000D03*
X48940000Y-24765000D03*
X45040000Y-24765000D03*
X48940000Y-23495000D03*
X45040000Y-23495000D03*
X48940000Y-22225000D03*
X45040000Y-22225000D03*
X48940000Y-20955000D03*
X45040000Y-20955000D03*
D11*
X39005000Y-26670000D03*
X41005000Y-26670000D03*
D16*
X31750000Y-21320000D03*
X31750000Y-19320000D03*
M02*
