G04 #@! TF.GenerationSoftware,KiCad,Pcbnew,(6.0.7)*
G04 #@! TF.CreationDate,2022-08-26T11:00:59+03:00*
G04 #@! TF.ProjectId,DiLight_1.1,44694c69-6768-4745-9f31-2e312e6b6963,rev?*
G04 #@! TF.SameCoordinates,Original*
G04 #@! TF.FileFunction,Copper,L2,Bot*
G04 #@! TF.FilePolarity,Positive*
%FSLAX46Y46*%
G04 Gerber Fmt 4.6, Leading zero omitted, Abs format (unit mm)*
G04 Created by KiCad (PCBNEW (6.0.7)) date 2022-08-26 11:00:59*
%MOMM*%
%LPD*%
G01*
G04 APERTURE LIST*
G04 Aperture macros list*
%AMRoundRect*
0 Rectangle with rounded corners*
0 $1 Rounding radius*
0 $2 $3 $4 $5 $6 $7 $8 $9 X,Y pos of 4 corners*
0 Add a 4 corners polygon primitive as box body*
4,1,4,$2,$3,$4,$5,$6,$7,$8,$9,$2,$3,0*
0 Add four circle primitives for the rounded corners*
1,1,$1+$1,$2,$3*
1,1,$1+$1,$4,$5*
1,1,$1+$1,$6,$7*
1,1,$1+$1,$8,$9*
0 Add four rect primitives between the rounded corners*
20,1,$1+$1,$2,$3,$4,$5,0*
20,1,$1+$1,$4,$5,$6,$7,0*
20,1,$1+$1,$6,$7,$8,$9,0*
20,1,$1+$1,$8,$9,$2,$3,0*%
G04 Aperture macros list end*
G04 #@! TA.AperFunction,ComponentPad*
%ADD10R,1.700000X1.700000*%
G04 #@! TD*
G04 #@! TA.AperFunction,ComponentPad*
%ADD11O,1.700000X1.700000*%
G04 #@! TD*
G04 #@! TA.AperFunction,ComponentPad*
%ADD12R,2.600000X2.600000*%
G04 #@! TD*
G04 #@! TA.AperFunction,ComponentPad*
%ADD13C,2.600000*%
G04 #@! TD*
G04 #@! TA.AperFunction,SMDPad,CuDef*
%ADD14RoundRect,0.250000X-0.450000X0.350000X-0.450000X-0.350000X0.450000X-0.350000X0.450000X0.350000X0*%
G04 #@! TD*
G04 #@! TA.AperFunction,SMDPad,CuDef*
%ADD15RoundRect,0.250000X-0.337500X-0.475000X0.337500X-0.475000X0.337500X0.475000X-0.337500X0.475000X0*%
G04 #@! TD*
G04 #@! TA.AperFunction,SMDPad,CuDef*
%ADD16RoundRect,0.250000X0.337500X0.475000X-0.337500X0.475000X-0.337500X-0.475000X0.337500X-0.475000X0*%
G04 #@! TD*
G04 #@! TA.AperFunction,SMDPad,CuDef*
%ADD17RoundRect,0.250000X0.450000X-0.350000X0.450000X0.350000X-0.450000X0.350000X-0.450000X-0.350000X0*%
G04 #@! TD*
G04 #@! TA.AperFunction,SMDPad,CuDef*
%ADD18RoundRect,0.250000X-0.350000X-0.450000X0.350000X-0.450000X0.350000X0.450000X-0.350000X0.450000X0*%
G04 #@! TD*
G04 #@! TA.AperFunction,ViaPad*
%ADD19C,0.600000*%
G04 #@! TD*
G04 #@! TA.AperFunction,Conductor*
%ADD20C,0.250000*%
G04 #@! TD*
G04 #@! TA.AperFunction,Conductor*
%ADD21C,0.500000*%
G04 #@! TD*
G04 #@! TA.AperFunction,Conductor*
%ADD22C,1.000000*%
G04 #@! TD*
G04 APERTURE END LIST*
D10*
X26670000Y-16510000D03*
D11*
X29210000Y-16510000D03*
X31750000Y-16510000D03*
X34290000Y-16510000D03*
X36830000Y-16510000D03*
X39370000Y-16510000D03*
D10*
X24130000Y-24130000D03*
D11*
X24130000Y-26670000D03*
X24130000Y-29210000D03*
D12*
X18915000Y-34330000D03*
D13*
X18915000Y-39330000D03*
D12*
X46490000Y-39330000D03*
D13*
X46490000Y-34330000D03*
D12*
X24265000Y-51395000D03*
D13*
X24265000Y-46395000D03*
D14*
X28575000Y-35830000D03*
X28575000Y-37830000D03*
D15*
X38967500Y-24130000D03*
X41042500Y-24130000D03*
D16*
X17547500Y-24130000D03*
X15472500Y-24130000D03*
D14*
X48895000Y-25670000D03*
X48895000Y-27670000D03*
X48895000Y-21225000D03*
X48895000Y-23225000D03*
D17*
X45085000Y-23225000D03*
X45085000Y-21225000D03*
D18*
X27575000Y-23495000D03*
X29575000Y-23495000D03*
D19*
X37465000Y-24130000D03*
X34290000Y-27305000D03*
X15875000Y-44450000D03*
X39370000Y-33020000D03*
X26974621Y-39057258D03*
X20955000Y-24765000D03*
X35560000Y-43815000D03*
X41910000Y-38100000D03*
X20955000Y-15875000D03*
X14605000Y-48260000D03*
X26035000Y-33020000D03*
X48260000Y-46355000D03*
X22225000Y-14605000D03*
X19685000Y-17145000D03*
X24130000Y-38735000D03*
X20955000Y-23495000D03*
X24765000Y-14605000D03*
X24130000Y-31750000D03*
X36830000Y-47625000D03*
X27305000Y-33020000D03*
X45720000Y-46355000D03*
X22225000Y-17145000D03*
X23495000Y-38100000D03*
X22225000Y-39370000D03*
X17145000Y-48260000D03*
X17145000Y-43180000D03*
X26035000Y-39370000D03*
X41275000Y-31750000D03*
X27360679Y-39805207D03*
X41275000Y-39370000D03*
X19685000Y-22860000D03*
X14605000Y-45720000D03*
X23495000Y-39370000D03*
X26670000Y-31750000D03*
X15471643Y-25350936D03*
X27940000Y-31750000D03*
X34290000Y-45085000D03*
X43815000Y-36830000D03*
X42545000Y-39370000D03*
X35560000Y-46355000D03*
X26035000Y-38735000D03*
X22225000Y-38100000D03*
X23495000Y-15875000D03*
X36830000Y-33020000D03*
X40640000Y-33020000D03*
X31245000Y-27940000D03*
X17145000Y-45720000D03*
X50800000Y-48895000D03*
X38100000Y-43815000D03*
X49530000Y-47625000D03*
X36830000Y-45085000D03*
X19685000Y-24130000D03*
X38100000Y-48895000D03*
X24765000Y-33020000D03*
X38100000Y-46355000D03*
X21590000Y-37465000D03*
X22225000Y-36830000D03*
X50800000Y-46355000D03*
X45720000Y-48895000D03*
X24765000Y-17145000D03*
X38100000Y-33020000D03*
X19685000Y-25400000D03*
X15875000Y-46990000D03*
X40005000Y-31750000D03*
X42545000Y-36830000D03*
X48260000Y-48260000D03*
X43180000Y-38100000D03*
X20955000Y-36830000D03*
X28567500Y-27707500D03*
X14605000Y-43180000D03*
X25400000Y-31750000D03*
X33020000Y-43815000D03*
X38735000Y-31750000D03*
X17780000Y-36830000D03*
X19685000Y-14605000D03*
X46990000Y-47625000D03*
X18415000Y-24130000D03*
X20320000Y-29845000D03*
X16510000Y-32385000D03*
X17145000Y-31750000D03*
X19685000Y-29845000D03*
X17780000Y-31115000D03*
X20955000Y-29845000D03*
X50800000Y-22225000D03*
X50800000Y-20955000D03*
X43180000Y-20955000D03*
X34290000Y-23495000D03*
X33294595Y-30610882D03*
X32394248Y-30606311D03*
X26972040Y-34552490D03*
D20*
X37465000Y-24130000D02*
X38967500Y-24130000D01*
X34290000Y-27305000D02*
X37465000Y-24130000D01*
D21*
X15472500Y-24130000D02*
X15472500Y-25350079D01*
X15472500Y-25350079D02*
X15471643Y-25350936D01*
X18415000Y-24130000D02*
X17547500Y-24130000D01*
X27575000Y-23495000D02*
X24765000Y-23495000D01*
X24765000Y-23495000D02*
X24130000Y-24130000D01*
D22*
X20320000Y-29845000D02*
X20955000Y-29845000D01*
X15875000Y-38100000D02*
X15875000Y-33020000D01*
X19050000Y-29845000D02*
X19685000Y-29845000D01*
X17145000Y-31750000D02*
X17780000Y-31115000D01*
X18915000Y-39330000D02*
X17105000Y-39330000D01*
X17105000Y-39330000D02*
X15875000Y-38100000D01*
X17780000Y-31115000D02*
X19050000Y-29845000D01*
X19685000Y-29845000D02*
X20320000Y-29845000D01*
X16510000Y-32385000D02*
X17145000Y-31750000D01*
X15875000Y-33020000D02*
X16510000Y-32385000D01*
D21*
X50800000Y-24765000D02*
X49895000Y-25670000D01*
X50800000Y-22225000D02*
X50800000Y-24765000D01*
X49895000Y-25670000D02*
X48895000Y-25670000D01*
X49165000Y-20955000D02*
X48895000Y-21225000D01*
X50800000Y-20955000D02*
X49165000Y-20955000D01*
X44815000Y-20955000D02*
X45085000Y-21225000D01*
X43180000Y-20955000D02*
X44815000Y-20955000D01*
D20*
X29575000Y-23495000D02*
X34290000Y-23495000D01*
X33294595Y-30610882D02*
X41509118Y-30610882D01*
X41509118Y-30610882D02*
X48895000Y-23225000D01*
X33790559Y-29210000D02*
X39100000Y-29210000D01*
X32394248Y-30606311D02*
X33790559Y-29210000D01*
X39100000Y-29210000D02*
X45085000Y-23225000D01*
D21*
X26972040Y-34552490D02*
X26972040Y-35227040D01*
X27575000Y-35830000D02*
X28575000Y-35830000D01*
X26972040Y-35227040D02*
X27575000Y-35830000D01*
G04 #@! TA.AperFunction,Conductor*
G36*
X48230018Y-13845000D02*
G01*
X48244851Y-13847310D01*
X48244855Y-13847310D01*
X48253724Y-13848691D01*
X48272436Y-13846244D01*
X48295366Y-13845353D01*
X48598503Y-13861240D01*
X48611617Y-13862618D01*
X48939898Y-13914613D01*
X48952798Y-13917355D01*
X49273846Y-14003379D01*
X49286382Y-14007453D01*
X49557468Y-14111513D01*
X49596672Y-14126562D01*
X49608720Y-14131926D01*
X49904867Y-14282820D01*
X49916288Y-14289414D01*
X50195040Y-14470437D01*
X50205710Y-14478190D01*
X50464004Y-14687352D01*
X50473805Y-14696177D01*
X50708823Y-14931195D01*
X50717648Y-14940996D01*
X50926810Y-15199290D01*
X50934563Y-15209960D01*
X51115586Y-15488712D01*
X51122180Y-15500133D01*
X51273074Y-15796280D01*
X51278438Y-15808328D01*
X51379155Y-16070702D01*
X51397545Y-16118610D01*
X51401620Y-16131152D01*
X51420293Y-16200838D01*
X51487645Y-16452202D01*
X51490387Y-16465102D01*
X51507515Y-16573240D01*
X51542382Y-16793383D01*
X51543760Y-16806500D01*
X51559262Y-17102298D01*
X51557935Y-17128273D01*
X51557691Y-17129843D01*
X51557691Y-17129849D01*
X51556309Y-17138724D01*
X51557473Y-17147626D01*
X51557473Y-17147628D01*
X51559398Y-17162344D01*
X51560316Y-17169362D01*
X51560436Y-17170283D01*
X51561500Y-17186621D01*
X51561500Y-20268667D01*
X51541498Y-20336788D01*
X51487842Y-20383281D01*
X51417568Y-20393385D01*
X51352988Y-20363891D01*
X51346094Y-20357451D01*
X51314778Y-20325915D01*
X51314774Y-20325912D01*
X51309815Y-20320918D01*
X51298697Y-20313862D01*
X51227480Y-20268667D01*
X51156666Y-20223727D01*
X51127463Y-20213328D01*
X50992425Y-20165243D01*
X50992420Y-20165242D01*
X50985790Y-20162881D01*
X50978802Y-20162048D01*
X50978799Y-20162047D01*
X50855698Y-20147368D01*
X50805680Y-20141404D01*
X50798677Y-20142140D01*
X50798676Y-20142140D01*
X50632288Y-20159628D01*
X50632286Y-20159629D01*
X50625288Y-20160364D01*
X50547852Y-20186725D01*
X50538884Y-20189778D01*
X50498279Y-20196500D01*
X49722862Y-20196500D01*
X49671270Y-20185062D01*
X49667738Y-20182885D01*
X49614549Y-20165243D01*
X49506389Y-20129368D01*
X49506387Y-20129368D01*
X49499861Y-20127203D01*
X49493025Y-20126503D01*
X49493022Y-20126502D01*
X49449969Y-20122091D01*
X49395400Y-20116500D01*
X48394600Y-20116500D01*
X48391354Y-20116837D01*
X48391350Y-20116837D01*
X48295692Y-20126762D01*
X48295688Y-20126763D01*
X48288834Y-20127474D01*
X48282298Y-20129655D01*
X48282296Y-20129655D01*
X48175627Y-20165243D01*
X48121054Y-20183450D01*
X47970652Y-20276522D01*
X47845695Y-20401697D01*
X47752885Y-20552262D01*
X47697203Y-20720139D01*
X47686500Y-20824600D01*
X47686500Y-21625400D01*
X47686837Y-21628646D01*
X47686837Y-21628650D01*
X47696281Y-21719667D01*
X47697474Y-21731166D01*
X47753450Y-21898946D01*
X47846522Y-22049348D01*
X47851704Y-22054521D01*
X47933109Y-22135784D01*
X47967188Y-22198066D01*
X47962185Y-22268886D01*
X47933264Y-22313975D01*
X47896722Y-22350581D01*
X47845695Y-22401697D01*
X47841855Y-22407927D01*
X47841854Y-22407928D01*
X47764596Y-22533264D01*
X47752885Y-22552262D01*
X47746439Y-22571697D01*
X47709807Y-22682140D01*
X47697203Y-22720139D01*
X47696503Y-22726975D01*
X47696502Y-22726978D01*
X47695145Y-22740222D01*
X47686500Y-22824600D01*
X47686500Y-23485405D01*
X47666498Y-23553526D01*
X47649595Y-23574500D01*
X41283618Y-29940477D01*
X41221306Y-29974503D01*
X41194523Y-29977382D01*
X39509352Y-29977382D01*
X39441231Y-29957380D01*
X39394738Y-29903724D01*
X39384634Y-29833450D01*
X39414128Y-29768870D01*
X39435294Y-29749444D01*
X39443389Y-29743563D01*
X39453307Y-29737048D01*
X39484535Y-29718580D01*
X39484538Y-29718578D01*
X39491362Y-29714542D01*
X39505683Y-29700221D01*
X39520717Y-29687380D01*
X39530694Y-29680131D01*
X39537107Y-29675472D01*
X39565298Y-29641395D01*
X39573288Y-29632616D01*
X44835499Y-24370405D01*
X44897811Y-24336379D01*
X44924594Y-24333500D01*
X45585400Y-24333500D01*
X45588646Y-24333163D01*
X45588650Y-24333163D01*
X45684308Y-24323238D01*
X45684312Y-24323237D01*
X45691166Y-24322526D01*
X45697702Y-24320345D01*
X45697704Y-24320345D01*
X45851998Y-24268868D01*
X45858946Y-24266550D01*
X46009348Y-24173478D01*
X46033716Y-24149068D01*
X46129134Y-24053483D01*
X46134305Y-24048303D01*
X46227115Y-23897738D01*
X46282797Y-23729861D01*
X46293500Y-23625400D01*
X46293500Y-22824600D01*
X46288979Y-22781029D01*
X46283238Y-22725692D01*
X46283237Y-22725688D01*
X46282526Y-22718834D01*
X46276926Y-22702047D01*
X46228868Y-22558002D01*
X46226550Y-22551054D01*
X46133478Y-22400652D01*
X46046891Y-22314216D01*
X46012812Y-22251934D01*
X46017815Y-22181114D01*
X46046736Y-22136025D01*
X46129134Y-22053483D01*
X46134305Y-22048303D01*
X46227115Y-21897738D01*
X46270213Y-21767800D01*
X46280632Y-21736389D01*
X46280632Y-21736387D01*
X46282797Y-21729861D01*
X46283842Y-21719667D01*
X46293172Y-21628598D01*
X46293500Y-21625400D01*
X46293500Y-20824600D01*
X46282526Y-20718834D01*
X46226550Y-20551054D01*
X46133478Y-20400652D01*
X46008303Y-20275695D01*
X45996902Y-20268667D01*
X45863968Y-20186725D01*
X45863966Y-20186724D01*
X45857738Y-20182885D01*
X45777995Y-20156436D01*
X45696389Y-20129368D01*
X45696387Y-20129368D01*
X45689861Y-20127203D01*
X45683025Y-20126503D01*
X45683022Y-20126502D01*
X45639969Y-20122091D01*
X45585400Y-20116500D01*
X44584600Y-20116500D01*
X44581354Y-20116837D01*
X44581350Y-20116837D01*
X44485692Y-20126762D01*
X44485688Y-20126763D01*
X44478834Y-20127474D01*
X44472298Y-20129655D01*
X44472296Y-20129655D01*
X44317998Y-20181133D01*
X44317996Y-20181134D01*
X44311054Y-20183450D01*
X44308406Y-20185089D01*
X44257144Y-20196500D01*
X43481966Y-20196500D01*
X43439699Y-20189199D01*
X43432752Y-20186725D01*
X43414790Y-20180329D01*
X43372424Y-20165243D01*
X43372422Y-20165242D01*
X43365790Y-20162881D01*
X43358802Y-20162048D01*
X43358799Y-20162047D01*
X43235698Y-20147368D01*
X43185680Y-20141404D01*
X43178677Y-20142140D01*
X43178676Y-20142140D01*
X43012288Y-20159628D01*
X43012286Y-20159629D01*
X43005288Y-20160364D01*
X42833579Y-20218818D01*
X42827575Y-20222512D01*
X42685095Y-20310166D01*
X42685092Y-20310168D01*
X42679088Y-20313862D01*
X42674053Y-20318793D01*
X42674050Y-20318795D01*
X42590461Y-20400652D01*
X42549493Y-20440771D01*
X42451235Y-20593238D01*
X42448826Y-20599858D01*
X42448824Y-20599861D01*
X42403025Y-20725692D01*
X42389197Y-20763685D01*
X42366463Y-20943640D01*
X42384163Y-21124160D01*
X42441418Y-21296273D01*
X42535380Y-21451424D01*
X42661382Y-21581902D01*
X42813159Y-21681222D01*
X42819763Y-21683678D01*
X42819765Y-21683679D01*
X42976558Y-21741990D01*
X42976560Y-21741990D01*
X42983168Y-21744448D01*
X43066995Y-21755633D01*
X43155980Y-21767507D01*
X43155984Y-21767507D01*
X43162961Y-21768438D01*
X43169972Y-21767800D01*
X43169976Y-21767800D01*
X43312459Y-21754832D01*
X43343600Y-21751998D01*
X43350302Y-21749820D01*
X43350304Y-21749820D01*
X43443105Y-21719667D01*
X43482041Y-21713500D01*
X43790789Y-21713500D01*
X43858910Y-21733502D01*
X43905403Y-21787158D01*
X43910312Y-21799623D01*
X43934943Y-21873448D01*
X43943450Y-21898946D01*
X44036522Y-22049348D01*
X44041704Y-22054521D01*
X44123109Y-22135784D01*
X44157188Y-22198066D01*
X44152185Y-22268886D01*
X44123264Y-22313975D01*
X44086722Y-22350581D01*
X44035695Y-22401697D01*
X44031855Y-22407927D01*
X44031854Y-22407928D01*
X43954596Y-22533264D01*
X43942885Y-22552262D01*
X43936439Y-22571697D01*
X43899807Y-22682140D01*
X43887203Y-22720139D01*
X43886503Y-22726975D01*
X43886502Y-22726978D01*
X43885145Y-22740222D01*
X43876500Y-22824600D01*
X43876500Y-23485405D01*
X43856498Y-23553526D01*
X43839595Y-23574500D01*
X38874500Y-28539595D01*
X38812188Y-28573621D01*
X38785405Y-28576500D01*
X33869326Y-28576500D01*
X33858143Y-28575973D01*
X33850650Y-28574298D01*
X33842724Y-28574547D01*
X33842723Y-28574547D01*
X33782560Y-28576438D01*
X33778602Y-28576500D01*
X33750703Y-28576500D01*
X33746713Y-28577004D01*
X33734879Y-28577936D01*
X33690670Y-28579326D01*
X33683056Y-28581538D01*
X33683051Y-28581539D01*
X33671218Y-28584977D01*
X33651855Y-28588988D01*
X33631762Y-28591526D01*
X33624395Y-28594443D01*
X33624390Y-28594444D01*
X33590651Y-28607802D01*
X33579424Y-28611646D01*
X33536966Y-28623982D01*
X33530140Y-28628019D01*
X33519531Y-28634293D01*
X33501783Y-28642988D01*
X33482942Y-28650448D01*
X33476526Y-28655110D01*
X33476525Y-28655110D01*
X33447172Y-28676436D01*
X33437252Y-28682952D01*
X33406024Y-28701420D01*
X33406021Y-28701422D01*
X33399197Y-28705458D01*
X33384876Y-28719779D01*
X33369843Y-28732619D01*
X33353452Y-28744528D01*
X33325261Y-28778605D01*
X33317271Y-28787384D01*
X32333156Y-29771498D01*
X32270844Y-29805524D01*
X32257234Y-29807713D01*
X32248458Y-29808635D01*
X32226536Y-29810939D01*
X32226534Y-29810939D01*
X32219536Y-29811675D01*
X32047827Y-29870129D01*
X32041823Y-29873823D01*
X31899343Y-29961477D01*
X31899340Y-29961479D01*
X31893336Y-29965173D01*
X31888301Y-29970104D01*
X31888298Y-29970106D01*
X31801962Y-30054653D01*
X31763741Y-30092082D01*
X31665483Y-30244549D01*
X31663074Y-30251169D01*
X31663072Y-30251172D01*
X31606627Y-30406254D01*
X31603445Y-30414996D01*
X31580711Y-30594951D01*
X31598411Y-30775471D01*
X31655666Y-30947584D01*
X31659313Y-30953606D01*
X31659314Y-30953608D01*
X31744392Y-31094089D01*
X31749628Y-31102735D01*
X31754517Y-31107798D01*
X31754518Y-31107799D01*
X31822203Y-31177888D01*
X31875630Y-31233213D01*
X31895683Y-31246335D01*
X32010020Y-31321155D01*
X32027407Y-31332533D01*
X32034011Y-31334989D01*
X32034013Y-31334990D01*
X32190806Y-31393301D01*
X32190808Y-31393301D01*
X32197416Y-31395759D01*
X32271934Y-31405702D01*
X32370228Y-31418818D01*
X32370232Y-31418818D01*
X32377209Y-31419749D01*
X32384220Y-31419111D01*
X32384224Y-31419111D01*
X32531554Y-31405702D01*
X32557848Y-31403309D01*
X32564550Y-31401131D01*
X32564552Y-31401131D01*
X32723657Y-31349435D01*
X32723660Y-31349434D01*
X32730356Y-31347258D01*
X32774145Y-31321155D01*
X32842898Y-31303455D01*
X32907654Y-31323952D01*
X32921856Y-31333245D01*
X32921859Y-31333247D01*
X32927754Y-31337104D01*
X32934358Y-31339560D01*
X33091153Y-31397872D01*
X33091155Y-31397872D01*
X33097763Y-31400330D01*
X33181590Y-31411515D01*
X33270575Y-31423389D01*
X33270579Y-31423389D01*
X33277556Y-31424320D01*
X33284567Y-31423682D01*
X33284571Y-31423682D01*
X33427054Y-31410714D01*
X33458195Y-31407880D01*
X33464897Y-31405702D01*
X33464899Y-31405702D01*
X33624004Y-31354006D01*
X33624007Y-31354005D01*
X33630703Y-31351829D01*
X33781135Y-31262153D01*
X33845653Y-31244382D01*
X41430351Y-31244382D01*
X41441534Y-31244909D01*
X41449027Y-31246584D01*
X41456953Y-31246335D01*
X41456954Y-31246335D01*
X41517104Y-31244444D01*
X41521063Y-31244382D01*
X41548974Y-31244382D01*
X41552909Y-31243885D01*
X41552974Y-31243877D01*
X41564811Y-31242944D01*
X41597069Y-31241930D01*
X41601088Y-31241804D01*
X41609007Y-31241555D01*
X41628461Y-31235903D01*
X41647818Y-31231895D01*
X41660048Y-31230350D01*
X41660049Y-31230350D01*
X41667915Y-31229356D01*
X41675286Y-31226437D01*
X41675288Y-31226437D01*
X41709030Y-31213078D01*
X41720260Y-31209233D01*
X41755101Y-31199111D01*
X41755102Y-31199111D01*
X41762711Y-31196900D01*
X41769530Y-31192867D01*
X41769535Y-31192865D01*
X41780146Y-31186589D01*
X41797894Y-31177894D01*
X41816735Y-31170434D01*
X41852505Y-31144446D01*
X41862425Y-31137930D01*
X41893653Y-31119462D01*
X41893656Y-31119460D01*
X41900480Y-31115424D01*
X41914801Y-31101103D01*
X41929835Y-31088262D01*
X41939812Y-31081013D01*
X41946225Y-31076354D01*
X41974416Y-31042277D01*
X41982406Y-31033498D01*
X44948809Y-28067095D01*
X47687001Y-28067095D01*
X47687338Y-28073614D01*
X47697257Y-28169206D01*
X47700149Y-28182600D01*
X47751588Y-28336784D01*
X47757761Y-28349962D01*
X47843063Y-28487807D01*
X47852099Y-28499208D01*
X47966829Y-28613739D01*
X47978240Y-28622751D01*
X48116243Y-28707816D01*
X48129424Y-28713963D01*
X48283710Y-28765138D01*
X48297086Y-28768005D01*
X48391438Y-28777672D01*
X48397854Y-28778000D01*
X48622885Y-28778000D01*
X48638124Y-28773525D01*
X48639329Y-28772135D01*
X48641000Y-28764452D01*
X48641000Y-28759884D01*
X49149000Y-28759884D01*
X49153475Y-28775123D01*
X49154865Y-28776328D01*
X49162548Y-28777999D01*
X49392095Y-28777999D01*
X49398614Y-28777662D01*
X49494206Y-28767743D01*
X49507600Y-28764851D01*
X49661784Y-28713412D01*
X49674962Y-28707239D01*
X49812807Y-28621937D01*
X49824208Y-28612901D01*
X49938739Y-28498171D01*
X49947751Y-28486760D01*
X50032816Y-28348757D01*
X50038963Y-28335576D01*
X50090138Y-28181290D01*
X50093005Y-28167914D01*
X50102672Y-28073562D01*
X50103000Y-28067146D01*
X50103000Y-27942115D01*
X50098525Y-27926876D01*
X50097135Y-27925671D01*
X50089452Y-27924000D01*
X49167115Y-27924000D01*
X49151876Y-27928475D01*
X49150671Y-27929865D01*
X49149000Y-27937548D01*
X49149000Y-28759884D01*
X48641000Y-28759884D01*
X48641000Y-27942115D01*
X48636525Y-27926876D01*
X48635135Y-27925671D01*
X48627452Y-27924000D01*
X47705116Y-27924000D01*
X47689877Y-27928475D01*
X47688672Y-27929865D01*
X47687001Y-27937548D01*
X47687001Y-28067095D01*
X44948809Y-28067095D01*
X47471405Y-25544499D01*
X47533717Y-25510473D01*
X47604532Y-25515538D01*
X47661368Y-25558085D01*
X47686179Y-25624605D01*
X47686500Y-25633594D01*
X47686500Y-26070400D01*
X47697474Y-26176166D01*
X47699655Y-26182702D01*
X47699655Y-26182704D01*
X47724061Y-26255856D01*
X47753450Y-26343946D01*
X47846522Y-26494348D01*
X47851704Y-26499521D01*
X47933463Y-26581138D01*
X47967542Y-26643421D01*
X47962539Y-26714241D01*
X47933618Y-26759329D01*
X47851261Y-26841829D01*
X47842249Y-26853240D01*
X47757184Y-26991243D01*
X47751037Y-27004424D01*
X47699862Y-27158710D01*
X47696995Y-27172086D01*
X47687328Y-27266438D01*
X47687000Y-27272855D01*
X47687000Y-27397885D01*
X47691475Y-27413124D01*
X47692865Y-27414329D01*
X47700548Y-27416000D01*
X50084884Y-27416000D01*
X50100123Y-27411525D01*
X50101328Y-27410135D01*
X50102999Y-27402452D01*
X50102999Y-27272905D01*
X50102662Y-27266386D01*
X50092743Y-27170794D01*
X50089851Y-27157400D01*
X50038412Y-27003216D01*
X50032239Y-26990038D01*
X49946937Y-26852193D01*
X49937901Y-26840792D01*
X49856538Y-26759570D01*
X49822459Y-26697287D01*
X49827462Y-26626467D01*
X49856383Y-26581380D01*
X49939130Y-26498488D01*
X49939134Y-26498483D01*
X49944305Y-26493303D01*
X49948148Y-26487069D01*
X49954371Y-26476974D01*
X50007144Y-26429481D01*
X50036941Y-26419533D01*
X50037338Y-26419454D01*
X50044637Y-26418860D01*
X50051601Y-26416604D01*
X50057571Y-26415411D01*
X50063418Y-26414029D01*
X50070681Y-26413182D01*
X50139327Y-26388265D01*
X50143455Y-26386848D01*
X50205936Y-26366607D01*
X50205938Y-26366606D01*
X50212899Y-26364351D01*
X50219154Y-26360555D01*
X50224628Y-26358049D01*
X50230058Y-26355330D01*
X50236937Y-26352833D01*
X50297976Y-26312814D01*
X50301680Y-26310477D01*
X50364107Y-26272595D01*
X50372484Y-26265197D01*
X50372508Y-26265224D01*
X50375500Y-26262571D01*
X50378733Y-26259868D01*
X50384852Y-26255856D01*
X50438128Y-26199617D01*
X50440506Y-26197175D01*
X51288911Y-25348770D01*
X51303323Y-25336384D01*
X51314918Y-25327851D01*
X51314923Y-25327846D01*
X51320818Y-25323508D01*
X51339477Y-25301545D01*
X51398823Y-25262582D01*
X51469816Y-25261889D01*
X51529914Y-25299688D01*
X51560036Y-25363977D01*
X51561500Y-25383126D01*
X51561500Y-50750633D01*
X51560000Y-50770018D01*
X51557690Y-50784851D01*
X51557690Y-50784855D01*
X51556309Y-50793724D01*
X51557775Y-50804930D01*
X51558756Y-50812433D01*
X51559647Y-50835366D01*
X51543780Y-51138124D01*
X51543760Y-51138501D01*
X51542382Y-51151617D01*
X51490387Y-51479898D01*
X51487645Y-51492798D01*
X51419164Y-51748376D01*
X51401621Y-51813846D01*
X51397547Y-51826382D01*
X51337398Y-51983076D01*
X51278438Y-52136672D01*
X51273074Y-52148720D01*
X51122180Y-52444867D01*
X51115586Y-52456288D01*
X50934563Y-52735040D01*
X50926810Y-52745710D01*
X50717648Y-53004004D01*
X50708823Y-53013805D01*
X50473805Y-53248823D01*
X50464004Y-53257648D01*
X50205710Y-53466810D01*
X50195040Y-53474563D01*
X49916288Y-53655586D01*
X49904867Y-53662180D01*
X49608720Y-53813074D01*
X49596671Y-53818438D01*
X49286382Y-53937547D01*
X49273846Y-53941621D01*
X48952798Y-54027645D01*
X48939898Y-54030387D01*
X48611617Y-54082382D01*
X48598501Y-54083760D01*
X48564848Y-54085524D01*
X48302702Y-54099262D01*
X48276727Y-54097935D01*
X48275157Y-54097691D01*
X48275151Y-54097691D01*
X48266276Y-54096309D01*
X48257374Y-54097473D01*
X48257372Y-54097473D01*
X48242323Y-54099441D01*
X48234714Y-54100436D01*
X48218379Y-54101500D01*
X17194367Y-54101500D01*
X17174982Y-54100000D01*
X17160149Y-54097690D01*
X17160145Y-54097690D01*
X17151276Y-54096309D01*
X17132564Y-54098756D01*
X17109634Y-54099647D01*
X16806497Y-54083760D01*
X16793383Y-54082382D01*
X16465102Y-54030387D01*
X16452202Y-54027645D01*
X16131154Y-53941621D01*
X16118618Y-53937547D01*
X15808329Y-53818438D01*
X15796280Y-53813074D01*
X15500133Y-53662180D01*
X15488712Y-53655586D01*
X15209960Y-53474563D01*
X15199290Y-53466810D01*
X14940996Y-53257648D01*
X14931195Y-53248823D01*
X14696177Y-53013805D01*
X14687352Y-53004004D01*
X14478190Y-52745710D01*
X14473801Y-52739669D01*
X22457001Y-52739669D01*
X22457371Y-52746490D01*
X22462895Y-52797352D01*
X22466521Y-52812604D01*
X22511676Y-52933054D01*
X22520214Y-52948649D01*
X22596715Y-53050724D01*
X22609276Y-53063285D01*
X22711351Y-53139786D01*
X22726946Y-53148324D01*
X22847394Y-53193478D01*
X22862649Y-53197105D01*
X22913514Y-53202631D01*
X22920328Y-53203000D01*
X23992885Y-53203000D01*
X24008124Y-53198525D01*
X24009329Y-53197135D01*
X24011000Y-53189452D01*
X24011000Y-53184884D01*
X24519000Y-53184884D01*
X24523475Y-53200123D01*
X24524865Y-53201328D01*
X24532548Y-53202999D01*
X25609669Y-53202999D01*
X25616490Y-53202629D01*
X25667352Y-53197105D01*
X25682604Y-53193479D01*
X25803054Y-53148324D01*
X25818649Y-53139786D01*
X25920724Y-53063285D01*
X25933285Y-53050724D01*
X26009786Y-52948649D01*
X26018324Y-52933054D01*
X26063478Y-52812606D01*
X26067105Y-52797351D01*
X26072631Y-52746486D01*
X26073000Y-52739672D01*
X26073000Y-51667115D01*
X26068525Y-51651876D01*
X26067135Y-51650671D01*
X26059452Y-51649000D01*
X24537115Y-51649000D01*
X24521876Y-51653475D01*
X24520671Y-51654865D01*
X24519000Y-51662548D01*
X24519000Y-53184884D01*
X24011000Y-53184884D01*
X24011000Y-51667115D01*
X24006525Y-51651876D01*
X24005135Y-51650671D01*
X23997452Y-51649000D01*
X22475116Y-51649000D01*
X22459877Y-51653475D01*
X22458672Y-51654865D01*
X22457001Y-51662548D01*
X22457001Y-52739669D01*
X14473801Y-52739669D01*
X14470437Y-52735040D01*
X14289414Y-52456288D01*
X14282820Y-52444867D01*
X14131926Y-52148720D01*
X14126562Y-52136672D01*
X14067602Y-51983076D01*
X14007453Y-51826382D01*
X14003379Y-51813846D01*
X13985837Y-51748376D01*
X13917355Y-51492798D01*
X13914613Y-51479898D01*
X13862618Y-51151617D01*
X13861240Y-51138501D01*
X13861220Y-51138124D01*
X13845932Y-50846413D01*
X13847506Y-50818910D01*
X13847770Y-50817341D01*
X13848576Y-50812552D01*
X13848729Y-50800000D01*
X15531526Y-50800000D01*
X15551391Y-51052403D01*
X15552545Y-51057210D01*
X15552546Y-51057216D01*
X15575210Y-51151617D01*
X15610495Y-51298591D01*
X15612388Y-51303162D01*
X15612389Y-51303164D01*
X15685595Y-51479898D01*
X15707384Y-51532502D01*
X15839672Y-51748376D01*
X16004102Y-51940898D01*
X16196624Y-52105328D01*
X16412498Y-52237616D01*
X16417068Y-52239509D01*
X16417072Y-52239511D01*
X16641836Y-52332611D01*
X16646409Y-52334505D01*
X16731032Y-52354821D01*
X16887784Y-52392454D01*
X16887790Y-52392455D01*
X16892597Y-52393609D01*
X16992416Y-52401465D01*
X17079345Y-52408307D01*
X17079352Y-52408307D01*
X17081801Y-52408500D01*
X17208199Y-52408500D01*
X17210648Y-52408307D01*
X17210655Y-52408307D01*
X17297584Y-52401465D01*
X17397403Y-52393609D01*
X17402210Y-52392455D01*
X17402216Y-52392454D01*
X17558968Y-52354821D01*
X17643591Y-52334505D01*
X17648164Y-52332611D01*
X17872928Y-52239511D01*
X17872932Y-52239509D01*
X17877502Y-52237616D01*
X18093376Y-52105328D01*
X18285898Y-51940898D01*
X18450328Y-51748376D01*
X18582616Y-51532502D01*
X18604406Y-51479898D01*
X18677611Y-51303164D01*
X18677612Y-51303162D01*
X18679505Y-51298591D01*
X18714790Y-51151617D01*
X18721688Y-51122885D01*
X22457000Y-51122885D01*
X22461475Y-51138124D01*
X22462865Y-51139329D01*
X22470548Y-51141000D01*
X23992885Y-51141000D01*
X24008124Y-51136525D01*
X24009329Y-51135135D01*
X24011000Y-51127452D01*
X24011000Y-51122885D01*
X24519000Y-51122885D01*
X24523475Y-51138124D01*
X24524865Y-51139329D01*
X24532548Y-51141000D01*
X26054884Y-51141000D01*
X26070123Y-51136525D01*
X26071328Y-51135135D01*
X26072999Y-51127452D01*
X26072999Y-50800000D01*
X46646526Y-50800000D01*
X46666391Y-51052403D01*
X46667545Y-51057210D01*
X46667546Y-51057216D01*
X46690210Y-51151617D01*
X46725495Y-51298591D01*
X46727388Y-51303162D01*
X46727389Y-51303164D01*
X46800595Y-51479898D01*
X46822384Y-51532502D01*
X46954672Y-51748376D01*
X47119102Y-51940898D01*
X47311624Y-52105328D01*
X47527498Y-52237616D01*
X47532068Y-52239509D01*
X47532072Y-52239511D01*
X47756836Y-52332611D01*
X47761409Y-52334505D01*
X47846032Y-52354821D01*
X48002784Y-52392454D01*
X48002790Y-52392455D01*
X48007597Y-52393609D01*
X48107416Y-52401465D01*
X48194345Y-52408307D01*
X48194352Y-52408307D01*
X48196801Y-52408500D01*
X48323199Y-52408500D01*
X48325648Y-52408307D01*
X48325655Y-52408307D01*
X48412584Y-52401465D01*
X48512403Y-52393609D01*
X48517210Y-52392455D01*
X48517216Y-52392454D01*
X48673968Y-52354821D01*
X48758591Y-52334505D01*
X48763164Y-52332611D01*
X48987928Y-52239511D01*
X48987932Y-52239509D01*
X48992502Y-52237616D01*
X49208376Y-52105328D01*
X49400898Y-51940898D01*
X49565328Y-51748376D01*
X49697616Y-51532502D01*
X49719406Y-51479898D01*
X49792611Y-51303164D01*
X49792612Y-51303162D01*
X49794505Y-51298591D01*
X49829790Y-51151617D01*
X49852454Y-51057216D01*
X49852455Y-51057210D01*
X49853609Y-51052403D01*
X49873474Y-50800000D01*
X49853609Y-50547597D01*
X49794505Y-50301409D01*
X49697616Y-50067498D01*
X49565328Y-49851624D01*
X49400898Y-49659102D01*
X49208376Y-49494672D01*
X48992502Y-49362384D01*
X48987932Y-49360491D01*
X48987928Y-49360489D01*
X48763164Y-49267389D01*
X48763162Y-49267388D01*
X48758591Y-49265495D01*
X48673968Y-49245179D01*
X48517216Y-49207546D01*
X48517210Y-49207545D01*
X48512403Y-49206391D01*
X48412584Y-49198535D01*
X48325655Y-49191693D01*
X48325648Y-49191693D01*
X48323199Y-49191500D01*
X48196801Y-49191500D01*
X48194352Y-49191693D01*
X48194345Y-49191693D01*
X48107416Y-49198535D01*
X48007597Y-49206391D01*
X48002790Y-49207545D01*
X48002784Y-49207546D01*
X47846032Y-49245179D01*
X47761409Y-49265495D01*
X47756838Y-49267388D01*
X47756836Y-49267389D01*
X47532072Y-49360489D01*
X47532068Y-49360491D01*
X47527498Y-49362384D01*
X47311624Y-49494672D01*
X47119102Y-49659102D01*
X46954672Y-49851624D01*
X46822384Y-50067498D01*
X46725495Y-50301409D01*
X46666391Y-50547597D01*
X46646526Y-50800000D01*
X26072999Y-50800000D01*
X26072999Y-50050331D01*
X26072629Y-50043510D01*
X26067105Y-49992648D01*
X26063479Y-49977396D01*
X26018324Y-49856946D01*
X26009786Y-49841351D01*
X25933285Y-49739276D01*
X25920724Y-49726715D01*
X25818649Y-49650214D01*
X25803054Y-49641676D01*
X25682606Y-49596522D01*
X25667351Y-49592895D01*
X25616486Y-49587369D01*
X25609672Y-49587000D01*
X24537115Y-49587000D01*
X24521876Y-49591475D01*
X24520671Y-49592865D01*
X24519000Y-49600548D01*
X24519000Y-51122885D01*
X24011000Y-51122885D01*
X24011000Y-49605116D01*
X24006525Y-49589877D01*
X24005135Y-49588672D01*
X23997452Y-49587001D01*
X22920331Y-49587001D01*
X22913510Y-49587371D01*
X22862648Y-49592895D01*
X22847396Y-49596521D01*
X22726946Y-49641676D01*
X22711351Y-49650214D01*
X22609276Y-49726715D01*
X22596715Y-49739276D01*
X22520214Y-49841351D01*
X22511676Y-49856946D01*
X22466522Y-49977394D01*
X22462895Y-49992649D01*
X22457369Y-50043514D01*
X22457000Y-50050328D01*
X22457000Y-51122885D01*
X18721688Y-51122885D01*
X18737454Y-51057216D01*
X18737455Y-51057210D01*
X18738609Y-51052403D01*
X18758474Y-50800000D01*
X18738609Y-50547597D01*
X18679505Y-50301409D01*
X18582616Y-50067498D01*
X18450328Y-49851624D01*
X18285898Y-49659102D01*
X18093376Y-49494672D01*
X17877502Y-49362384D01*
X17872932Y-49360491D01*
X17872928Y-49360489D01*
X17648164Y-49267389D01*
X17648162Y-49267388D01*
X17643591Y-49265495D01*
X17558968Y-49245179D01*
X17402216Y-49207546D01*
X17402210Y-49207545D01*
X17397403Y-49206391D01*
X17297584Y-49198535D01*
X17210655Y-49191693D01*
X17210648Y-49191693D01*
X17208199Y-49191500D01*
X17081801Y-49191500D01*
X17079352Y-49191693D01*
X17079345Y-49191693D01*
X16992416Y-49198535D01*
X16892597Y-49206391D01*
X16887790Y-49207545D01*
X16887784Y-49207546D01*
X16731032Y-49245179D01*
X16646409Y-49265495D01*
X16641838Y-49267388D01*
X16641836Y-49267389D01*
X16417072Y-49360489D01*
X16417068Y-49360491D01*
X16412498Y-49362384D01*
X16196624Y-49494672D01*
X16004102Y-49659102D01*
X15839672Y-49851624D01*
X15707384Y-50067498D01*
X15610495Y-50301409D01*
X15551391Y-50547597D01*
X15531526Y-50800000D01*
X13848729Y-50800000D01*
X13844773Y-50772376D01*
X13843500Y-50754514D01*
X13843500Y-46347526D01*
X22452050Y-46347526D01*
X22464947Y-46616019D01*
X22517388Y-46879656D01*
X22608220Y-47132646D01*
X22735450Y-47369431D01*
X22738241Y-47373168D01*
X22738245Y-47373175D01*
X22819887Y-47482506D01*
X22896281Y-47584810D01*
X22899590Y-47588090D01*
X22899595Y-47588096D01*
X23083863Y-47770762D01*
X23087180Y-47774050D01*
X23090942Y-47776808D01*
X23090945Y-47776811D01*
X23203299Y-47859192D01*
X23303954Y-47932995D01*
X23308089Y-47935171D01*
X23308093Y-47935173D01*
X23537698Y-48055975D01*
X23541840Y-48058154D01*
X23795613Y-48146775D01*
X23800206Y-48147647D01*
X24055109Y-48196042D01*
X24055112Y-48196042D01*
X24059698Y-48196913D01*
X24187370Y-48201929D01*
X24323625Y-48207283D01*
X24323630Y-48207283D01*
X24328293Y-48207466D01*
X24432607Y-48196042D01*
X24590844Y-48178713D01*
X24590850Y-48178712D01*
X24595497Y-48178203D01*
X24600021Y-48177012D01*
X24850918Y-48110956D01*
X24850920Y-48110955D01*
X24855441Y-48109765D01*
X24859738Y-48107919D01*
X25098120Y-48005502D01*
X25098122Y-48005501D01*
X25102414Y-48003657D01*
X25221071Y-47930230D01*
X25327017Y-47864669D01*
X25327021Y-47864666D01*
X25330990Y-47862210D01*
X25536149Y-47688530D01*
X25713382Y-47486434D01*
X25858797Y-47260361D01*
X25969199Y-47015278D01*
X26006209Y-46884051D01*
X26040893Y-46761072D01*
X26040894Y-46761069D01*
X26042163Y-46756568D01*
X26060043Y-46616019D01*
X26075688Y-46493045D01*
X26075688Y-46493041D01*
X26076086Y-46489915D01*
X26078571Y-46395000D01*
X26058650Y-46126937D01*
X25999327Y-45864763D01*
X25901902Y-45614238D01*
X25768518Y-45380864D01*
X25602105Y-45169769D01*
X25406317Y-44985591D01*
X25185457Y-44832374D01*
X25181264Y-44830306D01*
X24948564Y-44715551D01*
X24948561Y-44715550D01*
X24944376Y-44713486D01*
X24896745Y-44698239D01*
X24842621Y-44680914D01*
X24688370Y-44631538D01*
X24683763Y-44630788D01*
X24683760Y-44630787D01*
X24427674Y-44589081D01*
X24427675Y-44589081D01*
X24423063Y-44588330D01*
X24292719Y-44586624D01*
X24158961Y-44584873D01*
X24158958Y-44584873D01*
X24154284Y-44584812D01*
X23887937Y-44621060D01*
X23629874Y-44696278D01*
X23385763Y-44808815D01*
X23381854Y-44811378D01*
X23164881Y-44953631D01*
X23164876Y-44953635D01*
X23160968Y-44956197D01*
X22960426Y-45135188D01*
X22788544Y-45341854D01*
X22649096Y-45571656D01*
X22545148Y-45819545D01*
X22478981Y-46080077D01*
X22452050Y-46347526D01*
X13843500Y-46347526D01*
X13843500Y-33016462D01*
X14861626Y-33016462D01*
X14862206Y-33022593D01*
X14865941Y-33062109D01*
X14866500Y-33073967D01*
X14866500Y-38038157D01*
X14865763Y-38051764D01*
X14863371Y-38073787D01*
X14861676Y-38089388D01*
X14863022Y-38104769D01*
X14866050Y-38139388D01*
X14866379Y-38144214D01*
X14866500Y-38146686D01*
X14866500Y-38149769D01*
X14866801Y-38152837D01*
X14870690Y-38192506D01*
X14870812Y-38193819D01*
X14873728Y-38227146D01*
X14878913Y-38286413D01*
X14880400Y-38291532D01*
X14880920Y-38296833D01*
X14907791Y-38385834D01*
X14908126Y-38386967D01*
X14934091Y-38476336D01*
X14936544Y-38481068D01*
X14938084Y-38486169D01*
X14940978Y-38491612D01*
X14981731Y-38568260D01*
X14982343Y-38569426D01*
X15025108Y-38651926D01*
X15028431Y-38656089D01*
X15030934Y-38660796D01*
X15089755Y-38732918D01*
X15090446Y-38733774D01*
X15121738Y-38772973D01*
X15124242Y-38775477D01*
X15124884Y-38776195D01*
X15128585Y-38780528D01*
X15155935Y-38814062D01*
X15160682Y-38817989D01*
X15160684Y-38817991D01*
X15191262Y-38843287D01*
X15200042Y-38851277D01*
X16348145Y-39999379D01*
X16357247Y-40009522D01*
X16380968Y-40039025D01*
X16385696Y-40042992D01*
X16419421Y-40071291D01*
X16423069Y-40074472D01*
X16424881Y-40076115D01*
X16427075Y-40078309D01*
X16460349Y-40105642D01*
X16461147Y-40106304D01*
X16532474Y-40166154D01*
X16537144Y-40168722D01*
X16541261Y-40172103D01*
X16591967Y-40199291D01*
X16623120Y-40215995D01*
X16624280Y-40216624D01*
X16700389Y-40258466D01*
X16700394Y-40258468D01*
X16705787Y-40261433D01*
X16710865Y-40263044D01*
X16715563Y-40265563D01*
X16804498Y-40292753D01*
X16805702Y-40293128D01*
X16894306Y-40321235D01*
X16899597Y-40321828D01*
X16904698Y-40323388D01*
X16997311Y-40332795D01*
X16998431Y-40332915D01*
X17048227Y-40338500D01*
X17051756Y-40338500D01*
X17052739Y-40338555D01*
X17058426Y-40339003D01*
X17078683Y-40341060D01*
X17095336Y-40342752D01*
X17095339Y-40342752D01*
X17101463Y-40343374D01*
X17147112Y-40339059D01*
X17158969Y-40338500D01*
X17347726Y-40338500D01*
X17415847Y-40358502D01*
X17448684Y-40389111D01*
X17546281Y-40519810D01*
X17549590Y-40523090D01*
X17549595Y-40523096D01*
X17733863Y-40705762D01*
X17737180Y-40709050D01*
X17740942Y-40711808D01*
X17740945Y-40711811D01*
X17789912Y-40747715D01*
X17953954Y-40867995D01*
X17958089Y-40870171D01*
X17958093Y-40870173D01*
X18187698Y-40990975D01*
X18191840Y-40993154D01*
X18445613Y-41081775D01*
X18450206Y-41082647D01*
X18705109Y-41131042D01*
X18705112Y-41131042D01*
X18709698Y-41131913D01*
X18837370Y-41136929D01*
X18973625Y-41142283D01*
X18973630Y-41142283D01*
X18978293Y-41142466D01*
X19082607Y-41131042D01*
X19240844Y-41113713D01*
X19240850Y-41113712D01*
X19245497Y-41113203D01*
X19357302Y-41083767D01*
X19500918Y-41045956D01*
X19500920Y-41045955D01*
X19505441Y-41044765D01*
X19612795Y-40998642D01*
X19748120Y-40940502D01*
X19748122Y-40940501D01*
X19752414Y-40938657D01*
X19871071Y-40865230D01*
X19977017Y-40799669D01*
X19977021Y-40799666D01*
X19980990Y-40797210D01*
X20121648Y-40678134D01*
X44681500Y-40678134D01*
X44688255Y-40740316D01*
X44739385Y-40876705D01*
X44826739Y-40993261D01*
X44943295Y-41080615D01*
X45079684Y-41131745D01*
X45141866Y-41138500D01*
X47838134Y-41138500D01*
X47900316Y-41131745D01*
X48036705Y-41080615D01*
X48153261Y-40993261D01*
X48240615Y-40876705D01*
X48291745Y-40740316D01*
X48298500Y-40678134D01*
X48298500Y-37981866D01*
X48291745Y-37919684D01*
X48240615Y-37783295D01*
X48153261Y-37666739D01*
X48036705Y-37579385D01*
X47900316Y-37528255D01*
X47838134Y-37521500D01*
X45141866Y-37521500D01*
X45079684Y-37528255D01*
X44943295Y-37579385D01*
X44826739Y-37666739D01*
X44739385Y-37783295D01*
X44688255Y-37919684D01*
X44681500Y-37981866D01*
X44681500Y-40678134D01*
X20121648Y-40678134D01*
X20186149Y-40623530D01*
X20363382Y-40421434D01*
X20416368Y-40339059D01*
X20506269Y-40199291D01*
X20508797Y-40195361D01*
X20619199Y-39950278D01*
X20692163Y-39691568D01*
X20726086Y-39424915D01*
X20728571Y-39330000D01*
X20708650Y-39061937D01*
X20707619Y-39057379D01*
X20650361Y-38804331D01*
X20650360Y-38804326D01*
X20649327Y-38799763D01*
X20551902Y-38549238D01*
X20418518Y-38315864D01*
X20408163Y-38302728D01*
X20348539Y-38227095D01*
X27367001Y-38227095D01*
X27367338Y-38233614D01*
X27377257Y-38329206D01*
X27380149Y-38342600D01*
X27431588Y-38496784D01*
X27437761Y-38509962D01*
X27523063Y-38647807D01*
X27532099Y-38659208D01*
X27646829Y-38773739D01*
X27658240Y-38782751D01*
X27796243Y-38867816D01*
X27809424Y-38873963D01*
X27963710Y-38925138D01*
X27977086Y-38928005D01*
X28071438Y-38937672D01*
X28077854Y-38938000D01*
X28302885Y-38938000D01*
X28318124Y-38933525D01*
X28319329Y-38932135D01*
X28321000Y-38924452D01*
X28321000Y-38919884D01*
X28829000Y-38919884D01*
X28833475Y-38935123D01*
X28834865Y-38936328D01*
X28842548Y-38937999D01*
X29072095Y-38937999D01*
X29078614Y-38937662D01*
X29174206Y-38927743D01*
X29187600Y-38924851D01*
X29341784Y-38873412D01*
X29354962Y-38867239D01*
X29492807Y-38781937D01*
X29504208Y-38772901D01*
X29618739Y-38658171D01*
X29627751Y-38646760D01*
X29712816Y-38508757D01*
X29718963Y-38495576D01*
X29770138Y-38341290D01*
X29773005Y-38327914D01*
X29782672Y-38233562D01*
X29783000Y-38227146D01*
X29783000Y-38102115D01*
X29778525Y-38086876D01*
X29777135Y-38085671D01*
X29769452Y-38084000D01*
X28847115Y-38084000D01*
X28831876Y-38088475D01*
X28830671Y-38089865D01*
X28829000Y-38097548D01*
X28829000Y-38919884D01*
X28321000Y-38919884D01*
X28321000Y-38102115D01*
X28316525Y-38086876D01*
X28315135Y-38085671D01*
X28307452Y-38084000D01*
X27385116Y-38084000D01*
X27369877Y-38088475D01*
X27368672Y-38089865D01*
X27367001Y-38097548D01*
X27367001Y-38227095D01*
X20348539Y-38227095D01*
X20321271Y-38192506D01*
X20252105Y-38104769D01*
X20056317Y-37920591D01*
X19858407Y-37783295D01*
X19839299Y-37770039D01*
X19839296Y-37770037D01*
X19835457Y-37767374D01*
X19831264Y-37765306D01*
X19598564Y-37650551D01*
X19598561Y-37650550D01*
X19594376Y-37648486D01*
X19546745Y-37633239D01*
X19362709Y-37574329D01*
X19338370Y-37566538D01*
X19333763Y-37565788D01*
X19333760Y-37565787D01*
X19120337Y-37531029D01*
X19073063Y-37523330D01*
X18942719Y-37521624D01*
X18808961Y-37519873D01*
X18808958Y-37519873D01*
X18804284Y-37519812D01*
X18537937Y-37556060D01*
X18533451Y-37557368D01*
X18533449Y-37557368D01*
X18484879Y-37571525D01*
X18279874Y-37631278D01*
X18035763Y-37743815D01*
X18031854Y-37746378D01*
X17814881Y-37888631D01*
X17814876Y-37888635D01*
X17810968Y-37891197D01*
X17807476Y-37894314D01*
X17646314Y-38038157D01*
X17610426Y-38070188D01*
X17548599Y-38144528D01*
X17544811Y-38149082D01*
X17485874Y-38188666D01*
X17414892Y-38190103D01*
X17358842Y-38157608D01*
X16920405Y-37719171D01*
X16886379Y-37656859D01*
X16883500Y-37630076D01*
X16883500Y-35822496D01*
X16903502Y-35754375D01*
X16957158Y-35707882D01*
X17027432Y-35697778D01*
X17092012Y-35727272D01*
X17127482Y-35778267D01*
X17134584Y-35797210D01*
X17164385Y-35876705D01*
X17251739Y-35993261D01*
X17368295Y-36080615D01*
X17504684Y-36131745D01*
X17566866Y-36138500D01*
X20263134Y-36138500D01*
X20325316Y-36131745D01*
X20461705Y-36080615D01*
X20578261Y-35993261D01*
X20665615Y-35876705D01*
X20716745Y-35740316D01*
X20723500Y-35678134D01*
X20723500Y-34541130D01*
X26158503Y-34541130D01*
X26176203Y-34721650D01*
X26179567Y-34731762D01*
X26207098Y-34814523D01*
X26213540Y-34854295D01*
X26213540Y-35159970D01*
X26212107Y-35178920D01*
X26208841Y-35200389D01*
X26209434Y-35207681D01*
X26209434Y-35207684D01*
X26213125Y-35253058D01*
X26213540Y-35263273D01*
X26213540Y-35271333D01*
X26213965Y-35274977D01*
X26216829Y-35299547D01*
X26217262Y-35303922D01*
X26219440Y-35330692D01*
X26223180Y-35376677D01*
X26225436Y-35383641D01*
X26226627Y-35389600D01*
X26228011Y-35395455D01*
X26228858Y-35402721D01*
X26253775Y-35471367D01*
X26255192Y-35475495D01*
X26277689Y-35544939D01*
X26281485Y-35551194D01*
X26283991Y-35556668D01*
X26286710Y-35562098D01*
X26289207Y-35568977D01*
X26293220Y-35575097D01*
X26293220Y-35575098D01*
X26329226Y-35630016D01*
X26331563Y-35633720D01*
X26369445Y-35696147D01*
X26373161Y-35700355D01*
X26373162Y-35700356D01*
X26376843Y-35704524D01*
X26376816Y-35704548D01*
X26379469Y-35707540D01*
X26382172Y-35710773D01*
X26386184Y-35716892D01*
X26391496Y-35721924D01*
X26442423Y-35770168D01*
X26444865Y-35772546D01*
X26991230Y-36318911D01*
X27003616Y-36333323D01*
X27012149Y-36344918D01*
X27012154Y-36344923D01*
X27016492Y-36350818D01*
X27022070Y-36355557D01*
X27022073Y-36355560D01*
X27056768Y-36385035D01*
X27064284Y-36391965D01*
X27069979Y-36397660D01*
X27072861Y-36399940D01*
X27092251Y-36415281D01*
X27095655Y-36418072D01*
X27145703Y-36460591D01*
X27151285Y-36465333D01*
X27157801Y-36468661D01*
X27162850Y-36472028D01*
X27167979Y-36475195D01*
X27173716Y-36479734D01*
X27239875Y-36510655D01*
X27243769Y-36512558D01*
X27308808Y-36545769D01*
X27315916Y-36547508D01*
X27321559Y-36549607D01*
X27327322Y-36551524D01*
X27333950Y-36554622D01*
X27341112Y-36556112D01*
X27341113Y-36556112D01*
X27405412Y-36569486D01*
X27409672Y-36570450D01*
X27436122Y-36576922D01*
X27497536Y-36612543D01*
X27513315Y-36633007D01*
X27522019Y-36647072D01*
X27526522Y-36654348D01*
X27531704Y-36659521D01*
X27613463Y-36741138D01*
X27647542Y-36803421D01*
X27642539Y-36874241D01*
X27613618Y-36919329D01*
X27531261Y-37001829D01*
X27522249Y-37013240D01*
X27437184Y-37151243D01*
X27431037Y-37164424D01*
X27379862Y-37318710D01*
X27376995Y-37332086D01*
X27367328Y-37426438D01*
X27367000Y-37432855D01*
X27367000Y-37557885D01*
X27371475Y-37573124D01*
X27372865Y-37574329D01*
X27380548Y-37576000D01*
X29764884Y-37576000D01*
X29780123Y-37571525D01*
X29781328Y-37570135D01*
X29782999Y-37562452D01*
X29782999Y-37432905D01*
X29782662Y-37426386D01*
X29772743Y-37330794D01*
X29769851Y-37317400D01*
X29718412Y-37163216D01*
X29712239Y-37150038D01*
X29626937Y-37012193D01*
X29617901Y-37000792D01*
X29536538Y-36919570D01*
X29502459Y-36857287D01*
X29507462Y-36786467D01*
X29536383Y-36741380D01*
X29619130Y-36658488D01*
X29619134Y-36658483D01*
X29624305Y-36653303D01*
X29675372Y-36570457D01*
X29713275Y-36508968D01*
X29713276Y-36508966D01*
X29717115Y-36502738D01*
X29756155Y-36385035D01*
X29770632Y-36341389D01*
X29770632Y-36341387D01*
X29772797Y-36334861D01*
X29773741Y-36325655D01*
X29783172Y-36233598D01*
X29783500Y-36230400D01*
X29783500Y-35429600D01*
X29772526Y-35323834D01*
X29716550Y-35156054D01*
X29623478Y-35005652D01*
X29498303Y-34880695D01*
X29492072Y-34876854D01*
X29353968Y-34791725D01*
X29353966Y-34791724D01*
X29347738Y-34787885D01*
X29211358Y-34742650D01*
X29186389Y-34734368D01*
X29186387Y-34734368D01*
X29179861Y-34732203D01*
X29173025Y-34731503D01*
X29173022Y-34731502D01*
X29129969Y-34727091D01*
X29075400Y-34721500D01*
X28074600Y-34721500D01*
X28071354Y-34721837D01*
X28071350Y-34721837D01*
X27975692Y-34731762D01*
X27975688Y-34731763D01*
X27968834Y-34732474D01*
X27962293Y-34734656D01*
X27962294Y-34734656D01*
X27946084Y-34740064D01*
X27875134Y-34742650D01*
X27814050Y-34706467D01*
X27782224Y-34643003D01*
X27781432Y-34603004D01*
X27784788Y-34579127D01*
X27785339Y-34575207D01*
X27785656Y-34552490D01*
X27765437Y-34372235D01*
X27763120Y-34365581D01*
X27734197Y-34282526D01*
X44677050Y-34282526D01*
X44677274Y-34287192D01*
X44677274Y-34287197D01*
X44681359Y-34372235D01*
X44689947Y-34551019D01*
X44742388Y-34814656D01*
X44833220Y-35067646D01*
X44960450Y-35304431D01*
X44963241Y-35308168D01*
X44963245Y-35308175D01*
X45038978Y-35409593D01*
X45121281Y-35519810D01*
X45124590Y-35523090D01*
X45124595Y-35523096D01*
X45308863Y-35705762D01*
X45312180Y-35709050D01*
X45315942Y-35711808D01*
X45315945Y-35711811D01*
X45406580Y-35778267D01*
X45528954Y-35867995D01*
X45533089Y-35870171D01*
X45533093Y-35870173D01*
X45762698Y-35990975D01*
X45766840Y-35993154D01*
X46020613Y-36081775D01*
X46025206Y-36082647D01*
X46280109Y-36131042D01*
X46280112Y-36131042D01*
X46284698Y-36131913D01*
X46412370Y-36136929D01*
X46548625Y-36142283D01*
X46548630Y-36142283D01*
X46553293Y-36142466D01*
X46657607Y-36131042D01*
X46815844Y-36113713D01*
X46815850Y-36113712D01*
X46820497Y-36113203D01*
X46932302Y-36083767D01*
X47075918Y-36045956D01*
X47075920Y-36045955D01*
X47080441Y-36044765D01*
X47187795Y-35998642D01*
X47323120Y-35940502D01*
X47323122Y-35940501D01*
X47327414Y-35938657D01*
X47446071Y-35865230D01*
X47552017Y-35799669D01*
X47552021Y-35799666D01*
X47555990Y-35797210D01*
X47761149Y-35623530D01*
X47938382Y-35421434D01*
X47945999Y-35409593D01*
X48046685Y-35253058D01*
X48083797Y-35195361D01*
X48194199Y-34950278D01*
X48212365Y-34885866D01*
X48265893Y-34696072D01*
X48265894Y-34696069D01*
X48267163Y-34691568D01*
X48278430Y-34603004D01*
X48300688Y-34428045D01*
X48300688Y-34428041D01*
X48301086Y-34424915D01*
X48303571Y-34330000D01*
X48293713Y-34197351D01*
X48283996Y-34066592D01*
X48283996Y-34066591D01*
X48283650Y-34061937D01*
X48279633Y-34044183D01*
X48225361Y-33804331D01*
X48225360Y-33804326D01*
X48224327Y-33799763D01*
X48126902Y-33549238D01*
X47993518Y-33315864D01*
X47827105Y-33104769D01*
X47631317Y-32920591D01*
X47433407Y-32783295D01*
X47414299Y-32770039D01*
X47414296Y-32770037D01*
X47410457Y-32767374D01*
X47406264Y-32765306D01*
X47173564Y-32650551D01*
X47173561Y-32650550D01*
X47169376Y-32648486D01*
X47131795Y-32636456D01*
X46943657Y-32576233D01*
X46913370Y-32566538D01*
X46908763Y-32565788D01*
X46908760Y-32565787D01*
X46695337Y-32531029D01*
X46648063Y-32523330D01*
X46517719Y-32521624D01*
X46383961Y-32519873D01*
X46383958Y-32519873D01*
X46379284Y-32519812D01*
X46112937Y-32556060D01*
X45854874Y-32631278D01*
X45610763Y-32743815D01*
X45606854Y-32746378D01*
X45389881Y-32888631D01*
X45389876Y-32888635D01*
X45385968Y-32891197D01*
X45305265Y-32963227D01*
X45194478Y-33062109D01*
X45185426Y-33070188D01*
X45013544Y-33276854D01*
X45011121Y-33280847D01*
X44915919Y-33437735D01*
X44874096Y-33506656D01*
X44770148Y-33754545D01*
X44768997Y-33759077D01*
X44765563Y-33772598D01*
X44703981Y-34015077D01*
X44677050Y-34282526D01*
X27734197Y-34282526D01*
X27708104Y-34207596D01*
X27708102Y-34207593D01*
X27705785Y-34200938D01*
X27609666Y-34047114D01*
X27595981Y-34033333D01*
X27486818Y-33923405D01*
X27486814Y-33923402D01*
X27481855Y-33918408D01*
X27470737Y-33911352D01*
X27422578Y-33880790D01*
X27328706Y-33821217D01*
X27299503Y-33810818D01*
X27164465Y-33762733D01*
X27164460Y-33762732D01*
X27157830Y-33760371D01*
X27150842Y-33759538D01*
X27150839Y-33759537D01*
X27027738Y-33744858D01*
X26977720Y-33738894D01*
X26970717Y-33739630D01*
X26970716Y-33739630D01*
X26804328Y-33757118D01*
X26804326Y-33757119D01*
X26797328Y-33757854D01*
X26625619Y-33816308D01*
X26619615Y-33820002D01*
X26477135Y-33907656D01*
X26477132Y-33907658D01*
X26471128Y-33911352D01*
X26466093Y-33916283D01*
X26466090Y-33916285D01*
X26360451Y-34019735D01*
X26341533Y-34038261D01*
X26243275Y-34190728D01*
X26240866Y-34197348D01*
X26240864Y-34197351D01*
X26211557Y-34277872D01*
X26181237Y-34361175D01*
X26158503Y-34541130D01*
X20723500Y-34541130D01*
X20723500Y-32981866D01*
X20716745Y-32919684D01*
X20665615Y-32783295D01*
X20578261Y-32666739D01*
X20461705Y-32579385D01*
X20325316Y-32528255D01*
X20263134Y-32521500D01*
X18103925Y-32521500D01*
X18035804Y-32501498D01*
X17989311Y-32447842D01*
X17979207Y-32377568D01*
X18008701Y-32312988D01*
X18014830Y-32306405D01*
X18452973Y-31868262D01*
X19430829Y-30890405D01*
X19493141Y-30856379D01*
X19519924Y-30853500D01*
X21004769Y-30853500D01*
X21007825Y-30853200D01*
X21007832Y-30853200D01*
X21066340Y-30847463D01*
X21151833Y-30839080D01*
X21157734Y-30837298D01*
X21157736Y-30837298D01*
X21231053Y-30815162D01*
X21341169Y-30781916D01*
X21515796Y-30689066D01*
X21602062Y-30618709D01*
X21664287Y-30567960D01*
X21664290Y-30567957D01*
X21669062Y-30564065D01*
X21688469Y-30540606D01*
X21791201Y-30416425D01*
X21791203Y-30416421D01*
X21795130Y-30411675D01*
X21889198Y-30237701D01*
X21947682Y-30048768D01*
X21955185Y-29977382D01*
X21967711Y-29858204D01*
X21967711Y-29858202D01*
X21968355Y-29852075D01*
X21950430Y-29655112D01*
X21898294Y-29477966D01*
X22798257Y-29477966D01*
X22828565Y-29612446D01*
X22831645Y-29622275D01*
X22911770Y-29819603D01*
X22916413Y-29828794D01*
X23027694Y-30010388D01*
X23033777Y-30018699D01*
X23173213Y-30179667D01*
X23180580Y-30186883D01*
X23344434Y-30322916D01*
X23352881Y-30328831D01*
X23536756Y-30436279D01*
X23546042Y-30440729D01*
X23745001Y-30516703D01*
X23754899Y-30519579D01*
X23858250Y-30540606D01*
X23872299Y-30539410D01*
X23876000Y-30529065D01*
X23876000Y-30528517D01*
X24384000Y-30528517D01*
X24388064Y-30542359D01*
X24401478Y-30544393D01*
X24408184Y-30543534D01*
X24418262Y-30541392D01*
X24622255Y-30480191D01*
X24631842Y-30476433D01*
X24823095Y-30382739D01*
X24831945Y-30377464D01*
X25005328Y-30253792D01*
X25013200Y-30247139D01*
X25164052Y-30096812D01*
X25170730Y-30088965D01*
X25295003Y-29916020D01*
X25300313Y-29907183D01*
X25394670Y-29716267D01*
X25398469Y-29706672D01*
X25460377Y-29502910D01*
X25462555Y-29492837D01*
X25463986Y-29481962D01*
X25461775Y-29467778D01*
X25448617Y-29464000D01*
X24402115Y-29464000D01*
X24386876Y-29468475D01*
X24385671Y-29469865D01*
X24384000Y-29477548D01*
X24384000Y-30528517D01*
X23876000Y-30528517D01*
X23876000Y-29482115D01*
X23871525Y-29466876D01*
X23870135Y-29465671D01*
X23862452Y-29464000D01*
X22813225Y-29464000D01*
X22799694Y-29467973D01*
X22798257Y-29477966D01*
X21898294Y-29477966D01*
X21894590Y-29465381D01*
X21802960Y-29290110D01*
X21679032Y-29135975D01*
X21672727Y-29130684D01*
X21630062Y-29094884D01*
X21527526Y-29008846D01*
X21522128Y-29005879D01*
X21522123Y-29005875D01*
X21359608Y-28916533D01*
X21359609Y-28916533D01*
X21354213Y-28913567D01*
X21348346Y-28911706D01*
X21348344Y-28911705D01*
X21171564Y-28855627D01*
X21171563Y-28855627D01*
X21165694Y-28853765D01*
X21011773Y-28836500D01*
X19111842Y-28836500D01*
X19098235Y-28835763D01*
X19066737Y-28832341D01*
X19066732Y-28832341D01*
X19060611Y-28831676D01*
X19042611Y-28833251D01*
X19010609Y-28836050D01*
X19005784Y-28836379D01*
X19003313Y-28836500D01*
X19000231Y-28836500D01*
X18977763Y-28838703D01*
X18957489Y-28840691D01*
X18956174Y-28840813D01*
X18923913Y-28843636D01*
X18863587Y-28848913D01*
X18858468Y-28850400D01*
X18853167Y-28850920D01*
X18847262Y-28852703D01*
X18847261Y-28852703D01*
X18827907Y-28858546D01*
X18764194Y-28877782D01*
X18763054Y-28878120D01*
X18673663Y-28904091D01*
X18668929Y-28906545D01*
X18663831Y-28908084D01*
X18658387Y-28910978D01*
X18658386Y-28910979D01*
X18581831Y-28951684D01*
X18580663Y-28952298D01*
X18498074Y-28995108D01*
X18493911Y-28998431D01*
X18489204Y-29000934D01*
X18417082Y-29059755D01*
X18416226Y-29060446D01*
X18377027Y-29091738D01*
X18374523Y-29094242D01*
X18373805Y-29094884D01*
X18369472Y-29098585D01*
X18335938Y-29125935D01*
X18332011Y-29130682D01*
X18332009Y-29130684D01*
X18306713Y-29161262D01*
X18298723Y-29170042D01*
X17107028Y-30361738D01*
X15205621Y-32263145D01*
X15195478Y-32272247D01*
X15165975Y-32295968D01*
X15133709Y-32334421D01*
X15130528Y-32338069D01*
X15128885Y-32339881D01*
X15126691Y-32342075D01*
X15099358Y-32375349D01*
X15098696Y-32376147D01*
X15038846Y-32447474D01*
X15036278Y-32452144D01*
X15032897Y-32456261D01*
X15008641Y-32501498D01*
X14989023Y-32538086D01*
X14988394Y-32539245D01*
X14946538Y-32615381D01*
X14946535Y-32615389D01*
X14943567Y-32620787D01*
X14941955Y-32625869D01*
X14939438Y-32630563D01*
X14912238Y-32719531D01*
X14911918Y-32720559D01*
X14883765Y-32809306D01*
X14883171Y-32814602D01*
X14881613Y-32819698D01*
X14874034Y-32894314D01*
X14872218Y-32912187D01*
X14872089Y-32913393D01*
X14866500Y-32963227D01*
X14866500Y-32966754D01*
X14866445Y-32967739D01*
X14865998Y-32973419D01*
X14861626Y-33016462D01*
X13843500Y-33016462D01*
X13843500Y-26636695D01*
X22767251Y-26636695D01*
X22767548Y-26641848D01*
X22767548Y-26641851D01*
X22774810Y-26767797D01*
X22780110Y-26859715D01*
X22781247Y-26864761D01*
X22781248Y-26864767D01*
X22801119Y-26952939D01*
X22829222Y-27077639D01*
X22867048Y-27170794D01*
X22905864Y-27266386D01*
X22913266Y-27284616D01*
X22964019Y-27367438D01*
X22992016Y-27413124D01*
X23029987Y-27475088D01*
X23176250Y-27643938D01*
X23348126Y-27786632D01*
X23373440Y-27801424D01*
X23421955Y-27829774D01*
X23470679Y-27881412D01*
X23483750Y-27951195D01*
X23457019Y-28016967D01*
X23416562Y-28050327D01*
X23408457Y-28054546D01*
X23399738Y-28060036D01*
X23229433Y-28187905D01*
X23221726Y-28194748D01*
X23074590Y-28348717D01*
X23068104Y-28356727D01*
X22948098Y-28532649D01*
X22943000Y-28541623D01*
X22853338Y-28734783D01*
X22849775Y-28744470D01*
X22794389Y-28944183D01*
X22795912Y-28952607D01*
X22808292Y-28956000D01*
X25448344Y-28956000D01*
X25461875Y-28952027D01*
X25463180Y-28942947D01*
X25421214Y-28775875D01*
X25417894Y-28766124D01*
X25332972Y-28570814D01*
X25328105Y-28561739D01*
X25212426Y-28382926D01*
X25206136Y-28374757D01*
X25062806Y-28217240D01*
X25055273Y-28210215D01*
X24888139Y-28078222D01*
X24879556Y-28072520D01*
X24842602Y-28052120D01*
X24792631Y-28001687D01*
X24777859Y-27932245D01*
X24802975Y-27865839D01*
X24830327Y-27839232D01*
X24854330Y-27822111D01*
X25009860Y-27711173D01*
X25038360Y-27682773D01*
X25164435Y-27557137D01*
X25168096Y-27553489D01*
X25220297Y-27480844D01*
X25295435Y-27376277D01*
X25298453Y-27372077D01*
X25337219Y-27293640D01*
X33476463Y-27293640D01*
X33494163Y-27474160D01*
X33551418Y-27646273D01*
X33555065Y-27652295D01*
X33555066Y-27652297D01*
X33636422Y-27786632D01*
X33645380Y-27801424D01*
X33771382Y-27931902D01*
X33777278Y-27935760D01*
X33880594Y-28003368D01*
X33923159Y-28031222D01*
X33929763Y-28033678D01*
X33929765Y-28033679D01*
X34086558Y-28091990D01*
X34086560Y-28091990D01*
X34093168Y-28094448D01*
X34176995Y-28105633D01*
X34265980Y-28117507D01*
X34265984Y-28117507D01*
X34272961Y-28118438D01*
X34279972Y-28117800D01*
X34279976Y-28117800D01*
X34422459Y-28104832D01*
X34453600Y-28101998D01*
X34460302Y-28099820D01*
X34460304Y-28099820D01*
X34619409Y-28048124D01*
X34619412Y-28048123D01*
X34626108Y-28045947D01*
X34781912Y-27953069D01*
X34913266Y-27827982D01*
X35013643Y-27676902D01*
X35078055Y-27507338D01*
X35081779Y-27480844D01*
X35087639Y-27439145D01*
X35116927Y-27374471D01*
X35123318Y-27367586D01*
X37525178Y-24965727D01*
X37587490Y-24931701D01*
X37602837Y-24929343D01*
X37628600Y-24926998D01*
X37635302Y-24924820D01*
X37635304Y-24924820D01*
X37685113Y-24908636D01*
X37791709Y-24874001D01*
X37862674Y-24871973D01*
X37923472Y-24908636D01*
X37937483Y-24929544D01*
X37938450Y-24928946D01*
X38031522Y-25079348D01*
X38156697Y-25204305D01*
X38162927Y-25208145D01*
X38162928Y-25208146D01*
X38300288Y-25292816D01*
X38307262Y-25297115D01*
X38370024Y-25317932D01*
X38468611Y-25350632D01*
X38468613Y-25350632D01*
X38475139Y-25352797D01*
X38481975Y-25353497D01*
X38481978Y-25353498D01*
X38525031Y-25357909D01*
X38579600Y-25363500D01*
X39355400Y-25363500D01*
X39358646Y-25363163D01*
X39358650Y-25363163D01*
X39454308Y-25353238D01*
X39454312Y-25353237D01*
X39461166Y-25352526D01*
X39467702Y-25350345D01*
X39467704Y-25350345D01*
X39619540Y-25299688D01*
X39628946Y-25296550D01*
X39779348Y-25203478D01*
X39904305Y-25078303D01*
X39907102Y-25073765D01*
X39964353Y-25033176D01*
X40035276Y-25029946D01*
X40096687Y-25065572D01*
X40104062Y-25074068D01*
X40112098Y-25084207D01*
X40226829Y-25198739D01*
X40238240Y-25207751D01*
X40376243Y-25292816D01*
X40389424Y-25298963D01*
X40543710Y-25350138D01*
X40557086Y-25353005D01*
X40651438Y-25362672D01*
X40657854Y-25363000D01*
X40770385Y-25363000D01*
X40785624Y-25358525D01*
X40786829Y-25357135D01*
X40788500Y-25349452D01*
X40788500Y-25344884D01*
X41296500Y-25344884D01*
X41300975Y-25360123D01*
X41302365Y-25361328D01*
X41310048Y-25362999D01*
X41427095Y-25362999D01*
X41433614Y-25362662D01*
X41529206Y-25352743D01*
X41542600Y-25349851D01*
X41696784Y-25298412D01*
X41709962Y-25292239D01*
X41847807Y-25206937D01*
X41859208Y-25197901D01*
X41973739Y-25083171D01*
X41982751Y-25071760D01*
X42067816Y-24933757D01*
X42073963Y-24920576D01*
X42125138Y-24766290D01*
X42128005Y-24752914D01*
X42137672Y-24658562D01*
X42138000Y-24652146D01*
X42138000Y-24402115D01*
X42133525Y-24386876D01*
X42132135Y-24385671D01*
X42124452Y-24384000D01*
X41314615Y-24384000D01*
X41299376Y-24388475D01*
X41298171Y-24389865D01*
X41296500Y-24397548D01*
X41296500Y-25344884D01*
X40788500Y-25344884D01*
X40788500Y-23857885D01*
X41296500Y-23857885D01*
X41300975Y-23873124D01*
X41302365Y-23874329D01*
X41310048Y-23876000D01*
X42119884Y-23876000D01*
X42135123Y-23871525D01*
X42136328Y-23870135D01*
X42137999Y-23862452D01*
X42137999Y-23607905D01*
X42137662Y-23601386D01*
X42127743Y-23505794D01*
X42124851Y-23492400D01*
X42073412Y-23338216D01*
X42067239Y-23325038D01*
X41981937Y-23187193D01*
X41972901Y-23175792D01*
X41858171Y-23061261D01*
X41846760Y-23052249D01*
X41708757Y-22967184D01*
X41695576Y-22961037D01*
X41541290Y-22909862D01*
X41527914Y-22906995D01*
X41433562Y-22897328D01*
X41427145Y-22897000D01*
X41314615Y-22897000D01*
X41299376Y-22901475D01*
X41298171Y-22902865D01*
X41296500Y-22910548D01*
X41296500Y-23857885D01*
X40788500Y-23857885D01*
X40788500Y-22915116D01*
X40784025Y-22899877D01*
X40782635Y-22898672D01*
X40774952Y-22897001D01*
X40657905Y-22897001D01*
X40651386Y-22897338D01*
X40555794Y-22907257D01*
X40542400Y-22910149D01*
X40388216Y-22961588D01*
X40375038Y-22967761D01*
X40237193Y-23053063D01*
X40225792Y-23062099D01*
X40111262Y-23176828D01*
X40104206Y-23185762D01*
X40046288Y-23226823D01*
X39975365Y-23230053D01*
X39913954Y-23194426D01*
X39907154Y-23186593D01*
X39903478Y-23180652D01*
X39778303Y-23055695D01*
X39680808Y-22995598D01*
X39633968Y-22966725D01*
X39633966Y-22966724D01*
X39627738Y-22962885D01*
X39547995Y-22936436D01*
X39466389Y-22909368D01*
X39466387Y-22909368D01*
X39459861Y-22907203D01*
X39453025Y-22906503D01*
X39453022Y-22906502D01*
X39409969Y-22902091D01*
X39355400Y-22896500D01*
X38579600Y-22896500D01*
X38576354Y-22896837D01*
X38576350Y-22896837D01*
X38480692Y-22906762D01*
X38480688Y-22906763D01*
X38473834Y-22907474D01*
X38467298Y-22909655D01*
X38467296Y-22909655D01*
X38462192Y-22911358D01*
X38306054Y-22963450D01*
X38155652Y-23056522D01*
X38030695Y-23181697D01*
X37937885Y-23332262D01*
X37935498Y-23330790D01*
X37897124Y-23374397D01*
X37828852Y-23393876D01*
X37787550Y-23386579D01*
X37657425Y-23340243D01*
X37657420Y-23340242D01*
X37650790Y-23337881D01*
X37643802Y-23337048D01*
X37643799Y-23337047D01*
X37515462Y-23321744D01*
X37470680Y-23316404D01*
X37463677Y-23317140D01*
X37463676Y-23317140D01*
X37297288Y-23334628D01*
X37297286Y-23334629D01*
X37290288Y-23335364D01*
X37118579Y-23393818D01*
X37112575Y-23397512D01*
X36970095Y-23485166D01*
X36970092Y-23485168D01*
X36964088Y-23488862D01*
X36959053Y-23493793D01*
X36959050Y-23493795D01*
X36842525Y-23607905D01*
X36834493Y-23615771D01*
X36736235Y-23768238D01*
X36733826Y-23774858D01*
X36733824Y-23774861D01*
X36686833Y-23903968D01*
X36674197Y-23938685D01*
X36667137Y-23994569D01*
X36638757Y-24059642D01*
X36631227Y-24067869D01*
X34228908Y-26470187D01*
X34166596Y-26504213D01*
X34152986Y-26506402D01*
X34144210Y-26507324D01*
X34122288Y-26509628D01*
X34122286Y-26509628D01*
X34115288Y-26510364D01*
X33943579Y-26568818D01*
X33923160Y-26581380D01*
X33795095Y-26660166D01*
X33795092Y-26660168D01*
X33789088Y-26663862D01*
X33784053Y-26668793D01*
X33784050Y-26668795D01*
X33664525Y-26785843D01*
X33659493Y-26790771D01*
X33561235Y-26943238D01*
X33558826Y-26949858D01*
X33558824Y-26949861D01*
X33538965Y-27004424D01*
X33499197Y-27113685D01*
X33476463Y-27293640D01*
X25337219Y-27293640D01*
X25340676Y-27286646D01*
X25395136Y-27176453D01*
X25395137Y-27176451D01*
X25397430Y-27171811D01*
X25462370Y-26958069D01*
X25491529Y-26736590D01*
X25493156Y-26670000D01*
X25474852Y-26447361D01*
X25420431Y-26230702D01*
X25331354Y-26025840D01*
X25210014Y-25838277D01*
X25206532Y-25834450D01*
X25062798Y-25676488D01*
X25031746Y-25612642D01*
X25040141Y-25542143D01*
X25085317Y-25487375D01*
X25111761Y-25473706D01*
X25218297Y-25433767D01*
X25226705Y-25430615D01*
X25343261Y-25343261D01*
X25430615Y-25226705D01*
X25481745Y-25090316D01*
X25488500Y-25028134D01*
X25488500Y-24379500D01*
X25508502Y-24311379D01*
X25562158Y-24264886D01*
X25614500Y-24253500D01*
X26453689Y-24253500D01*
X26521810Y-24273502D01*
X26560833Y-24313196D01*
X26626522Y-24419348D01*
X26751697Y-24544305D01*
X26757927Y-24548145D01*
X26757928Y-24548146D01*
X26895090Y-24632694D01*
X26902262Y-24637115D01*
X26950100Y-24652982D01*
X27063611Y-24690632D01*
X27063613Y-24690632D01*
X27070139Y-24692797D01*
X27076975Y-24693497D01*
X27076978Y-24693498D01*
X27120031Y-24697909D01*
X27174600Y-24703500D01*
X27975400Y-24703500D01*
X27978646Y-24703163D01*
X27978650Y-24703163D01*
X28074308Y-24693238D01*
X28074312Y-24693237D01*
X28081166Y-24692526D01*
X28087702Y-24690345D01*
X28087704Y-24690345D01*
X28219806Y-24646272D01*
X28248946Y-24636550D01*
X28399348Y-24543478D01*
X28485784Y-24456891D01*
X28548066Y-24422812D01*
X28618886Y-24427815D01*
X28663975Y-24456736D01*
X28709220Y-24501902D01*
X28751697Y-24544305D01*
X28757927Y-24548145D01*
X28757928Y-24548146D01*
X28895090Y-24632694D01*
X28902262Y-24637115D01*
X28950100Y-24652982D01*
X29063611Y-24690632D01*
X29063613Y-24690632D01*
X29070139Y-24692797D01*
X29076975Y-24693497D01*
X29076978Y-24693498D01*
X29120031Y-24697909D01*
X29174600Y-24703500D01*
X29975400Y-24703500D01*
X29978646Y-24703163D01*
X29978650Y-24703163D01*
X30074308Y-24693238D01*
X30074312Y-24693237D01*
X30081166Y-24692526D01*
X30087702Y-24690345D01*
X30087704Y-24690345D01*
X30219806Y-24646272D01*
X30248946Y-24636550D01*
X30399348Y-24543478D01*
X30524305Y-24418303D01*
X30533223Y-24403835D01*
X30613275Y-24273968D01*
X30613276Y-24273966D01*
X30617115Y-24267738D01*
X30634663Y-24214832D01*
X30675094Y-24156473D01*
X30740658Y-24129236D01*
X30754256Y-24128500D01*
X33743903Y-24128500D01*
X33812896Y-24149068D01*
X33850199Y-24173478D01*
X33923159Y-24221222D01*
X33929763Y-24223678D01*
X33929765Y-24223679D01*
X34086558Y-24281990D01*
X34086560Y-24281990D01*
X34093168Y-24284448D01*
X34176995Y-24295633D01*
X34265980Y-24307507D01*
X34265984Y-24307507D01*
X34272961Y-24308438D01*
X34279972Y-24307800D01*
X34279976Y-24307800D01*
X34422459Y-24294832D01*
X34453600Y-24291998D01*
X34460302Y-24289820D01*
X34460304Y-24289820D01*
X34619409Y-24238124D01*
X34619412Y-24238123D01*
X34626108Y-24235947D01*
X34730901Y-24173478D01*
X34775860Y-24146677D01*
X34775862Y-24146676D01*
X34781912Y-24143069D01*
X34913266Y-24017982D01*
X35013643Y-23866902D01*
X35065701Y-23729861D01*
X35075555Y-23703920D01*
X35075556Y-23703918D01*
X35078055Y-23697338D01*
X35088977Y-23619627D01*
X35102748Y-23521639D01*
X35102748Y-23521636D01*
X35103299Y-23517717D01*
X35103465Y-23505794D01*
X35103561Y-23498962D01*
X35103561Y-23498957D01*
X35103616Y-23495000D01*
X35083397Y-23314745D01*
X35075186Y-23291166D01*
X35026064Y-23150106D01*
X35026062Y-23150103D01*
X35023745Y-23143448D01*
X34927626Y-22989624D01*
X34905915Y-22967761D01*
X34804778Y-22865915D01*
X34804774Y-22865912D01*
X34799815Y-22860918D01*
X34788697Y-22853862D01*
X34684665Y-22787842D01*
X34646666Y-22763727D01*
X34595608Y-22745546D01*
X34482425Y-22705243D01*
X34482420Y-22705242D01*
X34475790Y-22702881D01*
X34468802Y-22702048D01*
X34468799Y-22702047D01*
X34345698Y-22687368D01*
X34295680Y-22681404D01*
X34288677Y-22682140D01*
X34288676Y-22682140D01*
X34122288Y-22699628D01*
X34122286Y-22699629D01*
X34115288Y-22700364D01*
X33943579Y-22758818D01*
X33807039Y-22842819D01*
X33741019Y-22861500D01*
X30754197Y-22861500D01*
X30686076Y-22841498D01*
X30639583Y-22787842D01*
X30634674Y-22775377D01*
X30618867Y-22727998D01*
X30618866Y-22727996D01*
X30616550Y-22721054D01*
X30611131Y-22712296D01*
X30527332Y-22576880D01*
X30523478Y-22570652D01*
X30398303Y-22445695D01*
X30335334Y-22406880D01*
X30253968Y-22356725D01*
X30253966Y-22356724D01*
X30247738Y-22352885D01*
X30131154Y-22314216D01*
X30086389Y-22299368D01*
X30086387Y-22299368D01*
X30079861Y-22297203D01*
X30073025Y-22296503D01*
X30073022Y-22296502D01*
X30029969Y-22292091D01*
X29975400Y-22286500D01*
X29174600Y-22286500D01*
X29171354Y-22286837D01*
X29171350Y-22286837D01*
X29075692Y-22296762D01*
X29075688Y-22296763D01*
X29068834Y-22297474D01*
X29062298Y-22299655D01*
X29062296Y-22299655D01*
X29018652Y-22314216D01*
X28901054Y-22353450D01*
X28750652Y-22446522D01*
X28745479Y-22451704D01*
X28664216Y-22533109D01*
X28601934Y-22567188D01*
X28531114Y-22562185D01*
X28486025Y-22533264D01*
X28403483Y-22450866D01*
X28398303Y-22445695D01*
X28335334Y-22406880D01*
X28253968Y-22356725D01*
X28253966Y-22356724D01*
X28247738Y-22352885D01*
X28131154Y-22314216D01*
X28086389Y-22299368D01*
X28086387Y-22299368D01*
X28079861Y-22297203D01*
X28073025Y-22296503D01*
X28073022Y-22296502D01*
X28029969Y-22292091D01*
X27975400Y-22286500D01*
X27174600Y-22286500D01*
X27171354Y-22286837D01*
X27171350Y-22286837D01*
X27075692Y-22296762D01*
X27075688Y-22296763D01*
X27068834Y-22297474D01*
X27062298Y-22299655D01*
X27062296Y-22299655D01*
X27018652Y-22314216D01*
X26901054Y-22353450D01*
X26750652Y-22446522D01*
X26625695Y-22571697D01*
X26621855Y-22577927D01*
X26621854Y-22577928D01*
X26561022Y-22676616D01*
X26508250Y-22724109D01*
X26453762Y-22736500D01*
X24832070Y-22736500D01*
X24813120Y-22735067D01*
X24798885Y-22732901D01*
X24798881Y-22732901D01*
X24791651Y-22731801D01*
X24784359Y-22732394D01*
X24784356Y-22732394D01*
X24738982Y-22736085D01*
X24728767Y-22736500D01*
X24720707Y-22736500D01*
X24717073Y-22736924D01*
X24717067Y-22736924D01*
X24704042Y-22738443D01*
X24692480Y-22739791D01*
X24688132Y-22740221D01*
X24666059Y-22742016D01*
X24622662Y-22745546D01*
X24622659Y-22745547D01*
X24615364Y-22746140D01*
X24608400Y-22748396D01*
X24602461Y-22749583D01*
X24596591Y-22750970D01*
X24589319Y-22751818D01*
X24582441Y-22754315D01*
X24582431Y-22754317D01*
X24555927Y-22763938D01*
X24512935Y-22771500D01*
X23231866Y-22771500D01*
X23169684Y-22778255D01*
X23033295Y-22829385D01*
X22916739Y-22916739D01*
X22829385Y-23033295D01*
X22778255Y-23169684D01*
X22771500Y-23231866D01*
X22771500Y-25028134D01*
X22778255Y-25090316D01*
X22829385Y-25226705D01*
X22916739Y-25343261D01*
X23033295Y-25430615D01*
X23041704Y-25433767D01*
X23041705Y-25433768D01*
X23150451Y-25474535D01*
X23207216Y-25517176D01*
X23231916Y-25583738D01*
X23216709Y-25653087D01*
X23197316Y-25679568D01*
X23070629Y-25812138D01*
X22944743Y-25996680D01*
X22909015Y-26073650D01*
X22861429Y-26176166D01*
X22850688Y-26199305D01*
X22790989Y-26414570D01*
X22767251Y-26636695D01*
X13843500Y-26636695D01*
X13843500Y-24652095D01*
X14377001Y-24652095D01*
X14377338Y-24658614D01*
X14387257Y-24754206D01*
X14390149Y-24767600D01*
X14441588Y-24921784D01*
X14447761Y-24934962D01*
X14533063Y-25072807D01*
X14542099Y-25084208D01*
X14656829Y-25198739D01*
X14668240Y-25207751D01*
X14806243Y-25292816D01*
X14819424Y-25298963D01*
X14973710Y-25350138D01*
X14987086Y-25353005D01*
X15081438Y-25362672D01*
X15087854Y-25363000D01*
X15200385Y-25363000D01*
X15215624Y-25358525D01*
X15216829Y-25357135D01*
X15218500Y-25349452D01*
X15218500Y-25344884D01*
X15726500Y-25344884D01*
X15730975Y-25360123D01*
X15732365Y-25361328D01*
X15740048Y-25362999D01*
X15857095Y-25362999D01*
X15863614Y-25362662D01*
X15959206Y-25352743D01*
X15972600Y-25349851D01*
X16126784Y-25298412D01*
X16139962Y-25292239D01*
X16277807Y-25206937D01*
X16289208Y-25197901D01*
X16403738Y-25083172D01*
X16410794Y-25074238D01*
X16468712Y-25033177D01*
X16539635Y-25029947D01*
X16601046Y-25065574D01*
X16607846Y-25073407D01*
X16611522Y-25079348D01*
X16736697Y-25204305D01*
X16742927Y-25208145D01*
X16742928Y-25208146D01*
X16880288Y-25292816D01*
X16887262Y-25297115D01*
X16950024Y-25317932D01*
X17048611Y-25350632D01*
X17048613Y-25350632D01*
X17055139Y-25352797D01*
X17061975Y-25353497D01*
X17061978Y-25353498D01*
X17105031Y-25357909D01*
X17159600Y-25363500D01*
X17935400Y-25363500D01*
X17938646Y-25363163D01*
X17938650Y-25363163D01*
X18034308Y-25353238D01*
X18034312Y-25353237D01*
X18041166Y-25352526D01*
X18047702Y-25350345D01*
X18047704Y-25350345D01*
X18199540Y-25299688D01*
X18208946Y-25296550D01*
X18359348Y-25203478D01*
X18484305Y-25078303D01*
X18553020Y-24966827D01*
X18605792Y-24919334D01*
X18621344Y-24913110D01*
X18744409Y-24873124D01*
X18744412Y-24873123D01*
X18751108Y-24870947D01*
X18906912Y-24778069D01*
X19038266Y-24652982D01*
X19138643Y-24501902D01*
X19182338Y-24386876D01*
X19200555Y-24338920D01*
X19200556Y-24338918D01*
X19203055Y-24332338D01*
X19204035Y-24325366D01*
X19227748Y-24156639D01*
X19227748Y-24156636D01*
X19228299Y-24152717D01*
X19228452Y-24141738D01*
X19228561Y-24133962D01*
X19228561Y-24133957D01*
X19228616Y-24130000D01*
X19208397Y-23949745D01*
X19206080Y-23943091D01*
X19151064Y-23785106D01*
X19151062Y-23785103D01*
X19148745Y-23778448D01*
X19052626Y-23624624D01*
X19038941Y-23610843D01*
X18929778Y-23500915D01*
X18929774Y-23500912D01*
X18924815Y-23495918D01*
X18917164Y-23491062D01*
X18849464Y-23448099D01*
X18771666Y-23398727D01*
X18616744Y-23343562D01*
X18559279Y-23301868D01*
X18551866Y-23291166D01*
X18512050Y-23226823D01*
X18483478Y-23180652D01*
X18358303Y-23055695D01*
X18260808Y-22995598D01*
X18213968Y-22966725D01*
X18213966Y-22966724D01*
X18207738Y-22962885D01*
X18127995Y-22936436D01*
X18046389Y-22909368D01*
X18046387Y-22909368D01*
X18039861Y-22907203D01*
X18033025Y-22906503D01*
X18033022Y-22906502D01*
X17989969Y-22902091D01*
X17935400Y-22896500D01*
X17159600Y-22896500D01*
X17156354Y-22896837D01*
X17156350Y-22896837D01*
X17060692Y-22906762D01*
X17060688Y-22906763D01*
X17053834Y-22907474D01*
X17047298Y-22909655D01*
X17047296Y-22909655D01*
X17042192Y-22911358D01*
X16886054Y-22963450D01*
X16735652Y-23056522D01*
X16610695Y-23181697D01*
X16607898Y-23186235D01*
X16550647Y-23226824D01*
X16479724Y-23230054D01*
X16418313Y-23194428D01*
X16410938Y-23185932D01*
X16402902Y-23175793D01*
X16288171Y-23061261D01*
X16276760Y-23052249D01*
X16138757Y-22967184D01*
X16125576Y-22961037D01*
X15971290Y-22909862D01*
X15957914Y-22906995D01*
X15863562Y-22897328D01*
X15857145Y-22897000D01*
X15744615Y-22897000D01*
X15729376Y-22901475D01*
X15728171Y-22902865D01*
X15726500Y-22910548D01*
X15726500Y-25344884D01*
X15218500Y-25344884D01*
X15218500Y-24402115D01*
X15214025Y-24386876D01*
X15212635Y-24385671D01*
X15204952Y-24384000D01*
X14395116Y-24384000D01*
X14379877Y-24388475D01*
X14378672Y-24389865D01*
X14377001Y-24397548D01*
X14377001Y-24652095D01*
X13843500Y-24652095D01*
X13843500Y-23857885D01*
X14377000Y-23857885D01*
X14381475Y-23873124D01*
X14382865Y-23874329D01*
X14390548Y-23876000D01*
X15200385Y-23876000D01*
X15215624Y-23871525D01*
X15216829Y-23870135D01*
X15218500Y-23862452D01*
X15218500Y-22915116D01*
X15214025Y-22899877D01*
X15212635Y-22898672D01*
X15204952Y-22897001D01*
X15087905Y-22897001D01*
X15081386Y-22897338D01*
X14985794Y-22907257D01*
X14972400Y-22910149D01*
X14818216Y-22961588D01*
X14805038Y-22967761D01*
X14667193Y-23053063D01*
X14655792Y-23062099D01*
X14541261Y-23176829D01*
X14532249Y-23188240D01*
X14447184Y-23326243D01*
X14441037Y-23339424D01*
X14389862Y-23493710D01*
X14386995Y-23507086D01*
X14377328Y-23601438D01*
X14377000Y-23607855D01*
X14377000Y-23857885D01*
X13843500Y-23857885D01*
X13843500Y-17198250D01*
X13845246Y-17177345D01*
X13847770Y-17162344D01*
X13847770Y-17162341D01*
X13848576Y-17157552D01*
X13848729Y-17145000D01*
X15531526Y-17145000D01*
X15551391Y-17397403D01*
X15552545Y-17402210D01*
X15552546Y-17402216D01*
X15570672Y-17477715D01*
X15610495Y-17643591D01*
X15612388Y-17648162D01*
X15612389Y-17648164D01*
X15705003Y-17871753D01*
X15707384Y-17877502D01*
X15839672Y-18093376D01*
X16004102Y-18285898D01*
X16196624Y-18450328D01*
X16412498Y-18582616D01*
X16417068Y-18584509D01*
X16417072Y-18584511D01*
X16641836Y-18677611D01*
X16646409Y-18679505D01*
X16731032Y-18699821D01*
X16887784Y-18737454D01*
X16887790Y-18737455D01*
X16892597Y-18738609D01*
X16992416Y-18746465D01*
X17079345Y-18753307D01*
X17079352Y-18753307D01*
X17081801Y-18753500D01*
X17208199Y-18753500D01*
X17210648Y-18753307D01*
X17210655Y-18753307D01*
X17297584Y-18746465D01*
X17397403Y-18738609D01*
X17402210Y-18737455D01*
X17402216Y-18737454D01*
X17558968Y-18699821D01*
X17643591Y-18679505D01*
X17648164Y-18677611D01*
X17872928Y-18584511D01*
X17872932Y-18584509D01*
X17877502Y-18582616D01*
X18093376Y-18450328D01*
X18285898Y-18285898D01*
X18450328Y-18093376D01*
X18582616Y-17877502D01*
X18584998Y-17871753D01*
X18677611Y-17648164D01*
X18677612Y-17648162D01*
X18679505Y-17643591D01*
X18719328Y-17477715D01*
X18736033Y-17408134D01*
X25311500Y-17408134D01*
X25318255Y-17470316D01*
X25369385Y-17606705D01*
X25456739Y-17723261D01*
X25573295Y-17810615D01*
X25709684Y-17861745D01*
X25771866Y-17868500D01*
X27568134Y-17868500D01*
X27630316Y-17861745D01*
X27766705Y-17810615D01*
X27883261Y-17723261D01*
X27970615Y-17606705D01*
X28014798Y-17488848D01*
X28057440Y-17432084D01*
X28124001Y-17407384D01*
X28193350Y-17422592D01*
X28228017Y-17450580D01*
X28253218Y-17479673D01*
X28260580Y-17486883D01*
X28424434Y-17622916D01*
X28432881Y-17628831D01*
X28616756Y-17736279D01*
X28626042Y-17740729D01*
X28825001Y-17816703D01*
X28834899Y-17819579D01*
X28938250Y-17840606D01*
X28952299Y-17839410D01*
X28956000Y-17829065D01*
X28956000Y-17828517D01*
X29464000Y-17828517D01*
X29468064Y-17842359D01*
X29481478Y-17844393D01*
X29488184Y-17843534D01*
X29498262Y-17841392D01*
X29702255Y-17780191D01*
X29711842Y-17776433D01*
X29903095Y-17682739D01*
X29911945Y-17677464D01*
X30085328Y-17553792D01*
X30093200Y-17547139D01*
X30244052Y-17396812D01*
X30250730Y-17388965D01*
X30378022Y-17211819D01*
X30379279Y-17212722D01*
X30426373Y-17169362D01*
X30496311Y-17157145D01*
X30561751Y-17184678D01*
X30589579Y-17216511D01*
X30649987Y-17315088D01*
X30796250Y-17483938D01*
X30968126Y-17626632D01*
X31161000Y-17739338D01*
X31369692Y-17819030D01*
X31374760Y-17820061D01*
X31374763Y-17820062D01*
X31469862Y-17839410D01*
X31588597Y-17863567D01*
X31593772Y-17863757D01*
X31593774Y-17863757D01*
X31806673Y-17871564D01*
X31806677Y-17871564D01*
X31811837Y-17871753D01*
X31816957Y-17871097D01*
X31816959Y-17871097D01*
X32028288Y-17844025D01*
X32028289Y-17844025D01*
X32033416Y-17843368D01*
X32038366Y-17841883D01*
X32242429Y-17780661D01*
X32242434Y-17780659D01*
X32247384Y-17779174D01*
X32447994Y-17680896D01*
X32629860Y-17551173D01*
X32788096Y-17393489D01*
X32918453Y-17212077D01*
X32919776Y-17213028D01*
X32966645Y-17169857D01*
X33036580Y-17157625D01*
X33102026Y-17185144D01*
X33129875Y-17216994D01*
X33189987Y-17315088D01*
X33336250Y-17483938D01*
X33508126Y-17626632D01*
X33701000Y-17739338D01*
X33909692Y-17819030D01*
X33914760Y-17820061D01*
X33914763Y-17820062D01*
X34009862Y-17839410D01*
X34128597Y-17863567D01*
X34133772Y-17863757D01*
X34133774Y-17863757D01*
X34346673Y-17871564D01*
X34346677Y-17871564D01*
X34351837Y-17871753D01*
X34356957Y-17871097D01*
X34356959Y-17871097D01*
X34568288Y-17844025D01*
X34568289Y-17844025D01*
X34573416Y-17843368D01*
X34578366Y-17841883D01*
X34782429Y-17780661D01*
X34782434Y-17780659D01*
X34787384Y-17779174D01*
X34987994Y-17680896D01*
X35169860Y-17551173D01*
X35328096Y-17393489D01*
X35458453Y-17212077D01*
X35459776Y-17213028D01*
X35506645Y-17169857D01*
X35576580Y-17157625D01*
X35642026Y-17185144D01*
X35669875Y-17216994D01*
X35729987Y-17315088D01*
X35876250Y-17483938D01*
X36048126Y-17626632D01*
X36241000Y-17739338D01*
X36449692Y-17819030D01*
X36454760Y-17820061D01*
X36454763Y-17820062D01*
X36549862Y-17839410D01*
X36668597Y-17863567D01*
X36673772Y-17863757D01*
X36673774Y-17863757D01*
X36886673Y-17871564D01*
X36886677Y-17871564D01*
X36891837Y-17871753D01*
X36896957Y-17871097D01*
X36896959Y-17871097D01*
X37108288Y-17844025D01*
X37108289Y-17844025D01*
X37113416Y-17843368D01*
X37118366Y-17841883D01*
X37322429Y-17780661D01*
X37322434Y-17780659D01*
X37327384Y-17779174D01*
X37527994Y-17680896D01*
X37709860Y-17551173D01*
X37868096Y-17393489D01*
X37998453Y-17212077D01*
X37999776Y-17213028D01*
X38046645Y-17169857D01*
X38116580Y-17157625D01*
X38182026Y-17185144D01*
X38209875Y-17216994D01*
X38269987Y-17315088D01*
X38416250Y-17483938D01*
X38588126Y-17626632D01*
X38781000Y-17739338D01*
X38989692Y-17819030D01*
X38994760Y-17820061D01*
X38994763Y-17820062D01*
X39089862Y-17839410D01*
X39208597Y-17863567D01*
X39213772Y-17863757D01*
X39213774Y-17863757D01*
X39426673Y-17871564D01*
X39426677Y-17871564D01*
X39431837Y-17871753D01*
X39436957Y-17871097D01*
X39436959Y-17871097D01*
X39648288Y-17844025D01*
X39648289Y-17844025D01*
X39653416Y-17843368D01*
X39658366Y-17841883D01*
X39862429Y-17780661D01*
X39862434Y-17780659D01*
X39867384Y-17779174D01*
X40067994Y-17680896D01*
X40249860Y-17551173D01*
X40408096Y-17393489D01*
X40538453Y-17212077D01*
X40550490Y-17187723D01*
X40571605Y-17145000D01*
X46646526Y-17145000D01*
X46666391Y-17397403D01*
X46667545Y-17402210D01*
X46667546Y-17402216D01*
X46685672Y-17477715D01*
X46725495Y-17643591D01*
X46727388Y-17648162D01*
X46727389Y-17648164D01*
X46820003Y-17871753D01*
X46822384Y-17877502D01*
X46954672Y-18093376D01*
X47119102Y-18285898D01*
X47311624Y-18450328D01*
X47527498Y-18582616D01*
X47532068Y-18584509D01*
X47532072Y-18584511D01*
X47756836Y-18677611D01*
X47761409Y-18679505D01*
X47846032Y-18699821D01*
X48002784Y-18737454D01*
X48002790Y-18737455D01*
X48007597Y-18738609D01*
X48107416Y-18746465D01*
X48194345Y-18753307D01*
X48194352Y-18753307D01*
X48196801Y-18753500D01*
X48323199Y-18753500D01*
X48325648Y-18753307D01*
X48325655Y-18753307D01*
X48412584Y-18746465D01*
X48512403Y-18738609D01*
X48517210Y-18737455D01*
X48517216Y-18737454D01*
X48673968Y-18699821D01*
X48758591Y-18679505D01*
X48763164Y-18677611D01*
X48987928Y-18584511D01*
X48987932Y-18584509D01*
X48992502Y-18582616D01*
X49208376Y-18450328D01*
X49400898Y-18285898D01*
X49565328Y-18093376D01*
X49697616Y-17877502D01*
X49699998Y-17871753D01*
X49792611Y-17648164D01*
X49792612Y-17648162D01*
X49794505Y-17643591D01*
X49834328Y-17477715D01*
X49852454Y-17402216D01*
X49852455Y-17402210D01*
X49853609Y-17397403D01*
X49873474Y-17145000D01*
X49853609Y-16892597D01*
X49832105Y-16803023D01*
X49814821Y-16731032D01*
X49794505Y-16646409D01*
X49792611Y-16641836D01*
X49699511Y-16417072D01*
X49699509Y-16417068D01*
X49697616Y-16412498D01*
X49565328Y-16196624D01*
X49400898Y-16004102D01*
X49208376Y-15839672D01*
X48992502Y-15707384D01*
X48987932Y-15705491D01*
X48987928Y-15705489D01*
X48763164Y-15612389D01*
X48763162Y-15612388D01*
X48758591Y-15610495D01*
X48645361Y-15583311D01*
X48517216Y-15552546D01*
X48517210Y-15552545D01*
X48512403Y-15551391D01*
X48396703Y-15542285D01*
X48325655Y-15536693D01*
X48325648Y-15536693D01*
X48323199Y-15536500D01*
X48196801Y-15536500D01*
X48194352Y-15536693D01*
X48194345Y-15536693D01*
X48123297Y-15542285D01*
X48007597Y-15551391D01*
X48002790Y-15552545D01*
X48002784Y-15552546D01*
X47874639Y-15583311D01*
X47761409Y-15610495D01*
X47756838Y-15612388D01*
X47756836Y-15612389D01*
X47532072Y-15705489D01*
X47532068Y-15705491D01*
X47527498Y-15707384D01*
X47311624Y-15839672D01*
X47119102Y-16004102D01*
X46954672Y-16196624D01*
X46822384Y-16412498D01*
X46820491Y-16417068D01*
X46820489Y-16417072D01*
X46727389Y-16641836D01*
X46725495Y-16646409D01*
X46705179Y-16731032D01*
X46687896Y-16803023D01*
X46666391Y-16892597D01*
X46646526Y-17145000D01*
X40571605Y-17145000D01*
X40635136Y-17016453D01*
X40635137Y-17016451D01*
X40637430Y-17011811D01*
X40675112Y-16887784D01*
X40700865Y-16803023D01*
X40700865Y-16803021D01*
X40702370Y-16798069D01*
X40731529Y-16576590D01*
X40733156Y-16510000D01*
X40714852Y-16287361D01*
X40660431Y-16070702D01*
X40571354Y-15865840D01*
X40468844Y-15707384D01*
X40452822Y-15682617D01*
X40452820Y-15682614D01*
X40450014Y-15678277D01*
X40299670Y-15513051D01*
X40295619Y-15509852D01*
X40295615Y-15509848D01*
X40128414Y-15377800D01*
X40128410Y-15377798D01*
X40124359Y-15374598D01*
X40088028Y-15354542D01*
X40072136Y-15345769D01*
X39928789Y-15266638D01*
X39923920Y-15264914D01*
X39923916Y-15264912D01*
X39723087Y-15193795D01*
X39723083Y-15193794D01*
X39718212Y-15192069D01*
X39713119Y-15191162D01*
X39713116Y-15191161D01*
X39503373Y-15153800D01*
X39503367Y-15153799D01*
X39498284Y-15152894D01*
X39424452Y-15151992D01*
X39280081Y-15150228D01*
X39280079Y-15150228D01*
X39274911Y-15150165D01*
X39054091Y-15183955D01*
X38841756Y-15253357D01*
X38643607Y-15356507D01*
X38639474Y-15359610D01*
X38639471Y-15359612D01*
X38469100Y-15487530D01*
X38464965Y-15490635D01*
X38310629Y-15652138D01*
X38203201Y-15809621D01*
X38148293Y-15854621D01*
X38077768Y-15862792D01*
X38014021Y-15831538D01*
X37993324Y-15807054D01*
X37912822Y-15682617D01*
X37912820Y-15682614D01*
X37910014Y-15678277D01*
X37759670Y-15513051D01*
X37755619Y-15509852D01*
X37755615Y-15509848D01*
X37588414Y-15377800D01*
X37588410Y-15377798D01*
X37584359Y-15374598D01*
X37548028Y-15354542D01*
X37532136Y-15345769D01*
X37388789Y-15266638D01*
X37383920Y-15264914D01*
X37383916Y-15264912D01*
X37183087Y-15193795D01*
X37183083Y-15193794D01*
X37178212Y-15192069D01*
X37173119Y-15191162D01*
X37173116Y-15191161D01*
X36963373Y-15153800D01*
X36963367Y-15153799D01*
X36958284Y-15152894D01*
X36884452Y-15151992D01*
X36740081Y-15150228D01*
X36740079Y-15150228D01*
X36734911Y-15150165D01*
X36514091Y-15183955D01*
X36301756Y-15253357D01*
X36103607Y-15356507D01*
X36099474Y-15359610D01*
X36099471Y-15359612D01*
X35929100Y-15487530D01*
X35924965Y-15490635D01*
X35770629Y-15652138D01*
X35663201Y-15809621D01*
X35608293Y-15854621D01*
X35537768Y-15862792D01*
X35474021Y-15831538D01*
X35453324Y-15807054D01*
X35372822Y-15682617D01*
X35372820Y-15682614D01*
X35370014Y-15678277D01*
X35219670Y-15513051D01*
X35215619Y-15509852D01*
X35215615Y-15509848D01*
X35048414Y-15377800D01*
X35048410Y-15377798D01*
X35044359Y-15374598D01*
X35008028Y-15354542D01*
X34992136Y-15345769D01*
X34848789Y-15266638D01*
X34843920Y-15264914D01*
X34843916Y-15264912D01*
X34643087Y-15193795D01*
X34643083Y-15193794D01*
X34638212Y-15192069D01*
X34633119Y-15191162D01*
X34633116Y-15191161D01*
X34423373Y-15153800D01*
X34423367Y-15153799D01*
X34418284Y-15152894D01*
X34344452Y-15151992D01*
X34200081Y-15150228D01*
X34200079Y-15150228D01*
X34194911Y-15150165D01*
X33974091Y-15183955D01*
X33761756Y-15253357D01*
X33563607Y-15356507D01*
X33559474Y-15359610D01*
X33559471Y-15359612D01*
X33389100Y-15487530D01*
X33384965Y-15490635D01*
X33230629Y-15652138D01*
X33123201Y-15809621D01*
X33068293Y-15854621D01*
X32997768Y-15862792D01*
X32934021Y-15831538D01*
X32913324Y-15807054D01*
X32832822Y-15682617D01*
X32832820Y-15682614D01*
X32830014Y-15678277D01*
X32679670Y-15513051D01*
X32675619Y-15509852D01*
X32675615Y-15509848D01*
X32508414Y-15377800D01*
X32508410Y-15377798D01*
X32504359Y-15374598D01*
X32468028Y-15354542D01*
X32452136Y-15345769D01*
X32308789Y-15266638D01*
X32303920Y-15264914D01*
X32303916Y-15264912D01*
X32103087Y-15193795D01*
X32103083Y-15193794D01*
X32098212Y-15192069D01*
X32093119Y-15191162D01*
X32093116Y-15191161D01*
X31883373Y-15153800D01*
X31883367Y-15153799D01*
X31878284Y-15152894D01*
X31804452Y-15151992D01*
X31660081Y-15150228D01*
X31660079Y-15150228D01*
X31654911Y-15150165D01*
X31434091Y-15183955D01*
X31221756Y-15253357D01*
X31023607Y-15356507D01*
X31019474Y-15359610D01*
X31019471Y-15359612D01*
X30849100Y-15487530D01*
X30844965Y-15490635D01*
X30690629Y-15652138D01*
X30583204Y-15809618D01*
X30582898Y-15810066D01*
X30527987Y-15855069D01*
X30457462Y-15863240D01*
X30393715Y-15831986D01*
X30373018Y-15807502D01*
X30292426Y-15682926D01*
X30286136Y-15674757D01*
X30142806Y-15517240D01*
X30135273Y-15510215D01*
X29968139Y-15378222D01*
X29959552Y-15372517D01*
X29773117Y-15269599D01*
X29763705Y-15265369D01*
X29562959Y-15194280D01*
X29552988Y-15191646D01*
X29481837Y-15178972D01*
X29468540Y-15180432D01*
X29464000Y-15194989D01*
X29464000Y-17828517D01*
X28956000Y-17828517D01*
X28956000Y-15193102D01*
X28952082Y-15179758D01*
X28937806Y-15177771D01*
X28899324Y-15183660D01*
X28889288Y-15186051D01*
X28686868Y-15252212D01*
X28677359Y-15256209D01*
X28488463Y-15354542D01*
X28479738Y-15360036D01*
X28309433Y-15487905D01*
X28301726Y-15494748D01*
X28224478Y-15575584D01*
X28162954Y-15611014D01*
X28092042Y-15607557D01*
X28034255Y-15566311D01*
X28015402Y-15532763D01*
X27973767Y-15421703D01*
X27970615Y-15413295D01*
X27883261Y-15296739D01*
X27766705Y-15209385D01*
X27630316Y-15158255D01*
X27568134Y-15151500D01*
X25771866Y-15151500D01*
X25709684Y-15158255D01*
X25573295Y-15209385D01*
X25456739Y-15296739D01*
X25369385Y-15413295D01*
X25318255Y-15549684D01*
X25311500Y-15611866D01*
X25311500Y-17408134D01*
X18736033Y-17408134D01*
X18737454Y-17402216D01*
X18737455Y-17402210D01*
X18738609Y-17397403D01*
X18758474Y-17145000D01*
X18738609Y-16892597D01*
X18717105Y-16803023D01*
X18699821Y-16731032D01*
X18679505Y-16646409D01*
X18677611Y-16641836D01*
X18584511Y-16417072D01*
X18584509Y-16417068D01*
X18582616Y-16412498D01*
X18450328Y-16196624D01*
X18285898Y-16004102D01*
X18093376Y-15839672D01*
X17877502Y-15707384D01*
X17872932Y-15705491D01*
X17872928Y-15705489D01*
X17648164Y-15612389D01*
X17648162Y-15612388D01*
X17643591Y-15610495D01*
X17530361Y-15583311D01*
X17402216Y-15552546D01*
X17402210Y-15552545D01*
X17397403Y-15551391D01*
X17281703Y-15542285D01*
X17210655Y-15536693D01*
X17210648Y-15536693D01*
X17208199Y-15536500D01*
X17081801Y-15536500D01*
X17079352Y-15536693D01*
X17079345Y-15536693D01*
X17008297Y-15542285D01*
X16892597Y-15551391D01*
X16887790Y-15552545D01*
X16887784Y-15552546D01*
X16759639Y-15583311D01*
X16646409Y-15610495D01*
X16641838Y-15612388D01*
X16641836Y-15612389D01*
X16417072Y-15705489D01*
X16417068Y-15705491D01*
X16412498Y-15707384D01*
X16196624Y-15839672D01*
X16004102Y-16004102D01*
X15839672Y-16196624D01*
X15707384Y-16412498D01*
X15705491Y-16417068D01*
X15705489Y-16417072D01*
X15612389Y-16641836D01*
X15610495Y-16646409D01*
X15590179Y-16731032D01*
X15572896Y-16803023D01*
X15551391Y-16892597D01*
X15531526Y-17145000D01*
X13848729Y-17145000D01*
X13848023Y-17140070D01*
X13846644Y-17130437D01*
X13845545Y-17105983D01*
X13861240Y-16806500D01*
X13862618Y-16793383D01*
X13897486Y-16573240D01*
X13914613Y-16465102D01*
X13917355Y-16452202D01*
X13984707Y-16200838D01*
X14003380Y-16131152D01*
X14007455Y-16118610D01*
X14025846Y-16070702D01*
X14126562Y-15808328D01*
X14131926Y-15796280D01*
X14282820Y-15500133D01*
X14289414Y-15488712D01*
X14470437Y-15209960D01*
X14478190Y-15199290D01*
X14687352Y-14940996D01*
X14696177Y-14931195D01*
X14931195Y-14696177D01*
X14940996Y-14687352D01*
X15199290Y-14478190D01*
X15209960Y-14470437D01*
X15488712Y-14289414D01*
X15500133Y-14282820D01*
X15796280Y-14131926D01*
X15808328Y-14126562D01*
X15847532Y-14111513D01*
X16118618Y-14007453D01*
X16131154Y-14003379D01*
X16452202Y-13917355D01*
X16465102Y-13914613D01*
X16793383Y-13862618D01*
X16806499Y-13861240D01*
X16840152Y-13859476D01*
X17102298Y-13845738D01*
X17128273Y-13847065D01*
X17129843Y-13847309D01*
X17129849Y-13847309D01*
X17138724Y-13848691D01*
X17147626Y-13847527D01*
X17147628Y-13847527D01*
X17162677Y-13845559D01*
X17170286Y-13844564D01*
X17186621Y-13843500D01*
X48210633Y-13843500D01*
X48230018Y-13845000D01*
G37*
G04 #@! TD.AperFunction*
M02*
