M48
; DRILL file {KiCad (6.0.7)} date Fri Aug 26 11:02:44 2022
; FORMAT={-:-/ absolute / metric / decimal}
; #@! TF.CreationDate,2022-08-26T11:02:44+03:00
; #@! TF.GenerationSoftware,Kicad,Pcbnew,(6.0.7)
; #@! TF.FileFunction,Plated,1,2,PTH
FMAT,2
METRIC
; #@! TA.AperFunction,Plated,PTH,ViaDrill
T1C0.300
; #@! TA.AperFunction,Plated,PTH,ComponentDrill
T2C1.000
; #@! TA.AperFunction,Plated,PTH,ComponentDrill
T3C1.300
%
G90
G05
T1
X14.605Y-43.18
X14.605Y-45.72
X14.605Y-48.26
X15.472Y-25.351
X15.875Y-44.45
X15.875Y-46.99
X16.51Y-32.385
X17.145Y-31.75
X17.145Y-43.18
X17.145Y-45.72
X17.145Y-48.26
X17.78Y-31.115
X17.78Y-36.83
X18.415Y-24.13
X19.685Y-14.605
X19.685Y-17.145
X19.685Y-22.86
X19.685Y-24.13
X19.685Y-25.4
X19.685Y-29.845
X20.32Y-29.845
X20.955Y-15.875
X20.955Y-23.495
X20.955Y-24.765
X20.955Y-29.845
X20.955Y-36.83
X21.59Y-37.465
X22.225Y-14.605
X22.225Y-17.145
X22.225Y-36.83
X22.225Y-38.1
X22.225Y-39.37
X23.495Y-15.875
X23.495Y-38.1
X23.495Y-39.37
X24.13Y-31.75
X24.13Y-38.735
X24.765Y-14.605
X24.765Y-17.145
X24.765Y-33.02
X25.4Y-31.75
X26.035Y-33.02
X26.035Y-38.735
X26.035Y-39.37
X26.67Y-31.75
X26.972Y-34.552
X26.975Y-39.057
X27.305Y-33.02
X27.361Y-39.805
X27.94Y-31.75
X28.567Y-27.707
X31.245Y-27.94
X32.394Y-30.606
X33.02Y-43.815
X33.295Y-30.611
X34.29Y-23.495
X34.29Y-27.305
X34.29Y-45.085
X35.56Y-43.815
X35.56Y-46.355
X36.83Y-33.02
X36.83Y-45.085
X36.83Y-47.625
X37.465Y-24.13
X38.1Y-33.02
X38.1Y-43.815
X38.1Y-46.355
X38.1Y-48.895
X38.735Y-31.75
X39.37Y-33.02
X40.005Y-31.75
X40.64Y-33.02
X41.275Y-31.75
X41.275Y-39.37
X41.91Y-38.1
X42.545Y-36.83
X42.545Y-39.37
X43.18Y-20.955
X43.18Y-38.1
X43.815Y-36.83
X45.72Y-46.355
X45.72Y-48.895
X46.99Y-47.625
X48.26Y-46.355
X48.26Y-48.26
X49.53Y-47.625
X50.8Y-20.955
X50.8Y-22.225
X50.8Y-46.355
X50.8Y-48.895
T2
X24.13Y-24.13
X24.13Y-26.67
X24.13Y-29.21
X26.67Y-16.51
X29.21Y-16.51
X31.75Y-16.51
X34.29Y-16.51
X36.83Y-16.51
X39.37Y-16.51
T3
X18.915Y-34.33
X18.915Y-39.33
X24.265Y-46.395
X24.265Y-51.395
X46.49Y-34.33
X46.49Y-39.33
T0
M30
